<svg xmlns="http://www.w3.org/2000/svg" viewBox="0 0 401.51 631.27">
  <defs>
    <style>
      .cls-1, .cls-3, .cls-7 {
        fill: #0b8261;
      }

      .cls-1 {
        opacity: 0.7;
      }

      .cls-2, .cls-4 {
        fill: none;
      }

      .cls-2, .cls-3, .cls-4, .cls-7 {
        stroke: #7fbdad;
      }

      .cls-2, .cls-7, .cls-8 {
        stroke-miterlimit: 10;
        stroke-width: 1.35px;
      }

      .cls-10, .cls-12, .cls-3, .cls-4, .cls-6 {
        stroke-miterlimit: 10;
      }

      .cls-12, .cls-3, .cls-4 {
        stroke-width: 1.35px;
      }

      .cls-5, .cls-6 {
        fill: #fff;
      }

      .cls-10, .cls-12, .cls-6, .cls-8 {
        stroke: #fff;
      }
      .cls-62 {
        stroke:#fff;
      }

      .cls-6 {
        stroke-width: 0.26px;
      }

      .cls-7 {
        opacity: 0.5;
      }

      .cls-10, .cls-12, .cls-13, .cls-8 {
        fill: #7fbdad;
      }

      .cls-9 {
        isolation: isolate;
        font-size: 13.57px;
        font-family: Oswald-Regular, Oswald;
      }

      .cls-11, .cls-9 {
        fill: #1e3853;
      }

      .cls-10 {
        stroke-width: 1.31px;
      }
      .cls-63 {
        fill: none;
      }

      .cls-14 {
        fill: #9ec2b4;
      }
    </style>
  </defs>
  <g id="Layer_2" data-name="Layer 2">
    <g id="trial4">
      <g id="Layer_9" data-name="Layer 9">
        <g>
          <polygon id="buildingOutline" class="cls-62 cls-63" points="81.53 631.27 80.92 630.97 0 591.37 17.87 554.77 66.53 535.04 143.23 378.47 120.6 367.03 120.9 366.43 171.9 263.86 185.08 270.37 324.92 0 362.15 0 362.15 459.27 340.77 448.77 340.77 448.77 340.16 448.48 218.96 388.61 239.24 347.55 176.08 315.87 154.67 358.27 203.17 382 116.69 559.13 116.41 559.74 81.53 631.27"/>
          <polygon id="buildingFill" class="cls-1" points="81.53 631.27 80.92 630.97 0 591.37 17.87 554.77 66.53 535.04 143.23 378.47 120.6 367.03 120.9 366.43 171.9 263.86 185.08 270.37 324.92 0 362.15 0 362.15 459.27 340.77 448.77 340.77 448.77 340.16 448.48 218.96 388.61 239.24 347.55 176.08 315.87 154.67 358.27 203.17 382 116.69 559.13 116.41 559.74 81.53 631.27"/>
          <rect class="cls-2" x="116.86" y="467.04" width="18.16" height="14.14" transform="translate(-355.47 379.8) rotate(-64.04)"/>
          <rect class="cls-2" x="132.33" y="474.57" width="18.16" height="14.14" transform="translate(-353.54 397.95) rotate(-64.04)"/>
          <rect class="cls-2" x="100.8" y="509.75" width="18.67" height="31.7" transform="translate(-410.64 394.55) rotate(-64.04)"/>
          <rect class="cls-2" x="170.94" y="368.54" width="15.71" height="31.7" transform="translate(-245.07 376.88) rotate(-64.04)"/>
          <rect class="cls-2" x="162.7" y="385.45" width="15.71" height="31.7" transform="translate(-264.91 378.98) rotate(-64.04)"/>
          <rect class="cls-2" x="154.47" y="402.36" width="15.71" height="31.7" transform="translate(-284.74 381.09) rotate(-64.04)"/>
          <g id="spareRoom-Right">
            <rect class="cls-3" x="324.69" y="123.62" width="31.39" height="10.79"/>
          </g>
          <g id="left-third">
            <polygon class="cls-3" points="289.07 196.25 242.86 172.34 255.92 147.1 289.07 164.56 289.07 196.25"/>
          </g>
          <g id="left-second">
            <polygon class="cls-3" points="289.05 159.99 257.72 143.67 267.99 123.81 289.07 134.77 289.05 159.99"/>
          </g>
          <g id="left-top">
            <polygon class="cls-3" points="289.18 131.11 269.59 120.86 276.25 108 289.19 114.85 289.18 131.11"/>
          </g>
          <g id="ind-center">
            <polygon class="cls-3" points="289.05 251.84 220.15 216.18 240.79 176.31 289.07 201.3 289.05 251.84"/>
          </g>
          <g id="CAF">
            <g id="caf-2">
              <rect class="cls-4" x="312.19" y="309.83" width="43.74" height="41.89"/>
            </g>
            <g id="food-icon-3prong">
              <path class="cls-5" d="M341.44,318.92h-.21c-2.75,0-5,3.05-5,6.79,0,3.44,1.89,6.29,4.34,6.72v12.78a.85.85,0,1,0,1.7,0V319.77A.85.85,0,0,0,341.44,318.92Zm-3.5,6.79c0-2.42,1.16-4.51,2.65-5v10C339.1,330.21,337.94,328.13,337.94,325.71Z"/>
              <path class="cls-5" d="M333.09,318.92a.85.85,0,0,0-.85.85h0v8.06c0,1.44-.16,2.29-.47,2.61s-.91.31-1.79.31v-11a.85.85,0,1,0-1.69-.18.54.54,0,0,0,0,.18v11c-1.77-.05-2.22-.42-2.22-3.34V319.8a.85.85,0,0,0-1.7-.13,1.09,1.09,0,0,0,0,.18v7.56c0,3.95,1.17,4.88,3.92,5v12.8a.85.85,0,1,0,1.69.18.54.54,0,0,0,0-.18V332.45a4,4,0,0,0,3-.81c.68-.69,1-1.79,1-3.81v-8.06a.85.85,0,0,0-.85-.85Z"/>
            </g>
          </g>
          <g id="ssbBathroom">
            <rect class="cls-2" x="108.35" y="486.55" width="26.1" height="31.7" transform="translate(-383.45 391.63) rotate(-64.04)"/>
            <g id="bathroomSymbol">
              <path class="cls-5" d="M121.65,494.85a.26.26,0,0,0-.26.26h0V511a.27.27,0,0,0,.53,0V495.11a.26.26,0,0,0-.26-.26Z"/>
              <path class="cls-5" d="M126.53,499.21a1.53,1.53,0,1,0-1.53-1.53h0A1.53,1.53,0,0,0,126.53,499.21Zm0-2.52a1,1,0,1,1-1,1,1,1,0,0,1,1-1h0Z"/>
              <path class="cls-5" d="M129,505.21l-.41-3.39a4.26,4.26,0,0,0-.22-1,1.7,1.7,0,0,0-1.64-1.36h-.33a1.77,1.77,0,0,0-1.65,1.38,4.24,4.24,0,0,0-.21,1l-.42,3.43a.26.26,0,0,0,.23.3h0a.28.28,0,0,0,.27-.23l.41-3.44a3.94,3.94,0,0,1,.19-.84,1.93,1.93,0,0,1,.48-.8v.43l-.84,4.5v0a1.11,1.11,0,0,0,.69.9v2.7a.58.58,0,0,1-.58.6h0a.26.26,0,0,0-.27.25h0a.27.27,0,0,0,.27.27h0a1.13,1.13,0,0,0,1.12-1.13v-2.5a1.09,1.09,0,0,0,.36,0H127v2.49a1.13,1.13,0,0,0,1.12,1.13.27.27,0,0,0,.27-.27h0a.26.26,0,0,0-.26-.26h0a.58.58,0,0,1-.59-.59h0v-2.71a1.1,1.1,0,0,0,.62-.89l-.76-4.6v-.38a1.88,1.88,0,0,1,.46.78,4.52,4.52,0,0,1,.2.9l.4,3.4a.28.28,0,0,0,.27.23h0a.27.27,0,0,0,.27-.27Zm-1.35,0c0,.28-.6.6-1,.6h-.21c-.47,0-1-.36-1-.6l.83-4.49v-.08a2.53,2.53,0,0,1,0-.55c0-.06,0-.1.17-.1h.21c.14,0,.16,0,.17.08a1.51,1.51,0,0,1,0,.52Z"/>
              <path class="cls-5" d="M116.84,499.21a1.53,1.53,0,1,0-1.52-1.54v0A1.53,1.53,0,0,0,116.84,499.21Zm0-2.52a1,1,0,1,1-1,1,1,1,0,0,1,1-1h0Z"/>
              <path class="cls-5" d="M117,499.46h-.34a2,2,0,0,0-2,2v3.75a.27.27,0,1,0,.53.1.17.17,0,0,0,0-.1v-3.77a1.45,1.45,0,0,1,.41-1v8.33a.6.6,0,0,1-.6.6.25.25,0,0,0-.26.24v0a.26.26,0,0,0,.25.27h0a1.15,1.15,0,0,0,1.13-1.13v-2.56a1.15,1.15,0,0,0,.62.18H117a1.12,1.12,0,0,0,.56-.18v2.63a1.15,1.15,0,0,0,1.13,1.13.27.27,0,0,0,0-.53h0a.6.6,0,0,1-.6-.6v-8.38a1.45,1.45,0,0,1,.41,1v3.75a.27.27,0,1,0,.53.1.17.17,0,0,0,0-.1v-3.77A2,2,0,0,0,117,499.46Zm-.06,6.35h-.21a.62.62,0,0,1-.62-.62v-4.58a.62.62,0,0,1,.62-.62H117a.62.62,0,0,1,.62.62v4.6A.63.63,0,0,1,117,505.81Z"/>
            </g>
          </g>
          <g id="cfceBathroom">
            <g id="washroom">
              <polygon class="cls-4" points="312.19 380.51 312.19 425.64 355.94 447.79 355.94 380.51 312.19 380.51"/>
            </g>
            <g id="bathroomSymbol-2">
              <path class="cls-5" d="M333.47,384.7a.48.48,0,0,0-.46.46V412.8a.48.48,0,0,0,.46.46.47.47,0,0,0,.46-.46V385.21a.46.46,0,0,0-.41-.51Z"/>
              <path class="cls-5" d="M342,392.29a2.66,2.66,0,1,0-2.66-2.66h0a2.65,2.65,0,0,0,2.65,2.65Zm0-4.38a1.73,1.73,0,1,1-1.74,1.73,1.72,1.72,0,0,1,1.74-1.73Z"/>
              <path class="cls-5" d="M346.21,402.8l-.71-5.92a9,9,0,0,0-.39-1.77,2.94,2.94,0,0,0-2.85-2.36h-.59a3.08,3.08,0,0,0-2.87,2.4,8.55,8.55,0,0,0-.37,1.65l-.73,6a.46.46,0,0,0,.39.52h.07a.46.46,0,0,0,.46-.4l.73-6a6.79,6.79,0,0,1,.33-1.47,3.07,3.07,0,0,1,.84-1.39,4.57,4.57,0,0,0,0,.74l-1.46,7.86v.08a2,2,0,0,0,1.21,1.57V409a1,1,0,0,1-1,1,.48.48,0,0,0-.4.53.47.47,0,0,0,.4.4,2,2,0,0,0,2-2v-4.36a2.16,2.16,0,0,0,.62.09h.37a2.16,2.16,0,0,0,.62-.09V409a2,2,0,0,0,2,2,.46.46,0,0,0,.53-.4A.47.47,0,0,0,345,410h-.14a1,1,0,0,1-1-1v-4.74a1.89,1.89,0,0,0,1.08-1.54l-1.33-8v-.66a3,3,0,0,1,.8,1.36,7,7,0,0,1,.36,1.57l.7,5.91a.46.46,0,0,0,.46.41h0A.47.47,0,0,0,346.21,402.8Zm-2.35,0c0,.5-1.05,1.05-1.71,1.05h-.37c-.81,0-1.78-.63-1.83-1.05l1.46-7.82v-.15a3.36,3.36,0,0,1,.08-.95c0-.11.07-.18.29-.18h.37c.25,0,.27.07.3.15a3,3,0,0,1,.08.9Z"/>
              <path class="cls-5" d="M325.09,392.29a2.66,2.66,0,1,0-2.66-2.66h0a2.65,2.65,0,0,0,2.65,2.65Zm0-4.38a1.73,1.73,0,1,1-1.74,1.73,1.72,1.72,0,0,1,1.74-1.73Z"/>
              <path class="cls-5" d="M325.38,392.75h-.59a3.51,3.51,0,0,0-3.51,3.51h0v6.59a.47.47,0,0,0,.46.46.48.48,0,0,0,.46-.46v-6.59a2.57,2.57,0,0,1,.71-1.78,1.31,1.31,0,0,0,0,.28V409a1,1,0,0,1-1,1,.46.46,0,0,0-.53.4.47.47,0,0,0,.39.53h.14a2,2,0,0,0,2-2v-4.59a2,2,0,0,0,1.08.32h.37a2,2,0,0,0,1.08-.32V409a2,2,0,0,0,2,2,.48.48,0,0,0,.4-.53.47.47,0,0,0-.4-.4,1,1,0,0,1-1-1V394.76a1.31,1.31,0,0,0,0-.28,2.57,2.57,0,0,1,.71,1.78v6.59a.48.48,0,0,0,.46.46.47.47,0,0,0,.46-.46v-6.59a3.51,3.51,0,0,0-3.51-3.51Zm-.11,11.07h-.37a1.08,1.08,0,0,1-1.08-1.08v-8a1.08,1.08,0,0,1,1.07-1.09h.38a1.08,1.08,0,0,1,1.08,1.08h0v8a1.08,1.08,0,0,1-1.08,1.08Z"/>
            </g>
          </g>
          <g id="ssbTims">
            <polygon class="cls-4" points="99.15 584.4 80.54 550.2 89.95 530.87 118.45 544.75 99.15 584.4"/>
            <g id="food-icon-3prong-2">
              <path class="cls-5" d="M103.31,544.89h-.12c-1.66,0-3,1.84-3,4.1,0,2.07,1.15,3.79,2.62,4v7.72a.51.51,0,0,0,.51.51h0a.51.51,0,0,0,.51-.51h0V545.4a.51.51,0,0,0-.51-.51ZM101.2,549a3.09,3.09,0,0,1,1.6-3v6a3.07,3.07,0,0,1-1.6-3Z"/>
              <path class="cls-5" d="M98.27,544.89a.51.51,0,0,0-.51.51h0v4.86c0,.87-.09,1.39-.28,1.58s-.55.18-1.08.19V545.4a.5.5,0,0,0-.6-.4.51.51,0,0,0-.4.4V552c-1.07,0-1.34-.25-1.34-2v-4.59a.52.52,0,0,0-.53-.5.51.51,0,0,0-.49.53h0V550c0,2.38.7,3,2.36,3v7.72a.51.51,0,0,0,1,0V553a2.38,2.38,0,0,0,1.8-.49,3.07,3.07,0,0,0,.59-2.3v-4.86A.5.5,0,0,0,98.27,544.89Z"/>
            </g>
          </g>
          <g id="stairsBottom">
            <path class="cls-5" d="M301.29,416h-6.36a.29.29,0,0,0-.34.23.29.29,0,0,0,.23.34h6.47a.29.29,0,0,0,.34-.23.29.29,0,0,0-.23-.34Z"/>
            <path class="cls-5" d="M303.71,413.66h-5.6a.29.29,0,1,0,0,.58h5.6a.29.29,0,0,0,0-.58Z"/>
            <path class="cls-5" d="M305.86,411.36h-4.95a.29.29,0,1,0,0,.58h4.95a.29.29,0,1,0,0-.58Z"/>
            <path class="cls-5" d="M296.87,402.85a1.65,1.65,0,1,0-1.65-1.65h0A1.65,1.65,0,0,0,296.87,402.85Zm0-2.73a1.08,1.08,0,1,1-1.07,1.09h0A1.09,1.09,0,0,1,296.87,400.12Z"/>
            <path class="cls-5" d="M295.29,410.09v4.39a1.22,1.22,0,0,0,1.22,1.22h0a.29.29,0,0,0,.29-.29h0a.29.29,0,0,0-.28-.28h0a.65.65,0,0,1-.65-.65v-4h.57a1.3,1.3,0,0,0,.76-.25l1,.51.07,1.48a1.22,1.22,0,0,0,1.22,1.22h0a.29.29,0,0,0,.23-.34.28.28,0,0,0-.23-.23.65.65,0,0,1-.65-.65h0l-.07-1.66a.26.26,0,0,0-.16-.24l-1-.54a1.36,1.36,0,0,0,.12-.49l0-1.34h.67a.28.28,0,0,0,.25-.32.28.28,0,0,0-.31-.25h0a2.81,2.81,0,0,1-.58,0l.11-3a1.26,1.26,0,0,0-1.2-1.3h-.23a1.2,1.2,0,0,0-.9.33,1.31,1.31,0,0,0-.4.87l-.18,5A1.29,1.29,0,0,0,295.29,410.09Zm.42-5.84a.67.67,0,0,1,.67-.65h.26a.66.66,0,0,1,.64.68v0l-.1,2.92s-.06-.06-.06-.08l-.33-2.5a.28.28,0,0,0-.56.08l.3,2.49c0,.17.12.47.61.63l-.05,1.42a.68.68,0,0,1-.7.65h-.23a.58.58,0,0,1-.36-.12.52.52,0,0,0-.11-.1.6.6,0,0,1-.16-.48Z"/>
          </g>
          <g id="stairsTop">
            <path class="cls-5" d="M353,69.33h-6.36a.29.29,0,0,0,0,.58H353a.29.29,0,0,0,0-.58Z"/>
            <path class="cls-5" d="M355.43,67h-5.6a.29.29,0,0,0-.29.29h0a.29.29,0,0,0,.28.28h5.61a.29.29,0,0,0,.29-.27h0a.29.29,0,0,0-.29-.29Z"/>
            <path class="cls-5" d="M357.59,64.71h-5a.29.29,0,0,0-.29.29h0a.29.29,0,0,0,.28.28h5a.29.29,0,0,0,0-.57Z"/>
            <path class="cls-5" d="M348.59,56.21a1.65,1.65,0,1,0-1.65-1.65h0A1.65,1.65,0,0,0,348.59,56.21Zm0-2.72a1.08,1.08,0,1,1-1.06,1.1v-.05a1.07,1.07,0,0,1,1.06-1.07Z"/>
            <path class="cls-5" d="M347,63.43v4.39A1.22,1.22,0,0,0,348.23,69h0a.29.29,0,0,0,.29-.27h0a.29.29,0,0,0-.29-.29h0a.64.64,0,0,1-.64-.64h0v-4a.93.93,0,0,0,.29,0h.27a1.23,1.23,0,0,0,.76-.26l1,.52.07,1.48a1.22,1.22,0,0,0,1.22,1.22h0a.29.29,0,0,0,0-.58.65.65,0,0,1-.65-.65h0l0-1.68a.29.29,0,0,0-.15-.25l-1.05-.53a1.36,1.36,0,0,0,.12-.49l.05-1.35h.67a.28.28,0,0,0,.25-.31h0a.28.28,0,0,0-.32-.25,2.81,2.81,0,0,1-.58,0l.11-3a1.25,1.25,0,0,0-1.2-1.29h-.23a1.25,1.25,0,0,0-.9.34,1.27,1.27,0,0,0-.4.86l-.17,5A1.2,1.2,0,0,0,347,63.43Zm.42-5.84a.62.62,0,0,1,.21-.46.66.66,0,0,1,.46-.19h.26a.69.69,0,0,1,.65.7l-.11,2.92s-.06,0-.06-.08L348.53,58a.29.29,0,0,0-.32-.25h0a.28.28,0,0,0-.24.31h0l.32,2.49c0,.17.12.47.61.63l-.05,1.42a.69.69,0,0,1-.22.47.62.62,0,0,1-.48.18h-.23a.59.59,0,0,1-.36-.13.31.31,0,0,0-.11-.09.66.66,0,0,1-.18-.48Z"/>
          </g>
          <g id="doors">
            <g id="exit">
              <path class="cls-6" d="M48.1,603.49a.52.52,0,0,0-.73-.1h0a13.15,13.15,0,0,0-1.43,1.26.53.53,0,0,0,0,.74.71.71,0,0,0,.14.1.55.55,0,0,0,.6-.1A12.35,12.35,0,0,1,48,604.21a.5.5,0,0,0,.1-.71Z"/>
              <path class="cls-6" d="M45.43,606a.54.54,0,0,0-.74.1c-.36.47-.72,1-1.07,1.54a.51.51,0,0,0,.14.71h0a.52.52,0,0,0,.73-.1l0,0c.33-.52.68-1,1-1.46a.53.53,0,0,0-.07-.75Z"/>
              <path class="cls-6" d="M61.8,616.69,51.36,601.64a.52.52,0,0,0-.59-.2h-.15c-.61.29-1.16.57-1.67.86a.53.53,0,0,0-.19.72.45.45,0,0,0,.21.2.5.5,0,0,0,.5,0c.39-.23.81-.45,1.27-.67l10.2,14.7a.41.41,0,0,0,.2.17.5.5,0,0,0,.66-.72Z"/>
              <path class="cls-6" d="M41.93,603.38a.51.51,0,0,0,.59-.42v0a12,12,0,0,0,.15-1.89.52.52,0,0,0-.51-.53h0a.51.51,0,0,0-.52.5v0a14.57,14.57,0,0,1-.14,1.75.51.51,0,0,0,.28.54A.43.43,0,0,0,41.93,603.38Z"/>
              <path class="cls-6" d="M42.53,599.15a16.64,16.64,0,0,0-.32-1.85.88.88,0,0,0-.05-.15.53.53,0,0,0-.52-.35l-18.3.68a.52.52,0,0,0-.53.51.52.52,0,0,0,.32.49.36.36,0,0,0,.25,0l17.88-.66c.1.5.18,1,.23,1.41a.52.52,0,0,0,.29.41.39.39,0,0,0,.3,0A.51.51,0,0,0,42.53,599.15Z"/>
              <path class="cls-6" d="M42.13,604.79a.53.53,0,0,0-.37-.64.52.52,0,0,0-.64.36h0c-.15.54-.34,1.11-.56,1.69a.53.53,0,0,0,.26.65h0a.5.5,0,0,0,.66-.28v0A18.36,18.36,0,0,0,42.13,604.79Z"/>
            </g>
            <g id="exit-2">
              <path class="cls-5" d="M262.37,403.08a.35.35,0,0,0-.49-.08h0a10.39,10.39,0,0,0-1,.87.36.36,0,0,0,0,.51h0l.09.06a.35.35,0,0,0,.42-.07,7.58,7.58,0,0,1,.91-.79A.37.37,0,0,0,262.37,403.08Z"/>
              <path class="cls-5" d="M260.53,404.79a.37.37,0,0,0-.51.07c-.25.32-.5.68-.74,1.06a.37.37,0,0,0,.11.49h0a.35.35,0,0,0,.46-.13c.23-.36.46-.69.7-1A.37.37,0,0,0,260.53,404.79Z"/>
              <path class="cls-5" d="M271.78,412.15l-7.17-10.34a.35.35,0,0,0-.4-.13h-.11c-.42.2-.79.39-1.15.59a.36.36,0,0,0-.13.49.54.54,0,0,0,.15.15.34.34,0,0,0,.34,0c.27-.16.56-.31.88-.46l7,10.1a.39.39,0,0,0,.5.09.35.35,0,0,0,.09-.49Z"/>
              <path class="cls-5" d="M258.13,403a.36.36,0,0,0,.41-.3h0a8,8,0,0,0,.1-1.3.34.34,0,0,0-.32-.36h0a.36.36,0,0,0-.36.36,9.71,9.71,0,0,1-.1,1.2.36.36,0,0,0,.2.37Z"/>
              <path class="cls-5" d="M258.53,400.1c0-.4-.12-.82-.22-1.27a.17.17,0,0,0,0-.1.37.37,0,0,0-.35-.25l-12.57.47a.36.36,0,0,0-.15.68.28.28,0,0,0,.18,0l12.28-.46c.07.35.12.67.16,1a.35.35,0,0,0,.68.09.36.36,0,0,0,0-.18Z"/>
              <path class="cls-5" d="M258.27,404a.36.36,0,1,0-.69-.19c-.11.37-.23.76-.38,1.16a.36.36,0,0,0,.17.45h0a.37.37,0,0,0,.47-.2h0A7.64,7.64,0,0,0,258.27,404Z"/>
            </g>
            <g id="exit-top">
              <path class="cls-5" d="M332.06,4.26a.11.11,0,0,1-.15,0v0a3.34,3.34,0,0,1-.17-.44.13.13,0,0,1,.08-.16h0a.14.14,0,0,1,.11.09,2.74,2.74,0,0,0,.15.4A.13.13,0,0,1,332.06,4.26Z"/>
              <path class="cls-5" d="M331.76,3.42c-.06,0-.12,0-.14-.1a2.23,2.23,0,0,0-.06-.46.12.12,0,0,1,.1-.14h0a.13.13,0,0,1,.12.12,3.18,3.18,0,0,0,.06.43A.13.13,0,0,1,331.76,3.42Z"/>
              <path class="cls-5" d="M336.22,2.87,332.53,5a.11.11,0,0,1-.15,0h0c-.1-.13-.18-.25-.26-.37a.15.15,0,0,1,0-.18h.06a.11.11,0,0,1,.1.06,2.83,2.83,0,0,0,.2.28l3.59-2.11h.06a.14.14,0,0,1,.11.06A.12.12,0,0,1,336.22,2.87Z"/>
              <path class="cls-5" d="M330.78,3.61a.13.13,0,0,1,.08.16,3.34,3.34,0,0,1-.17.44.11.11,0,0,1-.14.06h0a.13.13,0,0,1,0-.17,2.74,2.74,0,0,0,.15-.4.14.14,0,0,1,.11-.09Z"/>
              <path class="cls-5" d="M330.53,4.61c-.08.12-.16.24-.26.37h0a.12.12,0,0,1-.14,0l-3.68-2.16a.15.15,0,0,1,0-.18.14.14,0,0,1,.11-.06h0l3.59,2.11a2.83,2.83,0,0,0,.2-.28.11.11,0,0,1,.1-.06h.06a.14.14,0,0,1,.12.16A.14.14,0,0,1,330.53,4.61Z"/>
              <path class="cls-5" d="M331,3.32a.11.11,0,0,1-.13.1h0a.13.13,0,0,1-.09-.15,3.18,3.18,0,0,0,.06-.43.13.13,0,0,1,.12-.12h0a.11.11,0,0,1,.11.13h0A4.63,4.63,0,0,1,331,3.32Z"/>
            </g>
            <g id="exit-left">
              <path class="cls-5" d="M177.53,257.44a.4.4,0,0,0-.56-.06l-.06.06a13.93,13.93,0,0,0-1.29,1.37.57.57,0,0,0,0,.72l.11.08a.43.43,0,0,0,.52-.16q.57-.66,1.2-1.26A.6.6,0,0,0,177.53,257.44Z"/>
              <path class="cls-5" d="M175.13,260.14a.44.44,0,0,0-.61.13l0,0a16,16,0,0,0-1,1.61.51.51,0,0,0,.1.69h0a.48.48,0,0,0,.59-.25c.31-.54.63-1.06.95-1.53A.54.54,0,0,0,175.13,260.14Z"/>
              <path class="cls-5" d="M185.18,267.39l-5.1-12.24c-.07-.16-.22-.18-.38-.08l-.11.07c-.46.37-.88.73-1.27,1.09a.78.78,0,0,0-.23.71.23.23,0,0,0,.12.15c.1.05.22,0,.35-.1a13,13,0,0,1,1-.85l5,12a.22.22,0,0,0,.11.12c.1.05.24,0,.37-.13A.74.74,0,0,0,185.18,267.39Z"/>
            </g>
          </g>
          <g id="waterFountain">
            <path class="cls-5" d="M320.84,133.55h-3a.26.26,0,0,1-.24-.18l-1.07-4.16a.26.26,0,0,1,0-.21.25.25,0,0,1,.19-.09h4.11a.24.24,0,0,1,.24.24v4.14A.25.25,0,0,1,320.84,133.55Zm-2.83-.49h2.59v-3.65h-3.55Z"/>
            <path class="cls-5" d="M318.39,128.83a.27.27,0,0,1-.24-.22v-.53a.24.24,0,0,1,.48,0v.44a.26.26,0,0,1-.22.27Zm.15-1.07h-.11a.24.24,0,0,1-.11-.31h0a1.26,1.26,0,0,1,.4-.46.25.25,0,0,1,.34.08.24.24,0,0,1-.08.33h0a.67.67,0,0,0-.23.27.25.25,0,0,1-.23.1Zm1.24-.32a.24.24,0,0,1-.12,0,.9.9,0,0,0-.27-.11.24.24,0,0,1-.18-.29h0a.24.24,0,0,1,.29-.18h0a1.59,1.59,0,0,1,.41.16.25.25,0,0,1,.08.34.24.24,0,0,1-.21.08Z"/>
            <path class="cls-5" d="M317.7,128.83a.24.24,0,0,1-.24-.23v-.5a.23.23,0,0,1,.22-.24h0a.23.23,0,0,1,.23.23h0v.51a.27.27,0,0,1-.23.26Zm0-1.09h0a.25.25,0,0,1-.2-.28,4.37,4.37,0,0,1,.12-.52.24.24,0,0,1,.31-.14h0a.23.23,0,0,1,.15.29h0a2.07,2.07,0,0,0-.1.43.25.25,0,0,1-.24.21Zm.42-1a.22.22,0,0,1-.17-.07.25.25,0,0,1,0-.34h0a1.42,1.42,0,0,1,.51-.32.25.25,0,0,1,.23.45l-.08,0a.63.63,0,0,0-.31.19.29.29,0,0,1-.14.08Zm1.48-.21h-.07a2,2,0,0,0-.43-.08.25.25,0,0,1-.27-.23.26.26,0,0,1,.23-.27h.09a4.36,4.36,0,0,1,.52.11.24.24,0,0,1,.16.3h0a.22.22,0,0,1-.19.17Z"/>
            <path class="cls-5" d="M316.23,126.09a1.4,1.4,0,1,1,1.51-1.51,1.39,1.39,0,0,1-1.27,1.51Zm0-2.3a.91.91,0,1,0,.91.91.91.91,0,0,0-.91-.91Z"/>
            <path class="cls-5" d="M313.46,131.12A.89.89,0,0,1,313,131l-.28-.14a1,1,0,0,1-.42-1.34l1.59-3.08a1,1,0,0,1,1.34-.42l.28.14a1,1,0,0,1,.43,1.34l-1.6,3.08a1,1,0,0,1-.58.49A1.06,1.06,0,0,1,313.46,131.12Zm-.23-.55a.44.44,0,0,0,.39,0,.55.55,0,0,0,.3-.26l1.6-3.07a.53.53,0,0,0,0-.39.5.5,0,0,0-.25-.3l-.28-.14a.51.51,0,0,0-.68.2v0l-1.59,3.07a.51.51,0,0,0,.2.68h0Z"/>
            <path class="cls-5" d="M313.34,134.72a1,1,0,0,1-1-.92v-3.3a.25.25,0,0,1,.49,0v3.3a.51.51,0,0,0,.54.44.24.24,0,1,1,0,.48h0Z"/>
            <path class="cls-5" d="M316.13,130.64a.9.9,0,0,1-.92-.61l-.6-2.77a.25.25,0,0,1,.18-.29.26.26,0,0,1,.29.19l.61,2.76c0,.16.29.29.6.22a.22.22,0,0,1,.28.16v0a.24.24,0,0,1-.18.29h0Z"/>
            <path class="cls-5" d="M314.29,134.38a1,1,0,0,1-1-.83v-2.5a.25.25,0,0,1,.49,0v2.5c0,.16.22.34.54.34a.24.24,0,0,1,.29.2.25.25,0,0,1-.19.29h-.13Z"/>
          </g>
          <g id="parking">
            <rect id="parking-2" class="cls-7" x="191.87" y="412.64" width="128.52" height="160.54" transform="translate(-299.16 507.43) rotate(-64.04)"/>
            <rect id="parking-2-2" data-name="parking-2" class="cls-2" x="191.87" y="412.64" width="128.52" height="160.54" transform="translate(-299.16 507.43) rotate(-64.04)"/>
            <g id="parkingIcon">
              <path class="cls-5" d="M258.18,477.59a11.13,11.13,0,1,0,11.12,11.14h0A11.15,11.15,0,0,0,258.18,477.59Zm0,20.65a9.53,9.53,0,1,1,9.52-9.54v0a9.54,9.54,0,0,1-9.52,9.49Z"/>
              <path class="cls-5" d="M255.81,481.63a.8.8,0,0,0-.8.8V495a.8.8,0,0,0,1.6,0v-5.94c2.71-.26,4.74-1.79,4.74-3.7C261.35,483.27,258.92,481.63,255.81,481.63Zm.8,5.83v-4.19c1.88.22,3.14,1.2,3.14,2.1S258.53,487.21,256.61,487.46Z"/>
            </g>
          </g>
          <g id="gssb116">
            <rect id="ssb116" class="cls-8" x="126.8" y="431.68" width="42.7" height="31.7" transform="translate(-319.07 384.83) rotate(-64.04)"/>
            <text id="numssb116" class="cls-9" transform="matrix(0.44, -0.9, 0.9, 0.44, 148.84, 468.52)">116A/B</text>
          </g>
          <g id="gcfce123B">
            <rect id="cfce123B" class="cls-10" x="338.04" y="4.39" width="18.18" height="44.82"/>
            <g>
              <path class="cls-11" d="M350.93,17.91s-.37-1.78-.37-1.8h1a3.82,3.82,0,0,0,1.16,2.1v1H342.34V17.89Z"/>
              <path class="cls-11" d="M343.31,21.3l4.1,2.65a4.71,4.71,0,0,0,2.72,1.12c.94,0,1.53-.26,1.54-1,0-1-.92-1.23-1.91-1.24h-.34v-1.4h.36c1.85,0,3,.7,3,2.55,0,1.66-1,2.48-2.68,2.47a5,5,0,0,1-3-1.14l-3.57-2.4v3.3h-1.16V21.32Z"/>
              <path class="cls-11" d="M344.87,27.41h.35v1.36H345c-.93,0-1.64.23-1.64,1.17s.76,1.2,1.9,1.2,1.85-.34,1.92-1.35V29.6h1.36v.18c0,1,.46,1.37,1.57,1.37.94,0,1.55-.24,1.55-1.17s-.69-1.17-1.66-1.2h-.22V27.43h.34a2.55,2.55,0,0,1,.32,5.09h-.32A2.13,2.13,0,0,1,347.84,31c-.29.94-1.19,1.48-2.6,1.48-1.84,0-3-.74-3-2.57a2.35,2.35,0,0,1,2.14-2.54A2.66,2.66,0,0,1,344.87,27.41Z"/>
              <path class="cls-11" d="M352.68,33.84v2.37c0,1.87-.83,2.76-2.61,2.76-1.28,0-2-.48-2.18-1.49-.3,1.24-1.16,1.76-2.63,1.76-1.79,0-3-.82-3-2.68V33.81Zm-9.34,2.37c0,1.29.57,1.63,1.91,1.63s2-.47,2-1.73v-.86h-3.9Zm5-.1c0,1.22.5,1.59,1.73,1.59,1.42,0,1.52-.62,1.53-2.09v-.35h-3.25Z"/>
            </g>
          </g>
          <g id="gcfce116">
            <rect id="cfce116" class="cls-12" x="312.19" y="266.8" width="43.74" height="37.8"/>
            <g>
              <path class="cls-11" d="M322,283c-.07.1-3.38.72-3.43.72v-2c1.12-.27,3.06-.84,4-2.16h2l.12,19.7h-2.6Z"/>
              <path class="cls-11" d="M331.6,282.89c-.07.1-3.37.73-3.42.73v-2c1.12-.28,3.07-.85,4.06-2.17h2l.12,19.71h-2.61Z"/>
              <path class="cls-11" d="M338.53,292.9v-6.65c0-3.81,1.08-7,4.8-7,3.06,0,4.75,1.7,4.85,4.77v.29h-2.65c0-1.89-.5-2.94-2.23-2.93-1.43,0-2.23,1.33-2.21,4.23v3a3.2,3.2,0,0,1,2.86-1.38c3.26,0,4.27,2.24,4.29,5.67s-1.32,6.43-4.85,6.45S338.53,296.5,338.53,292.9Zm7.11.64c0-2.34-.08-4.36-2.29-4.35a2.61,2.61,0,0,0-2.23,1.36v2.94c0,2,.55,3.69,2.26,3.68s2.29-1.66,2.28-3.63Z"/>
            </g>
          </g>
          <g id="gcfce117">
            <rect id="cfce117" class="cls-12" x="312.19" y="223.86" width="43.74" height="37.8"/>
            <g>
              <path class="cls-11" d="M323.68,239.86c-.07.09-3.38.69-3.43.69v-2c1.12-.27,3.06-.82,4.07-2.13h2l-.11,19.79h-2.6Z"/>
              <path class="cls-11" d="M333.32,239.9c-.08.09-3.39.69-3.44.69v-2c1.12-.27,3.07-.82,4.07-2.13h2l-.1,19.75h-2.61Z"/>
              <path class="cls-11" d="M344.61,238.58h-5.28v-2h7.88v1.27l-3.68,18.36H341Z"/>
            </g>
          </g>
          <g id="gcfce118">
            <rect id="cfce118" class="cls-12" x="312.19" y="180.93" width="43.74" height="37.8"/>
            <g>
              <path class="cls-11" d="M321.53,197.21c-.07.1-3.38.74-3.43.74v-2a7.4,7.4,0,0,0,4-2.18h2l.18,19.71h-2.6Z"/>
              <path class="cls-11" d="M331.11,197.11c-.07.1-3.37.74-3.42.74v-2c1.12-.28,3.06-.86,4-2.18h2l.19,19.71h-2.61Z"/>
              <path class="cls-11" d="M337.9,207.8c0-2.65.94-4,2.39-4.86a4.87,4.87,0,0,1-2.23-4.38c0-3.12,1.39-5.1,4.57-5.13s4.6,1.93,4.63,5a4.79,4.79,0,0,1-2.15,4.42c1.44.89,2.47,2.17,2.5,4.82,0,3.53-1.26,5.78-4.79,5.81S337.94,211.33,337.9,207.8Zm7.2,0c0-1.84-.56-3.57-2.36-3.57s-2.37,1.75-2.36,3.62c0,2.07.5,3.64,2.42,3.63s2.32-1.65,2.3-3.7Zm-.4-9.43c0-1.61-.54-2.92-2.05-2.9s-2,1.33-2,2.94.45,3.33,2.1,3.33,2-1.74,1.95-3.39Z"/>
            </g>
          </g>
          <g id="gcfce119">
            <rect id="cfce119" class="cls-12" x="312.19" y="138" width="43.74" height="37.8"/>
            <g>
              <path class="cls-11" d="M321.53,154.14c-.07.09-3.38.72-3.42.72v-2c1.12-.28,3.07-.85,4.06-2.16h2l.1,19.71h-2.6Z"/>
              <path class="cls-11" d="M331.18,154.08c-.08.1-3.38.73-3.43.73v-2c1.12-.28,3.06-.85,4.05-2.17h2l.11,19.71h-2.6Z"/>
              <path class="cls-11" d="M337.83,165.68v-.22h2.61c0,1.9.5,2.94,2.27,2.93,1.44,0,2.19-1.32,2.17-4.22v-3a3.13,3.13,0,0,1-2.86,1.38c-3.26,0-4.24-2.26-4.26-5.67,0-3.58,1.32-6.41,4.85-6.43s4.86,2.82,4.88,6.42v6.62c0,3.82-1.08,7-4.8,7.06C339.61,170.56,337.9,168.81,337.83,165.68Zm7-6.49v-2.92c0-2-.53-3.69-2.24-3.69s-2.25,1.72-2.24,3.64c0,2.36.07,4.36,2.29,4.34a2.46,2.46,0,0,0,2.21-1.35Z"/>
            </g>
          </g>
          <g id="gcfce123">
            <polygon id="cfce123" class="cls-12" points="355.94 120.35 312.19 120.35 312.19 73.8 320.12 54.15 342.97 54.15 343.05 73.06 355.94 73.24 355.94 120.35"/>
            <g>
              <path class="cls-11" d="M321.05,98.78c-.08.09-3.38.71-3.43.71v-2a7.4,7.4,0,0,0,4.06-2.15h2l.06,19.71h-2.6Z"/>
              <path class="cls-11" d="M327.53,113.21l5-7.83c1.09-1.76,2.11-3,2.1-5.17,0-1.8-.52-2.91-2-2.91-1.87,0-2.33,1.76-2.32,3.63v.66h-2.6v-.68c0-3.53,1.3-5.75,4.8-5.76,3.16,0,4.73,1.88,4.74,5.07,0,2.53-1,3.94-2.15,5.7l-4.5,6.92h6.23V115h-9.3Z"/>
              <path class="cls-11" d="M339.16,110.21v-.65h2.58V110c.05,1.77.45,3.11,2.25,3.1s2.26-1.46,2.25-3.63-.67-3.5-2.59-3.62h-.37v-2.64h.34c1.85-.06,2.61-.89,2.6-3,0-1.77-.47-2.94-2.25-2.93s-2.21,1.32-2.25,3.17v.41h-2.59v-.65c0-3.13,1.59-5,4.82-5s4.85,1.91,4.86,5c0,2.38-1.11,3.8-2.81,4.31,1.78.56,2.83,2.26,2.84,4.93,0,3.5-1.36,5.8-4.84,5.81C340.78,115.21,339.17,113.31,339.16,110.21Z"/>
            </g>
          </g>
          <g id="gglobalClassroom">
            <polygon id="globalClassroom" class="cls-12" points="244.26 302.17 236.86 316.51 189.02 291.65 196.35 277.18 190.16 274.06 217.35 221.71 287.03 257.91 259.81 310.29 244.26 302.17"/>
            <g>
              <path class="cls-11" d="M210.74,262.11V255.7c0-4.18,1.07-6.61,5.11-6.62,3.59,0,5,1.78,5,5.56v.71h-2.5v-.59c0-2.48-.29-3.61-2.44-3.61-2.36,0-2.5,1.78-2.49,4.15v7.08c0,2.77.48,4.11,2.58,4.11s2.6-1.5,2.59-4.38v-1.32h-2.44V258.9H221v9.48h-1.66l-.27-2.2a3.35,3.35,0,0,1-3.39,2.45C212.08,268.62,210.75,266.21,210.74,262.11Z"/>
              <path class="cls-11" d="M223.72,249.21h2.53l.05,19.14h-2.53Z"/>
              <path class="cls-11" d="M228.7,263.5v-4c0-3.07.93-5,4-5s4,2,4,5v4c0,3.07-.93,5-4,5S228.7,266.57,228.7,263.5Zm5.43.15v-4.27c0-1.54,0-3-1.45-3s-1.46,1.49-1.46,3v4.28c0,1.54,0,3,1.48,3s1.43-1.45,1.43-3Z"/>
              <path class="cls-11" d="M241.53,267.32v1H239L239,249.21h2.55v6.56a3.35,3.35,0,0,1,2.57-1.28c2.86,0,3.13,3.49,3.13,5.12v3.31c0,2.9-.67,5.6-3.36,5.61A3.2,3.2,0,0,1,241.53,267.32Zm3.15-4.43v-3.3c0-1.7-.18-3.15-1.48-3.14a2.8,2.8,0,0,0-1.7.69v8.76a2.83,2.83,0,0,0,1.79.61c1.36,0,1.43-1.61,1.42-3.62Z"/>
              <path class="cls-11" d="M249.26,265.32c0-3.41,2.44-4.4,5.37-5.57v-1c0-1.65-.2-2.46-1.38-2.45s-1.44.76-1.44,1.94v.68l-2.51-.08c0-3,1.31-4.43,4.1-4.43s3.74,1.5,3.75,4.31V265a24,24,0,0,0,.25,3.28h-2.32c-.09-.5-.26-1.37-.34-2a2.89,2.89,0,0,1-2.75,2.21A3,3,0,0,1,249.26,265.32Zm5.38-.16v-3.87c-1.55.9-2.85,1.66-2.85,3.24,0,1.11.43,1.77,1.21,1.77a2.32,2.32,0,0,0,1.64-1.09Z"/>
              <path class="cls-11" d="M259.8,249.13h2.53l.05,19.14h-2.53Z"/>
              <path class="cls-11" d="M210.79,284.53v-6.76c0-3.88,1.07-6.41,5.13-6.42,3.57,0,4.82,2,4.83,5.5v1.51h-2.53V277c0-2.13-.06-3.59-2.28-3.59s-2.48,1.57-2.47,3.93V285c0,2.88.65,3.82,2.49,3.82,2.15,0,2.26-1.55,2.26-3.81v-1.42h2.53V285c0,3.52-1,5.91-4.8,5.92C211.9,290.88,210.8,288.09,210.79,284.53Z"/>
              <path class="cls-11" d="M223.31,271.5h2.52v19.14H223.3Z"/>
              <path class="cls-11" d="M228.24,287.65c0-3.4,2.44-4.4,5.37-5.57v-1c0-1.65-.2-2.45-1.38-2.45s-1.44.76-1.43,1.94v.69l-2.51-.09c0-3,1.31-4.42,4.1-4.43s3.74,1.5,3.75,4.31v6.24a25.73,25.73,0,0,0,.25,3.28h-2.32c-.09-.5-.26-1.37-.33-2a2.9,2.9,0,0,1-2.76,2.21A3,3,0,0,1,228.24,287.65Zm5.38-.16v-3.87c-1.56.9-2.86,1.66-2.86,3.24,0,1.11.43,1.77,1.21,1.77a2.33,2.33,0,0,0,1.65-1.14Z"/>
              <path class="cls-11" d="M237.9,287l2.1-.64c.24,1.75.81,2.6,2,2.59a1.29,1.29,0,0,0,1.39-1.2,1,1,0,0,0,0-.24,2.52,2.52,0,0,0-1.12-2l-2.34-2a4.06,4.06,0,0,1-1.69-3.33,3.18,3.18,0,0,1,3-3.37,3.35,3.35,0,0,1,.55,0c2.17,0,3.31,1.59,3.48,3.58l-1.7.64c-.19-1.42-.6-2.36-1.69-2.36a1.32,1.32,0,0,0-1.34,1.32V280a1.79,1.79,0,0,0,.69,1.37l2.42,2.21a4.82,4.82,0,0,1,1.94,3.68c0,2.34-1.52,3.5-3.77,3.51A3.85,3.85,0,0,1,237.9,287Z"/>
              <path class="cls-11" d="M246.74,286.94l2.1-.64c.24,1.74.81,2.59,2,2.59a1.3,1.3,0,0,0,1.39-1.22.81.81,0,0,0,0-.22,2.55,2.55,0,0,0-1.12-2l-2.34-2a4,4,0,0,1-1.69-3.32,3.18,3.18,0,0,1,3-3.38,3.25,3.25,0,0,1,.54,0c2.18,0,3.31,1.6,3.48,3.59l-1.69.64c-.2-1.42-.6-2.36-1.69-2.36a1.32,1.32,0,0,0-1.34,1.3v.1a1.79,1.79,0,0,0,.69,1.37l2.41,2.21a4.84,4.84,0,0,1,2,3.68c0,2.34-1.53,3.5-3.77,3.51A3.84,3.84,0,0,1,246.74,286.94Z"/>
            </g>
          </g>
          <g id="gssbLink">
            <polygon id="ssbLink" class="cls-12" points="234.74 321.12 181.13 294.17 189 278.52 174.9 271.43 128.22 364.25 142.32 371.34 174.14 308.07 227.75 335.02 234.74 321.12"/>
            <g>
              <path class="cls-11" d="M138.79,365.91l.26-1.25c1,.42,2.07.66,2.55-.3a1,1,0,0,0-.3-1.38,1.15,1.15,0,0,0-.25-.12,2.38,2.38,0,0,0-2.2.1l-2.07.83a2.67,2.67,0,0,1-2.4-.13,2.13,2.13,0,0,1-1.18-2.77,2.31,2.31,0,0,1,.18-.35c.71-1.42,1.79-1.73,3.42-1.09l-.24,1.2c-.91-.38-1.76-.56-2.23.37a1,1,0,0,0,.31,1.38.76.76,0,0,0,.18.09,1.59,1.59,0,0,0,1.5,0l2.08-.84a3.65,3.65,0,0,1,3.13,0,2.24,2.24,0,0,1,1.13,3c0,.08-.08.16-.13.24C141.79,366.4,140.38,366.59,138.79,365.91Z"/>
              <path class="cls-11" d="M141.41,360.72l.26-1.25c1,.41,2.06.65,2.54-.3a1,1,0,0,0-.3-1.38,1.15,1.15,0,0,0-.25-.12,2.36,2.36,0,0,0-2.19.1l-2.08.83a2.62,2.62,0,0,1-2.39-.14,2.12,2.12,0,0,1-1.19-2.75,2.58,2.58,0,0,1,.19-.37c.71-1.41,1.79-1.72,3.42-1.08l-.25,1.2c-.91-.38-1.75-.56-2.22.36a1,1,0,0,0,.31,1.38l.18.09a1.54,1.54,0,0,0,1.5,0l2.07-.84a3.67,3.67,0,0,1,3.14,0,2.26,2.26,0,0,1,1.12,3l-.12.22C144.41,361.21,143,361.4,141.41,360.72Z"/>
              <path class="cls-11" d="M137.76,352l1-2c.81-1.6,1.9-2,3.42-1.25,1.1.56,1.56,1.3,1.24,2.22.79-.93,1.75-1,3-.38,1.54.78,2.19,2,1.39,3.57l-1.2,2.37Zm4.71-.1c.52-1,.26-1.58-.8-2.11-1.22-.61-1.58-.12-2.21,1.14l-.15.3,2.79,1.4Zm4.34,2.06c.56-1.11.21-1.64-.94-2.22s-1.91-.45-2.46.63l-.37.74,3.35,1.69Z"/>
              <path class="cls-11" d="M141.93,343.77l.62-1.24,8,4,1.14-2.27.89.45-1.76,3.5Z"/>
              <path class="cls-11" d="M144.53,339.62l.59-1.17,1.23.62-.59,1.17Zm2.17,1.1.59-1.18,6.35,3.2-.59,1.17Z"/>
              <path class="cls-11" d="M147.89,338.28l.59-1.18.63.32a2.53,2.53,0,0,1,.06-1.91c.39-.75,1.17-.61,1.78-.3l5.14,2.59L155.5,339l-4.8-2.42c-.45-.23-.77-.26-1,.14a1.56,1.56,0,0,0,0,1l5.12,2.58-.6,1.18Z"/>
              <path class="cls-11" d="M147.77,332.15l.59-1.18,5.31,2.68-1.89-3.1.62-1.23,1.73,2.75,4.6.49-.59,1.18-3.85-.45.54.94,2.43,1.23-.6,1.17Z"/>
            </g>
            <g>
              <path class="cls-11" d="M193.13,311.36l1.25.24c-.41,1-.63,2.08.33,2.55a1,1,0,0,0,1.38-.32,1.12,1.12,0,0,0,.11-.25,2.41,2.41,0,0,0-.12-2.2l-.86-2.06a2.64,2.64,0,0,1,.11-2.4,2.13,2.13,0,0,1,2.77-1.17,2.16,2.16,0,0,1,.34.17c1.42.69,1.75,1.77,1.12,3.41l-1.2-.23c.37-.92.54-1.77-.39-2.22a1,1,0,0,0-1.38.33.89.89,0,0,0-.08.17,1.54,1.54,0,0,0,0,1.5l.86,2.07a3.65,3.65,0,0,1,0,3.13,2.25,2.25,0,0,1-3,1.2l-.24-.12C192.67,314.37,192.46,313,193.13,311.36Z"/>
              <path class="cls-11" d="M198.35,313.92l1.25.24c-.41,1-.63,2.08.33,2.55a1,1,0,0,0,1.38-.32,1.12,1.12,0,0,0,.11-.25,2.38,2.38,0,0,0-.12-2.2l-.86-2.06a2.64,2.64,0,0,1,.11-2.4,2.13,2.13,0,0,1,2.77-1.17,2.16,2.16,0,0,1,.34.17c1.43.69,1.75,1.77,1.12,3.41l-1.2-.24c.37-.91.54-1.76-.39-2.21a1,1,0,0,0-1.38.33.89.89,0,0,0-.08.17,1.59,1.59,0,0,0,0,1.5l.86,2.06a3.67,3.67,0,0,1,0,3.14,2.24,2.24,0,0,1-2.93,1.2,1.15,1.15,0,0,1-.25-.12C197.89,316.93,197.68,315.51,198.35,313.92Z"/>
              <path class="cls-11" d="M207,310.21l2,1c1.61.79,2,1.87,1.29,3.41-.54,1.1-1.27,1.57-2.21,1.26,1,.78,1,1.74.42,3-.76,1.54-2,2.21-3.55,1.42l-2.38-1.17Zm-1.86,9c1.12.55,1.65.19,2.22-1s.43-1.91-.67-2.44l-.74-.36-1.65,3.36Zm2-4.36c1,.51,1.58.24,2.1-.82.6-1.23.1-1.58-1.17-2.2l-.3-.15-1.37,2.81Z"/>
              <path class="cls-11" d="M215.3,314.21l1.25.61-4,8.05,2.29,1.12-.44.89-3.48-1.67Z"/>
              <path class="cls-11" d="M218.41,318.94l1.18.58-3.13,6.38-1.18-.57Zm1.07-2.18,1.18.58-.61,1.23-1.18-.57Z"/>
              <path class="cls-11" d="M220.86,320.15l1.18.57-.31.63a2.57,2.57,0,0,1,1.91,0c.76.37.62,1.15.32,1.77l-2.53,5.17-1.18-.58,2.36-4.82c.22-.46.25-.77-.16-1a1.56,1.56,0,0,0-1,0l-2.52,5.15-1.18-.58Z"/>
              <path class="cls-11" d="M227,320l1.18.58-2.64,5.33,3.08-1.92,1.23.61-2.72,1.76-.45,4.6-1.18-.58.41-3.85L225,327l-1.2,2.44-1.18-.58Z"/>
            </g>
          </g>
          <g id="gmrc">
            <g id="mrc">
              <polygon class="cls-13" points="257.6 355.26 237.34 396.38 220.7 388.26 240.97 347.14 257.6 355.26"/>
              <path class="cls-5" d="M241,347.14h0l-1.51,3.07.92.45,1.51-3.07Zm-3,6.13-1.51,3.07.92.45,1.51-3.06-.92-.46Zm-3,6.13-1.51,3.07.92.45,1.51-3.06-.92-.46Zm-3,6.13-1.51,3.07.92.45,1.51-3.06-.92-.46Zm-3,6.13-.21.43h0v.05h0l-.1.2h0l-1,2,.92.45,1.51-3.06-.92-.46Zm-3,6.14-1.51,3.06.91.45,1.52-3.06-.92-.45Zm-3,6.13L221.45,387l.91.45,1.51-3.06Zm.1,4.29-.44.92,3.07,1.5.44-.92Zm6.15,3-.45.92,3.07,1.49.45-.91Zm6.14,3-.45.91,2.46,1.2h0l.23-.48h0l.2-.41h0l-2.61-1.23Zm4.47-4.93-1.51,3.07.91.45,1.51-3.07Zm3-6.13-1.61,3,.91.45,1.51-3.07-.91-.45Zm3-6.13-1.51,3.06.91.46,1.52-3.07-.92-.45Zm3-6.13L247.31,374l.92.46,1.51-3.07-.92-.45Zm3-6.13-1.51,3.06.92.46,1.51-3.07-.92-.45Zm3-6.13-1.51,3.06.92.46,1.51-3.07-.92-.45Zm.5-4.5-.45.91,2.3,1.13.46-.92h0l-.92-.45h0l-1.39-.67Zm-6.14-3-.45.92,3.07,1.5.45-.92Zm-6.15-3-.44.92,3.07,1.5.45-.92-3.08-1.5Z"/>
            </g>
            <text id="numMRC" class="cls-9" transform="translate(239.26 383.84) rotate(-64.07)">MRC</text>
          </g>
          <g>
            <path class="cls-14" d="M390.65,237.33l.5,1.85c-1.61.11-3.21.51-3.21,2.12,0,1.07.61,1.64,1.75,1.64a3.58,3.58,0,0,0,2.84-1.63l2.21-2.5a3.92,3.92,0,0,1,3.3-1.44,3.19,3.19,0,0,1,3.45,2.9,3,3,0,0,1,0,.6c0,2.38-1.24,3.52-3.85,3.76l-.48-1.77c1.47-.11,2.73-.44,2.73-2a1.48,1.48,0,0,0-1.3-1.64h-.35a2.35,2.35,0,0,0-2,1L394,242.74a5.5,5.5,0,0,1-4.18,2.14,3.36,3.36,0,0,1-3.56-3.15,2.94,2.94,0,0,1,0-.42C386.3,238.7,388.07,237.48,390.65,237.33Z"/>
            <path class="cls-14" d="M397.12,246.46v2H386.46v-2Zm3.65,0v2h-2.06v-2Z"/>
            <path class="cls-14" d="M397.12,250.55v1.83h-1a3.31,3.31,0,0,1,1.2,2.51,1.67,1.67,0,0,1-1.35,1.73,3.39,3.39,0,0,1,1.35,2.65c0,1-.7,1.89-2.47,1.89h-8.38v-1.81h8.25c1,0,1.31-.37,1.31-.92a2.45,2.45,0,0,0-.87-1.66h-8.69V255h8.25c1,0,1.31-.37,1.31-.92a2.49,2.49,0,0,0-.87-1.66h-8.69v-1.83Z"/>
            <path class="cls-14" d="M390.53,262.89H393c2.67,0,4.26.53,4.26,3.11,0,2.33-1.16,2.92-3.36,2.92h-.62v-1.79h.64c1.39,0,1.88-.24,1.88-1.11s-.59-1.16-2.39-1.16H390c-1.83,0-2.29.3-2.29,1.18s.76,1.09,1.85,1.09h.94v1.79h-.73c-2.16,0-3.43-.63-3.43-2.92C386.32,263.39,388,262.89,390.53,262.89Z"/>
            <path class="cls-14" d="M390.24,270.49h3.1c2.4,0,3.93.73,3.93,3.11s-1.53,3.1-3.93,3.1h-3.1c-2.39,0-3.92-.74-3.92-3.1S387.85,270.49,390.24,270.49Zm-.12,4.24h3.33c1.2,0,2.36,0,2.36-1.13s-1.16-1.14-2.36-1.14h-3.33c-1.2,0-2.35,0-2.35,1.14S388.92,274.73,390.12,274.73Z"/>
            <path class="cls-14" d="M390.58,278.3H393c2.82,0,4.26.7,4.26,3.16,0,2.67-1.73,3-4.65,3h-.86v-4.2h-2.14c-1.29,0-1.85.35-1.85,1.2s.69,1.06,1.76,1.06h.64v1.92h-.41c-2.13,0-3.44-.83-3.44-3C386.32,279,387.79,278.3,390.58,278.3Zm2.25,4.24h.95c1.31,0,2-.12,2-1.1s-.57-1.16-2.41-1.16h-.57Z"/>
            <path class="cls-14" d="M390.65,290.21l.5,1.85c-1.61.11-3.21.52-3.21,2.12,0,1.07.61,1.64,1.75,1.64a3.59,3.59,0,0,0,2.84-1.61l2.21-2.51a3.92,3.92,0,0,1,3.3-1.44,3.2,3.2,0,0,1,3.46,2.92,3.88,3.88,0,0,1,0,.59c0,2.37-1.24,3.52-3.85,3.76l-.48-1.77c1.47-.11,2.73-.45,2.73-2a1.49,1.49,0,0,0-1.31-1.65h-.34a2.35,2.35,0,0,0-2,1L394,295.64a5.55,5.55,0,0,1-4.18,2.14,3.36,3.36,0,0,1-3.56-3.15,3.09,3.09,0,0,1,0-.43C386.3,291.58,388.07,290.36,390.65,290.21Z"/>
            <path class="cls-14" d="M388.86,299.75h6.95v-1.13h1.31v1.13h3.12v2h-3.12v1.72h-1.31v-1.72H389c-.83,0-1.16.2-1.16,1a5.81,5.81,0,0,0,.05.72h-1.45a7.83,7.83,0,0,1-.11-1.37C386.32,300.38,387.31,299.75,388.86,299.75Z"/>
            <path class="cls-14" d="M388.66,304.8v2h-2.2v-2Z"/>
          </g>
        </g>
      </g>
    </g>
  </g>
</svg>
