<?xml version="1.0" encoding="utf-8"?>
<!-- Generator: Adobe Illustrator 24.1.0, SVG Export Plug-In . SVG Version: 6.00 Build 0)  -->
<svg version="1.1" id="Layer_1" xmlns="http://www.w3.org/2000/svg" xmlns:xlink="http://www.w3.org/1999/xlink" x="0px" y="0px"
	 viewBox="0 0 401.5 631.3" style="enable-background:new 0 0 401.5 631.3;" xml:space="preserve">
<style type="text/css">
	.st0{fill:none;stroke:#FFFFFF;}
	.st1{opacity:0.7;fill:#0B8261;enable-background:new    ;}
	.st2{fill:none;stroke:#7FBDAD;stroke-width:1.35;stroke-miterlimit:10;}
	.st3{fill:#0B8261;stroke:#7FBDAD;stroke-width:1.35;stroke-miterlimit:10;}
	.st4{fill:#FFFFFF;}
	.st5{fill:#FFFFFF;stroke:#FFFFFF;stroke-width:0.26;stroke-miterlimit:10;}
	.st6{opacity:0.5;fill:#0B8261;stroke:#7FBDAD;stroke-width:1.35;stroke-miterlimit:10;enable-background:new    ;}
	.st7{fill:#7FBDAD;stroke:#FFFFFF;stroke-width:1.35;stroke-miterlimit:10;}
	.st8{enable-background:new    ;}
	.st9{fill:#1E3853;}
	.st10{fill:#7FBDAD;stroke:#FFFFFF;stroke-width:1.31;stroke-miterlimit:10;}
	.st11{fill:#7FBDAD;}
	.st12{fill:#9EC2B4;}
</style>
<g id="Layer_2_1_">
	<g id="trial4">
		<g id="Layer_9">
			<g>
				<polygon id="buildingOutline" class="st0" points="81.5,631.3 80.9,631 0,591.4 17.9,554.8 66.5,535 143.2,378.5 120.6,367 
					120.9,366.4 171.9,263.9 185.1,270.4 324.9,0 362.1,0 362.1,459.3 340.8,448.8 340.8,448.8 340.2,448.5 219,388.6 239.2,347.5 
					176.1,315.9 154.7,358.3 203.2,382 116.7,559.1 116.4,559.7 				"/>
				<polygon id="buildingFill" class="st1" points="81.5,631.3 80.9,631 0,591.4 17.9,554.8 66.5,535 143.2,378.5 120.6,367 
					120.9,366.4 171.9,263.9 185.1,270.4 324.9,0 362.1,0 362.1,459.3 340.8,448.8 340.8,448.8 340.2,448.5 219,388.6 239.2,347.5 
					176.1,315.9 154.7,358.3 203.2,382 116.7,559.1 116.4,559.7 				"/>
				
					<rect x="116.9" y="467" transform="matrix(0.4377 -0.8991 0.8991 0.4377 -355.4627 379.7943)" class="st2" width="18.2" height="14.1"/>
				
					<rect x="132.3" y="474.6" transform="matrix(0.4377 -0.8991 0.8991 0.4377 -353.5401 397.9431)" class="st2" width="18.2" height="14.1"/>
				
					<rect x="100.8" y="509.8" transform="matrix(0.4377 -0.8991 0.8991 0.4377 -410.6463 394.55)" class="st2" width="18.7" height="31.7"/>
				
					<rect x="170.9" y="368.5" transform="matrix(0.4377 -0.8991 0.8991 0.4377 -245.0725 376.8859)" class="st2" width="15.7" height="31.7"/>
				
					<rect x="162.7" y="385.5" transform="matrix(0.4377 -0.8991 0.8991 0.4377 -264.9118 378.9826)" class="st2" width="15.7" height="31.7"/>
				
					<rect x="154.5" y="402.4" transform="matrix(0.4377 -0.8991 0.8991 0.4377 -284.744 381.0928)" class="st2" width="15.7" height="31.7"/>
				<g id="spareRoom-Right">
					<rect x="324.7" y="123.6" class="st3" width="31.4" height="10.8"/>
				</g>
				<g id="left-third">
					<polygon class="st3" points="289.1,196.2 242.9,172.3 255.9,147.1 289.1,164.6 					"/>
				</g>
				<g id="left-second">
					<polygon class="st3" points="289,160 257.7,143.7 268,123.8 289.1,134.8 					"/>
				</g>
				<g id="left-top">
					<polygon class="st3" points="289.2,131.1 269.6,120.9 276.2,108 289.2,114.8 					"/>
				</g>
				<g id="ind-center">
					<polygon class="st3" points="289,251.8 220.1,216.2 240.8,176.3 289.1,201.3 					"/>
				</g>
				<g id="CAF">
					<g id="caf-2">
						<rect x="312.2" y="309.8" class="st2" width="43.7" height="41.9"/>
					</g>
					<g id="food-icon-3prong">
						<path class="st4" d="M341.4,318.9h-0.2c-2.8,0-5,3-5,6.8c0,3.4,1.9,6.3,4.3,6.7v12.8c0,0.5,0.4,0.9,0.9,0.9s0.9-0.4,0.9-0.9
							l0,0v-25.4C342.3,319.3,341.9,318.9,341.4,318.9z M337.9,325.7c0-2.4,1.2-4.5,2.6-5v10C339.1,330.2,337.9,328.1,337.9,325.7
							L337.9,325.7z"/>
						<path class="st4" d="M333.1,318.9c-0.5,0-0.9,0.4-0.9,0.9l0,0l0,0v8.1c0,1.4-0.2,2.3-0.5,2.6s-0.9,0.3-1.8,0.3v-11
							c0.1-0.5-0.3-0.9-0.7-1c-0.5-0.1-0.9,0.3-1,0.7c0,0,0,0,0,0c0,0.1,0,0.1,0,0.2v11c-1.8,0-2.2-0.4-2.2-3.3v-7.6
							c0-0.5-0.3-0.9-0.8-0.9s-0.9,0.3-0.9,0.8c0,0.1,0,0.1,0,0.2v7.6c0,4,1.2,4.9,3.9,5v12.8c-0.1,0.5,0.3,0.9,0.7,1
							c0.5,0.1,0.9-0.3,1-0.7c0,0,0,0,0,0c0-0.1,0-0.1,0-0.2v-12.8c1.1,0.1,2.2-0.1,3-0.8c0.7-0.7,1-1.8,1-3.8v-8.1
							C334,319.3,333.6,318.9,333.1,318.9L333.1,318.9L333.1,318.9z"/>
					</g>
				</g>
				<g id="ssbBathroom">
					
						<rect x="108.3" y="486.6" transform="matrix(0.4377 -0.8991 0.8991 0.4377 -383.4514 391.6292)" class="st2" width="26.1" height="31.7"/>
					<g id="bathroomSymbol">
						<path class="st4" d="M121.7,494.9c-0.1,0-0.3,0.1-0.3,0.3l0,0l0,0V511c0,0.1,0.2,0.2,0.3,0.2c0.1,0,0.2-0.1,0.2-0.2v-15.9
							C121.9,495,121.8,494.8,121.7,494.9C121.7,494.8,121.7,494.8,121.7,494.9L121.7,494.9z"/>
						<path class="st4" d="M126.5,499.2c0.8,0,1.5-0.7,1.5-1.5s-0.7-1.5-1.5-1.5c-0.8,0-1.5,0.7-1.5,1.5l0,0l0,0
							C125,498.5,125.7,499.2,126.5,499.2z M126.5,496.7c0.6,0,1,0.4,1,1s-0.4,1-1,1s-1-0.4-1-1S126,496.7,126.5,496.7L126.5,496.7z
							"/>
						<path class="st4" d="M129,505.2l-0.4-3.4c0-0.3-0.1-0.7-0.2-1c-0.2-0.8-0.8-1.3-1.6-1.4h-0.3c-0.8,0-1.5,0.6-1.7,1.4
							c-0.1,0.3-0.2,0.7-0.2,1l-0.4,3.4c0,0.1,0.1,0.3,0.2,0.3c0,0,0,0,0,0l0,0c0.1,0,0.2-0.1,0.3-0.2l0.4-3.4
							c0-0.3,0.1-0.6,0.2-0.8c0.1-0.3,0.3-0.6,0.5-0.8v0.4l-0.8,4.5l0,0c0,0.4,0.3,0.7,0.7,0.9v2.7c0,0.3-0.2,0.6-0.6,0.6
							c0,0,0,0,0,0l0,0c-0.1,0-0.3,0.1-0.3,0.2c0,0,0,0,0,0l0,0c0,0.1,0.1,0.3,0.3,0.3l0,0c0.6,0,1.1-0.5,1.1-1.1v-2.5
							c0.1,0,0.2,0,0.4,0h0.5v2.5c0,0.6,0.5,1.1,1.1,1.1c0.1,0,0.3-0.1,0.3-0.3l0,0c0-0.1-0.1-0.3-0.3-0.3l0,0l0,0
							c-0.3,0-0.6-0.2-0.6-0.6c0,0,0,0,0,0l0,0v-2.7c0.3-0.2,0.6-0.5,0.6-0.9l-0.8-4.6v-0.4c0.2,0.2,0.4,0.5,0.5,0.8
							c0.1,0.3,0.2,0.6,0.2,0.9l0.4,3.4c0,0.1,0.1,0.2,0.3,0.2l0,0C128.9,505.5,129,505.4,129,505.2L129,505.2z M127.7,505.2
							c0,0.3-0.6,0.6-1,0.6h-0.2c-0.5,0-1-0.4-1-0.6l0.8-4.5v-0.1c0-0.2,0-0.4,0-0.5c0-0.1,0-0.1,0.2-0.1h0.2c0.1,0,0.2,0,0.2,0.1
							c0,0.2,0,0.3,0,0.5L127.7,505.2z"/>
						<path class="st4" d="M116.8,499.2c0.8,0,1.5-0.7,1.5-1.5c0-0.8-0.7-1.5-1.5-1.5c-0.8,0-1.5,0.7-1.5,1.5l0,0
							C115.3,498.5,116,499.2,116.8,499.2C116.8,499.2,116.8,499.2,116.8,499.2z M116.8,496.7c0.6,0,1,0.4,1,1s-0.4,1-1,1
							s-1-0.4-1-1S116.3,496.7,116.8,496.7L116.8,496.7z"/>
						<path class="st4" d="M117,499.5h-0.3c-1.1,0-2,0.9-2,2v3.8c0,0.1,0.1,0.3,0.2,0.3c0.1,0,0.3-0.1,0.3-0.2c0,0,0,0,0,0
							c0,0,0-0.1,0-0.1v-3.8c0-0.4,0.1-0.7,0.4-1v8.3c0,0.3-0.3,0.6-0.6,0.6c0,0,0,0,0,0c-0.1,0-0.3,0.1-0.3,0.2c0,0,0,0,0,0l0,0
							c0,0.1,0.1,0.3,0.2,0.3c0,0,0,0,0,0l0,0c0.6,0,1.1-0.5,1.1-1.1v-2.6c0.2,0.1,0.4,0.2,0.6,0.2h0.3c0.2,0,0.4-0.1,0.6-0.2v2.6
							c0,0.6,0.5,1.1,1.1,1.1c0.1,0,0.2-0.2,0.2-0.3c0-0.1-0.1-0.2-0.2-0.2l0,0c-0.3,0-0.6-0.3-0.6-0.6l0,0v-8.4
							c0.3,0.3,0.4,0.6,0.4,1v3.8c0,0.1,0.1,0.3,0.2,0.3c0.1,0,0.3-0.1,0.3-0.2c0,0,0,0,0,0c0,0,0-0.1,0-0.1v-3.8
							C119,500.3,118.1,499.4,117,499.5z M116.9,505.8h-0.2c-0.3,0-0.6-0.3-0.6-0.6v-4.6c0-0.3,0.3-0.6,0.6-0.6h0.3
							c0.3,0,0.6,0.3,0.6,0.6v4.6C117.6,505.5,117.3,505.8,116.9,505.8L116.9,505.8z"/>
					</g>
				</g>
				<g id="cfceBathroom">
					<g id="washroom">
						<polygon class="st2" points="312.2,380.5 312.2,425.6 355.9,447.8 355.9,380.5 						"/>
					</g>
					<g id="bathroomSymbol-2">
						<path class="st4" d="M333.5,384.7c-0.2,0-0.4,0.2-0.5,0.5v27.6c0,0.2,0.2,0.4,0.5,0.5c0.3,0,0.5-0.2,0.5-0.5v-27.6
							C334,385,333.8,384.7,333.5,384.7C333.5,384.7,333.5,384.7,333.5,384.7L333.5,384.7z"/>
						<path class="st4" d="M342,392.3c1.5,0,2.7-1.2,2.7-2.7s-1.2-2.7-2.7-2.7c-1.5,0-2.7,1.2-2.7,2.7l0,0
							C339.3,391.1,340.5,392.3,342,392.3L342,392.3z M342,387.9c1,0,1.7,0.8,1.7,1.7c0,1-0.8,1.7-1.7,1.7c-1,0-1.7-0.8-1.7-1.7
							C340.3,388.7,341,387.9,342,387.9C342,387.9,342,387.9,342,387.9z"/>
						<path class="st4" d="M346.2,402.8l-0.7-5.9c-0.1-0.6-0.2-1.2-0.4-1.8c-0.3-1.4-1.5-2.3-2.9-2.4h-0.6c-1.4,0.1-2.6,1-2.9,2.4
							c-0.2,0.5-0.3,1.1-0.4,1.6l-0.7,6c0,0.3,0.1,0.5,0.4,0.5h0.1c0.2,0,0.4-0.2,0.5-0.4l0.7-6c0.1-0.5,0.2-1,0.3-1.5
							c0.2-0.5,0.4-1,0.8-1.4c0,0.2,0,0.5,0,0.7l-1.5,7.9v0.1c0.1,0.7,0.6,1.3,1.2,1.6v4.7c0,0.6-0.4,1-1,1c-0.3,0-0.4,0.3-0.4,0.5
							c0,0.2,0.2,0.4,0.4,0.4c1.1,0,2-0.9,2-2v-4.4c0.2,0.1,0.4,0.1,0.6,0.1h0.4c0.2,0,0.4,0,0.6-0.1v4.4c0,1.1,0.9,2,2,2
							c0.3,0,0.5-0.1,0.5-0.4c0,0,0,0,0,0c0.1-0.2-0.1-0.5-0.3-0.6c0,0-0.1,0-0.1,0h-0.1c-0.6,0-1-0.4-1-1v-4.7
							c0.6-0.3,1-0.9,1.1-1.5l-1.3-8v-0.7c0.4,0.4,0.7,0.8,0.8,1.4c0.2,0.5,0.3,1,0.4,1.6l0.7,5.9c0,0.2,0.2,0.4,0.5,0.4l0,0
							C346.1,403.2,346.2,403,346.2,402.8z M343.9,402.8c0,0.5-1,1-1.7,1h-0.4c-0.8,0-1.8-0.6-1.8-1l1.5-7.8v-0.1c0-0.3,0-0.6,0.1-1
							c0-0.1,0.1-0.2,0.3-0.2h0.4c0.2,0,0.3,0.1,0.3,0.1c0.1,0.3,0.1,0.6,0.1,0.9L343.9,402.8z"/>
						<path class="st4" d="M325.1,392.3c1.5,0,2.7-1.2,2.7-2.7s-1.2-2.7-2.7-2.7c-1.5,0-2.7,1.2-2.7,2.7l0,0
							C322.4,391.1,323.6,392.3,325.1,392.3L325.1,392.3z M325.1,387.9c1,0,1.7,0.8,1.7,1.7c0,1-0.8,1.7-1.7,1.7
							c-1,0-1.7-0.8-1.7-1.7C323.3,388.7,324.1,387.9,325.1,387.9C325.1,387.9,325.1,387.9,325.1,387.9z"/>
						<path class="st4" d="M325.4,392.8h-0.6c-1.9,0-3.5,1.6-3.5,3.5c0,0,0,0,0,0l0,0v6.6c0,0.3,0.2,0.5,0.5,0.5
							c0.2,0,0.4-0.2,0.5-0.5v-6.6c0-0.7,0.3-1.3,0.7-1.8c0,0.1,0,0.2,0,0.3V409c0,0.6-0.4,1-1,1c-0.3,0-0.5,0.1-0.5,0.4
							c0,0,0,0,0,0c0,0.3,0.1,0.5,0.4,0.5h0.1c1.1,0,2-0.9,2-2v-4.6c0.3,0.2,0.7,0.3,1.1,0.3h0.4c0.4,0,0.8-0.1,1.1-0.3v4.7
							c0,1.1,0.9,2,2,2c0.3,0,0.4-0.3,0.4-0.5c0-0.2-0.2-0.4-0.4-0.4c-0.6,0-1-0.4-1-1v-14.3c0-0.1,0-0.2,0-0.3
							c0.5,0.5,0.7,1.1,0.7,1.8v6.6c0,0.2,0.2,0.4,0.5,0.5c0.3,0,0.5-0.2,0.5-0.5v-6.6c0-1.9-1.6-3.5-3.5-3.5c0,0,0,0,0,0H325.4z
							 M325.3,403.8h-0.4c-0.6,0-1.1-0.5-1.1-1.1v-8c0-0.6,0.5-1.1,1.1-1.1c0,0,0,0,0,0h0.4c0.6,0,1.1,0.5,1.1,1.1l0,0v8
							C326.4,403.3,325.9,403.8,325.3,403.8L325.3,403.8z"/>
					</g>
				</g>
				<g id="ssbTims">
					<polygon class="st2" points="99.2,584.4 80.5,550.2 89.9,530.9 118.4,544.8 					"/>
					<g id="food-icon-3prong-2">
						<path class="st4" d="M103.3,544.9h-0.1c-1.7,0-3,1.8-3,4.1c0,2.1,1.2,3.8,2.6,4v7.7c0,0.3,0.2,0.5,0.5,0.5c0,0,0,0,0,0l0,0
							c0.3,0,0.5-0.2,0.5-0.5l0,0l0,0v-15.3C103.8,545.1,103.6,544.9,103.3,544.9C103.3,544.9,103.3,544.9,103.3,544.9L103.3,544.9z
							 M101.2,549c-0.1-1.2,0.5-2.4,1.6-3v6C101.7,551.4,101.1,550.2,101.2,549z"/>
						<path class="st4" d="M98.3,544.9c-0.3,0-0.5,0.2-0.5,0.5l0,0l0,0v4.9c0,0.9-0.1,1.4-0.3,1.6s-0.6,0.2-1.1,0.2v-6.6
							c0-0.3-0.3-0.5-0.6-0.4c0,0,0,0,0,0c-0.2,0-0.4,0.2-0.4,0.4v6.6c-1.1,0-1.3-0.2-1.3-2v-4.6c0-0.3-0.2-0.5-0.5-0.5
							c-0.3,0-0.5,0.2-0.5,0.5c0,0,0,0,0,0l0,0v4.6c0,2.4,0.7,3,2.4,3v7.7c0.1,0.3,0.3,0.5,0.6,0.4c0.2,0,0.4-0.2,0.4-0.4V553
							c0.6,0.1,1.3-0.1,1.8-0.5c0.5-0.7,0.7-1.5,0.6-2.3v-4.9C98.8,545.1,98.5,544.9,98.3,544.9z"/>
					</g>
				</g>
				<g id="stairsBottom">
					<path class="st4" d="M301.3,416h-6.4c-0.2,0-0.3,0.1-0.3,0.2c0,0,0,0,0,0c0,0.2,0.1,0.3,0.2,0.3c0,0,0,0,0,0h6.5
						c0.2,0,0.3-0.1,0.3-0.2c0,0,0,0,0,0c0-0.2-0.1-0.3-0.2-0.3c0,0,0,0,0,0H301.3z"/>
					<path class="st4" d="M303.7,413.7h-5.6c-0.2,0-0.3,0.1-0.3,0.3s0.1,0.3,0.3,0.3c0,0,0,0,0,0h5.6c0.2,0,0.3-0.1,0.3-0.3
						C304,413.8,303.9,413.7,303.7,413.7z"/>
					<path class="st4" d="M305.9,411.4h-5c-0.2,0-0.3,0.1-0.3,0.3s0.1,0.3,0.3,0.3c0,0,0,0,0,0h5c0.2,0,0.3-0.1,0.3-0.3
						S306,411.4,305.9,411.4C305.9,411.4,305.9,411.4,305.9,411.4z"/>
					<path class="st4" d="M296.9,402.9c0.9,0,1.6-0.7,1.6-1.6c0-0.9-0.7-1.6-1.6-1.6c-0.9,0-1.6,0.7-1.6,1.6l0,0l0,0
						C295.2,402.1,296,402.9,296.9,402.9z M296.9,400.1c0.6,0,1.1,0.5,1.1,1.1s-0.5,1.1-1.1,1.1c-0.6,0-1.1-0.5-1.1-1.1l0,0
						C295.8,400.6,296.3,400.1,296.9,400.1z"/>
					<path class="st4" d="M295.3,410.1v4.4c0,0.7,0.5,1.2,1.2,1.2l0,0l0,0c0.2,0,0.3-0.1,0.3-0.3c0,0,0,0,0,0l0,0
						c0-0.2-0.1-0.3-0.3-0.3l0,0c-0.4,0-0.6-0.3-0.6-0.6v-4h0.6c0.3,0,0.5-0.1,0.8-0.2l1,0.5l0.1,1.5c0,0.7,0.5,1.2,1.2,1.2l0,0l0,0
						c0.2,0,0.3-0.2,0.2-0.3c0,0,0,0,0,0c0-0.1-0.1-0.2-0.2-0.2c-0.4,0-0.6-0.3-0.6-0.6l0,0l-0.1-1.7c0-0.1-0.1-0.2-0.2-0.2l-1-0.5
						c0.1-0.2,0.1-0.3,0.1-0.5V408h0.7c0.2,0,0.3-0.2,0.3-0.3c0,0,0,0,0,0c0-0.2-0.2-0.3-0.3-0.3c0,0,0,0,0,0l0,0
						c-0.2,0-0.4,0-0.6,0l0.1-3c0-0.7-0.5-1.3-1.2-1.3h-0.2c-0.3,0-0.7,0.1-0.9,0.3c-0.2,0.2-0.4,0.5-0.4,0.9l-0.2,5
						C295,409.6,295.1,409.9,295.3,410.1z M295.7,404.2c0-0.4,0.3-0.7,0.7-0.6h0.3c0.4,0,0.7,0.3,0.6,0.7c0,0,0,0,0,0l0,0l-0.1,2.9
						c0,0-0.1-0.1-0.1-0.1l-0.3-2.5c0-0.2-0.2-0.3-0.3-0.2c-0.2,0-0.3,0.2-0.2,0.3l0.3,2.5c0,0.2,0.1,0.5,0.6,0.6l0,1.4
						c0,0.4-0.3,0.7-0.7,0.6h-0.2c-0.1,0-0.3,0-0.4-0.1c0,0-0.1-0.1-0.1-0.1c-0.1-0.1-0.2-0.3-0.2-0.5L295.7,404.2z"/>
				</g>
				<g id="stairsTop">
					<path class="st4" d="M353,69.3h-6.4c-0.2,0-0.3,0.1-0.3,0.3s0.1,0.3,0.3,0.3h6.4c0.2,0,0.3-0.1,0.3-0.3S353.2,69.3,353,69.3z"
						/>
					<path class="st4" d="M355.4,67h-5.6c-0.2,0-0.3,0.1-0.3,0.3v0l0,0c0,0.2,0.1,0.3,0.3,0.3h5.6c0.2,0,0.3-0.1,0.3-0.3l0,0
						C355.7,67.1,355.6,67,355.4,67L355.4,67L355.4,67z"/>
					<path class="st4" d="M357.6,64.7h-5c-0.2,0-0.3,0.1-0.3,0.3v0l0,0c0,0.2,0.1,0.3,0.3,0.3h5c0.2,0,0.3-0.2,0.2-0.3
						C357.8,64.8,357.7,64.7,357.6,64.7L357.6,64.7z"/>
					<path class="st4" d="M348.6,56.2c0.9,0,1.6-0.7,1.6-1.6c0-0.9-0.7-1.7-1.6-1.7c-0.9,0-1.6,0.7-1.6,1.6v0l0,0
						C346.9,55.5,347.7,56.2,348.6,56.2z M348.6,53.5c0.6,0,1.1,0.5,1.1,1.1c0,0.6-0.5,1.1-1.1,1.1c-0.6,0-1.1-0.5-1.1-1.1v0
						C347.5,54,348,53.5,348.6,53.5L348.6,53.5z"/>
					<path class="st4" d="M347,63.4v4.4c0,0.7,0.6,1.2,1.2,1.2l0,0c0.2,0,0.3-0.1,0.3-0.3l0,0c0-0.2-0.1-0.3-0.3-0.3l0,0l0,0
						c-0.4,0-0.6-0.3-0.6-0.6c0,0,0,0,0,0l0,0v-4c0.1,0,0.2,0,0.3,0h0.3c0.3,0,0.5-0.1,0.8-0.3l1,0.5l0.1,1.5c0,0.7,0.5,1.2,1.2,1.2
						l0,0l0,0c0.2,0,0.3-0.1,0.3-0.3s-0.1-0.3-0.3-0.3c-0.4,0-0.6-0.3-0.6-0.7l0,0v-1.7c0-0.1-0.1-0.2-0.1-0.2l-1-0.5
						c0.1-0.2,0.1-0.3,0.1-0.5l0-1.3h0.7c0.2,0,0.3-0.2,0.3-0.3c0,0,0,0,0,0l0,0c0-0.2-0.2-0.3-0.3-0.3c0,0,0,0,0,0
						c-0.2,0-0.4,0-0.6,0l0.1-3c0-0.7-0.5-1.3-1.2-1.3h-0.2c-0.3,0-0.7,0.1-0.9,0.3c-0.2,0.2-0.4,0.5-0.4,0.9l-0.2,5
						C346.7,62.9,346.8,63.2,347,63.4z M347.4,57.6c0-0.2,0.1-0.3,0.2-0.5c0.1-0.1,0.3-0.2,0.5-0.2h0.3c0.4,0,0.7,0.3,0.6,0.7
						l-0.1,2.9c0,0-0.1,0-0.1-0.1l-0.3-2.5c0-0.2-0.2-0.3-0.3-0.2l0,0c-0.2,0-0.3,0.2-0.2,0.3l0,0l0.3,2.5c0,0.2,0.1,0.5,0.6,0.6
						l0,1.4c0,0.2-0.1,0.3-0.2,0.5c-0.1,0.1-0.3,0.2-0.5,0.2h-0.2c-0.1,0-0.3,0-0.4-0.1c0,0-0.1-0.1-0.1-0.1
						c-0.1-0.1-0.2-0.3-0.2-0.5L347.4,57.6z"/>
				</g>
				<g id="doors">
					<g id="exit">
						<path class="st5" d="M48.1,603.5c-0.2-0.2-0.5-0.3-0.7-0.1c0,0,0,0,0,0l0,0c-0.5,0.4-1,0.8-1.4,1.3c-0.2,0.2-0.2,0.5,0,0.7
							c0,0,0.1,0.1,0.1,0.1c0.2,0.1,0.4,0.1,0.6-0.1c0.4-0.4,0.9-0.8,1.3-1.2C48.2,604,48.3,603.7,48.1,603.5
							C48.1,603.5,48.1,603.5,48.1,603.5L48.1,603.5z"/>
						<path class="st5" d="M45.4,606c-0.2-0.2-0.6-0.1-0.7,0.1c-0.4,0.5-0.7,1-1.1,1.5c-0.2,0.2-0.1,0.6,0.1,0.7c0,0,0,0,0,0l0,0
							c0.2,0.2,0.6,0.1,0.7-0.1c0,0,0,0,0,0l0,0c0.3-0.5,0.7-1,1-1.5C45.7,606.6,45.6,606.2,45.4,606C45.4,606,45.4,606,45.4,606
							L45.4,606z"/>
						<path class="st5" d="M61.8,616.7l-10.4-15c-0.1-0.2-0.4-0.3-0.6-0.2h-0.2c-0.6,0.3-1.2,0.6-1.7,0.9c-0.2,0.1-0.3,0.5-0.2,0.7
							c0,0.1,0.1,0.2,0.2,0.2c0.2,0.1,0.3,0.1,0.5,0c0.4-0.2,0.8-0.5,1.3-0.7l10.2,14.7c0,0.1,0.1,0.1,0.2,0.2
							c0.2,0.1,0.5,0.1,0.7-0.2C61.9,617.1,61.9,616.9,61.8,616.7L61.8,616.7z"/>
						<path class="st5" d="M41.9,603.4c0.3,0,0.5-0.1,0.6-0.4c0,0,0,0,0,0l0,0c0.1-0.6,0.1-1.3,0.2-1.9c0-0.3-0.2-0.5-0.5-0.5
							c0,0,0,0,0,0l0,0c-0.3,0-0.5,0.2-0.5,0.5c0,0,0,0,0,0l0,0c0,0.6-0.1,1.2-0.1,1.8c0,0.2,0.1,0.4,0.3,0.5
							C41.8,603.4,41.9,603.4,41.9,603.4z"/>
						<path class="st5" d="M42.5,599.2c-0.1-0.6-0.2-1.2-0.3-1.8c0-0.1,0-0.1,0-0.2c-0.1-0.2-0.3-0.4-0.5-0.3l-18.3,0.7
							c-0.3,0-0.5,0.2-0.5,0.5c0,0,0,0,0,0c0,0.2,0.1,0.4,0.3,0.5c0.1,0,0.2,0,0.2,0l17.9-0.7c0.1,0.5,0.2,1,0.2,1.4
							c0,0.2,0.1,0.3,0.3,0.4c0.1,0,0.2,0,0.3,0C42.3,599.6,42.5,599.4,42.5,599.2z"/>
						<path class="st5" d="M42.1,604.8c0.1-0.3-0.1-0.6-0.4-0.6c-0.3-0.1-0.6,0.1-0.6,0.4l0,0c-0.2,0.5-0.3,1.1-0.6,1.7
							c-0.1,0.3,0,0.5,0.3,0.7l0,0c0.3,0.1,0.5,0,0.7-0.3c0,0,0,0,0,0l0,0C41.7,606,41.9,605.4,42.1,604.8z"/>
					</g>
					<g id="exit-2">
						<path class="st4" d="M262.4,403.1c-0.1-0.2-0.3-0.2-0.5-0.1c0,0,0,0,0,0l0,0c-0.4,0.3-0.7,0.6-1,0.9c-0.1,0.1-0.1,0.4,0,0.5
							c0,0,0,0,0,0l0,0l0.1,0.1c0.1,0.1,0.3,0,0.4-0.1c0.3-0.3,0.6-0.6,0.9-0.8C262.5,403.5,262.5,403.2,262.4,403.1z"/>
						<path class="st4" d="M260.5,404.8c-0.2-0.1-0.4-0.1-0.5,0.1c-0.2,0.3-0.5,0.7-0.7,1.1c-0.1,0.2,0,0.4,0.1,0.5l0,0
							c0.2,0.1,0.4,0,0.5-0.1c0.2-0.4,0.5-0.7,0.7-1C260.7,405.1,260.7,404.9,260.5,404.8z"/>
						<path class="st4" d="M271.8,412.1l-7.2-10.3c-0.1-0.1-0.3-0.2-0.4-0.1h-0.1c-0.4,0.2-0.8,0.4-1.1,0.6
							c-0.2,0.1-0.2,0.3-0.1,0.5c0,0.1,0.1,0.1,0.1,0.1c0.1,0.1,0.2,0.1,0.3,0c0.3-0.2,0.6-0.3,0.9-0.5l7,10.1
							c0.1,0.1,0.3,0.2,0.5,0.1C271.8,412.5,271.9,412.3,271.8,412.1C271.8,412.2,271.8,412.2,271.8,412.1z"/>
						<path class="st4" d="M258.1,403c0.2,0,0.4-0.1,0.4-0.3l0,0c0.1-0.4,0.1-0.9,0.1-1.3c0-0.2-0.1-0.3-0.3-0.4c0,0,0,0,0,0l0,0
							c-0.2,0-0.4,0.2-0.4,0.4c0,0.4,0,0.8-0.1,1.2C257.8,402.8,257.9,402.9,258.1,403L258.1,403z"/>
						<path class="st4" d="M258.5,400.1c0-0.4-0.1-0.8-0.2-1.3c0,0,0-0.1,0-0.1c-0.1-0.1-0.2-0.2-0.4-0.2l-12.6,0.5
							c-0.2,0-0.4,0.2-0.3,0.4c0,0.1,0.1,0.2,0.2,0.3c0.1,0,0.1,0,0.2,0l12.3-0.5c0.1,0.4,0.1,0.7,0.2,1c0,0.2,0.2,0.3,0.4,0.3
							c0.1,0,0.3-0.1,0.3-0.2C258.6,400.2,258.6,400.1,258.5,400.1L258.5,400.1z"/>
						<path class="st4" d="M258.3,404c0.1-0.2,0-0.4-0.2-0.5c-0.2-0.1-0.4,0-0.5,0.2c0,0,0,0,0,0.1c-0.1,0.4-0.2,0.8-0.4,1.2
							c-0.1,0.2,0,0.4,0.2,0.5l0,0c0.2,0.1,0.4,0,0.5-0.2l0,0C258,404.8,258.2,404.4,258.3,404z"/>
					</g>
					<g id="exit-top">
						<path class="st4" d="M332.1,4.3c0,0-0.1,0-0.1,0l0,0c-0.1-0.1-0.1-0.3-0.2-0.4c0-0.1,0-0.1,0.1-0.2l0,0c0.1,0,0.1,0,0.1,0.1
							c0,0.1,0.1,0.3,0.1,0.4C332.1,4.2,332.1,4.2,332.1,4.3z"/>
						<path class="st4" d="M331.8,3.4c-0.1,0-0.1,0-0.1-0.1c0-0.2,0-0.3-0.1-0.5c0-0.1,0-0.1,0.1-0.1c0,0,0,0,0,0l0,0
							c0.1,0,0.1,0.1,0.1,0.1c0,0.1,0,0.3,0.1,0.4C331.9,3.3,331.8,3.4,331.8,3.4z"/>
						<path class="st4" d="M336.2,2.9L332.5,5c0,0-0.1,0-0.1,0l0,0c-0.1-0.1-0.2-0.2-0.3-0.4c0-0.1,0-0.1,0-0.2h0.1
							c0,0,0.1,0,0.1,0.1c0.1,0.1,0.1,0.2,0.2,0.3l3.6-2.1h0.1c0,0,0.1,0,0.1,0.1C336.3,2.8,336.3,2.8,336.2,2.9z"/>
						<path class="st4" d="M330.8,3.6c0.1,0,0.1,0.1,0.1,0.2c0,0.2-0.1,0.3-0.2,0.4c0,0.1-0.1,0.1-0.1,0.1l0,0c0,0,0-0.1,0-0.2
							C330.6,4,330.7,3.8,330.8,3.6C330.7,3.7,330.8,3.6,330.8,3.6L330.8,3.6z"/>
						<path class="st4" d="M330.5,4.6c-0.1,0.1-0.2,0.2-0.3,0.4l0,0c0,0-0.1,0-0.1,0l-3.7-2.2c0-0.1,0-0.1,0-0.2
							c0,0,0.1-0.1,0.1-0.1l0,0l3.6,2.1c0.1-0.1,0.1-0.2,0.2-0.3c0,0,0.1-0.1,0.1-0.1h0.1c0.1,0,0.1,0.1,0.1,0.2c0,0,0,0,0,0
							C330.6,4.6,330.6,4.6,330.5,4.6z"/>
						<path class="st4" d="M331,3.3c0,0.1-0.1,0.1-0.1,0.1c0,0,0,0,0,0l0,0c-0.1,0-0.1-0.1-0.1-0.2c0-0.1,0-0.3,0.1-0.4
							c0-0.1,0.1-0.1,0.1-0.1l0,0c0.1,0,0.1,0,0.1,0.1c0,0,0,0,0,0l0,0C331.1,3,331,3.2,331,3.3z"/>
					</g>
					<g id="exit-left">
						<path class="st4" d="M177.5,257.4c-0.1-0.2-0.4-0.2-0.6-0.1l-0.1,0.1c-0.5,0.4-0.9,0.9-1.3,1.4c-0.2,0.2-0.2,0.5,0,0.7
							l0.1,0.1c0.2,0.1,0.4,0,0.5-0.2c0.4-0.4,0.8-0.9,1.2-1.3C177.7,258,177.7,257.7,177.5,257.4z"/>
						<path class="st4" d="M175.1,260.1c-0.2-0.1-0.5-0.1-0.6,0.1c0,0,0,0,0,0l0,0c-0.4,0.5-0.7,1.1-1,1.6c-0.2,0.2-0.1,0.5,0.1,0.7
							l0,0c0.2,0.1,0.5,0,0.6-0.2c0.3-0.5,0.6-1.1,0.9-1.5C175.3,260.6,175.3,260.3,175.1,260.1z"/>
						<path class="st4" d="M185.2,267.4l-5.1-12.2c-0.1-0.2-0.2-0.2-0.4-0.1l-0.1,0.1c-0.5,0.4-0.9,0.7-1.3,1.1
							c-0.2,0.2-0.3,0.4-0.2,0.7c0,0.1,0.1,0.1,0.1,0.1c0.1,0,0.2,0,0.4-0.1c0.3-0.3,0.7-0.6,1-0.9l5,12c0,0.1,0.1,0.1,0.1,0.1
							c0.1,0,0.2,0,0.4-0.1C185.2,267.9,185.3,267.6,185.2,267.4z"/>
					</g>
				</g>
				<g id="waterFountain">
					<path class="st4" d="M320.8,133.6h-3c-0.1,0-0.2-0.1-0.2-0.2l-1.1-4.2c0-0.1,0-0.1,0-0.2c0-0.1,0.1-0.1,0.2-0.1h4.1
						c0.1,0,0.2,0.1,0.2,0.2v4.1C321.1,133.4,321,133.5,320.8,133.6z M318,133.1h2.6v-3.6h-3.5L318,133.1z"/>
					<path class="st4" d="M318.4,128.8c-0.1,0-0.2-0.1-0.2-0.2v-0.5c0-0.1,0.1-0.2,0.2-0.2c0.1,0,0.2,0.1,0.2,0.2v0.4
						C318.6,128.7,318.5,128.8,318.4,128.8L318.4,128.8z M318.5,127.8h-0.1c-0.1-0.1-0.2-0.2-0.1-0.3l0,0c0.1-0.2,0.2-0.3,0.4-0.5
						c0.1-0.1,0.3,0,0.3,0.1c0.1,0.1,0,0.3-0.1,0.3c0,0,0,0,0,0l0,0c-0.1,0.1-0.2,0.2-0.2,0.3C318.7,127.7,318.6,127.8,318.5,127.8
						L318.5,127.8z M319.8,127.4c0,0-0.1,0-0.1,0c-0.1-0.1-0.2-0.1-0.3-0.1c-0.1,0-0.2-0.2-0.2-0.3c0,0,0,0,0,0l0,0
						c0-0.1,0.2-0.2,0.3-0.2c0,0,0,0,0,0l0,0c0.1,0,0.3,0.1,0.4,0.2c0.1,0.1,0.2,0.2,0.1,0.3C319.9,127.4,319.9,127.4,319.8,127.4
						L319.8,127.4z"/>
					<path class="st4" d="M317.7,128.8c-0.1,0-0.2-0.1-0.2-0.2v-0.5c0-0.1,0.1-0.2,0.2-0.2c0,0,0,0,0,0l0,0c0.1,0,0.2,0.1,0.2,0.2v0
						l0,0v0.5C317.9,128.7,317.8,128.8,317.7,128.8L317.7,128.8z M317.7,127.7L317.7,127.7c-0.1,0-0.2-0.1-0.2-0.3
						c0-0.2,0.1-0.3,0.1-0.5c0-0.1,0.2-0.2,0.3-0.1c0,0,0,0,0,0l0,0c0.1,0,0.2,0.2,0.2,0.3c0,0,0,0,0,0l0,0c0,0.1-0.1,0.3-0.1,0.4
						C318,127.6,317.9,127.7,317.7,127.7L317.7,127.7z M318.1,126.7c-0.1,0-0.1,0-0.2-0.1c-0.1-0.1-0.1-0.2,0-0.3l0,0
						c0.1-0.1,0.3-0.3,0.5-0.3c0.1-0.1,0.3,0,0.3,0.1c0.1,0.1,0,0.3-0.1,0.3h-0.1c-0.1,0-0.2,0.1-0.3,0.2
						C318.3,126.7,318.2,126.7,318.1,126.7L318.1,126.7z M319.6,126.5L319.6,126.5c-0.2,0-0.4-0.1-0.5-0.1c-0.1,0-0.3-0.1-0.3-0.2
						c0,0,0,0,0,0c0-0.1,0.1-0.3,0.2-0.3h0.1c0.2,0,0.3,0.1,0.5,0.1c0.1,0,0.2,0.2,0.2,0.3c0,0,0,0,0,0l0,0
						C319.8,126.5,319.7,126.5,319.6,126.5L319.6,126.5z"/>
					<path class="st4" d="M316.2,126.1c-0.8-0.1-1.3-0.7-1.3-1.5s0.7-1.3,1.5-1.3c0.7,0.1,1.2,0.6,1.3,1.3c0.1,0.8-0.5,1.4-1.3,1.5
						c0,0,0,0,0,0H316.2z M316.2,123.8c-0.5,0-0.9,0.4-0.9,0.9s0.4,0.9,0.9,0.9c0.5,0,0.9-0.4,0.9-0.9S316.7,123.8,316.2,123.8
						L316.2,123.8z"/>
					<path class="st4" d="M313.5,131.1c-0.2,0-0.3,0-0.5-0.1l-0.3-0.1c-0.5-0.3-0.7-0.9-0.4-1.3l1.6-3.1c0.3-0.5,0.9-0.7,1.3-0.4
						l0.3,0.1c0.5,0.3,0.7,0.9,0.4,1.3l-1.6,3.1c-0.1,0.2-0.3,0.4-0.6,0.5C313.7,131.1,313.6,131.1,313.5,131.1z M313.2,130.6
						c0.1,0.1,0.3,0.1,0.4,0c0.1,0,0.2-0.1,0.3-0.3l1.6-3.1c0-0.1,0-0.3,0-0.4c0-0.1-0.1-0.2-0.2-0.3l-0.3-0.1
						c-0.2-0.1-0.5,0-0.7,0.2l0,0l-1.6,3.1c-0.1,0.2,0,0.5,0.2,0.7l0,0L313.2,130.6z"/>
					<path class="st4" d="M313.3,134.7c-0.5,0-1-0.4-1-0.9v-3.3c0-0.1,0.2-0.2,0.3-0.2c0.1,0,0.2,0.1,0.2,0.2v3.3
						c0,0.3,0.3,0.5,0.5,0.4c0.1,0,0.2,0.1,0.2,0.2C313.6,134.6,313.5,134.7,313.3,134.7C313.4,134.7,313.4,134.7,313.3,134.7
						L313.3,134.7L313.3,134.7z"/>
					<path class="st4" d="M316.1,130.6c-0.4,0-0.8-0.2-0.9-0.6l-0.6-2.8c0-0.1,0.1-0.3,0.2-0.3c0.1,0,0.3,0.1,0.3,0.2l0.6,2.8
						c0,0.2,0.3,0.3,0.6,0.2c0.1,0,0.2,0,0.3,0.1c0,0,0,0,0,0l0,0c0,0.1,0,0.3-0.2,0.3c0,0,0,0,0,0l0,0L316.1,130.6z"/>
					<path class="st4" d="M314.3,134.4c-0.5,0-0.9-0.3-1-0.8v-2.5c0-0.1,0.2-0.2,0.3-0.2c0.1,0,0.2,0.1,0.2,0.2v2.5
						c0,0.2,0.2,0.3,0.5,0.3c0.1,0,0.3,0.1,0.3,0.2c0,0,0,0,0,0c0,0.1-0.1,0.3-0.2,0.3L314.3,134.4L314.3,134.4z"/>
				</g>
				<g id="parking">
					
						<rect id="parking-2" x="191.9" y="412.6" transform="matrix(0.4377 -0.8991 0.8991 0.4377 -299.1635 507.4333)" class="st6" width="128.5" height="160.5"/>
					
						<rect id="parking-2-2" x="191.9" y="412.6" transform="matrix(0.4377 -0.8991 0.8991 0.4377 -299.1635 507.4333)" class="st2" width="128.5" height="160.5"/>
					<g id="parkingIcon">
						<path class="st4" d="M258.2,477.6c-6.1,0-11.1,5-11.1,11.1s5,11.1,11.1,11.1c6.1,0,11.1-5,11.1-11.1l0,0
							C269.3,482.6,264.3,477.6,258.2,477.6z M258.2,498.2c-5.3,0-9.5-4.3-9.5-9.5c0-5.3,4.3-9.5,9.5-9.5c5.3,0,9.5,4.3,9.5,9.5l0,0
							C267.7,493.9,263.4,498.2,258.2,498.2L258.2,498.2z"/>
						<path class="st4" d="M255.8,481.6c-0.4,0-0.8,0.4-0.8,0.8V495c0,0.4,0.4,0.8,0.8,0.8c0.4,0,0.8-0.4,0.8-0.8v-5.9
							c2.7-0.3,4.7-1.8,4.7-3.7C261.4,483.3,258.9,481.6,255.8,481.6z M256.6,487.5v-4.2c1.9,0.2,3.1,1.2,3.1,2.1
							S258.5,487.2,256.6,487.5z"/>
					</g>
				</g>
				<g id="gssb116">
					
						<rect id="ssb116" x="126.8" y="431.7" transform="matrix(0.4377 -0.8991 0.8991 0.4377 -319.0741 384.8345)" class="st7" width="42.7" height="31.7"/>
					<g id="numssb116" class="st8">
						<path class="st9" d="M141.7,462.4c0,0.1-0.5,1.9-0.5,1.9l-1-0.5c0.1-0.6,0.3-1.7-0.1-2.6l0.5-1l9.9,4.8l-0.6,1.3L141.7,462.4z
							"/>
						<path class="st9" d="M144,457.6c0,0.1-0.5,1.9-0.5,1.9l-1-0.5c0.1-0.6,0.3-1.7-0.1-2.6l0.5-1l9.9,4.8l-0.6,1.3L144,457.6z"/>
						<path class="st9" d="M150.8,456.6l-3.3-1.6c-1.9-0.9-3.2-2.3-2.3-4.1c0.8-1.5,2-2,3.6-1.2c0,0,0.1,0,0.2,0.1l-0.6,1.3
							c-1-0.5-1.6-0.5-2,0.4c-0.4,0.7,0.1,1.4,1.6,2.2l1.5,0.7c-0.3-0.5-0.3-1.1,0-1.8c0.8-1.6,2.2-1.6,3.9-0.7c1.8,0.9,2.9,2.3,2,4
							C154.4,457.5,152.6,457.5,150.8,456.6z M152.9,453.2c-1.2-0.6-2.2-1-2.7,0.1c-0.3,0.5-0.1,1.1,0.1,1.5l1.5,0.7
							c1,0.5,2,0.6,2.4-0.2C154.5,454.4,153.9,453.7,152.9,453.2z"/>
						<path class="st9" d="M147.8,445.5l0.7-1.3l10.9,2.7l-0.6,1.3l-2.7-0.8l-1,2l2.3,1.7l-0.6,1.3L147.8,445.5z M155,447.2
							l-4.9-1.3l4.1,3L155,447.2z"/>
						<path class="st9" d="M151.1,438.8l0.6-1.1l8.6,7.5l-0.5,1.1L151.1,438.8z"/>
						<path class="st9" d="M152.2,436.6l1.1-2.3c0.9-1.8,2.1-2.3,3.8-1.4c1.2,0.6,1.7,1.4,1.4,2.4c0.9-1,1.9-1.1,3.3-0.5
							c1.7,0.8,2.4,2.1,1.6,3.9l-1.3,2.6L152.2,436.6z M157.4,436.4c0.6-1.2,0.3-1.7-0.9-2.3c-1.4-0.7-1.7-0.1-2.4,1.3l-0.2,0.3
							l3.1,1.5L157.4,436.4z M162.2,438.6c0.6-1.2,0.2-1.8-1.1-2.4c-1.2-0.6-2.1-0.5-2.7,0.7l-0.4,0.8l3.7,1.8L162.2,438.6z"/>
					</g>
				</g>
				<g id="gcfce123B">
					<rect id="cfce123B" x="338" y="4.4" class="st10" width="18.2" height="44.8"/>
					<g>
						<path class="st9" d="M350.9,17.9c0,0-0.4-1.8-0.4-1.8h1c0.2,0.8,0.6,1.5,1.2,2.1v1h-10.4v-1.3L350.9,17.9z"/>
						<path class="st9" d="M343.3,21.3l4.1,2.6c0.8,0.7,1.7,1,2.7,1.1c0.9,0,1.5-0.3,1.5-1c0-1-0.9-1.2-1.9-1.2h-0.3v-1.4h0.4
							c1.9,0,3,0.7,3,2.5c0,1.7-1,2.5-2.7,2.5c-1.1,0-2.2-0.4-3-1.1l-3.6-2.4v3.3h-1.2v-4.9L343.3,21.3z"/>
						<path class="st9" d="M344.9,27.4h0.4v1.4H345c-0.9,0-1.6,0.2-1.6,1.2s0.8,1.2,1.9,1.2s1.9-0.3,1.9-1.4v-0.2h1.4v0.2
							c0,1,0.5,1.4,1.6,1.4c0.9,0,1.5-0.2,1.5-1.2s-0.7-1.2-1.7-1.2h-0.2v-1.4h0.3c1.4-0.1,2.6,1,2.7,2.4c0.1,1.4-1,2.6-2.4,2.7
							h-0.3c-1,0.1-2-0.5-2.3-1.5c-0.3,0.9-1.2,1.5-2.6,1.5c-1.8,0-3-0.7-3-2.6c-0.1-1.3,0.8-2.4,2.1-2.5
							C344.5,27.4,344.7,27.4,344.9,27.4z"/>
						<path class="st9" d="M352.7,33.8v2.4c0,1.9-0.8,2.8-2.6,2.8c-1.3,0-2-0.5-2.2-1.5c-0.3,1.2-1.2,1.8-2.6,1.8
							c-1.8,0-3-0.8-3-2.7v-2.7L352.7,33.8z M343.3,36.2c0,1.3,0.6,1.6,1.9,1.6s2-0.5,2-1.7v-0.9h-3.9L343.3,36.2z M348.3,36.1
							c0,1.2,0.5,1.6,1.7,1.6c1.4,0,1.5-0.6,1.5-2.1v-0.3h-3.2L348.3,36.1z"/>
					</g>
				</g>
				<g id="gcfce116">
					<rect id="cfce116" x="312.2" y="266.8" class="st7" width="43.7" height="37.8"/>
					<g>
						<path class="st9" d="M322,283c-0.1,0.1-3.4,0.7-3.4,0.7v-2c1.1-0.3,3.1-0.8,4-2.2h2l0.1,19.7h-2.6L322,283z"/>
						<path class="st9" d="M331.6,282.9c-0.1,0.1-3.4,0.7-3.4,0.7v-2c1.1-0.3,3.1-0.9,4.1-2.2h2l0.1,19.7h-2.6L331.6,282.9z"/>
						<path class="st9" d="M338.5,292.9v-6.6c0-3.8,1.1-7,4.8-7c3.1,0,4.8,1.7,4.9,4.8v0.3h-2.6c0-1.9-0.5-2.9-2.2-2.9
							c-1.4,0-2.2,1.3-2.2,4.2v3c0.6-0.9,1.7-1.5,2.9-1.4c3.3,0,4.3,2.2,4.3,5.7s-1.3,6.4-4.9,6.5S338.5,296.5,338.5,292.9z
							 M345.6,293.5c0-2.3-0.1-4.4-2.3-4.4c-0.9,0-1.8,0.5-2.2,1.4v2.9c0,2,0.5,3.7,2.3,3.7S345.7,295.5,345.6,293.5L345.6,293.5z"
							/>
					</g>
				</g>
				<g id="gcfce117">
					<rect id="cfce117" x="312.2" y="223.9" class="st7" width="43.7" height="37.8"/>
					<g>
						<path class="st9" d="M323.7,239.9c-0.1,0.1-3.4,0.7-3.4,0.7v-2c1.1-0.3,3.1-0.8,4.1-2.1h2l-0.1,19.8h-2.6L323.7,239.9z"/>
						<path class="st9" d="M333.3,239.9c-0.1,0.1-3.4,0.7-3.4,0.7v-2c1.1-0.3,3.1-0.8,4.1-2.1h2l-0.1,19.8h-2.6L333.3,239.9z"/>
						<path class="st9" d="M344.6,238.6h-5.3v-2h7.9v1.3l-3.7,18.4H341L344.6,238.6z"/>
					</g>
				</g>
				<g id="gcfce118">
					<rect id="cfce118" x="312.2" y="180.9" class="st7" width="43.7" height="37.8"/>
					<g>
						<path class="st9" d="M321.5,197.2c-0.1,0.1-3.4,0.7-3.4,0.7v-2c1.5-0.3,2.9-1.1,4-2.2h2l0.2,19.7h-2.6L321.5,197.2z"/>
						<path class="st9" d="M331.1,197.1c-0.1,0.1-3.4,0.7-3.4,0.7v-2c1.1-0.3,3.1-0.9,4-2.2h2l0.2,19.7h-2.6L331.1,197.1z"/>
						<path class="st9" d="M337.9,207.8c0-2.6,0.9-4,2.4-4.9c-1.5-1-2.3-2.6-2.2-4.4c0-3.1,1.4-5.1,4.6-5.1s4.6,1.9,4.6,5
							c0.2,1.8-0.7,3.5-2.1,4.4c1.4,0.9,2.5,2.2,2.5,4.8c0,3.5-1.3,5.8-4.8,5.8S337.9,211.3,337.9,207.8z M345.1,207.8
							c0-1.8-0.6-3.6-2.4-3.6s-2.4,1.8-2.4,3.6c0,2.1,0.5,3.6,2.4,3.6S345.1,209.8,345.1,207.8L345.1,207.8z M344.7,198.4
							c0-1.6-0.5-2.9-2-2.9s-2,1.3-2,2.9s0.5,3.3,2.1,3.3S344.8,200,344.7,198.4L344.7,198.4z"/>
					</g>
				</g>
				<g id="gcfce119">
					<rect id="cfce119" x="312.2" y="138" class="st7" width="43.7" height="37.8"/>
					<g>
						<path class="st9" d="M321.5,154.1c-0.1,0.1-3.4,0.7-3.4,0.7v-2c1.1-0.3,3.1-0.9,4.1-2.2h2l0.1,19.7h-2.6L321.5,154.1z"/>
						<path class="st9" d="M331.2,154.1c-0.1,0.1-3.4,0.7-3.4,0.7v-2c1.1-0.3,3.1-0.9,4-2.2h2l0.1,19.7h-2.6L331.2,154.1z"/>
						<path class="st9" d="M337.8,165.7v-0.2h2.6c0,1.9,0.5,2.9,2.3,2.9c1.4,0,2.2-1.3,2.2-4.2v-3c-0.6,0.9-1.7,1.5-2.9,1.4
							c-3.3,0-4.2-2.3-4.3-5.7c0-3.6,1.3-6.4,4.9-6.4s4.9,2.8,4.9,6.4v6.6c0,3.8-1.1,7-4.8,7.1C339.6,170.6,337.9,168.8,337.8,165.7
							z M344.8,159.2v-2.9c0-2-0.5-3.7-2.2-3.7s-2.2,1.7-2.2,3.6c0,2.4,0.1,4.4,2.3,4.3C343.6,160.6,344.4,160,344.8,159.2
							L344.8,159.2z"/>
					</g>
				</g>
				<g id="gcfce123">
					<polygon id="cfce123" class="st7" points="355.9,120.3 312.2,120.3 312.2,73.8 320.1,54.2 343,54.2 343,73.1 355.9,73.2 					
						"/>
					<g>
						<path class="st9" d="M321,98.8c-0.1,0.1-3.4,0.7-3.4,0.7v-2c1.5-0.3,3-1,4.1-2.2h2l0.1,19.7h-2.6L321,98.8z"/>
						<path class="st9" d="M327.5,113.2l5-7.8c1.1-1.8,2.1-3,2.1-5.2c0-1.8-0.5-2.9-2-2.9c-1.9,0-2.3,1.8-2.3,3.6v0.7h-2.6v-0.7
							c0-3.5,1.3-5.8,4.8-5.8c3.2,0,4.7,1.9,4.7,5.1c0,2.5-1,3.9-2.1,5.7l-4.5,6.9h6.2v2.2h-9.3V113.2z"/>
						<path class="st9" d="M339.2,110.2v-0.7h2.6v0.4c0,1.8,0.5,3.1,2.2,3.1s2.3-1.5,2.2-3.6s-0.7-3.5-2.6-3.6h-0.4v-2.6h0.3
							c1.9-0.1,2.6-0.9,2.6-3c0-1.8-0.5-2.9-2.2-2.9s-2.2,1.3-2.2,3.2v0.4h-2.6v-0.7c0-3.1,1.6-5,4.8-5s4.9,1.9,4.9,5
							c0,2.4-1.1,3.8-2.8,4.3c1.8,0.6,2.8,2.3,2.8,4.9c0,3.5-1.4,5.8-4.8,5.8C340.8,115.2,339.2,113.3,339.2,110.2z"/>
					</g>
				</g>
				<g id="gglobalClassroom">
					<polygon id="globalClassroom" class="st7" points="244.3,302.2 236.9,316.5 189,291.6 196.4,277.2 190.2,274.1 217.4,221.7 
						287,257.9 259.8,310.3 					"/>
					<g>
						<path class="st9" d="M210.7,262.1v-6.4c0-4.2,1.1-6.6,5.1-6.6c3.6,0,5,1.8,5,5.6v0.7h-2.5v-0.6c0-2.5-0.3-3.6-2.4-3.6
							c-2.4,0-2.5,1.8-2.5,4.1v7.1c0,2.8,0.5,4.1,2.6,4.1s2.6-1.5,2.6-4.4v-1.3h-2.4v-1.9h4.9v9.5h-1.7l-0.3-2.2
							c-0.4,1.5-1.8,2.5-3.4,2.5C212.1,268.6,210.8,266.2,210.7,262.1z"/>
						<path class="st9" d="M223.7,249.2h2.5l0.1,19.1h-2.5L223.7,249.2z"/>
						<path class="st9" d="M228.7,263.5v-4c0-3.1,0.9-5,4-5s4,2,4,5v4c0,3.1-0.9,5-4,5S228.7,266.6,228.7,263.5z M234.1,263.6v-4.3
							c0-1.5,0-3-1.4-3s-1.5,1.5-1.5,3v4.3c0,1.5,0,3,1.5,3S234.1,265.2,234.1,263.6L234.1,263.6z"/>
						<path class="st9" d="M241.5,267.3v1H239v-19.1h2.6v6.6c0.6-0.8,1.6-1.3,2.6-1.3c2.9,0,3.1,3.5,3.1,5.1v3.3
							c0,2.9-0.7,5.6-3.4,5.6C243,268.5,242.1,268,241.5,267.3z M244.7,262.9v-3.3c0-1.7-0.2-3.1-1.5-3.1c-0.6,0-1.2,0.3-1.7,0.7
							v8.8c0.5,0.4,1.1,0.6,1.8,0.6C244.6,266.5,244.7,264.9,244.7,262.9L244.7,262.9z"/>
						<path class="st9" d="M249.3,265.3c0-3.4,2.4-4.4,5.4-5.6v-1c0-1.6-0.2-2.5-1.4-2.5s-1.4,0.8-1.4,1.9v0.7l-2.5-0.1
							c0-3,1.3-4.4,4.1-4.4s3.7,1.5,3.8,4.3v6.3c0,1.1,0.1,2.2,0.2,3.3h-2.3c-0.1-0.5-0.3-1.4-0.3-2c-0.3,1.3-1.4,2.2-2.8,2.2
							C250.4,268.3,249.2,266.9,249.3,265.3z M254.6,265.2v-3.9c-1.6,0.9-2.9,1.7-2.9,3.2c0,1.1,0.4,1.8,1.2,1.8
							C253.7,266.2,254.3,265.8,254.6,265.2L254.6,265.2z"/>
						<path class="st9" d="M259.8,249.1h2.5l0,19.1h-2.5L259.8,249.1z"/>
						<path class="st9" d="M210.8,284.5v-6.8c0-3.9,1.1-6.4,5.1-6.4c3.6,0,4.8,2,4.8,5.5v1.5h-2.5V277c0-2.1-0.1-3.6-2.3-3.6
							s-2.5,1.6-2.5,3.9v7.7c0,2.9,0.6,3.8,2.5,3.8c2.1,0,2.3-1.5,2.3-3.8v-1.4h2.5v1.4c0,3.5-1,5.9-4.8,5.9
							C211.9,290.9,210.8,288.1,210.8,284.5z"/>
						<path class="st9" d="M223.3,271.5h2.5v19.1h-2.5L223.3,271.5z"/>
						<path class="st9" d="M228.2,287.6c0-3.4,2.4-4.4,5.4-5.6v-1c0-1.6-0.2-2.5-1.4-2.5s-1.4,0.8-1.4,1.9v0.7l-2.5-0.1
							c0-3,1.3-4.4,4.1-4.4s3.7,1.5,3.8,4.3v6.2c0,1.1,0.1,2.2,0.2,3.3h-2.3c-0.1-0.5-0.3-1.4-0.3-2c-0.3,1.3-1.4,2.2-2.8,2.2
							C229.4,290.6,228.2,289.3,228.2,287.6z M233.6,287.5v-3.9c-1.6,0.9-2.9,1.7-2.9,3.2c0,1.1,0.4,1.8,1.2,1.8
							C232.7,288.5,233.3,288.1,233.6,287.5L233.6,287.5z"/>
						<path class="st9" d="M237.9,287l2.1-0.6c0.2,1.8,0.8,2.6,2,2.6c0.7,0.1,1.3-0.5,1.4-1.2c0,0,0,0,0,0c0-0.1,0-0.2,0-0.2
							c0-0.8-0.4-1.6-1.1-2l-2.3-2c-1.1-0.8-1.7-2-1.7-3.3c-0.1-1.8,1.2-3.3,3-3.4c0,0,0,0,0,0c0.2,0,0.4,0,0.6,0
							c2.2,0,3.3,1.6,3.5,3.6l-1.7,0.6c-0.2-1.4-0.6-2.4-1.7-2.4c-0.7,0-1.3,0.6-1.3,1.3c0,0,0,0,0,0v0c0,0.5,0.3,1,0.7,1.4l2.4,2.2
							c1.2,0.9,1.9,2.2,1.9,3.7c0,2.3-1.5,3.5-3.8,3.5C239.7,290.8,237.9,289.1,237.9,287z"/>
						<path class="st9" d="M246.7,286.9l2.1-0.6c0.2,1.7,0.8,2.6,2,2.6c0.7,0.1,1.3-0.5,1.4-1.2c0,0,0,0,0,0c0-0.1,0-0.1,0-0.2
							c0-0.8-0.5-1.5-1.1-2l-2.3-2c-1.1-0.8-1.7-2-1.7-3.3c-0.1-1.8,1.2-3.3,3-3.4c0,0,0,0,0,0c0.2,0,0.4,0,0.5,0
							c2.2,0,3.3,1.6,3.5,3.6l-1.7,0.6c-0.2-1.4-0.6-2.4-1.7-2.4c-0.7,0-1.3,0.6-1.3,1.3c0,0,0,0,0,0v0.1c0,0.5,0.3,1,0.7,1.4
							l2.4,2.2c1.2,0.9,1.9,2.2,2,3.7c0,2.3-1.5,3.5-3.8,3.5c-2.1,0.1-3.9-1.6-4-3.7C246.7,287,246.7,287,246.7,286.9z"/>
					</g>
				</g>
				<g id="gssbLink">
					<polygon id="ssbLink" class="st7" points="234.7,321.1 181.1,294.2 189,278.5 174.9,271.4 128.2,364.2 142.3,371.3 
						174.1,308.1 227.8,335 					"/>
					<g>
						<path class="st9" d="M138.8,365.9l0.3-1.2c1,0.4,2.1,0.7,2.6-0.3c0.3-0.5,0.2-1.1-0.3-1.4c-0.1,0-0.2-0.1-0.2-0.1
							c-0.7-0.3-1.5-0.3-2.2,0.1l-2.1,0.8c-0.8,0.3-1.7,0.3-2.4-0.1c-1.1-0.4-1.6-1.7-1.2-2.8c0-0.1,0.1-0.2,0.2-0.4
							c0.7-1.4,1.8-1.7,3.4-1.1l-0.2,1.2c-0.9-0.4-1.8-0.6-2.2,0.4c-0.3,0.5-0.2,1.1,0.3,1.4c0,0,0,0,0,0c0.1,0,0.1,0.1,0.2,0.1
							c0.5,0.3,1,0.3,1.5,0l2.1-0.8c1-0.5,2.1-0.5,3.1,0c1.1,0.5,1.6,1.8,1.2,3c0,0,0,0,0,0c0,0.1-0.1,0.2-0.1,0.2
							C141.8,366.4,140.4,366.6,138.8,365.9z"/>
						<path class="st9" d="M141.4,360.7l0.3-1.2c1,0.4,2.1,0.6,2.5-0.3c0.3-0.5,0.2-1.1-0.3-1.4c-0.1,0-0.2-0.1-0.2-0.1
							c-0.7-0.3-1.5-0.3-2.2,0.1l-2.1,0.8c-0.8,0.3-1.7,0.3-2.4-0.1c-1.1-0.4-1.6-1.7-1.2-2.8c0.1-0.1,0.1-0.3,0.2-0.4
							c0.7-1.4,1.8-1.7,3.4-1.1l-0.2,1.2c-0.9-0.4-1.8-0.6-2.2,0.4c-0.3,0.5-0.2,1.1,0.3,1.4c0,0,0,0,0,0l0.2,0.1
							c0.5,0.3,1,0.3,1.5,0l2.1-0.8c1-0.5,2.1-0.5,3.1,0c1.1,0.5,1.6,1.9,1.1,3c0,0,0,0,0,0l-0.1,0.2
							C144.4,361.2,143,361.4,141.4,360.7z"/>
						<path class="st9" d="M137.8,352l1-2c0.8-1.6,1.9-2,3.4-1.2c1.1,0.6,1.6,1.3,1.2,2.2c0.8-0.9,1.8-1,3-0.4
							c1.5,0.8,2.2,2,1.4,3.6l-1.2,2.4L137.8,352z M142.5,351.9c0.5-1,0.3-1.6-0.8-2.1c-1.2-0.6-1.6-0.1-2.2,1.1l-0.1,0.3l2.8,1.4
							L142.5,351.9z M146.8,354c0.6-1.1,0.2-1.6-0.9-2.2s-1.9-0.5-2.5,0.6l-0.4,0.7l3.4,1.7L146.8,354z"/>
						<path class="st9" d="M141.9,343.8l0.6-1.2l8,4l1.1-2.3l0.9,0.5l-1.8,3.5L141.9,343.8z"/>
						<path class="st9" d="M144.5,339.6l0.6-1.2l1.2,0.6l-0.6,1.2L144.5,339.6z M146.7,340.7l0.6-1.2l6.4,3.2l-0.6,1.2L146.7,340.7z
							"/>
						<path class="st9" d="M147.9,338.3l0.6-1.2l0.6,0.3c-0.2-0.6-0.2-1.3,0.1-1.9c0.4-0.8,1.2-0.6,1.8-0.3l5.1,2.6l-0.6,1.2
							l-4.8-2.4c-0.4-0.2-0.8-0.3-1,0.1c-0.1,0.3-0.1,0.7,0,1l5.1,2.6l-0.6,1.2L147.9,338.3z"/>
						<path class="st9" d="M147.8,332.1l0.6-1.2l5.3,2.7l-1.9-3.1l0.6-1.2l1.7,2.8l4.6,0.5l-0.6,1.2l-3.9-0.5l0.5,0.9l2.4,1.2
							l-0.6,1.2L147.8,332.1z"/>
					</g>
					<g>
						<path class="st9" d="M193.1,311.4l1.2,0.2c-0.4,1-0.6,2.1,0.3,2.5c0.5,0.3,1.1,0.2,1.4-0.3c0,0,0,0,0,0c0-0.1,0.1-0.2,0.1-0.2
							c0.3-0.7,0.3-1.5-0.1-2.2l-0.9-2.1c-0.4-0.8-0.3-1.7,0.1-2.4c0.4-1.1,1.7-1.6,2.8-1.2c0.1,0,0.2,0.1,0.3,0.2
							c1.4,0.7,1.8,1.8,1.1,3.4l-1.2-0.2c0.4-0.9,0.5-1.8-0.4-2.2c-0.5-0.3-1.1-0.1-1.4,0.3c0,0,0,0,0,0c0,0.1-0.1,0.1-0.1,0.2
							c-0.3,0.5-0.3,1,0,1.5l0.9,2.1c0.5,1,0.5,2.1,0,3.1c-0.5,1.1-1.8,1.7-2.9,1.2c0,0,0,0-0.1,0l-0.2-0.1
							C192.7,314.4,192.5,313,193.1,311.4z"/>
						<path class="st9" d="M198.4,313.9l1.2,0.2c-0.4,1-0.6,2.1,0.3,2.5c0.5,0.3,1.1,0.2,1.4-0.3c0,0,0,0,0,0c0-0.1,0.1-0.2,0.1-0.2
							c0.3-0.7,0.3-1.5-0.1-2.2l-0.9-2.1c-0.4-0.8-0.3-1.7,0.1-2.4c0.4-1.1,1.7-1.6,2.8-1.2c0.1,0,0.2,0.1,0.3,0.2
							c1.4,0.7,1.8,1.8,1.1,3.4l-1.2-0.2c0.4-0.9,0.5-1.8-0.4-2.2c-0.5-0.3-1.1-0.1-1.4,0.3c0,0,0,0,0,0c0,0.1-0.1,0.1-0.1,0.2
							c-0.3,0.5-0.3,1,0,1.5l0.9,2.1c0.5,1,0.5,2.1,0,3.1c-0.5,1.1-1.8,1.7-2.9,1.2c-0.1,0-0.2-0.1-0.2-0.1
							C197.9,316.9,197.7,315.5,198.4,313.9z"/>
						<path class="st9" d="M207,310.2l2,1c1.6,0.8,2,1.9,1.3,3.4c-0.5,1.1-1.3,1.6-2.2,1.3c1,0.8,1,1.7,0.4,3
							c-0.8,1.5-2,2.2-3.6,1.4l-2.4-1.2L207,310.2z M205.1,319.2c1.1,0.5,1.6,0.2,2.2-1s0.4-1.9-0.7-2.4l-0.7-0.4l-1.6,3.4
							L205.1,319.2z M207.1,314.9c1,0.5,1.6,0.2,2.1-0.8c0.6-1.2,0.1-1.6-1.2-2.2l-0.3-0.1l-1.4,2.8L207.1,314.9z"/>
						<path class="st9" d="M215.3,314.2l1.2,0.6l-4,8l2.3,1.1l-0.4,0.9l-3.5-1.7L215.3,314.2z"/>
						<path class="st9" d="M218.4,318.9l1.2,0.6l-3.1,6.4l-1.2-0.6L218.4,318.9z M219.5,316.8l1.2,0.6l-0.6,1.2l-1.2-0.6
							L219.5,316.8z"/>
						<path class="st9" d="M220.9,320.1l1.2,0.6l-0.3,0.6c0.6-0.2,1.3-0.2,1.9,0c0.8,0.4,0.6,1.1,0.3,1.8l-2.5,5.2l-1.2-0.6l2.4-4.8
							c0.2-0.5,0.2-0.8-0.2-1c-0.3-0.1-0.7-0.1-1,0l-2.5,5.1l-1.2-0.6L220.9,320.1z"/>
						<path class="st9" d="M227,320l1.2,0.6l-2.6,5.3l3.1-1.9l1.2,0.6l-2.7,1.8l-0.4,4.6l-1.2-0.6l0.4-3.9L225,327l-1.2,2.4
							l-1.2-0.6L227,320z"/>
					</g>
				</g>
				<g id="gmrc">
					<g id="mrc">
						<polygon class="st11" points="257.6,355.3 237.3,396.4 220.7,388.3 241,347.1 						"/>
						<path class="st4" d="M241,347.1L241,347.1l-1.5,3.1l0.9,0.5l1.5-3.1L241,347.1z M238,353.3l-1.5,3.1l0.9,0.5l1.5-3.1
							L238,353.3L238,353.3z M235,359.4l-1.5,3.1l0.9,0.5l1.5-3.1L235,359.4L235,359.4z M232,365.5l-1.5,3.1l0.9,0.5l1.5-3.1
							L232,365.5L232,365.5z M229,371.7l-0.2,0.4l0,0v0l0,0l-0.1,0.2l0,0l-1,2l0.9,0.5l1.5-3.1l-0.9-0.5L229,371.7z M226,377.8
							l-1.5,3.1l0.9,0.5l1.5-3.1L226,377.8L226,377.8z M223,383.9l-1.6,3.1l0.9,0.5l1.5-3.1L223,383.9z M223.1,388.2l-0.4,0.9
							l3.1,1.5l0.4-0.9L223.1,388.2z M229.2,391.2l-0.4,0.9l3.1,1.5l0.4-0.9L229.2,391.2z M235.4,394.2l-0.4,0.9l2.5,1.2l0,0
							l0.2-0.5l0,0l0.2-0.4l0,0l-2.6-1.2L235.4,394.2z M239.9,389.3l-1.5,3.1l0.9,0.5l1.5-3.1L239.9,389.3z M242.9,383.2l-1.6,3
							l0.9,0.5l1.5-3.1l-0.9-0.5L242.9,383.2z M245.9,377l-1.5,3.1l0.9,0.5l1.5-3.1L245.9,377L245.9,377z M248.9,370.9l-1.6,3.1
							l0.9,0.5l1.5-3.1L248.9,370.9L248.9,370.9z M251.9,364.8l-1.5,3.1l0.9,0.5l1.5-3.1L251.9,364.8L251.9,364.8z M254.9,358.6
							l-1.5,3.1l0.9,0.5l1.5-3.1L254.9,358.6L254.9,358.6z M255.4,354.1l-0.4,0.9l2.3,1.1l0.5-0.9l0,0l-0.9-0.5l0,0L255.4,354.1
							L255.4,354.1z M249.2,351.1l-0.4,0.9l3.1,1.5l0.4-0.9L249.2,351.1z M243.1,348.1l-0.4,0.9l3.1,1.5l0.4-0.9L243.1,348.1z"/>
					</g>
					<g id="numMRC" class="st8">
						<path class="st9" d="M229.8,378.1l0.7-1.4l8.9,2.2l-7.2-5.7l0.7-1.3l10,4.6l-0.5,1.1l-7.2-3.4l6.4,5.2l-0.4,0.8l-8-1.8
							l7.1,3.6l-0.5,1.1L229.8,378.1z"/>
						<path class="st9" d="M233.7,370.2l1-2c1-2,2.2-2.5,4-1.6c1.2,0.6,1.8,1.3,1.7,2.3l5.6,1l-0.6,1.3l-5.3-1l-0.5,1.1l4.6,2.3
							l-0.7,1.4L233.7,370.2z M238.9,370.4c0.6-1.2,0.4-1.8-0.8-2.5c-1.2-0.6-1.8-0.5-2.4,0.8l-0.3,0.6l3.3,1.6L238.9,370.4z"/>
						<path class="st9" d="M243.4,367.3l-3.5-1.7c-2-1-3-2.2-2-4.3c0.9-1.8,2.3-2,4.1-1.1l0.8,0.4l-0.6,1.3l-0.7-0.3
							c-1.1-0.5-1.9-0.9-2.4,0.3c-0.6,1.2,0.2,1.7,1.4,2.3l3.9,1.9c1.5,0.7,2.1,0.6,2.6-0.3c0.5-1.1-0.2-1.6-1.4-2.1l-0.7-0.4
							l0.6-1.3l0.7,0.4c1.8,0.9,2.8,2,1.8,4C246.9,368.4,245.2,368.2,243.4,367.3z"/>
					</g>
				</g>
				<g>
					<path class="st12" d="M390.6,237.3l0.5,1.9c-1.6,0.1-3.2,0.5-3.2,2.1c0,1.1,0.6,1.6,1.8,1.6c1.2-0.1,2.2-0.7,2.8-1.6l2.2-2.5
						c0.8-1,2-1.5,3.3-1.4c1.8-0.2,3.3,1.1,3.5,2.9c0,0.2,0,0.4,0,0.6c0,2.4-1.2,3.5-3.9,3.8l-0.5-1.8c1.5-0.1,2.7-0.4,2.7-2
						c0.1-0.8-0.5-1.5-1.3-1.6h-0.4c-0.8,0-1.5,0.4-2,1l-2.2,2.5c-1,1.3-2.5,2.1-4.2,2.1c-1.9,0.1-3.4-1.3-3.6-3.1c0,0,0,0,0,0
						c0-0.1,0-0.3,0-0.4C386.3,238.7,388.1,237.5,390.6,237.3z"/>
					<path class="st12" d="M397.1,246.5v2h-10.7v-2H397.1z M400.8,246.5v2h-2.1v-2H400.8z"/>
					<path class="st12" d="M397.1,250.6v1.8h-1c0.7,0.6,1.2,1.5,1.2,2.5c0,0.8-0.5,1.6-1.4,1.7c0.8,0.6,1.3,1.6,1.4,2.6
						c0,1-0.7,1.9-2.5,1.9h-8.4v-1.8h8.2c1,0,1.3-0.4,1.3-0.9c-0.1-0.6-0.4-1.2-0.9-1.7h-8.7V255h8.2c1,0,1.3-0.4,1.3-0.9
						c-0.1-0.6-0.4-1.2-0.9-1.7h-8.7v-1.8L397.1,250.6z"/>
					<path class="st12" d="M390.5,262.9h2.5c2.7,0,4.3,0.5,4.3,3.1c0,2.3-1.2,2.9-3.4,2.9h-0.6v-1.8h0.6c1.4,0,1.9-0.2,1.9-1.1
						s-0.6-1.2-2.4-1.2H390c-1.8,0-2.3,0.3-2.3,1.2s0.8,1.1,1.9,1.1h0.9v1.8h-0.7c-2.2,0-3.4-0.6-3.4-2.9
						C386.3,263.4,388,262.9,390.5,262.9z"/>
					<path class="st12" d="M390.2,270.5h3.1c2.4,0,3.9,0.7,3.9,3.1s-1.5,3.1-3.9,3.1h-3.1c-2.4,0-3.9-0.7-3.9-3.1
						S387.9,270.5,390.2,270.5z M390.1,274.7h3.3c1.2,0,2.4,0,2.4-1.1s-1.2-1.1-2.4-1.1h-3.3c-1.2,0-2.4,0-2.4,1.1
						S388.9,274.7,390.1,274.7L390.1,274.7z"/>
					<path class="st12" d="M390.6,278.3h2.4c2.8,0,4.3,0.7,4.3,3.2c0,2.7-1.7,3-4.6,3h-0.9v-4.2h-2.1c-1.3,0-1.9,0.4-1.9,1.2
						s0.7,1.1,1.8,1.1h0.6v1.9h-0.4c-2.1,0-3.4-0.8-3.4-3C386.3,279,387.8,278.3,390.6,278.3z M392.8,282.5h1c1.3,0,2-0.1,2-1.1
						s-0.6-1.2-2.4-1.2h-0.6L392.8,282.5z"/>
					<path class="st12" d="M390.6,290.2l0.5,1.9c-1.6,0.1-3.2,0.5-3.2,2.1c0,1.1,0.6,1.6,1.8,1.6c1.2-0.1,2.2-0.6,2.8-1.6l2.2-2.5
						c0.8-1,2-1.5,3.3-1.4c1.8-0.1,3.3,1.2,3.5,2.9c0,0,0,0,0,0c0,0.2,0,0.4,0,0.6c0,2.4-1.2,3.5-3.9,3.8l-0.5-1.8
						c1.5-0.1,2.7-0.5,2.7-2c0.1-0.8-0.5-1.6-1.3-1.6h-0.3c-0.8,0-1.5,0.4-2,1l-2.2,2.5c-1,1.3-2.5,2.1-4.2,2.1
						c-1.9,0.1-3.4-1.3-3.6-3.1c0,0,0,0,0,0c0-0.1,0-0.3,0-0.4C386.3,291.6,388.1,290.4,390.6,290.2z"/>
					<path class="st12" d="M388.9,299.8h7v-1.1h1.3v1.1h3.1v2h-3.1v1.7h-1.3v-1.7H389c-0.8,0-1.2,0.2-1.2,1c0,0.2,0,0.5,0,0.7h-1.5
						c-0.1-0.5-0.1-0.9-0.1-1.4C386.3,300.4,387.3,299.8,388.9,299.8z"/>
					<path class="st12" d="M388.7,304.8v2h-2.2v-2H388.7z"/>
				</g>
			</g>
		</g>
	</g>
</g>
</svg>
