<svg xmlns="http://www.w3.org/2000/svg" viewBox="0 0 1663 2560">
  <defs>
    <style>
      .cls-1 {
        fill: #0b8261;
      }

      .cls-2, .cls-4, .cls-5 {
        fill: none;
      }

      .cls-10, .cls-2, .cls-7, .cls-8 {
        stroke: #fff;
      }

      .cls-10, .cls-2, .cls-4, .cls-5, .cls-7, .cls-8 {
        stroke-miterlimit: 10;
      }

      .cls-10, .cls-2, .cls-5 {
        stroke-width: 5.27px;
      }

      .cls-3 {
        font-size: 72px;
        fill: #9ec2b4;
      }

      .cls-11, .cls-12, .cls-13, .cls-15, .cls-3, .cls-9 {
        font-family: Oswald-Regular, Oswald;
      }

      .cls-4, .cls-5 {
        stroke: #7fbdad;
      }

      .cls-4 {
        stroke-width: 5.27px;
      }

      .cls-6, .cls-7 {
        fill: #fff;
      }

      .cls-10, .cls-14, .cls-8 {
        fill: #7fbdad;
      }

      .cls-8 {
        stroke-width: 5.11px;
      }

      .cls-9 {
        font-size: 50px;
      }

      .cls-11, .cls-12, .cls-13, .cls-15, .cls-9 {
        fill: #1e3853;
      }

      .cls-11 {
        font-size: 95px;
      }

      .cls-12 {
        font-size: 92.26px;
      }

      .cls-13 {
        font-size: 48px;
      }

      .cls-15 {
        font-size: 53px;
      }
    </style>
  </defs>
  <title>floorPlan</title>
  <g id="Layer_2" data-name="Layer 2">
    <g id="bg">
      <rect class="cls-1" x="0.5" y="0.5" width="1662" height="2559"/>
    </g>
    <polygon id="buildingOutline" class="cls-2" points="573.34 1558.98 484.99 1514.33 683.08 1116.17 734.52 1141.59 1280.9 85 1422 85 1422 1730.34 1422 1798.28 1422 1871.44 1339.96 1831.16 1339.93 1831.21 869.06 1598.56 923.88 1487.61 923.87 1487.6 948.24 1438.27 696.93 1312.2 610.97 1482.48 800.37 1575.18 763.68 1650.33 462.69 2266.77 462.76 2266.8 327.55 2543.72 327.49 2543.69 327.49 2543.69 13.95 2390.26 82.13 2250.62 272.28 2173.59 272.28 2173.59 573.34 1558.98"/>
    <text class="cls-3" transform="translate(1519.58 1006.26) rotate(90)">Simcoe St.</text>
    <g id="otherRooms">
      <g id="emptyRooms">
        <rect class="cls-4" x="474.7" y="1898.15" width="55.2" height="70.92" transform="translate(897.09 -24.78) rotate(25.96)"/>
        <rect class="cls-5" x="535.11" y="1927.57" width="55.2" height="70.92" transform="translate(916.06 -48.26) rotate(25.96)"/>
        <rect class="cls-5" x="378.75" y="2098.24" width="123.78" height="72.91" transform="translate(978.89 22.5) rotate(25.96)"/>
        <rect class="cls-5" x="646.82" y="1552.59" width="123.78" height="61.35" transform="translate(764.56 -150.48) rotate(25.96)"/>
        <rect class="cls-5" x="614.68" y="1618.62" width="123.78" height="61.35" transform="translate(790.22 -129.75) rotate(25.96)"/>
        <rect class="cls-5" x="582.53" y="1684.64" width="123.78" height="61.35" transform="translate(815.88 -109.02) rotate(25.96)"/>
        <g id="spareRoom-Right">
          <rect class="cls-5" x="1278.37" y="565.06" width="122.55" height="42.12"/>
        </g>
        <g id="left-third">
          <polygon class="cls-5" points="1139.29 848.67 958.87 755.28 1009.87 656.75 1139.29 724.92 1139.29 848.67"/>
        </g>
        <g id="left-second">
          <polygon class="cls-5" points="1139.22 707.07 1016.87 643.35 1057 565.81 1139.28 608.61 1139.22 707.07"/>
        </g>
        <g id="left-top">
          <polygon class="cls-5" points="1139.73 594.31 1063.22 554.3 1089.22 504.07 1139.76 530.82 1139.73 594.31"/>
        </g>
        <g id="ind-center">
          <polygon class="cls-5" points="1139.2 1065.73 870.2 926.5 950.78 770.8 1139.29 868.37 1139.2 1065.73"/>
        </g>
      </g>
      <g id="facilities">
        <g id="CAF">
          <g id="caf-2" data-name="caf">
            <rect class="cls-5" x="1229.58" y="1292.17" width="170.8" height="163.56"/>
          </g>
          <g id="food-icon-3prong">
            <path class="cls-6" d="M1343.77,1327.66a2,2,0,0,1-.79,0c-10.74,0-19.48,11.88-19.48,26.5,0,13.44,7.41,24.56,17,26.25v49.93a3.31,3.31,0,1,0,6.62,0V1331A3.31,3.31,0,0,0,1343.77,1327.66Zm-13.64,26.5c0-9.45,4.52-17.6,10.33-19.47v38.94C1334.65,1371.76,1330.13,1363.6,1330.13,1354.16Z"/>
            <path class="cls-6" d="M1311.16,1327.66a3.31,3.31,0,0,0-3.31,3.31v31.47c0,5.61-.6,8.94-1.83,10.18-1.06,1.05-3.55,1.21-7,1.23V1331a3.32,3.32,0,0,0-6.63,0v42.86c-6.9-.19-8.66-1.65-8.66-13,0-6.81,0-24.89-.14-29.69a3.31,3.31,0,1,0-6.62.19c.14,4.71.14,22.72.14,29.5,0,15.42,4.57,19.07,15.28,19.61v49.95a3.32,3.32,0,1,0,6.63,0v-49.86c4.89,0,8.83-.37,11.65-3.18s3.78-7,3.78-14.86V1331A3.32,3.32,0,0,0,1311.16,1327.66Z"/>
          </g>
        </g>
        <g id="ssbBathroom">
          <rect class="cls-5" x="422.7" y="1993.12" width="123.78" height="101.92" transform="translate(943.66 -5.88) rotate(25.96)"/>
          <g id="bathroomSymbol">
            <path class="cls-6" d="M485.59,2014.57a1,1,0,0,0-1,1v61.88a1,1,0,0,0,2.07,0v-61.88A1,1,0,0,0,485.59,2014.57Z"/>
            <path class="cls-6" d="M504.61,2031.56a5.94,5.94,0,1,0-5.94-5.94A5.94,5.94,0,0,0,504.61,2031.56Zm0-9.81a3.88,3.88,0,1,1-3.87,3.87A3.88,3.88,0,0,1,504.61,2021.75Z"/>
            <path class="cls-6" d="M514.11,2055.09l-1.58-13.24a18,18,0,0,0-.89-4c-.86-2.46-2.36-5.29-6.37-5.29H504c-4.56,0-6,4-6.42,5.37a17.92,17.92,0,0,0-.83,3.71l-1.64,13.41a1,1,0,0,0,.91,1.15h.12a1,1,0,0,0,1-.91l1.63-13.41a16.11,16.11,0,0,1,.73-3.29,6.9,6.9,0,0,1,1.89-3.11c-.05.52-.06,1.08-.06,1.66L498,2054.78l0,.19c0,1.52,1.25,2.73,2.72,3.51V2069a2.33,2.33,0,0,1-2.33,2.33,1,1,0,0,0,0,2.07,4.4,4.4,0,0,0,4.39-4.4v-9.74a6.31,6.31,0,0,0,1.4.19H505a5.87,5.87,0,0,0,1.39-.19V2069a4.4,4.4,0,0,0,4.39,4.4,1,1,0,1,0,0-2.07,2.32,2.32,0,0,1-2.32-2.33v-10.59a4.29,4.29,0,0,0,2.43-3.46l-3-18c0-.51,0-1,0-1.48a7,7,0,0,1,1.79,3,15.91,15.91,0,0,1,.79,3.53l1.58,13.24a1,1,0,0,0,1,.91h.12A1,1,0,0,0,514.11,2055.09Zm-5.26-.05c-.09,1.11-2.34,2.36-3.82,2.36h-.83c-1.82,0-4-1.42-4.1-2.36l3.26-17.53,0-.32a7.76,7.76,0,0,1,.17-2.13c.08-.25.16-.4.65-.4H505c.55,0,.61.16.67.33a6.79,6.79,0,0,1,.17,2Z"/>
            <path class="cls-6" d="M466.81,2031.56a5.94,5.94,0,1,0-5.94-5.94A5.95,5.95,0,0,0,466.81,2031.56Zm0-9.81a3.88,3.88,0,1,1-3.88,3.87A3.87,3.87,0,0,1,466.81,2021.75Z"/>
            <path class="cls-6" d="M467.47,2032.6h-1.32a7.88,7.88,0,0,0-7.87,7.86v14.76a1,1,0,0,0,2.07,0v-14.76a5.76,5.76,0,0,1,1.6-4,4.07,4.07,0,0,0-.05.61V2069a2.33,2.33,0,0,1-2.33,2.33,1,1,0,0,0,0,2.07,4.4,4.4,0,0,0,4.4-4.4v-10.27a4.47,4.47,0,0,0,2.42.72h.83a4.48,4.48,0,0,0,2.43-.72V2069a4.4,4.4,0,0,0,4.39,4.4,1,1,0,1,0,0-2.07,2.32,2.32,0,0,1-2.32-2.33v-31.93a4.07,4.07,0,0,0-.05-.61,5.76,5.76,0,0,1,1.6,4v14.76a1,1,0,0,0,2.06,0v-14.76A7.87,7.87,0,0,0,467.47,2032.6Zm-.25,24.8h-.83A2.43,2.43,0,0,1,464,2055v-17.88a2.43,2.43,0,0,1,2.42-2.43h.83a2.43,2.43,0,0,1,2.43,2.43V2055A2.43,2.43,0,0,1,467.22,2057.4Z"/>
          </g>
        </g>
        <g id="cfceBathroom">
          <g id="washroom">
            <polygon class="cls-5" points="1229.59 1568.14 1229.59 1744.34 1400.38 1830.85 1400.38 1568.14 1229.59 1568.14"/>
          </g>
          <g id="bathroomSymbol-2" data-name="bathroomSymbol">
            <path class="cls-6" d="M1312.67,1584.5a1.8,1.8,0,0,0-1.8,1.8v107.9a1.8,1.8,0,1,0,3.6,0V1586.3A1.81,1.81,0,0,0,1312.67,1584.5Z"/>
            <path class="cls-6" d="M1345.83,1614.13a10.36,10.36,0,1,0-10.36-10.36A10.37,10.37,0,0,0,1345.83,1614.13Zm0-17.12a6.76,6.76,0,1,1-6.76,6.76A6.76,6.76,0,0,1,1345.83,1597Z"/>
            <path class="cls-6" d="M1362.4,1655.15l-2.76-23.09a32.27,32.27,0,0,0-1.55-6.91c-1.5-4.29-4.13-9.22-11.11-9.22h-2.3c-8,0-10.39,7-11.2,9.36a31,31,0,0,0-1.44,6.46l-2.86,23.4a1.81,1.81,0,0,0,1.57,2l.22,0a1.8,1.8,0,0,0,1.79-1.59l2.85-23.39a27.21,27.21,0,0,1,1.28-5.72,12,12,0,0,1,3.28-5.43c-.09.91-.1,1.88-.1,2.89l-5.69,30.67,0,.33c0,2.65,2.17,4.77,4.73,6.13v18.38a4.05,4.05,0,0,1-4,4,1.8,1.8,0,0,0,0,3.6,7.66,7.66,0,0,0,7.66-7.65v-17a10.27,10.27,0,0,0,2.43.33h1.44a10.15,10.15,0,0,0,2.43-.32v17a7.66,7.66,0,0,0,7.66,7.65,1.8,1.8,0,0,0,0-3.6,4.06,4.06,0,0,1-4.05-4V1661c2.36-1.4,4.23-3.52,4.23-6l-5.19-31.31c0-.9,0-1.76-.07-2.58a12.07,12.07,0,0,1,3.13,5.3,29,29,0,0,1,1.37,6.15l2.76,23.09a1.8,1.8,0,0,0,1.78,1.59l.22,0A1.8,1.8,0,0,0,1362.4,1655.15Zm-9.18-.1c-.16,1.94-4.09,4.12-6.67,4.12h-1.44c-3.17,0-7-2.47-7.15-4.11l5.69-30.56,0-.57a13,13,0,0,1,.3-3.71c.15-.43.28-.69,1.13-.69h1.44c1,0,1.07.28,1.18.57a12,12,0,0,1,.29,3.53Z"/>
            <path class="cls-6" d="M1279.92,1614.13a10.36,10.36,0,1,0-10.36-10.36A10.37,10.37,0,0,0,1279.92,1614.13Zm0-17.12a6.76,6.76,0,1,1-6.76,6.76A6.76,6.76,0,0,1,1279.92,1597Z"/>
            <path class="cls-6" d="M1281.07,1615.93h-2.3a13.73,13.73,0,0,0-13.71,13.71v25.72a1.8,1.8,0,1,0,3.6,0v-25.72a10.08,10.08,0,0,1,2.78-7,9.45,9.45,0,0,0-.08,1.07v55.68a4.06,4.06,0,0,1-4,4,1.8,1.8,0,0,0,0,3.6,7.66,7.66,0,0,0,7.65-7.65v-17.92a7.81,7.81,0,0,0,4.24,1.25h1.44a7.75,7.75,0,0,0,4.23-1.25v17.92a7.66,7.66,0,0,0,7.66,7.65,1.8,1.8,0,0,0,0-3.6,4.06,4.06,0,0,1-4-4v-55.68a9.45,9.45,0,0,0-.08-1.07,10.08,10.08,0,0,1,2.78,7v25.72a1.8,1.8,0,1,0,3.6,0v-25.72A13.73,13.73,0,0,0,1281.07,1615.93Zm-.43,43.24h-1.44a4.24,4.24,0,0,1-4.24-4.24v-31.17a4.24,4.24,0,0,1,4.24-4.23h1.44a4.23,4.23,0,0,1,4.23,4.23v31.17A4.23,4.23,0,0,1,1280.64,1659.17Z"/>
          </g>
        </g>
        <g id="ssbTims">
          <polygon class="cls-5" points="397.71 2364.26 325.05 2230.73 361.79 2155.25 473.09 2209.44 397.71 2364.26"/>
          <g id="food-icon-3prong-2" data-name="food-icon-3prong">
            <path class="cls-6" d="M414,2210a1.75,1.75,0,0,0-.24,0,2,2,0,0,0-.24,0c-6.48,0-11.75,7.17-11.75,16,0,8.11,4.47,14.82,10.23,15.84v30.13a2,2,0,0,0,4,0v-60A2,2,0,0,0,414,2210Zm-8.24,16c0-5.7,2.73-10.62,6.24-11.75v23.5C408.47,2236.59,405.74,2231.67,405.74,2226Z"/>
            <path class="cls-6" d="M394.31,2210a2,2,0,0,0-2,2v19c0,3.38-.37,5.39-1.11,6.14s-2.14.73-4.2.74V2212a2,2,0,0,0-4,0v25.86c-4.16-.11-5.23-1-5.23-7.87,0-4.11,0-15-.08-17.92a2,2,0,0,0-4,.12c.09,2.84.09,13.71.09,17.8,0,9.3,2.75,11.5,9.22,11.83v30.14a2,2,0,0,0,4,0v-30.09c2.95,0,5.32-.22,7-1.91s2.28-4.22,2.28-9v-19A2,2,0,0,0,394.31,2210Z"/>
          </g>
        </g>
      </g>
    </g>
    <g id="icons">
      <g id="stairsBottom">
        <path class="cls-6" d="M1187,1706.66h-24.85a1.12,1.12,0,1,0,0,2.24H1187a1.12,1.12,0,1,0,0-2.24Z"/>
        <path class="cls-6" d="M1196.46,1697.59h-21.87a1.12,1.12,0,0,0,0,2.24h21.87a1.12,1.12,0,0,0,0-2.24Z"/>
        <path class="cls-6" d="M1204.87,1688.61h-19.35a1.12,1.12,0,0,0,0,2.24h19.35a1.12,1.12,0,0,0,0-2.24Z"/>
        <path class="cls-6" d="M1169.76,1655.35a6.45,6.45,0,1,0-6.44-6.44A6.45,6.45,0,0,0,1169.76,1655.35Zm0-10.65a4.21,4.21,0,1,1-4.2,4.21A4.22,4.22,0,0,1,1169.76,1644.7Z"/>
        <path class="cls-6" d="M1163.58,1683.62v17.15a4.77,4.77,0,0,0,4.76,4.77,1.13,1.13,0,0,0,0-2.25,2.52,2.52,0,0,1-2.52-2.52V1685a4.84,4.84,0,0,0,1.15.18l.89,0h.18a4.85,4.85,0,0,0,3-1l3.92,2,.24,5.77a4.77,4.77,0,0,0,4.76,4.77,1.12,1.12,0,1,0,0-2.24,2.54,2.54,0,0,1-2.52-2.57l-.27-6.47a1.11,1.11,0,0,0-.61-1l-4.08-2.1a4.89,4.89,0,0,0,.47-1.92l.19-5.24.8,0a14.32,14.32,0,0,0,1.82-.11,1.12,1.12,0,1,0-.26-2.22,13.68,13.68,0,0,1-2.28.07l.43-11.9a4.88,4.88,0,0,0-4.7-5.05l-.89,0a4.89,4.89,0,0,0-5,4.7l-.7,19.37A4.85,4.85,0,0,0,1163.58,1683.62Zm1.63-22.79a2.58,2.58,0,0,1,.84-1.83,2.61,2.61,0,0,1,1.79-.71h.1l.89,0a2.64,2.64,0,0,1,2.54,2.73l-.41,11.41a.5.5,0,0,1-.25-.32l-1.25-9.74a1.12,1.12,0,0,0-2.23.29l1.25,9.73c.08.66.5,1.83,2.39,2.46l-.2,5.55A2.63,2.63,0,0,1,1168,1683l-.9,0a2.6,2.6,0,0,1-1.42-.48,1.08,1.08,0,0,0-.42-.37,2.61,2.61,0,0,1-.7-1.87Z"/>
      </g>
      <g id="stairsTop">
        <path class="cls-6" d="M1389,353.09h-24.84a1.13,1.13,0,0,0,0,2.25H1389a1.13,1.13,0,1,0,0-2.25Z"/>
        <path class="cls-6" d="M1398.41,344h-21.87a1.13,1.13,0,0,0,0,2.25h21.87a1.13,1.13,0,0,0,0-2.25Z"/>
        <path class="cls-6" d="M1406.82,335h-19.35a1.12,1.12,0,0,0,0,2.24h19.35a1.12,1.12,0,1,0,0-2.24Z"/>
        <path class="cls-6" d="M1371.71,301.79a6.45,6.45,0,1,0-6.44-6.45A6.45,6.45,0,0,0,1371.71,301.79Zm0-10.65a4.21,4.21,0,1,1-4.2,4.2A4.21,4.21,0,0,1,1371.71,291.14Z"/>
        <path class="cls-6" d="M1365.53,330.06v17.15a4.77,4.77,0,0,0,4.77,4.76,1.12,1.12,0,1,0,0-2.24,2.53,2.53,0,0,1-2.53-2.52V331.42a4.85,4.85,0,0,0,1.15.19l.9,0h.18a4.84,4.84,0,0,0,3-1l3.92,2,.24,5.77a4.77,4.77,0,0,0,4.77,4.76,1.12,1.12,0,0,0,0-2.24,2.55,2.55,0,0,1-2.53-2.57l-.27-6.47a1.12,1.12,0,0,0-.6-1l-4.09-2.1a4.64,4.64,0,0,0,.47-1.92l.19-5.24c.26,0,.53,0,.8,0a16.61,16.61,0,0,0,1.83-.11,1.13,1.13,0,0,0,1-1.25,1.12,1.12,0,0,0-1.25-1,11.82,11.82,0,0,1-2.28.07l.43-11.9a4.87,4.87,0,0,0-4.69-5l-.9,0a4.9,4.9,0,0,0-5,4.7l-.7,19.38A4.91,4.91,0,0,0,1365.53,330.06Zm1.63-22.8a2.66,2.66,0,0,1,.84-1.83,2.63,2.63,0,0,1,1.79-.71h.1l.89,0a2.63,2.63,0,0,1,2.54,2.72l-.41,11.41a.55.55,0,0,1-.25-.31l-1.25-9.74a1.11,1.11,0,0,0-1.26-1,1.13,1.13,0,0,0-1,1.25l1.25,9.73a3,3,0,0,0,2.39,2.46l-.2,5.55a2.58,2.58,0,0,1-.84,1.83,2.63,2.63,0,0,1-1.88.71l-.9,0a2.68,2.68,0,0,1-1.42-.48,1.1,1.1,0,0,0-.42-.38,2.65,2.65,0,0,1-.7-1.87Z"/>
      </g>
      <g id="doors">
        <g id="exit">
          <path class="cls-7" d="M198.39,2438.79a2,2,0,0,0-2.87-.38,54.81,54.81,0,0,0-5.57,4.91,2,2,0,0,0,0,2.89,1.93,1.93,0,0,0,.52.38,2.06,2.06,0,0,0,2.37-.39,47.93,47.93,0,0,1,5.15-4.54A2,2,0,0,0,198.39,2438.79Z"/>
          <path class="cls-7" d="M188,2448.53a2,2,0,0,0-2.87.36c-1.43,1.85-2.84,3.87-4.21,6a2,2,0,0,0,.63,2.82l.19.1a2,2,0,0,0,2.64-.73c1.29-2,2.63-4,4-5.7A2,2,0,0,0,188,2448.53Z"/>
          <path class="cls-7" d="M251.89,2490.32l-40.76-58.75a2,2,0,0,0-2.3-.77,2.23,2.23,0,0,0-.6.16c-2.4,1.1-4.54,2.19-6.53,3.35a2,2,0,0,0,.1,3.59,2.05,2.05,0,0,0,1.94-.05c1.54-.89,3.18-1.74,5-2.6l39.82,57.41a2.11,2.11,0,0,0,.77.66,2,2,0,0,0,2.59-3Z"/>
          <path class="cls-7" d="M174.29,2438.37a2,2,0,0,0,2.32-1.72,52.93,52.93,0,0,0,.58-7.4,2,2,0,1,0-4.08,0,49.49,49.49,0,0,1-.54,6.84,2,2,0,0,0,1.1,2.13A1.87,1.87,0,0,0,174.29,2438.37Z"/>
          <path class="cls-7" d="M176.77,2421.85c-.27-2.29-.68-4.65-1.24-7.24a2.06,2.06,0,0,0-.23-.57,2,2,0,0,0-2-1.38l-71.46,2.65a2,2,0,0,0-2,2.12,2.07,2.07,0,0,0,1.13,1.76,2.2,2.2,0,0,0,1,.21l69.82-2.6c.39,1.95.69,3.78.9,5.53a2,2,0,0,0,2.28,1.79A2,2,0,0,0,176.77,2421.85Z"/>
          <path class="cls-7" d="M175.07,2443.88a2,2,0,1,0-3.94-1.08c-.58,2.13-1.31,4.35-2.17,6.61a2,2,0,0,0,1,2.55l.19.09a2,2,0,0,0,2.63-1.19C173.69,2448.48,174.45,2446.13,175.07,2443.88Z"/>
        </g>
        <g id="exit-2" data-name="exit">
          <path class="cls-6" d="M1035.05,1656.27a1.4,1.4,0,0,0-2-.27,36.9,36.9,0,0,0-3.83,3.38,1.4,1.4,0,0,0,0,2,1.27,1.27,0,0,0,.36.26,1.39,1.39,0,0,0,1.63-.27,34.66,34.66,0,0,1,3.54-3.12A1.4,1.4,0,0,0,1035.05,1656.27Z"/>
          <path class="cls-6" d="M1027.88,1663a1.41,1.41,0,0,0-2,.25c-1,1.27-2,2.66-2.89,4.14a1.4,1.4,0,0,0,.44,1.93l.12.08a1.43,1.43,0,0,0,1.82-.51c.89-1.4,1.81-2.72,2.73-3.92A1.39,1.39,0,0,0,1027.88,1663Z"/>
          <path class="cls-6" d="M1071.8,1691.66l-28-40.35a1.39,1.39,0,0,0-1.58-.53,1.19,1.19,0,0,0-.41.11,49.25,49.25,0,0,0-4.49,2.3,1.39,1.39,0,0,0-.51,1.91,1.42,1.42,0,0,0,.58.56,1.45,1.45,0,0,0,1.34,0c1-.61,2.18-1.2,3.41-1.78l27.35,39.42a1.37,1.37,0,0,0,.53.46,1.4,1.4,0,0,0,1.78-2.06Z"/>
          <path class="cls-6" d="M1018.5,1656a1.41,1.41,0,0,0,1.59-1.18,36.48,36.48,0,0,0,.4-5.09,1.41,1.41,0,1,0-2.81,0,32.6,32.6,0,0,1-.37,4.71,1.41,1.41,0,0,0,.76,1.46A1.44,1.44,0,0,0,1018.5,1656Z"/>
          <path class="cls-6" d="M1020.2,1644.63c-.19-1.57-.47-3.2-.85-5a1.59,1.59,0,0,0-.16-.4,1.41,1.41,0,0,0-1.38-1l-49.08,1.83a1.4,1.4,0,0,0-.57,2.66,1.51,1.51,0,0,0,.68.15l47.95-1.79c.27,1.34.48,2.59.62,3.8a1.39,1.39,0,0,0,.77,1.09,1.4,1.4,0,0,0,2-1.42Z"/>
          <path class="cls-6" d="M1019,1659.76a1.4,1.4,0,1,0-2.7-.74c-.41,1.46-.91,3-1.49,4.54a1.39,1.39,0,0,0,.68,1.75l.13.06a1.4,1.4,0,0,0,1.81-.81C1018.08,1662.92,1018.61,1661.31,1019,1659.76Z"/>
        </g>
        <g id="exit-top">
          <path class="cls-6" d="M1307.14,99a.47.47,0,0,1-.63-.23,13.83,13.83,0,0,1-.64-1.7.51.51,0,0,1,.3-.63.4.4,0,0,1,.15,0,.47.47,0,0,1,.44.35,13.21,13.21,0,0,0,.59,1.56A.53.53,0,0,1,1307.14,99Z"/>
          <path class="cls-6" d="M1306,95.74a.48.48,0,0,1-.55-.4c-.11-.56-.19-1.16-.25-1.79a.5.5,0,0,1,.42-.55h.05a.47.47,0,0,1,.46.45c.06.59.14,1.16.24,1.7A.51.51,0,0,1,1306,95.74Z"/>
          <path class="cls-6" d="M1323.39,93.57,1309,102a.44.44,0,0,1-.55-.09.5.5,0,0,1-.11-.1c-.38-.5-.7-1-1-1.45a.53.53,0,0,1,.13-.7.42.42,0,0,1,.26-.08.47.47,0,0,1,.39.22c.22.37.47.74.75,1.12l14-8.25a.46.46,0,0,1,.22-.06.45.45,0,0,1,.41.26A.52.52,0,0,1,1323.39,93.57Z"/>
          <path class="cls-6" d="M1302.16,96.47a.51.51,0,0,1,.3.63,13.83,13.83,0,0,1-.64,1.7.47.47,0,0,1-.63.23.54.54,0,0,1-.22-.68,11.7,11.7,0,0,0,.6-1.56.47.47,0,0,1,.44-.35Z"/>
          <path class="cls-6" d="M1301,100.38a15.83,15.83,0,0,1-1,1.45.32.32,0,0,1-.1.1.44.44,0,0,1-.55.09l-14.38-8.45a.51.51,0,0,1-.18-.68.45.45,0,0,1,.41-.26.46.46,0,0,1,.22.06l14,8.25c.28-.38.53-.75.75-1.12a.47.47,0,0,1,.39-.22.42.42,0,0,1,.26.08A.54.54,0,0,1,1301,100.38Z"/>
          <path class="cls-6" d="M1302.88,95.34a.48.48,0,0,1-.55.4.51.51,0,0,1-.37-.59c.1-.54.18-1.11.24-1.7a.47.47,0,0,1,.46-.45h0a.51.51,0,0,1,.42.56C1303.07,94.18,1303,94.78,1302.88,95.34Z"/>
        </g>
        <g id="exit-left">
          <path class="cls-6" d="M703.84,1087.6a1.55,1.55,0,0,0-2.43-.09,62.45,62.45,0,0,0-5,5.34,2.19,2.19,0,0,0-.14,2.81,1.27,1.27,0,0,0,.42.32,1.75,1.75,0,0,0,2.05-.61,57.49,57.49,0,0,1,4.65-4.93A2.31,2.31,0,0,0,703.84,1087.6Z"/>
          <path class="cls-6" d="M694.39,1098.12a1.72,1.72,0,0,0-2.47.64c-1.32,1.93-2.64,4-3.93,6.28a2,2,0,0,0,.39,2.69l.15.08a1.86,1.86,0,0,0,2.3-1c1.21-2.11,2.47-4.12,3.72-5.95A2.09,2.09,0,0,0,694.39,1098.12Z"/>
          <path class="cls-6" d="M733.64,1126.44l-19.92-47.79c-.25-.62-.87-.71-1.48-.31a1.76,1.76,0,0,0-.43.25c-1.8,1.46-3.43,2.86-5,4.29a3,3,0,0,0-.9,2.74,1,1,0,0,0,.48.61,1.26,1.26,0,0,0,1.34-.4c1.18-1.1,2.43-2.19,3.78-3.31L731,1129.21a.89.89,0,0,0,.44.49,1.35,1.35,0,0,0,1.45-.51A2.89,2.89,0,0,0,733.64,1126.44Z"/>
        </g>
      </g>
      <g id="waterFountain">
        <path class="cls-6" d="M1263.34,603.83h-11.8a.94.94,0,0,1-.91-.71L1246.39,587a1,1,0,0,1,.92-1.19h16a1,1,0,0,1,1,1v16.17A1,1,0,0,1,1263.34,603.83Zm-11.06-1.89h10.11V587.66h-13.85Z"/>
        <path class="cls-6" d="M1253.79,585.4a.94.94,0,0,1-.94-.85q-.06-.62-.06-1.2a8.19,8.19,0,0,1,0-.87.94.94,0,0,1,1-.86.93.93,0,0,1,.86,1c0,.23,0,.47,0,.71a9,9,0,0,0,.06,1,1,1,0,0,1-.85,1Zm.59-4.16a1,1,0,0,1-.84-1.39,4.45,4.45,0,0,1,1.57-1.77,1,1,0,1,1,1,1.61,2.55,2.55,0,0,0-.9,1A.94.94,0,0,1,1254.38,581.24Zm4.84-1.24a.94.94,0,0,1-.48-.13,3.34,3.34,0,0,0-1-.42.95.95,0,1,1,.4-1.85,5.16,5.16,0,0,1,1.6.64,1,1,0,0,1,.34,1.3A.94.94,0,0,1,1259.22,580Z"/>
        <path class="cls-6" d="M1251.1,585.4a.94.94,0,0,1-.94-.89c0-.58-.06-1.15-.06-1.68v-.28a1,1,0,1,1,1.9,0v.26c0,.49,0,1,0,1.57a1,1,0,0,1-.89,1Zm.13-4.25h-.14a1,1,0,0,1-.8-1.08,11.07,11.07,0,0,1,.49-2,.94.94,0,0,1,1.78.63,10,10,0,0,0-.4,1.67A.94.94,0,0,1,1251.23,581.15Zm1.64-3.86a1,1,0,0,1-.67-.27,1,1,0,0,1,0-1.34,4.8,4.8,0,0,1,2-1.23,1,1,0,0,1,1.19.61,1,1,0,0,1-.61,1.2,2.92,2.92,0,0,0-1.21.74A.93.93,0,0,1,1252.87,577.29Zm5.79-.8a.84.84,0,0,1-.27,0,9.8,9.8,0,0,0-1.69-.35.95.95,0,1,1,.2-1.88,10.81,10.81,0,0,1,2,.41,1,1,0,0,1,.65,1.18A1,1,0,0,1,1258.66,576.49Z"/>
        <path class="cls-6" d="M1245.35,574.73a5.45,5.45,0,1,1,5.45-5.45A5.46,5.46,0,0,1,1245.35,574.73Zm0-9a3.55,3.55,0,1,0,3.56,3.55A3.55,3.55,0,0,0,1245.35,565.73Z"/>
        <path class="cls-6" d="M1234.55,594.33a3.87,3.87,0,0,1-1.79-.43l-1.08-.56a3.9,3.9,0,0,1-1.66-5.25l6.23-12a3.85,3.85,0,0,1,2.28-1.92,3.93,3.93,0,0,1,3,.25l1.08.56a3.91,3.91,0,0,1,1.66,5.25l-6.23,12a3.82,3.82,0,0,1-2.28,1.92A4,4,0,0,1,1234.55,594.33Zm-.91-2.11a2,2,0,0,0,2.69-.86l6.23-12a2,2,0,0,0-.86-2.69l-1.08-.56a2,2,0,0,0-2.69.85l-6.23,12a2,2,0,0,0,.86,2.7Z"/>
        <path class="cls-6" d="M1234.07,608.42a3.84,3.84,0,0,1-4-3.6V591.94a1,1,0,0,1,1.9,0v12.88a2,2,0,0,0,2.13,1.7.95.95,0,1,1,0,1.9Z"/>
        <path class="cls-6" d="M1244.94,592.49a3.44,3.44,0,0,1-3.56-2.41l-2.37-10.8a.95.95,0,1,1,1.85-.41l2.37,10.81c.13.61,1.14,1.11,2.37.84a.95.95,0,1,1,.4,1.85A4.85,4.85,0,0,1,1244.94,592.49Z"/>
        <path class="cls-6" d="M1237.79,607.07c-2.23,0-4-1.44-4-3.22v-9.77a.95.95,0,1,1,1.89,0v9.77c0,.63.88,1.33,2.14,1.33a.95.95,0,0,1,0,1.89Z"/>
      </g>
      <g id="parking">
        <rect id="parking-2" data-name="parking" class="cls-5" x="697.3" y="1756.09" width="626.84" height="501.81" transform="translate(980.52 -239.93) rotate(25.96)"/>
        <g id="parkingIcon">
          <path class="cls-6" d="M1018.67,1947.21a43.45,43.45,0,1,0,43.44,43.45A43.5,43.5,0,0,0,1018.67,1947.21Zm0,80.64a37.2,37.2,0,1,1,37.2-37.19A37.24,37.24,0,0,1,1018.67,2027.85Z"/>
          <path class="cls-6" d="M1009.42,1963a3.13,3.13,0,0,0-3.13,3.13s0,.06,0,.1,0,.06,0,.1v49a3.13,3.13,0,1,0,6.25,0V1992c10.6-1,18.51-7,18.51-14.46C1031.05,1969.37,1021.55,1963,1009.42,1963Zm3.12,22.78v-16.34c7.36.86,12.26,4.69,12.26,8.17S1019.9,1984.87,1012.54,1985.73Z"/>
        </g>
      </g>
    </g>
    <g id="active">
      <g id="gcfce123B">
        <rect id="cfce123B" class="cls-8" x="1330.5" y="99.5" width="71" height="175"/>
        <text id="numcfce123B" class="cls-9" transform="translate(1347.34 143.69) rotate(90.15)">123B</text>
      </g>
      <g id="gcfce116">
        <rect id="cfce116" class="cls-10" x="1229.58" y="1124.13" width="170.8" height="147.58"/>
        <text id="numcfce116" class="cls-11" transform="matrix(1, -0.01, 0.01, 1, 1251.89, 1250.94)">116</text>
      </g>
      <g id="gcfce117">
        <rect id="cfce117" class="cls-10" x="1229.58" y="956.49" width="170.8" height="147.58"/>
        <text id="numcfce117" class="cls-11" transform="translate(1257.91 1082.51) rotate(0.25)">117</text>
      </g>
      <g id="gcfce118">
        <rect id="cfce118" class="cls-10" x="1229.58" y="788.85" width="170.8" height="147.58"/>
        <text id="numcfce118" class="cls-11" transform="translate(1250.18 916.18) rotate(-0.53)">118</text>
      </g>
      <g id="gcfce119">
        <rect id="cfce119" class="cls-10" x="1229.58" y="621.2" width="170.8" height="147.58"/>
        <text id="numcfce119" class="cls-11" transform="translate(1250.19 747.96) rotate(-0.31)">119</text>
      </g>
      <g id="gcfce123">
        <polygon id="cfce123" class="cls-10" points="1400.38 552.31 1229.59 552.31 1229.59 370.54 1260.53 293.8 1349.75 293.8 1350.07 367.65 1400.38 368.37 1400.38 552.31"/>
        <text id="number" class="cls-11" transform="translate(1248.12 531.76) rotate(-0.19)">123</text>
      </g>
      <g id="gglobalClassroom">
        <polygon id="globalClassroom" class="cls-10" points="964.34 1262.24 935.44 1318.22 748.64 1221.17 777.24 1164.68 753.08 1152.49 859.27 948.09 1131.32 1089.42 1025.05 1293.97 964.34 1262.24"/>
        <text id="numGlobalClassroom" class="cls-12" transform="translate(829.06 1130.36) rotate(-0.15)">Global<tspan x="0" y="86.99">Class</tspan></text>
      </g>
      <g id="gssbLink">
        <polygon id="ssbLink" class="cls-10" points="927.15 1336.24 717.83 1231.01 748.55 1169.91 693.48 1142.22 511.23 1504.64 566.3 1532.33 690.54 1285.29 899.86 1390.52 927.15 1336.24"/>
        <text id="numssbLink2" class="cls-13" transform="translate(561.41 1517.69) rotate(-63.25)">SSB Link</text>
        <text id="numssbLink1" class="cls-13" transform="translate(758.2 1307.09) rotate(26.11)">SSB Link</text>
      </g>
      <g id="gmrc">
        <g id="mrc">
          <polygon id="mrcRect" class="cls-14" points="1016.43 1469.55 937.31 1630.11 872.34 1598.41 951.46 1437.85 1016.43 1469.55"/>
          <path class="cls-6" d="M951.46,1437.85h0l-5.89,12,3.58,1.76,5.89-12-3.57-1.76Zm-11.8,23.94-5.89,12,3.57,1.77,5.9-12-3.58-1.76Zm-11.79,23.93-.34.68h0l0,0h0l0,0h0v0l0,0h0l0,0h0v0h0l0,.07h0l0,.08h0v0h0L922,1497.69l3.57,1.76,5.9-12-3.57-1.76Zm-11.8,23.94-5.9,12,3.58,1.76,5.9-12-3.58-1.76Zm-11.79,23.94-3.93,8h0l0,0h0l-1.94,4,3.57,1.77,5.9-12-3.57-1.76Zm-11.8,23.93-1.34,2.72,0,.09v0h0v0l-4.49,9.1,3.58,1.76,5.89-12-3.57-1.76Zm-11.8,23.94-5.89,12,3.57,1.76,5.9-12-3.58-1.76Zm.41,16.78-1.75,3.58,6.6,3.22h0l5.37,2.62,1.74-3.58-12-5.85Zm24,11.7-1.75,3.58,12,5.85,1.75-3.58-12-5.85Zm24,11.7-1.75,3.58,10,4.88h0l1-2h0l.78-1.59h0l-10-4.87Zm8.25,8.46Zm9.2-27.69-5.9,12,3.58,1.76,1.38-2.81h0v0h0l0-.06h0v0h0l0,0h0l0,0h0l0-.06h0l0-.06h0v0h0v0c.09-.16.17-.33.25-.51h0c1.72-3.51,4-8.18,4-8.18l-3.58-1.76Zm11.8-23.94-5.9,12,3.58,1.76,3.7-7.51h0v0h0l2.17-4.42-3.57-1.76Zm11.79-23.93-5.89,12,3.57,1.77,5.9-12-3.58-1.76Zm11.8-23.94-5.9,12,3.58,1.76,5.89-12-3.57-1.76Zm11.8-23.94-5.9,12,3.57,1.76,5.9-12-3.57-1.76Zm11.79-23.93-5.9,12,3.58,1.77,5.9-12-3.58-1.76Zm1.94-17.59-1.75,3.59,9,4.38,1.76-3.57h0l-3.58-1.75h0l-5.42-2.65Zm-24-11.7L981.7,1457l12,5.85,1.75-3.59-7.11-3.47h0l-.27-.13h0l-.13-.07h0l-.06,0-.11,0h0l-4.27-2.09Zm-24-11.7-1.74,3.59,12,5.85,1.75-3.59-12-5.85Z"/>
        </g>
        <text id="numMRC" class="cls-15" transform="matrix(0.44, -0.9, 0.9, 0.44, 944.84, 1581.3)">MRC</text>
      </g>
      <g id="gssb116">
        <rect id="ssb116" class="cls-10" x="527.17" y="1746.46" width="123.78" height="166.75" transform="translate(860.42 -73.23) rotate(25.96)"/>
        <text id="numssb116" class="cls-15" transform="translate(591.61 1911.73) rotate(-64.15)">116A/B</text>
      </g>
    </g>
  </g>
</svg>
