<svg xmlns="http://www.w3.org/2000/svg" viewBox="0 0 78.51 60.55">
  <defs>
    <style>
      .cls-1 {
        fill: #eee;
      }
    </style>
  </defs>
  <g id="Layer_2" data-name="Layer 2">
    <g id="app-buttons">
      <g id="goBack">
        <path class="cls-1" d="M28.26,11.68V1.74A1.74,1.74,0,0,0,25.37.44L.59,22.35a1.72,1.72,0,0,0,0,2.6L25.37,46.86a1.74,1.74,0,0,0,2.89-1.3V35.36a.65.65,0,0,1,.64-.66c21.81-.46,45.35-1.58,45.89,25.2a.66.66,0,0,0,1.3.16c11.44-42.13-20-45.23-47.23-47.72A.66.66,0,0,1,28.26,11.68Z"/>
      </g>
    </g>
  </g>
</svg>
