<svg xmlns="http://www.w3.org/2000/svg" viewBox="0 0 428.61 659.79">
  <defs>
    <style>
      .cls-1, .cls-2 {
        fill: none;
        stroke: #7fbdad;
      }

      .cls-1, .cls-2, .cls-4, .cls-5, .cls-7 {
        stroke-miterlimit: 10;
      }

      .cls-1 {
        stroke-width: 1.35px;
      }

      .cls-2, .cls-5 {
        stroke-width: 1.35px;
      }

      .cls-3, .cls-4 {
        fill: #fff;
      }

      .cls-4, .cls-5, .cls-7 {
        stroke: #fff;
      }

      .cls-4 {
        stroke-width: 0.26px;
      }

      .cls-5, .cls-7, .cls-9 {
        fill: #7fbdad;
      }

      .cls-6 {
        font-size: 13.57px;
      }

      .cls-10, .cls-6, .cls-8 {
        fill: #1e3853;
      }

      .cls-10, .cls-6 {
        font-family: Oswald-Regular, Oswald;
      }

      .cls-7 {
        stroke-width: 1.31px;
      }

      .cls-10 {
        font-size: 13.57px;
      }

      .cls-11 {
        fill: #9ec2b4;
      }
    </style>
  </defs>
  <title>map_resized</title>
  <g id="Layer_9" data-name="Layer 9">
    <rect class="cls-1" x="129.34" y="480.82" width="14.14" height="18.16" transform="translate(228.21 -10.28) rotate(25.96)"/>
    <rect class="cls-2" x="144.81" y="488.35" width="14.14" height="18.16" transform="translate(233.07 -16.29) rotate(25.96)"/>
    <rect class="cls-2" x="104.76" y="532.06" width="31.7" height="18.67" transform="translate(249.16 1.83) rotate(25.96)"/>
    <rect class="cls-2" x="173.42" y="392.32" width="31.7" height="15.71" transform="translate(194.27 -42.47) rotate(25.96)"/>
    <rect class="cls-2" x="165.18" y="409.23" width="31.7" height="15.71" transform="translate(200.84 -37.16) rotate(25.96)"/>
    <rect class="cls-2" x="156.95" y="426.14" width="31.7" height="15.71" transform="translate(207.41 -31.85) rotate(25.96)"/>
    <g id="spareRoom-Right">
      <rect class="cls-2" x="335.16" y="139.41" width="31.39" height="10.79"/>
    </g>
    <g id="left-third">
      <polygon class="cls-2" points="299.54 212.04 253.33 188.13 266.39 162.89 299.54 180.35 299.54 212.04"/>
    </g>
    <g id="left-second">
      <polygon class="cls-2" points="299.52 175.78 268.19 159.46 278.46 139.6 299.54 150.56 299.52 175.78"/>
    </g>
    <g id="left-top">
      <polygon class="cls-2" points="299.65 146.9 280.06 136.65 286.72 123.79 299.66 130.64 299.65 146.9"/>
    </g>
    <g id="ind-center">
      <polygon class="cls-2" points="299.52 267.63 230.62 231.97 251.26 192.1 299.54 217.09 299.52 267.63"/>
    </g>
    <g id="CAF">
      <g id="caf-2" data-name="caf">
        <rect class="cls-2" x="322.66" y="325.62" width="43.74" height="41.89"/>
      </g>
      <g id="food-icon-3prong">
        <path class="cls-3" d="M351.91,334.71h-.21c-2.75,0-5,3.05-5,6.79,0,3.44,1.89,6.29,4.34,6.72V361a.85.85,0,0,0,1.7,0V335.56A.85.85,0,0,0,351.91,334.71Zm-3.5,6.79c0-2.42,1.16-4.51,2.65-5v10C349.57,346,348.41,343.92,348.41,341.5Z"/>
        <path class="cls-3" d="M343.56,334.71a.85.85,0,0,0-.85.85v8.06c0,1.44-.16,2.29-.47,2.61s-.91.31-1.79.31v-11a.85.85,0,1,0-1.69,0v11c-1.77-.05-2.22-.42-2.22-3.34,0-1.75,0-6.38,0-7.61a.85.85,0,1,0-1.69.05c0,1.21,0,5.82,0,7.56,0,3.95,1.17,4.88,3.92,5V361a.85.85,0,1,0,1.69,0V348.24a4,4,0,0,0,3-.81c.68-.69,1-1.79,1-3.81v-8.06A.85.85,0,0,0,343.56,334.71Z"/>
      </g>
    </g>
    <g id="ssbBathroom">
      <rect class="cls-2" x="116.02" y="505.14" width="31.7" height="26.1" transform="translate(240.14 -5.44) rotate(25.96)"/>
      <g id="bathroomSymbol">
        <path class="cls-3" d="M132.12,510.64a.26.26,0,0,0-.26.26v15.85a.27.27,0,0,0,.53,0V510.9A.26.26,0,0,0,132.12,510.64Z"/>
        <path class="cls-3" d="M137,515a1.53,1.53,0,1,0-1.53-1.52A1.53,1.53,0,0,0,137,515Zm0-2.52a1,1,0,1,1-1,1A1,1,0,0,1,137,512.47Z"/>
        <path class="cls-3" d="M139.43,521l-.41-3.39a4.4,4.4,0,0,0-.22-1,1.69,1.69,0,0,0-1.64-1.36h-.33a1.77,1.77,0,0,0-1.65,1.38,4.42,4.42,0,0,0-.21,1l-.42,3.43a.27.27,0,0,0,.23.3h0a.28.28,0,0,0,.27-.23l.41-3.44a4,4,0,0,1,.19-.84,1.89,1.89,0,0,1,.48-.8c0,.14,0,.28,0,.43l-.84,4.5V521a1.12,1.12,0,0,0,.69.9v2.7a.59.59,0,0,1-.59.6.26.26,0,0,0-.27.26.27.27,0,0,0,.27.27,1.13,1.13,0,0,0,1.12-1.13v-2.5a1.2,1.2,0,0,0,.36,0h.21a1.59,1.59,0,0,0,.36,0v2.49a1.13,1.13,0,0,0,1.12,1.13.27.27,0,0,0,.27-.27.26.26,0,0,0-.27-.26.59.59,0,0,1-.59-.6v-2.71a1.1,1.1,0,0,0,.62-.89l-.76-4.6c0-.13,0-.26,0-.38a1.82,1.82,0,0,1,.46.78,4.76,4.76,0,0,1,.2.9l.4,3.4a.27.27,0,0,0,.27.23h0A.27.27,0,0,0,139.43,521Zm-1.35,0c0,.28-.6.6-1,.6h-.21c-.47,0-1-.36-1-.6l.83-4.49v-.08a2.2,2.2,0,0,1,0-.55c0-.06,0-.1.17-.1h.21c.14,0,.16,0,.17.08a1.55,1.55,0,0,1,0,.52Z"/>
        <path class="cls-3" d="M127.31,515a1.53,1.53,0,1,0-1.52-1.52A1.53,1.53,0,0,0,127.31,515Zm0-2.52a1,1,0,1,1-1,1A1,1,0,0,1,127.31,512.47Z"/>
        <path class="cls-3" d="M127.48,515.25h-.34a2,2,0,0,0-2,2V521a.27.27,0,1,0,.53,0v-3.77a1.47,1.47,0,0,1,.41-1,.76.76,0,0,0,0,.15v8.18a.6.6,0,0,1-.6.6.25.25,0,0,0-.26.26.26.26,0,0,0,.26.27,1.14,1.14,0,0,0,1.13-1.13V522a1.18,1.18,0,0,0,.62.18h.21A1.18,1.18,0,0,0,128,522v2.63a1.14,1.14,0,0,0,1.13,1.13.27.27,0,0,0,.26-.27.26.26,0,0,0-.26-.26.6.6,0,0,1-.6-.6V516.4a.76.76,0,0,0,0-.15,1.47,1.47,0,0,1,.41,1V521a.27.27,0,1,0,.53,0v-3.77A2,2,0,0,0,127.48,515.25Zm-.06,6.35h-.21a.62.62,0,0,1-.62-.62V516.4a.62.62,0,0,1,.62-.62h.21a.62.62,0,0,1,.62.62V521A.62.62,0,0,1,127.42,521.6Z"/>
      </g>
    </g>
    <g id="cfceBathroom">
      <g id="washroom">
        <polygon class="cls-2" points="322.66 396.3 322.66 441.43 366.41 463.58 366.41 396.3 322.66 396.3"/>
      </g>
      <g id="bathroomSymbol-2" data-name="bathroomSymbol">
        <path class="cls-3" d="M343.94,400.49a.47.47,0,0,0-.46.46v27.64a.47.47,0,0,0,.46.46.46.46,0,0,0,.46-.46V401A.46.46,0,0,0,343.94,400.49Z"/>
        <path class="cls-3" d="M352.44,408.08a2.66,2.66,0,1,0-2.66-2.65A2.65,2.65,0,0,0,352.44,408.08Zm0-4.38a1.73,1.73,0,1,1-1.74,1.73A1.73,1.73,0,0,1,352.44,403.7Z"/>
        <path class="cls-3" d="M356.68,418.59l-.71-5.92a9.2,9.2,0,0,0-.39-1.77,2.94,2.94,0,0,0-2.85-2.36h-.59a3.08,3.08,0,0,0-2.87,2.4,8.53,8.53,0,0,0-.37,1.65l-.73,6a.46.46,0,0,0,.4.52h.06a.46.46,0,0,0,.46-.4l.73-6a6.77,6.77,0,0,1,.33-1.47,3,3,0,0,1,.84-1.39,5.86,5.86,0,0,0,0,.74l-1.46,7.86v.08a2,2,0,0,0,1.21,1.57v4.71a1,1,0,0,1-1,1,.47.47,0,0,0,0,.93,2,2,0,0,0,2-2v-4.36a2.44,2.44,0,0,0,.62.09h.37a2.32,2.32,0,0,0,.62-.09v4.36a2,2,0,0,0,2,2,.47.47,0,1,0,0-.93,1,1,0,0,1-1-1v-4.74a1.91,1.91,0,0,0,1.08-1.54l-1.33-8c0-.23,0-.45,0-.66a3,3,0,0,1,.8,1.36,7.23,7.23,0,0,1,.36,1.57l.7,5.91a.46.46,0,0,0,.46.41h0A.46.46,0,0,0,356.68,418.59Zm-2.35,0c0,.5-1.05,1.05-1.71,1.05h-.37c-.81,0-1.78-.63-1.83-1.05l1.46-7.82v-.15a3.29,3.29,0,0,1,.08-.95c0-.11.07-.18.29-.18h.37c.25,0,.27.07.3.15a2.84,2.84,0,0,1,.08.9Z"/>
        <path class="cls-3" d="M335.56,408.08a2.66,2.66,0,1,0-2.66-2.65A2.65,2.65,0,0,0,335.56,408.08Zm0-4.38a1.73,1.73,0,1,1-1.74,1.73A1.73,1.73,0,0,1,335.56,403.7Z"/>
        <path class="cls-3" d="M335.85,408.54h-.59a3.51,3.51,0,0,0-3.51,3.51v6.59a.46.46,0,0,0,.46.46.47.47,0,0,0,.46-.46v-6.59a2.59,2.59,0,0,1,.71-1.78,2.46,2.46,0,0,0,0,.28v14.26a1,1,0,0,1-1,1,.47.47,0,1,0,0,.93,2,2,0,0,0,2-2v-4.59a2,2,0,0,0,1.08.32h.37a2,2,0,0,0,1.08-.32v4.59a2,2,0,0,0,2,2,.47.47,0,0,0,0-.93,1,1,0,0,1-1-1V410.55a2.46,2.46,0,0,0,0-.28,2.59,2.59,0,0,1,.71,1.78v6.59a.47.47,0,0,0,.46.46.46.46,0,0,0,.46-.46v-6.59A3.51,3.51,0,0,0,335.85,408.54Zm-.11,11.07h-.37a1.08,1.08,0,0,1-1.08-1.08v-8a1.08,1.08,0,0,1,1.08-1.09h.37a1.08,1.08,0,0,1,1.08,1.09v8A1.08,1.08,0,0,1,335.74,419.61Z"/>
      </g>
    </g>
    <g id="ssbTims">
      <polygon class="cls-2" points="109.62 600.19 91.01 565.99 100.42 546.66 128.92 560.54 109.62 600.19"/>
      <g id="food-icon-3prong-2" data-name="food-icon-3prong">
        <path class="cls-3" d="M113.78,560.68h-.12c-1.66,0-3,1.84-3,4.1,0,2.07,1.15,3.79,2.62,4.05v7.72a.51.51,0,0,0,.51.51.51.51,0,0,0,.51-.51V561.19A.51.51,0,0,0,113.78,560.68Zm-2.11,4.1a3.09,3.09,0,0,1,1.6-3v6A3.08,3.08,0,0,1,111.67,564.78Z"/>
        <path class="cls-3" d="M108.74,560.68a.51.51,0,0,0-.51.51v4.86c0,.87-.09,1.39-.28,1.58s-.55.18-1.08.19v-6.63a.51.51,0,0,0-1,0v6.62c-1.07,0-1.34-.25-1.34-2,0-1,0-3.85,0-4.59a.52.52,0,0,0-.53-.5.51.51,0,0,0-.49.53c0,.73,0,3.51,0,4.56,0,2.38.7,3,2.36,3v7.72a.51.51,0,0,0,1,0v-7.71a2.35,2.35,0,0,0,1.8-.49,3.07,3.07,0,0,0,.59-2.3v-4.86A.51.51,0,0,0,108.74,560.68Z"/>
      </g>
    </g>
    <g id="stairsBottom">
      <path class="cls-3" d="M311.76,431.78H305.4a.29.29,0,1,0,0,.57h6.36a.29.29,0,1,0,0-.57Z"/>
      <path class="cls-3" d="M314.18,429.45h-5.6a.29.29,0,0,0,0,.58h5.6a.29.29,0,0,0,0-.58Z"/>
      <path class="cls-3" d="M316.33,427.15h-4.95a.29.29,0,0,0,0,.58h4.95a.29.29,0,0,0,0-.58Z"/>
      <path class="cls-3" d="M307.34,418.64a1.65,1.65,0,1,0-1.65-1.65A1.65,1.65,0,0,0,307.34,418.64Zm0-2.73a1.08,1.08,0,1,1-1.07,1.08A1.08,1.08,0,0,1,307.34,415.91Z"/>
      <path class="cls-3" d="M305.76,425.88v4.39a1.22,1.22,0,0,0,1.22,1.22.29.29,0,0,0,.29-.29.28.28,0,0,0-.29-.28.65.65,0,0,1-.65-.65v-4a1.54,1.54,0,0,0,.3,0h.27a1.28,1.28,0,0,0,.76-.25l1,.51.07,1.48a1.22,1.22,0,0,0,1.22,1.22.29.29,0,0,0,0-.57.65.65,0,0,1-.65-.66l-.07-1.66a.27.27,0,0,0-.16-.24l-1-.54a1.36,1.36,0,0,0,.12-.49l.05-1.34h.2l.47,0a.29.29,0,0,0,.25-.32.28.28,0,0,0-.32-.25,2.83,2.83,0,0,1-.58,0l.11-3a1.26,1.26,0,0,0-1.2-1.3h-.23a1.2,1.2,0,0,0-.9.33,1.31,1.31,0,0,0-.4.87l-.18,5A1.26,1.26,0,0,0,305.76,425.88Zm.42-5.84a.64.64,0,0,1,.21-.47.67.67,0,0,1,.46-.18h.26a.66.66,0,0,1,.64.7l-.1,2.92s-.06-.06-.06-.08l-.33-2.5a.28.28,0,1,0-.56.08L307,423c0,.17.12.47.61.63l-.05,1.42a.72.72,0,0,1-.22.47.7.7,0,0,1-.48.18h-.23a.62.62,0,0,1-.36-.12.35.35,0,0,0-.11-.1A.63.63,0,0,1,306,425Z"/>
    </g>
    <g id="stairsTop">
      <path class="cls-3" d="M363.48,85.12h-6.36a.29.29,0,1,0,0,.58h6.36a.29.29,0,1,0,0-.58Z"/>
      <path class="cls-3" d="M365.9,82.8h-5.6a.29.29,0,0,0-.29.29.28.28,0,0,0,.29.28h5.6a.28.28,0,0,0,.29-.28A.29.29,0,0,0,365.9,82.8Z"/>
      <path class="cls-3" d="M368.06,80.5h-5a.29.29,0,0,0-.29.29.28.28,0,0,0,.29.28h5a.28.28,0,0,0,.28-.28A.29.29,0,0,0,368.06,80.5Z"/>
      <path class="cls-3" d="M359.06,72a1.65,1.65,0,1,0-1.65-1.65A1.65,1.65,0,0,0,359.06,72Zm0-2.72A1.08,1.08,0,1,1,358,70.33,1.07,1.07,0,0,1,359.06,69.26Z"/>
      <path class="cls-3" d="M357.48,79.22v4.39a1.22,1.22,0,0,0,1.22,1.22.28.28,0,0,0,.29-.28.29.29,0,0,0-.29-.29.64.64,0,0,1-.64-.65v-4a.93.93,0,0,0,.29.05h.27a1.23,1.23,0,0,0,.76-.26l1,.52.07,1.48a1.22,1.22,0,0,0,1.22,1.22.29.29,0,0,0,0-.58.65.65,0,0,1-.65-.66L361,79.7a.28.28,0,0,0-.15-.25l-1.05-.53a1.41,1.41,0,0,0,.12-.49l.05-1.35h.2l.47,0a.28.28,0,0,0,.25-.32.29.29,0,0,0-.32-.25,2.86,2.86,0,0,1-.58,0l.11-3.05a1.25,1.25,0,0,0-1.2-1.29h-.23a1.25,1.25,0,0,0-.9.34,1.27,1.27,0,0,0-.4.86l-.17,5A1.19,1.19,0,0,0,357.48,79.22Zm.42-5.84a.64.64,0,0,1,.21-.46.68.68,0,0,1,.46-.19h.26a.69.69,0,0,1,.65.7l-.11,2.92s-.06,0-.06-.08L359,73.79a.29.29,0,0,0-.33-.25.28.28,0,0,0-.24.32l.32,2.49c0,.17.12.47.61.63l-.05,1.42a.69.69,0,0,1-.22.47.62.62,0,0,1-.48.18h-.23a.63.63,0,0,1-.36-.13.31.31,0,0,0-.11-.09.66.66,0,0,1-.18-.48Z"/>
    </g>
    <g id="doors">
      <g id="exit">
        <path class="cls-4" d="M58.57,619.28a.52.52,0,0,0-.73-.1,13.15,13.15,0,0,0-1.43,1.26.53.53,0,0,0,0,.74.71.71,0,0,0,.14.1.54.54,0,0,0,.6-.1A13.16,13.16,0,0,1,58.47,620,.51.51,0,0,0,58.57,619.28Z"/>
        <path class="cls-4" d="M55.9,621.77a.54.54,0,0,0-.74.1c-.36.47-.72,1-1.07,1.54a.51.51,0,0,0,.16.72l0,0A.52.52,0,0,0,55,624c.33-.52.68-1,1-1.46A.53.53,0,0,0,55.9,621.77Z"/>
        <path class="cls-4" d="M72.27,632.48,61.83,617.43a.52.52,0,0,0-.59-.2l-.15,0c-.61.29-1.16.57-1.67.86a.53.53,0,0,0-.19.72.5.5,0,0,0,.21.2.52.52,0,0,0,.5,0c.39-.23.81-.45,1.27-.67l10.2,14.7a.41.41,0,0,0,.2.17.51.51,0,0,0,.53,0A.52.52,0,0,0,72.27,632.48Z"/>
        <path class="cls-4" d="M52.4,619.17a.51.51,0,0,0,.59-.44,12.13,12.13,0,0,0,.15-1.89.52.52,0,0,0-.52-.53.51.51,0,0,0-.52.52,14.91,14.91,0,0,1-.14,1.75.5.5,0,0,0,.28.54A.43.43,0,0,0,52.4,619.17Z"/>
        <path class="cls-4" d="M53,614.94a18,18,0,0,0-.32-1.85.53.53,0,0,0-.05-.15.53.53,0,0,0-.52-.35l-18.3.68a.52.52,0,0,0-.21,1,.42.42,0,0,0,.25,0l17.88-.66c.1.5.18,1,.23,1.41a.53.53,0,0,0,.29.41.44.44,0,0,0,.3,0A.51.51,0,0,0,53,614.94Z"/>
        <path class="cls-4" d="M52.6,620.58a.53.53,0,0,0-.37-.64.52.52,0,0,0-.64.37c-.15.54-.34,1.11-.56,1.69a.53.53,0,0,0,.26.65l.05,0a.51.51,0,0,0,.67-.3C52.24,621.76,52.44,621.16,52.6,620.58Z"/>
      </g>
      <g id="exit-2" data-name="exit">
        <path class="cls-3" d="M272.84,418.87a.35.35,0,0,0-.5-.07,9,9,0,0,0-1,.87.36.36,0,0,0,0,.51l.09.06a.35.35,0,0,0,.42-.07,7.58,7.58,0,0,1,.91-.79A.37.37,0,0,0,272.84,418.87Z"/>
        <path class="cls-3" d="M271,420.58a.37.37,0,0,0-.51.07c-.25.32-.5.68-.74,1.06a.37.37,0,0,0,.11.49l0,0a.35.35,0,0,0,.46-.13c.23-.36.46-.69.7-1A.37.37,0,0,0,271,420.58Z"/>
        <path class="cls-3" d="M282.25,427.94l-7.17-10.34a.35.35,0,0,0-.4-.13l-.11,0c-.42.2-.79.39-1.15.59a.36.36,0,0,0-.13.49.43.43,0,0,0,.15.15.37.37,0,0,0,.34,0c.27-.16.56-.31.88-.46l7,10.1a.38.38,0,0,0,.5.09A.35.35,0,0,0,282.25,427.94Z"/>
        <path class="cls-3" d="M268.6,418.8a.36.36,0,0,0,.41-.31,8,8,0,0,0,.1-1.3.34.34,0,0,0-.35-.36.36.36,0,0,0-.36.36,9.87,9.87,0,0,1-.1,1.2.35.35,0,0,0,.2.37Z"/>
        <path class="cls-3" d="M269,415.89c-.05-.4-.12-.82-.22-1.27a.3.3,0,0,0,0-.1.37.37,0,0,0-.35-.25l-12.57.47a.36.36,0,0,0-.15.68.34.34,0,0,0,.18,0l12.28-.46c.07.35.12.67.16,1a.37.37,0,0,0,.19.28.37.37,0,0,0,.52-.37Z"/>
        <path class="cls-3" d="M268.74,419.77a.37.37,0,0,0-.25-.45.37.37,0,0,0-.44.26c-.11.37-.23.76-.38,1.16a.36.36,0,0,0,.17.45h0a.36.36,0,0,0,.47-.21C268.5,420.58,268.63,420.16,268.74,419.77Z"/>
      </g>
      <g id="exit-top">
        <path class="cls-3" d="M342.53,20.05a.11.11,0,0,1-.16-.05,4,4,0,0,1-.17-.44.13.13,0,0,1,.08-.16h0a.13.13,0,0,1,.11.09,2.74,2.74,0,0,0,.15.4A.13.13,0,0,1,342.53,20.05Z"/>
        <path class="cls-3" d="M342.23,19.21c-.06,0-.12,0-.14-.1s0-.3-.06-.46a.12.12,0,0,1,.11-.14h0a.13.13,0,0,1,.12.12,3,3,0,0,0,.06.43A.13.13,0,0,1,342.23,19.21Z"/>
        <path class="cls-3" d="M346.69,18.66,343,20.82a.12.12,0,0,1-.15,0l0,0c-.1-.13-.18-.25-.26-.37a.14.14,0,0,1,0-.18l.06,0a.11.11,0,0,1,.1.06,2.43,2.43,0,0,0,.2.28l3.59-2.11h.06a.14.14,0,0,1,.11.06A.14.14,0,0,1,346.69,18.66Z"/>
        <path class="cls-3" d="M341.25,19.4a.13.13,0,0,1,.08.16,4,4,0,0,1-.17.44.11.11,0,0,1-.16.05.13.13,0,0,1-.05-.17,2.74,2.74,0,0,0,.15-.4.13.13,0,0,1,.11-.09Z"/>
        <path class="cls-3" d="M341,20.4c-.08.12-.16.24-.26.37l0,0a.11.11,0,0,1-.14,0l-3.68-2.16a.14.14,0,0,1,0-.18.14.14,0,0,1,.11-.06H337l3.59,2.11a2.43,2.43,0,0,0,.2-.28.11.11,0,0,1,.1-.06l.06,0A.14.14,0,0,1,341,20.4Z"/>
        <path class="cls-3" d="M341.44,19.11a.12.12,0,0,1-.15.1.13.13,0,0,1-.09-.15,3,3,0,0,0,.06-.43.13.13,0,0,1,.12-.12h0a.12.12,0,0,1,.11.14C341.48,18.81,341.46,19,341.44,19.11Z"/>
      </g>
      <g id="exit-left">
        <path class="cls-3" d="M188,273.23a.4.4,0,0,0-.62,0,14,14,0,0,0-1.29,1.37.56.56,0,0,0,0,.72l.11.08a.43.43,0,0,0,.52-.16,16,16,0,0,1,1.2-1.26A.6.6,0,0,0,188,273.23Z"/>
        <path class="cls-3" d="M185.6,275.93a.44.44,0,0,0-.63.16c-.34.5-.68,1-1,1.61a.51.51,0,0,0,.1.69l0,0a.48.48,0,0,0,.59-.25c.31-.54.63-1.06.95-1.53A.54.54,0,0,0,185.6,275.93Z"/>
        <path class="cls-3" d="M195.65,283.18l-5.1-12.24c-.07-.16-.22-.18-.38-.08l-.11.07c-.46.37-.88.73-1.27,1.09a.77.77,0,0,0-.23.71.23.23,0,0,0,.12.15c.1.05.22,0,.35-.1.3-.28.62-.56,1-.85l5,12a.19.19,0,0,0,.11.12c.1.05.24,0,.37-.13A.74.74,0,0,0,195.65,283.18Z"/>
      </g>
    </g>
    <g id="waterFountain">
      <path class="cls-3" d="M331.31,149.34h-3a.26.26,0,0,1-.24-.18L327,145a.26.26,0,0,1,0-.21.25.25,0,0,1,.19-.09h4.11a.24.24,0,0,1,.24.24v4.14A.25.25,0,0,1,331.31,149.34Zm-2.83-.49h2.59V145.2h-3.55Z"/>
      <path class="cls-3" d="M328.86,144.62a.26.26,0,0,1-.24-.22c0-.11,0-.21,0-.31a1.62,1.62,0,0,1,0-.22.24.24,0,0,1,.48,0,1.09,1.09,0,0,0,0,.18,2.46,2.46,0,0,0,0,.26.26.26,0,0,1-.22.27Zm.15-1.07-.11,0a.23.23,0,0,1-.1-.32,1.21,1.21,0,0,1,.4-.46.25.25,0,0,1,.34.08.24.24,0,0,1-.08.33.69.69,0,0,0-.23.27A.25.25,0,0,1,329,143.55Zm1.24-.32a.27.27,0,0,1-.12,0,1,1,0,0,0-.27-.11.24.24,0,0,1-.18-.29.24.24,0,0,1,.29-.18,1.51,1.51,0,0,1,.41.16.25.25,0,0,1,.08.34A.24.24,0,0,1,330.25,143.23Z"/>
      <path class="cls-3" d="M328.17,144.62a.25.25,0,0,1-.24-.23c0-.15,0-.3,0-.43v-.07a.23.23,0,0,1,.25-.24.23.23,0,0,1,.23.24V144c0,.13,0,.26,0,.4a.26.26,0,0,1-.23.26Zm0-1.09h0a.25.25,0,0,1-.2-.28,3.62,3.62,0,0,1,.12-.52.24.24,0,0,1,.31-.14.23.23,0,0,1,.15.3,2.47,2.47,0,0,0-.1.43A.25.25,0,0,1,328.21,143.53Zm.42-1a.22.22,0,0,1-.17-.07.24.24,0,0,1,0-.34,1.37,1.37,0,0,1,.51-.32.25.25,0,1,1,.15.47.67.67,0,0,0-.31.19A.23.23,0,0,1,328.63,142.54Zm1.48-.21H330a2.47,2.47,0,0,0-.43-.08.25.25,0,1,1,.05-.49,4.06,4.06,0,0,1,.52.11.24.24,0,0,1,.16.3A.23.23,0,0,1,330.11,142.33Z"/>
      <path class="cls-3" d="M326.7,141.88a1.4,1.4,0,0,1,0-2.79,1.4,1.4,0,1,1,0,2.79Zm0-2.3a.91.91,0,1,0,.91.91A.91.91,0,0,0,326.7,139.58Z"/>
      <path class="cls-3" d="M323.93,146.91a.92.92,0,0,1-.45-.12l-.28-.14a1,1,0,0,1-.42-1.34l1.59-3.08a1,1,0,0,1,.58-.49,1,1,0,0,1,.76.07l.28.14a1,1,0,0,1,.49.58,1,1,0,0,1-.06.76l-1.6,3.08a1,1,0,0,1-.58.49A1.06,1.06,0,0,1,323.93,146.91Zm-.23-.55a.48.48,0,0,0,.39,0,.55.55,0,0,0,.3-.26l1.6-3.07a.53.53,0,0,0,0-.39.5.5,0,0,0-.25-.3l-.28-.14a.5.5,0,0,0-.69.22l-1.59,3.07a.5.5,0,0,0,.22.69Z"/>
      <path class="cls-3" d="M323.81,150.51a1,1,0,0,1-1-.92v-3.3a.25.25,0,0,1,.49,0v3.3a.51.51,0,0,0,.54.44.24.24,0,1,1,0,.48Z"/>
      <path class="cls-3" d="M326.6,146.43a.89.89,0,0,1-.92-.61l-.6-2.77a.24.24,0,1,1,.47-.1l.61,2.76c0,.16.29.29.6.22a.23.23,0,0,1,.29.18.24.24,0,0,1-.18.29Z"/>
      <path class="cls-3" d="M324.76,150.17a1,1,0,0,1-1-.83v-2.5a.25.25,0,0,1,.49,0v2.5c0,.16.22.34.54.34a.25.25,0,1,1,0,.49Z"/>
    </g>
    <g id="parking">
      <rect id="parking-2" data-name="parking" class="cls-2" x="186.34" y="444.44" width="160.54" height="128.52" transform="translate(249.57 -65.38) rotate(25.96)"/>
      <g id="parkingIcon">
        <path class="cls-3" d="M268.65,493.38a11.13,11.13,0,1,0,11.12,11.13A11.15,11.15,0,0,0,268.65,493.38Zm0,20.65a9.53,9.53,0,1,1,9.52-9.52A9.54,9.54,0,0,1,268.65,514Z"/>
        <path class="cls-3" d="M266.28,497.42a.8.8,0,0,0-.8.8V510.8a.8.8,0,1,0,1.6,0v-5.94c2.71-.26,4.74-1.79,4.74-3.7C271.82,499.06,269.39,497.42,266.28,497.42Zm.8,5.83v-4.19c1.88.22,3.14,1.2,3.14,2.1S269,503,267.08,503.25Z"/>
      </g>
    </g>
    <rect id="ssb116" class="cls-5" x="142.77" y="441.97" width="31.7" height="42.7" transform="translate(218.82 -22.69) rotate(25.96)"/>
    <text id="numssb116" class="cls-6" transform="translate(159.27 484.3) rotate(-64.15)">116A/B</text>
    <g id="gcfce123B">
      <rect id="cfce123B" class="cls-7" x="348.51" y="20.18" width="18.18" height="44.82"/>
      <g>
        <path class="cls-8" d="M361.4,33.7s-.37-1.78-.37-1.8h1A3.83,3.83,0,0,0,363.19,34v1l-10.38,0V33.68Z"/>
        <path class="cls-8" d="M353.78,37.09l4.1,2.65a4.71,4.71,0,0,0,2.72,1.12c.94,0,1.53-.26,1.54-1,0-1-.92-1.23-1.91-1.24h-.34V37.22h.36c1.85,0,3,.7,3,2.55,0,1.66-1,2.48-2.68,2.47a5,5,0,0,1-3-1.14L354,38.7V42h-1.16l0-4.89Z"/>
        <path class="cls-8" d="M355.34,43.2h.35v1.36h-.23c-.93,0-1.64.23-1.64,1.17s.76,1.2,1.9,1.2,1.85-.34,1.92-1.35a1.21,1.21,0,0,0,0-.19H359v.18c0,1,.46,1.37,1.57,1.37.94,0,1.55-.24,1.55-1.17s-.69-1.17-1.66-1.2h-.22V43.22h.34a2.55,2.55,0,1,1,0,5.09,2.13,2.13,0,0,1-2.27-1.49c-.29.94-1.19,1.48-2.6,1.48-1.84,0-3-.74-3-2.57A2.35,2.35,0,0,1,355.34,43.2Z"/>
        <path class="cls-8" d="M363.15,49.63V52c0,1.87-.83,2.76-2.61,2.76-1.28,0-2-.48-2.18-1.49-.3,1.24-1.16,1.76-2.63,1.76-1.79,0-3-.82-3-2.68V49.6ZM353.81,52c0,1.29.57,1.63,1.91,1.63s2-.47,2-1.73v-.86h-3.9Zm5-.1c0,1.22.5,1.59,1.73,1.59,1.42,0,1.52-.62,1.53-2.09v-.35h-3.25Z"/>
      </g>
    </g>
    <g id="gcfce116">
      <rect id="cfce116" class="cls-5" x="322.66" y="282.59" width="43.74" height="37.8"/>
      <g>
        <path class="cls-8" d="M332.44,298.74c-.07.1-3.38.72-3.43.72v-2c1.12-.27,3.06-.84,4.05-2.16h2l.12,19.7-2.6,0Z"/>
        <path class="cls-8" d="M342.07,298.68c-.07.1-3.37.73-3.42.73l0-2c1.12-.28,3.07-.85,4.06-2.17h2l.12,19.71h-2.61Z"/>
        <path class="cls-8" d="M349,308.69l0-6.65c0-3.81,1.08-7,4.8-7,3.06,0,4.75,1.7,4.85,4.77,0,.07,0,.19,0,.29H356c0-1.89-.5-2.94-2.23-2.93-1.43,0-2.23,1.33-2.21,4.23l0,3a3.21,3.21,0,0,1,2.86-1.38c3.26,0,4.27,2.24,4.29,5.67s-1.32,6.43-4.85,6.45S349,312.29,349,308.69Zm7.11.64c0-2.34-.08-4.36-2.29-4.35a2.61,2.61,0,0,0-2.23,1.36l0,2.94c0,2,.55,3.69,2.26,3.68S356.14,311.3,356.13,309.33Z"/>
      </g>
    </g>
    <g id="gcfce117">
      <rect id="cfce117" class="cls-5" x="322.66" y="239.65" width="43.74" height="37.8"/>
      <g>
        <path class="cls-8" d="M334.15,255.65c-.07.09-3.38.69-3.43.69v-2c1.12-.27,3.06-.82,4.07-2.13h2L336.68,272h-2.6Z"/>
        <path class="cls-8" d="M343.79,255.69c-.08.09-3.39.69-3.44.69v-2c1.12-.27,3.07-.82,4.07-2.13h2L346.32,272h-2.61Z"/>
        <path class="cls-8" d="M355.08,254.37l-5.28,0v-2l7.88,0v1.27L354,272h-2.51Z"/>
      </g>
    </g>
    <g id="gcfce118">
      <rect id="cfce118" class="cls-5" x="322.66" y="196.72" width="43.74" height="37.8"/>
      <g>
        <path class="cls-8" d="M332,213c-.07.1-3.38.74-3.43.74v-2a7.38,7.38,0,0,0,4-2.18l2,0,.18,19.71-2.6,0Z"/>
        <path class="cls-8" d="M341.58,212.9c-.07.1-3.37.74-3.42.74l0-2c1.12-.28,3.06-.86,4-2.18l2,0,.19,19.71-2.61,0Z"/>
        <path class="cls-8" d="M348.37,223.59c0-2.65.94-4,2.39-4.86a4.87,4.87,0,0,1-2.23-4.38c0-3.12,1.39-5.1,4.57-5.13s4.6,1.93,4.63,5a4.79,4.79,0,0,1-2.15,4.42c1.44.89,2.47,2.17,2.5,4.82,0,3.53-1.26,5.78-4.79,5.81S348.41,227.12,348.37,223.59Zm7.2,0c0-1.84-.56-3.57-2.36-3.57s-2.37,1.75-2.36,3.62c0,2.07.5,3.64,2.42,3.63S355.59,225.62,355.57,223.57Zm-.4-9.43c0-1.61-.54-2.92-2.05-2.9s-2.05,1.33-2,2.94.45,3.33,2.1,3.33S355.19,215.79,355.17,214.14Z"/>
      </g>
    </g>
    <g id="gcfce119">
      <rect id="cfce119" class="cls-5" x="322.66" y="153.79" width="43.74" height="37.8"/>
      <g>
        <path class="cls-8" d="M332,169.93c-.07.09-3.38.72-3.42.72l0-2c1.12-.28,3.07-.85,4.06-2.16l2,0,.1,19.71-2.6,0Z"/>
        <path class="cls-8" d="M341.65,169.87c-.08.1-3.38.73-3.43.73v-2c1.12-.28,3.06-.85,4.05-2.17h2l.11,19.71h-2.6Z"/>
        <path class="cls-8" d="M348.3,181.47v-.22l2.61,0c0,1.9.5,2.94,2.27,2.93,1.44,0,2.19-1.32,2.17-4.22l0-3a3.13,3.13,0,0,1-2.86,1.38c-3.26,0-4.24-2.26-4.26-5.67,0-3.58,1.32-6.41,4.85-6.43s4.86,2.82,4.88,6.42l0,6.62c0,3.82-1.08,7-4.8,7.06C350.08,186.35,348.37,184.6,348.3,181.47Zm7-6.49v-2.92c0-2-.53-3.69-2.24-3.69s-2.25,1.72-2.24,3.64c0,2.36.07,4.36,2.29,4.34A2.46,2.46,0,0,0,355.32,175Z"/>
      </g>
    </g>
    <g id="gcfce123">
      <polygon id="cfce123" class="cls-5" points="366.41 136.14 322.66 136.14 322.66 89.59 330.59 69.94 353.44 69.94 353.52 88.85 366.41 89.03 366.41 136.14"/>
      <g>
        <path class="cls-8" d="M331.52,114.57c-.08.09-3.38.71-3.43.71v-2a7.37,7.37,0,0,0,4.06-2.15h2l.06,19.71h-2.6Z"/>
        <path class="cls-8" d="M338,129l5-7.83c1.09-1.76,2.11-3,2.1-5.17,0-1.8-.52-2.91-2-2.91-1.87,0-2.33,1.76-2.32,3.63v.66h-2.6v-.68c0-3.53,1.3-5.75,4.8-5.76,3.16,0,4.73,1.88,4.74,5.07,0,2.53-1,3.94-2.15,5.7l-4.5,6.92,6.23,0v2.19l-9.3,0Z"/>
        <path class="cls-8" d="M349.63,126v-.65h2.58v.44c.05,1.77.45,3.11,2.25,3.1s2.26-1.46,2.25-3.63-.67-3.5-2.59-3.62a2.3,2.3,0,0,0-.37,0V119h.34c1.85-.06,2.61-.89,2.6-3,0-1.77-.47-2.94-2.25-2.93s-2.21,1.32-2.25,3.17v.41H349.6V116c0-3.13,1.59-5,4.82-5s4.85,1.91,4.86,5c0,2.38-1.11,3.8-2.81,4.31,1.78.56,2.83,2.26,2.84,4.93,0,3.5-1.36,5.8-4.84,5.81C351.25,131,349.64,129.1,349.63,126Z"/>
      </g>
    </g>
    <g id="gglobalClassroom">
      <polygon id="globalClassroom" class="cls-5" points="254.73 317.96 247.33 332.3 199.49 307.44 206.82 292.97 200.63 289.85 227.82 237.5 297.5 273.7 270.28 326.08 254.73 317.96"/>
      <g>
        <path class="cls-8" d="M221.21,277.9l0-6.41c0-4.18,1.07-6.61,5.11-6.62,3.59,0,5,1.78,5,5.56v.71h-2.5v-.59c0-2.48-.29-3.61-2.44-3.61-2.36,0-2.5,1.78-2.49,4.15l0,7.08c0,2.77.48,4.11,2.58,4.11s2.6-1.5,2.59-4.38v-1.32h-2.44v-1.89h4.84l0,9.48H229.8l-.27-2.2a3.35,3.35,0,0,1-3.39,2.45C222.55,284.41,221.22,282,221.21,277.9Z"/>
        <path class="cls-8" d="M234.19,265h2.53l.05,19.14h-2.53Z"/>
        <path class="cls-8" d="M239.17,279.29v-4c0-3.07.93-5,4-5s4,2,4,5v4c0,3.07-.93,5-4,5S239.17,282.36,239.17,279.29Zm5.43.15v-4.27c0-1.54,0-3-1.45-3s-1.46,1.49-1.46,3v4.28c0,1.54,0,3,1.48,3S244.6,281,244.6,279.44Z"/>
        <path class="cls-8" d="M252,283.11v1H249.5L249.45,265H252l0,6.56a3.34,3.34,0,0,1,2.57-1.28c2.86,0,3.13,3.49,3.13,5.12v3.31c0,2.9-.67,5.6-3.36,5.61A3.25,3.25,0,0,1,252,283.11Zm3.15-4.43v-3.3c0-1.7-.18-3.15-1.48-3.14a2.8,2.8,0,0,0-1.7.69l0,8.76a2.84,2.84,0,0,0,1.79.61C255.12,282.3,255.19,280.69,255.18,278.68Z"/>
        <path class="cls-8" d="M259.73,281.11c0-3.41,2.44-4.4,5.37-5.57v-1c0-1.65-.2-2.46-1.38-2.45s-1.44.76-1.44,1.94v.68l-2.51-.08c0-3,1.31-4.43,4.1-4.43s3.74,1.5,3.75,4.31v6.24a23.88,23.88,0,0,0,.25,3.28h-2.32c-.09-.5-.26-1.37-.34-2a2.89,2.89,0,0,1-2.75,2.21A3,3,0,0,1,259.73,281.11Zm5.38-.16v-3.87c-1.55.9-2.85,1.66-2.85,3.24,0,1.11.43,1.77,1.21,1.77A2.34,2.34,0,0,0,265.11,281Z"/>
        <path class="cls-8" d="M270.27,264.92h2.53l.05,19.14h-2.53Z"/>
        <path class="cls-8" d="M221.26,300.32v-6.76c0-3.88,1.07-6.41,5.13-6.42,3.57,0,4.82,2.05,4.83,5.5v1.51h-2.53v-1.34c0-2.13-.06-3.59-2.28-3.59s-2.48,1.57-2.47,3.93l0,7.59c0,2.88.65,3.82,2.49,3.82,2.15,0,2.26-1.55,2.26-3.81v-1.42h2.53v1.42c0,3.52-1,5.91-4.8,5.92C222.37,306.67,221.27,303.88,221.26,300.32Z"/>
        <path class="cls-8" d="M233.78,287.29h2.52l0,19.14h-2.53Z"/>
        <path class="cls-8" d="M238.71,303.44c0-3.4,2.44-4.4,5.37-5.57v-1c0-1.65-.2-2.45-1.38-2.45s-1.44.76-1.43,1.94v.69l-2.51-.09c0-3,1.31-4.42,4.1-4.43s3.74,1.5,3.75,4.31v6.24a25.42,25.42,0,0,0,.25,3.28h-2.32c-.09-.5-.26-1.37-.33-2a2.9,2.9,0,0,1-2.76,2.21A3,3,0,0,1,238.71,303.44Zm5.38-.16v-3.87c-1.56.9-2.86,1.66-2.86,3.24,0,1.11.43,1.77,1.21,1.77A2.34,2.34,0,0,0,244.09,303.28Z"/>
        <path class="cls-8" d="M248.37,302.75l2.1-.64c.24,1.75.81,2.6,2,2.59a1.3,1.3,0,0,0,1.39-1.44,2.51,2.51,0,0,0-1.12-2l-2.34-2a4.07,4.07,0,0,1-1.69-3.33,3.18,3.18,0,0,1,3.52-3.36c2.17,0,3.31,1.59,3.48,3.58l-1.7.64c-.19-1.42-.6-2.36-1.69-2.36a1.33,1.33,0,0,0-1.34,1.4,1.79,1.79,0,0,0,.69,1.37l2.42,2.21a4.82,4.82,0,0,1,1.94,3.68c0,2.34-1.52,3.5-3.77,3.51S248.57,305,248.37,302.75Z"/>
        <path class="cls-8" d="M257.21,302.73l2.1-.64c.24,1.74.81,2.59,2,2.59a1.31,1.31,0,0,0,1.39-1.44,2.57,2.57,0,0,0-1.12-2l-2.34-2a4,4,0,0,1-1.69-3.32,3.18,3.18,0,0,1,3.51-3.37c2.18,0,3.31,1.6,3.48,3.59l-1.69.64c-.2-1.42-.6-2.36-1.69-2.36a1.32,1.32,0,0,0-1.34,1.4,1.79,1.79,0,0,0,.69,1.37l2.41,2.21a4.83,4.83,0,0,1,1.95,3.68c0,2.34-1.53,3.5-3.77,3.51S257.4,305,257.21,302.73Z"/>
      </g>
    </g>
    <g id="gssbLink">
      <polygon id="ssbLink" class="cls-5" points="245.21 336.91 191.6 309.96 199.47 294.31 185.37 287.22 138.69 380.04 152.79 387.13 184.61 323.86 238.22 350.81 245.21 336.91"/>
      <g>
        <path class="cls-8" d="M149.26,381.7l.26-1.25c1,.42,2.07.66,2.55-.3a1,1,0,0,0-.55-1.5,2.38,2.38,0,0,0-2.2.1l-2.07.83a2.66,2.66,0,0,1-2.4-.13,2.13,2.13,0,0,1-1-3.12c.71-1.42,1.79-1.73,3.42-1.09l-.24,1.2c-.91-.38-1.76-.56-2.23.37a1,1,0,0,0,.49,1.47,1.57,1.57,0,0,0,1.5,0l2.08-.84a3.68,3.68,0,0,1,3.13,0,2.23,2.23,0,0,1,1,3.19C152.26,382.19,150.85,382.38,149.26,381.7Z"/>
        <path class="cls-8" d="M151.88,376.51l.26-1.25c1,.41,2.06.65,2.54-.3a1,1,0,0,0-.55-1.5,2.36,2.36,0,0,0-2.19.1l-2.08.83a2.61,2.61,0,0,1-2.39-.14,2.12,2.12,0,0,1-1-3.12c.71-1.41,1.79-1.72,3.42-1.08l-.25,1.2c-.91-.38-1.75-.56-2.22.36a1,1,0,0,0,.49,1.47,1.54,1.54,0,0,0,1.5,0l2.07-.84a3.7,3.7,0,0,1,3.14,0,2.25,2.25,0,0,1,1,3.2C154.88,377,153.46,377.19,151.88,376.51Z"/>
        <path class="cls-8" d="M148.23,367.82l1-2c.81-1.6,1.9-2,3.42-1.25,1.1.56,1.56,1.3,1.24,2.22.79-.93,1.75-1,3-.38,1.54.78,2.19,2,1.39,3.57l-1.2,2.37Zm4.71-.1c.52-1,.26-1.58-.8-2.11-1.22-.61-1.58-.12-2.21,1.14l-.15.3,2.79,1.4Zm4.34,2.06c.56-1.11.21-1.64-.94-2.22s-1.91-.45-2.46.63l-.37.74,3.35,1.69Z"/>
        <path class="cls-8" d="M152.4,359.56l.62-1.24,8,4,1.14-2.27.89.45L161.29,364Z"/>
        <path class="cls-8" d="M155,355.41l.59-1.17,1.23.62-.59,1.17Zm2.17,1.1.59-1.18,6.35,3.2-.59,1.17Z"/>
        <path class="cls-8" d="M158.36,354.07l.59-1.18.63.32a2.53,2.53,0,0,1,.06-1.91c.39-.75,1.17-.61,1.78-.3l5.14,2.59-.59,1.18-4.8-2.42c-.45-.23-.77-.26-1,.14a1.6,1.6,0,0,0,0,1l5.12,2.58-.6,1.18Z"/>
        <path class="cls-8" d="M158.24,347.94l.59-1.18,5.31,2.68-1.89-3.1.62-1.23,1.73,2.75,4.6.49-.59,1.18-3.85-.45.54.94,2.43,1.23-.6,1.17Z"/>
      </g>
      <g>
        <path class="cls-8" d="M203.6,327.15l1.25.24c-.41,1-.63,2.08.33,2.55a1,1,0,0,0,1.49-.57,2.41,2.41,0,0,0-.12-2.2l-.86-2.06a2.62,2.62,0,0,1,.11-2.4,2.13,2.13,0,0,1,3.11-1c1.42.69,1.75,1.77,1.12,3.41l-1.2-.23c.37-.92.54-1.77-.39-2.22a1,1,0,0,0-1.46.5,1.54,1.54,0,0,0,0,1.5l.86,2.07a3.67,3.67,0,0,1,0,3.13,2.25,2.25,0,0,1-3.19,1.08C203.14,330.16,202.93,328.74,203.6,327.15Z"/>
        <path class="cls-8" d="M208.82,329.71l1.25.24c-.41,1-.63,2.08.33,2.55a1,1,0,0,0,1.49-.57,2.38,2.38,0,0,0-.12-2.2l-.86-2.06a2.62,2.62,0,0,1,.11-2.4,2.13,2.13,0,0,1,3.11-1c1.43.69,1.75,1.77,1.12,3.41l-1.2-.24c.37-.91.54-1.76-.39-2.21a1,1,0,0,0-1.46.5,1.57,1.57,0,0,0,0,1.5l.86,2.06a3.69,3.69,0,0,1,0,3.14,2.24,2.24,0,0,1-3.18,1.08C208.36,332.72,208.15,331.3,208.82,329.71Z"/>
        <path class="cls-8" d="M217.46,326l2,1c1.61.79,2,1.87,1.29,3.41-.54,1.1-1.27,1.57-2.21,1.26.95.78,1,1.74.42,3-.76,1.54-1.95,2.21-3.55,1.42l-2.38-1.17ZM215.6,335c1.12.55,1.65.19,2.22-1s.43-1.91-.67-2.44l-.74-.36-1.65,3.36Zm2-4.36c1,.51,1.58.24,2.1-.82.6-1.23.1-1.58-1.17-2.2l-.3-.15-1.37,2.81Z"/>
        <path class="cls-8" d="M225.77,330l1.25.61-4,8.05,2.29,1.12-.44.89L221.39,339Z"/>
        <path class="cls-8" d="M228.88,334.73l1.18.58-3.13,6.38-1.18-.57Zm1.07-2.18,1.18.58-.61,1.23-1.18-.57Z"/>
        <path class="cls-8" d="M231.33,335.94l1.18.57-.31.63a2.58,2.58,0,0,1,1.91.05c.76.37.62,1.15.32,1.77l-2.53,5.17-1.18-.58,2.36-4.82c.22-.46.25-.77-.16-1a1.6,1.6,0,0,0-1,0l-2.52,5.15-1.18-.58Z"/>
        <path class="cls-8" d="M237.46,335.75l1.18.58L236,341.66l3.08-1.92,1.23.61-2.72,1.76-.45,4.6-1.18-.58.41-3.85-.94.55-1.2,2.44-1.18-.58Z"/>
      </g>
    </g>
    <g id="gmrc">
      <g id="mrc">
        <polygon class="cls-9" points="268.07 371.05 247.81 412.17 231.17 404.05 251.44 362.93 268.07 371.05"/>
        <path class="cls-3" d="M251.43,362.93h0L249.92,366l.92.45,1.51-3.07-.92-.45Zm-3,6.13-1.51,3.07.92.45,1.51-3.06-.92-.46Zm-3,6.13-1.51,3.07.92.45,1.51-3.06-.92-.46Zm-3,6.13-1.51,3.07.92.45,1.51-3.06-.92-.46Zm-3,6.13-.21.43h0l0,0h0v0h0l0,0h0l0,.05h0v0h0v0h0l0,0h0l0,0h0l-.1.2h0l-1,2,.92.45,1.51-3.06-.92-.46Zm-3,6.14-1.51,3.06.91.45,1.52-3.06-.92-.45Zm-3,6.13-1.51,3.06.91.45,1.51-3.06-.91-.45Zm.1,4.29-.44.92,3.07,1.5.44-.92-3.07-1.5Zm6.15,3-.45.92,3.07,1.49.45-.91-3.07-1.5Zm6.14,3-.45.91,2.46,1.2h0l0,0h.05l.23-.48h0l.2-.41h0L245.7,410Zm2.11,2.16Zm0,0Zm2.36-7.09-1.51,3.07.91.45,1.51-3.07-.91-.45Zm3-6.13L251.68,402l.91.45,1.51-3.07-.91-.45Zm3-6.13-1.51,3.06.91.46,1.52-3.07-.92-.45Zm3-6.13-1.51,3.06.92.46,1.51-3.07-.92-.45Zm3-6.13-1.51,3.06.92.46,1.51-3.07-.92-.45Zm3-6.13-1.51,3.06.92.46,1.51-3.07-.92-.45Zm.5-4.5-.45.91,2.3,1.13.46-.92h0l-.92-.45h0l-1.39-.67Zm-6.14-3-.45.92,3.07,1.5.45-.92-3.07-1.5Zm-6.15-3-.44.92,3.07,1.5.45-.92-3.08-1.5Z"/>
      </g>
      <text id="numMRC" class="cls-10" transform="translate(249.74 399.67) rotate(-64.07)">MRC</text>
    </g>
    <g id="buildingOutline">
      <path class="cls-3" d="M92,647.06l-.61-.3-80.92-39.6,17.87-36.6L77,550.83l76.7-156.57-22.63-11.44.3-.6,51-102.57,13.18,6.51L335.39,15.79h37.23V475.06l-21.38-10.5h0l-.61-.29L229.43,404.4l20.28-41.06-63.16-31.68-21.41,42.4,48.5,23.73L127.16,574.92l-.28.61ZM12.24,606.54l79.1,38.71,34-69.71.27-.61,86.19-176.52-48.52-23.74L186,329.85l65.56,32.89-20.28,41.05,119.45,59,.55.26,20,9.84V17.14h-35L196.17,288,183,281.45,132.87,382.22l22.62,11.43L78,551.89l-48.7,19.73Z"/>
    </g>
    <g>
      <path class="cls-11" d="M401.12,253.12l.5,1.85c-1.61.11-3.21.51-3.21,2.12,0,1.07.61,1.64,1.75,1.64A3.57,3.57,0,0,0,403,257.1l2.21-2.5a3.93,3.93,0,0,1,3.3-1.44,3.19,3.19,0,0,1,3.45,3.5c0,2.38-1.24,3.52-3.85,3.76l-.48-1.77c1.47-.11,2.73-.44,2.73-2a1.48,1.48,0,0,0-1.65-1.64,2.35,2.35,0,0,0-2,1l-2.22,2.52a5.5,5.5,0,0,1-4.18,2.14,3.36,3.36,0,0,1-3.56-3.57C396.77,254.49,398.54,253.27,401.12,253.12Z"/>
      <path class="cls-11" d="M407.59,262.25v2H396.93v-2Zm3.65,0v2h-2.06v-2Z"/>
      <path class="cls-11" d="M407.59,266.34v1.83h-1a3.32,3.32,0,0,1,1.2,2.51,1.67,1.67,0,0,1-1.35,1.73,3.38,3.38,0,0,1,1.35,2.65c0,1-.7,1.89-2.47,1.89h-8.38v-1.81h8.25c1,0,1.31-.37,1.31-.92a2.45,2.45,0,0,0-.87-1.66h-8.69v-1.81h8.25c1,0,1.31-.37,1.31-.92a2.5,2.5,0,0,0-.87-1.66h-8.69v-1.83Z"/>
      <path class="cls-11" d="M401,278.68h2.45c2.67,0,4.26.53,4.26,3.11,0,2.33-1.16,2.92-3.36,2.92h-.62v-1.79h.64c1.39,0,1.88-.24,1.88-1.11s-.59-1.16-2.39-1.16h-3.36c-1.83,0-2.29.3-2.29,1.18s.76,1.09,1.85,1.09H401v1.79h-.73c-2.16,0-3.43-.63-3.43-2.92C396.79,279.18,398.46,278.68,401,278.68Z"/>
      <path class="cls-11" d="M400.71,286.28h3.1c2.4,0,3.93.73,3.93,3.11s-1.53,3.1-3.93,3.1h-3.1c-2.39,0-3.92-.74-3.92-3.1S398.32,286.28,400.71,286.28Zm-.12,4.24h3.33c1.2,0,2.36,0,2.36-1.13s-1.16-1.14-2.36-1.14h-3.33c-1.2,0-2.35,0-2.35,1.14S399.39,290.52,400.59,290.52Z"/>
      <path class="cls-11" d="M401.05,294.09h2.43c2.82,0,4.26.7,4.26,3.16,0,2.67-1.73,3-4.65,3h-.86v-4.2h-2.14c-1.29,0-1.85.35-1.85,1.2s.69,1.06,1.76,1.06h.64v1.92h-.41c-2.13,0-3.44-.83-3.44-3C396.79,294.74,398.26,294.09,401.05,294.09Zm2.25,4.24h.95c1.31,0,2-.12,2-1.1s-.57-1.16-2.41-1.16h-.57Z"/>
      <path class="cls-11" d="M401.12,306l.5,1.85c-1.61.11-3.21.52-3.21,2.12,0,1.07.61,1.64,1.75,1.64A3.59,3.59,0,0,0,403,310l2.21-2.51a3.93,3.93,0,0,1,3.3-1.44,3.2,3.2,0,0,1,3.45,3.51c0,2.37-1.24,3.52-3.85,3.76l-.48-1.77c1.47-.11,2.73-.45,2.73-2a1.49,1.49,0,0,0-1.65-1.65,2.35,2.35,0,0,0-2,1l-2.22,2.53a5.53,5.53,0,0,1-4.18,2.14,3.36,3.36,0,0,1-3.56-3.58C396.77,307.37,398.54,306.15,401.12,306Z"/>
      <path class="cls-11" d="M399.33,315.54h6.95v-1.13h1.31v1.13h3.12v2h-3.12v1.72h-1.31v-1.72h-6.82c-.83,0-1.16.2-1.16,1a6.71,6.71,0,0,0,.05.72H396.9a7.91,7.91,0,0,1-.11-1.37C396.79,316.17,397.78,315.54,399.33,315.54Z"/>
      <path class="cls-11" d="M399.13,320.59v2h-2.2v-2Z"/>
    </g>
  </g>
</svg>
