<svg xmlns="http://www.w3.org/2000/svg" viewBox="0 0 173.38 173.38">
  <defs>
    <style>
      .cls-1 {
        fill: #fffaf0;
      }
    </style>
  </defs>
  <title>Asset 2</title>
  <g id="Layer_2" data-name="Layer 2">
    <g id="profile">
      <g id="profile3">
        <path class="cls-1" d="M86.69,173.38a86.69,86.69,0,1,1,86.69-86.69A86.79,86.79,0,0,1,86.69,173.38ZM86.69,7a79.69,79.69,0,1,0,79.69,79.69A79.78,79.78,0,0,0,86.69,7Z"/>
        <path class="cls-1" d="M86.69,73.32a27,27,0,1,1,27-27A27.06,27.06,0,0,1,86.69,73.32Zm0-47.06a20,20,0,1,0,20,20A20.06,20.06,0,0,0,86.69,26.26Z"/>
        <path class="cls-1" d="M102.9,152.92H70.48a15.32,15.32,0,0,1-15.31-15.31V103.19a26.52,26.52,0,0,1,26.49-26.5H91.72a26.52,26.52,0,0,1,26.49,26.5v34.42A15.32,15.32,0,0,1,102.9,152.92ZM81.66,83.69a19.52,19.52,0,0,0-19.49,19.5v34.42a8.31,8.31,0,0,0,8.31,8.31H102.9a8.31,8.31,0,0,0,8.31-8.31V103.19a19.52,19.52,0,0,0-19.49-19.5Z"/>
      </g>
    </g>
  </g>
</svg>
