<svg xmlns="http://www.w3.org/2000/svg" viewBox="0 0 186.79 186.79">
  <defs>
    <style>
      .cls-1 {
        fill: #fffaf0;
      }
    </style>
  </defs>
  <title>Asset 3</title>
  <g id="Layer_2" data-name="Layer 2">
    <g id="profile">
      <g>
        <circle class="cls-1" cx="93.4" cy="63.65" r="27.97"/>
        <path class="cls-1" d="M93.4,96C68.22,96,47.23,116,45.6,141.62a3.19,3.19,0,0,0,.89,2.38,4.5,4.5,0,0,0,3.26,1.33H137A4.5,4.5,0,0,0,140.3,144a3.15,3.15,0,0,0,.89-2.38C139.57,116,118.57,96,93.4,96Z"/>
        <path class="cls-1" d="M93.4,0a93.4,93.4,0,1,0,93.39,93.4A93.51,93.51,0,0,0,93.4,0Zm0,177.79A84.4,84.4,0,1,1,177.79,93.4,84.49,84.49,0,0,1,93.4,177.79Z"/>
      </g>
    </g>
  </g>
</svg>
