<svg xmlns="http://www.w3.org/2000/svg" viewBox="0 0 144.87 155.21">
  <defs>
    <style>
      .cls-1 {
        fill: #0b7b61;
      }

      .cls-2 {
        fill: #0b8161;
      }

      .cls-3, .cls-4 {
        fill: none;
        stroke: #eee;
        stroke-miterlimit: 10;
        opacity: 0.5;
      }

      .cls-3 {
        stroke-width: 0.78px;
      }

      .cls-4 {
        stroke-width: 0.79px;
      }

      .cls-5 {
        opacity: 0.7;
        isolation: isolate;
      }

      .cls-6 {
        fill: #929497;
      }

      .cls-7 {
        fill: #231f20;
      }

      .cls-8 {
        fill: #c5c7c9;
      }

      .cls-9 {
        fill: #fff;
      }

      .cls-10 {
        fill: #f2f2f2;
      }
    </style>
  </defs>
  <g id="Layer_2" data-name="Layer 2">
    <g id="trial4">
      <g>
        <path class="cls-1" d="M72.44,2A264.7,264.7,0,0,1,143,11.58V133.83l-70.3,19.33"/>
        <path class="cls-2" d="M72.65,153.16,1.93,133.83V11.58A272.78,272.78,0,0,1,72.44,2"/>
        <g>
          <path class="cls-3" d="M143,133.83l-70.3,19.33L1.93,133.83V11.58q71.21-19.08,141,0Z"/>
          <path class="cls-4" d="M144.48,135.05,72.65,154.8.4,135.05V10.15q72.75-19.5,144.08,0Z"/>
          <g class="cls-5">
            <g>
              <path class="cls-6" d="M72.57,82.42v18.9l-57,22.86V106L51.17,92"/>
              <path class="cls-7" d="M94,91.77l35.6,13.71v18.18l-57-22.34V82.42"/>
              <path class="cls-8" d="M51.17,92,15.58,78.26V60.08l57,22.34v18.9"/>
              <path class="cls-9" d="M72.57,101.32V82.42l57-22.86V77.74L94,91.77"/>
            </g>
            <path class="cls-10" d="M28.34,18.62h3.19c3,0,3.32.92,3.31,4.62,0,2.27-.27,3.25-2,3.83v.05c1.4.17,1.87,1,1.87,2.58v3.68a13.47,13.47,0,0,0,.12,2.15H32.92A3.32,3.32,0,0,1,32.68,34V30.2c0-1.59-.25-2-1.61-2h-.7v7.36H28.31Zm2,7.59h.54c1.63,0,1.86-.34,1.86-2.87s-.12-2.74-1.39-2.75h-1Z"/>
            <path class="cls-10" d="M40.48,18.64h5.6v2H42.53v5.3h3.34v2H42.52v5.71h3.54v2H40.44Z"/>
            <path class="cls-10" d="M50.84,30.68H52.9v1.39c0,1.12.36,1.82,1.19,1.83,1.09,0,1.36-.84,1.36-1.95,0-1.42-.06-1.89-2.19-4.31-1.32-1.5-2.41-2.86-2.41-5.16,0-2.76,1.15-3.95,3.39-3.95a3.26,3.26,0,0,1,2.41.94,3,3,0,0,1,.6,2.16v1.59H55.31V21.88c0-1-.35-1.52-1.15-1.52s-1.24.53-1.24,1.84c0,1.15.2,1.86,2.09,4.11s2.38,3.21,2.38,5.25c0,2.65-.91,4.17-3.37,4.16-1.89,0-3.19-.92-3.19-3Z"/>
            <path class="cls-10" d="M62.83,18.69h5.61v2H64.89V26h3.34v2H64.88v5.72h3.54v2H62.8Z"/>
            <path class="cls-10" d="M76.19,18.71h2.39l3,16.92H79.51l-.67-4.31H75.63l-.69,4.31H72.88Zm-.25,10.64h2.62L77.3,21.2h0Z"/>
            <path class="cls-10" d="M86.72,18.73h3.19c3,0,3.32.92,3.31,4.62,0,2.27-.27,3.26-2,3.84v.05c1.4.16,1.87,1,1.87,2.58V33.5a13.59,13.59,0,0,0,.12,2.16H91.3a3.39,3.39,0,0,1-.24-1.53V30.31c0-1.59-.24-2-1.6-2h-.7v7.35H86.68Zm2,7.6h.54c1.63,0,1.86-.35,1.86-2.88s-.12-2.74-1.4-2.74h-1Z"/>
            <path class="cls-10" d="M98.62,23.07c0-2.37.69-4.45,3.49-4.45,2,0,3,1.18,3,3.08v1.69h-1.94V22.21c0-1.08-.33-1.76-1.2-1.76-1.07,0-1.28.87-1.28,2.9l0,8.3c0,2,.56,2.34,1.22,2.34s1.25-.61,1.26-2V30.81h1.94v1.87c0,1.78-.64,3.14-3,3.14-2.6,0-3.44-1.58-3.44-4.2Z"/>
            <path class="cls-10" d="M110.23,18.78h2.06v7.26H115V18.79h2.06l0,16.92H115V28h-2.74V35.7H110.2Z"/>
            <path class="cls-10" d="M57.48,40.15H60.8c3.34,0,3.6,1.28,3.59,6.19v5c0,4.33-.69,5.69-3.94,5.68h-3Zm2,15h1c1.53,0,1.82-.91,1.82-3.82l0-5.81c0-2.5-.22-3.35-2-3.35h-.82Z"/>
            <path class="cls-10" d="M72.36,40.18h2.4l3,16.92H75.69L75,52.78H71.8l-.69,4.31H69.05Zm-.24,10.63h2.61l-1.26-8.16h0Z"/>
            <path class="cls-10" d="M80.55,40.19h2.06l1.78,7.12h0L86.5,40.2h1.82l-2.89,10v6.93H83.36V50.18Z"/>
            <path class="cls-10" d="M48.09,50.72l1-2.19a3.41,3.41,0,0,0,.4-1.62c0-.54-.13-.69-.35-.69s-.34.18-.34.59v.37h-.67v-.45c0-.78.21-1.09,1-1.09s1,.34,1,1.3a3.24,3.24,0,0,1-.33,1.61l-1.07,2.26h1.44v.67H48.09Z"/>
            <path class="cls-10" d="M50.74,47.07c0-1,.22-1.42,1.06-1.42s1.05.39,1.05,1.43v3c0,1-.21,1.43-1.05,1.43s-1-.39-1-1.43Zm.66,3.17c0,.36,0,.72.39.72s.39-.36.39-.72V47c0-.36,0-.72-.39-.72s-.39.36-.39.72Z"/>
            <path class="cls-10" d="M92.46,50.8l1.05-2.18a3.53,3.53,0,0,0,.4-1.62c0-.54-.13-.69-.36-.69s-.34.18-.34.58v.38h-.66v-.45c0-.78.21-1.09,1-1.09s1,.34,1,1.29a3.26,3.26,0,0,1-.33,1.62L93.17,50.9h1.44v.68H92.46Z"/>
            <path class="cls-10" d="M95.12,47.16c0-1,.22-1.43,1.06-1.42s1,.38,1,1.43v3c0,1-.21,1.43-1.06,1.43s-1-.39-1-1.43Zm.66,3.17c0,.36,0,.72.39.72s.38-.36.39-.72V47c0-.36,0-.73-.39-.73s-.38.36-.39.73Z"/>
            <g>
              <g>
                <path class="cls-9" d="M69.46,121.27a1.73,1.73,0,0,0-1.57-.59H66.74v4.42h1.12a1.89,1.89,0,0,0,1.43-.37,2.38,2.38,0,0,0,.65-1.81A2.7,2.7,0,0,0,69.46,121.27ZM69.23,123a1.59,1.59,0,0,1-.46,1.28,1.48,1.48,0,0,1-.94.22h-.44v-3.12H68a1,1,0,0,1,.94.34A2.22,2.22,0,0,1,69.23,123Z"/>
                <path class="cls-9" d="M73.26,120.69v2.7c0,.31,0,1.13-.94,1.12a.91.91,0,0,1-.8-.38,1.31,1.31,0,0,1-.15-.72v-2.72H70.7v2.68a2,2,0,0,0,.23,1.12,1.6,1.6,0,0,0,1.38.71,1.52,1.52,0,0,0,1.27-.62,2,2,0,0,0,.32-1.18v-2.71Z"/>
                <path class="cls-9" d="M77.9,125a5.71,5.71,0,0,1-.23-1.31v0c0-.44-.16-.67-.43-.81a.85.85,0,0,0,.28-.21,1.26,1.26,0,0,0,.29-.82,1.16,1.16,0,0,0-.45-.94,1.56,1.56,0,0,0-.9-.21H75.05v4.42h.66V123.2h.58c.6,0,.69.15.75.72v.1a6.43,6.43,0,0,0,.16,1l0,.05h.71Zm-2.21-3.66h.75c.34,0,.68.07.68.61a.56.56,0,0,1-.22.48,1,1,0,0,1-.46.08h-.75Z"/>
                <path class="cls-9" d="M81.33,120.71v1.83H79.7V120.7H79v4.43h.66v-1.92h1.63v1.92H82v-4.42Z"/>
                <path class="cls-9" d="M85.06,120.72h-.65l-1.65,4.43h.69l.41-1.11H85.5l.4,1.11h.72Zm.23,2.67H84.08l.63-1.78Z"/>
                <path class="cls-9" d="M90.51,120.73l-1,3.33-1-3.34h-1v4.42h.65v-3.41c.22.7,1,3.41,1,3.41h.6s.88-2.76,1.11-3.45v3.45h.66v-4.42Z"/>
                <path class="cls-9" d="M67.21,135.08c-.43,0-.51-.29-.49-.62h.35c0,.18,0,.34.2.34s.17-.09.17-.22c0-.34-.7-.36-.7-.92,0-.3.13-.53.55-.53s.51.17.49.57h-.34c0-.15,0-.29-.16-.29s-.18.07-.18.2c0,.36.7.33.69.92S67.48,135.08,67.21,135.08Z"/>
                <path class="cls-9" d="M69.62,133.16v1.34a.53.53,0,0,1-.56.58.52.52,0,0,1-.57-.58v-1.34h.34v1.31c0,.24.09.33.21.33s.23-.11.23-.32v-1.32Z"/>
                <path class="cls-9" d="M70.33,134.11c0-.5,0-1,.58-1,.35,0,.49.23.48.63h-.34c0-.25,0-.34-.15-.34s-.22.21-.22.69,0,.69.22.69.16-.23.16-.38h.34c0,.5-.17.67-.5.67C70.33,135.08,70.33,134.6,70.33,134.11Z"/>
                <path class="cls-9" d="M72.06,134.11c0-.5,0-1,.57-1,.36,0,.5.22.49.63h-.35c0-.25,0-.35-.14-.35s-.22.21-.22.69,0,.7.22.7.15-.24.16-.39h.34c0,.51-.18.67-.5.67C72.06,135.09,72.06,134.61,72.06,134.11Z"/>
                <path class="cls-9" d="M73.8,135.06v-1.89h.91v.29h-.56v.47h.52v.29h-.51v.55h.58v.29Z"/>
                <path class="cls-9" d="M75.85,135.1c-.43,0-.51-.29-.49-.62h.35c0,.18,0,.33.19.33s.18-.08.18-.21c0-.34-.7-.36-.7-.93a.48.48,0,0,1,.55-.53c.34,0,.51.18.48.57h-.34c0-.14,0-.28-.16-.28s-.18.07-.18.2c0,.36.7.33.7.92S76.11,135.1,75.85,135.1Z"/>
                <path class="cls-9" d="M77.58,135.1c-.43,0-.51-.29-.49-.62h.35c0,.18,0,.34.19.34s.18-.09.18-.22c0-.34-.7-.36-.7-.92,0-.3.12-.53.55-.53s.51.17.48.57H77.8c0-.15,0-.29-.16-.29s-.18.07-.18.2c0,.36.7.33.7.92S77.84,135.1,77.58,135.1Z"/>
                <path class="cls-9" d="M79.81,135.07v-1.89h.56l.26,1.29h0l.28-1.28h.54v1.89h-.34v-1.45h0l-.32,1.45h-.33l-.3-1.46h0v1.46Z"/>
                <path class="cls-9" d="M82.05,135.08l.47-1.89H83l.44,1.89h-.36l-.09-.42h-.48l-.09.42Zm.68-1.53h0l-.16.82h.33Z"/>
                <path class="cls-9" d="M84.89,133.19v.32H84.5v1.57h-.35v-1.57h-.39v-.32Z"/>
                <path class="cls-9" d="M86.49,133.2v.31H86.1v1.57h-.35v-1.57h-.39v-.32Z"/>
                <path class="cls-9" d="M87.1,135.09V133.2H88v.29h-.56V134H88v.29h-.51v.56H88v.29Z"/>
                <path class="cls-9" d="M89,135.09h-.35V133.2h.64c.24,0,.39.18.39.5s-.08.42-.31.46h0c.08,0,.3,0,.3.38a3.09,3.09,0,0,0,0,.55h-.34a1.11,1.11,0,0,1,0-.37c0-.22,0-.41-.24-.41H89ZM89,134h.15c.14,0,.18-.16.18-.28s-.07-.25-.18-.25H89Z"/>
                <path class="cls-9" d="M90.87,135.13c-.43,0-.51-.29-.49-.62h.35c0,.18,0,.33.2.33s.17-.08.17-.21c0-.34-.7-.36-.7-.93a.48.48,0,0,1,.55-.53c.34,0,.51.18.49.57H91.1c0-.14,0-.28-.16-.28s-.18.07-.18.2c0,.36.7.33.7.92S91.14,135.13,90.87,135.13Z"/>
                <rect class="cls-9" x="78.98" y="119.5" width="0.2" height="24.77" transform="translate(-52.95 210.7) rotate(-89.89)"/>
                <path class="cls-9" d="M69.12,129.19a.8.8,0,0,1-.16.41.65.65,0,0,1-.55.22c-.66,0-1-.53-1-1.58,0-.63.13-1.68,1-1.68a.67.67,0,0,1,.73.66v.08h.7v-.09a1.31,1.31,0,0,0-1.41-1.28c-1.26,0-1.72,1.19-1.72,2.31,0,.52.12,2.23,1.64,2.23a1.38,1.38,0,0,0,1.48-1.25v-.09h-.72Z"/>
                <path class="cls-9" d="M72.19,125.88a1.61,1.61,0,0,0-1.3.6,2.65,2.65,0,0,0-.51,1.75c0,1.47.62,2.28,1.76,2.29s1.81-.86,1.81-2.35S73.31,125.88,72.19,125.88Zm.74,3.61a.91.91,0,0,1-.77.36.89.89,0,0,1-.78-.36,2.24,2.24,0,0,1-.31-1.29c0-1.1.38-1.66,1.12-1.66s1.07.53,1.06,1.62A2.43,2.43,0,0,1,72.93,129.49Z"/>
                <path class="cls-9" d="M75.29,129.73V126h-.66v4.42H77v-.69Z"/>
                <path class="cls-9" d="M78.5,129.74V126h-.66v4.43h2.4v-.69Z"/>
                <path class="cls-9" d="M81.83,129.75V128.5h1.74v-.66H81.84v-1.16h1.83V126H81.18v4.42h2.54v-.69Z"/>
                <path class="cls-9" d="M86.29,128v.66h.85v1.12a2.43,2.43,0,0,1-.74.11,1.09,1.09,0,0,1-.94-.39,2.37,2.37,0,0,1-.33-1.29,2.12,2.12,0,0,1,.39-1.31.94.94,0,0,1,.79-.33.68.68,0,0,1,.77.6v.07h.71v-.09a1.15,1.15,0,0,0-.26-.73,1.45,1.45,0,0,0-1.16-.48,1.83,1.83,0,0,0-1.09.31,2.68,2.68,0,0,0-.84,2A2.5,2.5,0,0,0,85,130a1.75,1.75,0,0,0,1.41.56,3.79,3.79,0,0,0,1.35-.26l0,0V128Z"/>
                <path class="cls-9" d="M89.64,129.77v-1.25h1.75v-.66H89.65v-1.16h1.83V126H89v4.42h2.53v-.69Z"/>
              </g>
              <g>
                <path class="cls-9" d="M53.53,120.65l0,5.66h4.74v-5.66Zm3.77,4.53H54.46V121.8h2.84Z"/>
                <path class="cls-9" d="M59.52,120.67v5.66h4.73v-5.66Zm3.78,4.52H60.45v-3.37H63.3Z"/>
                <path class="cls-9" d="M58.19,135.07v-7.18H53.5c0,.21,0,.41,0,.6C53.47,131.78,55.49,134.6,58.19,135.07Zm-3.68-6h0v-.16h2.83v4.73l-.21-.12A5.52,5.52,0,0,1,54.51,129.06Z"/>
                <path class="cls-9" d="M59.52,135.08c2.7-.47,4.73-3.28,4.74-6.58q0-.28,0-.6H59.54Zm.86-1.49v-4.67h2.83v.16a5.55,5.55,0,0,1-2.64,4.45l-.21.11h0l-.09.05Z"/>
              </g>
            </g>
          </g>
        </g>
      </g>
    </g>
  </g>
</svg>
