<svg xmlns="http://www.w3.org/2000/svg" viewBox="0 0 429.6 676.82">
  <defs>
    <style>
      .cls-1 {
        opacity: 0.6;
      }

      .cls-2, .cls-5 {
        fill: #00c971;
      }

      .cls-2 {
        stroke: #0b7c61;
        stroke-width: 0.24px;
      }

      .cls-2, .cls-3 {
        stroke-miterlimit: 10;
      }

      .cls-3, .cls-7 {
        fill: #0b8061;
      }

      .cls-3 {
        stroke: #0b7961;
        stroke-width: 0.98px;
      }

      .cls-4 {
        fill: none;
      }

      .cls-6 {
        fill: #0b7c61;
      }

      .cls-8 {
        fill: #0b7961;
      }
    </style>
  </defs>
  <g id="Layer_2" data-name="Layer 2">
    <g id="trial4">
      <g class="cls-1">
        <path class="cls-2" d="M143.22,146.1l11.91,0c11.21,0,12.37,3.36,12.42,17.16,0,8.46-1,12.13-7.25,14.34v.17c5.23.6,7,3.64,7,9.58l0,13.71a49.24,49.24,0,0,0,.48,8l-7.21,0c-.78-1.57-.94-3.14-1-5.67l0-14.23c0-5.94-.94-7.5-6-7.49H151l.1,27.41-7.68,0ZM151,174.36h2c6.06,0,6.91-1.33,6.87-10.76s-.49-10.21-5.26-10.19h-3.68Z"/>
        <path class="cls-2" d="M188.45,145.94l20.9-.07,0,7.33-13.21.05.07,19.73,12.44,0,0,7.33-12.45,0,.08,21.3,13.21,0,0,7.33-20.9.07Z"/>
        <path class="cls-2" d="M227.32,190.59l7.68,0,0,5.15c0,4.19,1.4,6.8,4.47,6.79,4.08,0,5.06-3.16,5-7.26,0-5.33-.26-7.07-8.28-16-4.93-5.57-9-10.62-9-19.17,0-10.3,4.17-14.77,12.55-14.8a12.18,12.18,0,0,1,9,3.46c1.31,1.39,2.24,3.57,2.26,8l0,5.93-7.22,0,0-5c0-3.58-1.32-5.67-4.32-5.66-3.15,0-4.6,2-4.58,6.91,0,4.28.79,6.9,7.89,15.25,7.55,8.88,8.95,11.93,9,19.53,0,9.86-3.32,15.55-12.46,15.58-7.07,0-11.92-3.36-11.95-11.22Z"/>
        <path class="cls-2" d="M271.78,145.65l20.89-.07,0,7.33-13.21.05.07,19.73,12.44,0,0,7.33-12.44,0,.08,21.3,13.21,0,0,7.33-20.89.07Z"/>
        <path class="cls-2" d="M321.55,145.48l8.91,0,11.51,63-7.68,0-2.59-16.05-12,0-2.47,16.07-7.68,0Zm-.71,39.64,9.76,0-4.87-30.36h-.16Z"/>
        <path class="cls-2" d="M360.79,145.34l11.9,0c11.22,0,12.38,3.36,12.43,17.16,0,8.46-1,12.13-7.25,14.34V177c5.23.59,7,3.64,7,9.58l.05,13.71a48.14,48.14,0,0,0,.48,8l-7.22,0c-.77-1.57-.93-3.14-.94-5.67l0-14.23c0-5.94-.94-7.5-6-7.49h-2.62l.1,27.41-7.68,0Zm7.78,28.26h2c6.06,0,6.9-1.33,6.87-10.76s-.49-10.21-5.26-10.19H368.5Z"/>
        <path class="cls-2" d="M405.23,161.25c0-8.82,2.48-16.6,12.93-16.63,7.6,0,11.15,4.32,11.17,11.4l0,6.28-7.22,0,0-4.37c0-4-1.25-6.54-4.48-6.53-4,0-4.75,3.25-4.72,10.84l.11,30.9c0,7.42,2.1,8.73,4.56,8.72,2.84,0,4.68-2.29,4.66-7.53l0-4.36,7.22,0,0,7c0,6.63-2.34,11.7-11.25,11.74-9.68,0-12.85-5.81-12.88-15.59Z"/>
        <path class="cls-2" d="M252.27,225.74l12.37-.05c12.44,0,13.45,4.67,13.52,23l.06,18.77c.06,16.15-2.46,21.23-14.59,21.27l-11.14,0Zm7.87,55.67,3.69,0c5.68,0,6.75-3.42,6.71-14.25l-.07-21.65c0-9.34-.89-12.48-7.42-12.46H260Z"/>
        <path class="cls-2" d="M307.73,225.54l8.91,0,11.51,63-7.68,0-2.59-16-12,0-2.48,16.07-7.68,0Zm-.7,39.64,9.75,0-4.87-30.37h-.15Z"/>
        <path class="cls-2" d="M338.24,225.44l7.68,0,6.77,26.52h.15l7.59-26.57,6.76,0-10.54,37.22.09,25.84-7.68,0L349,262.59Z"/>
        <g>
          <path class="cls-2" d="M217.47,265.32l3.84-8.16a12.55,12.55,0,0,0,1.46-6.05c0-2-.49-2.57-1.33-2.57-1,0-1.26.7-1.25,2.19v1.41h-2.47v-1.68c0-2.9.75-4.07,3.67-4.08s3.85,1.24,3.86,4.8a12.27,12.27,0,0,1-1.19,6l-3.94,8.46,5.37,0v2.51l-8,0Z"/>
          <path class="cls-2" d="M227.3,251.69c0-3.89.77-5.33,3.9-5.34s3.93,1.43,3.94,5.32l0,11.31c0,3.89-.77,5.33-3.9,5.34s-3.93-1.42-3.94-5.31Zm2.51,11.79c0,1.34,0,2.69,1.46,2.69s1.44-1.36,1.44-2.7l0-12.27c0-1.35,0-2.7-1.46-2.69s-1.44,1.35-1.44,2.7Z"/>
        </g>
        <g>
          <path class="cls-2" d="M382.86,264.74l3.84-8.16a12.51,12.51,0,0,0,1.45-6c0-2-.48-2.57-1.32-2.57-1,0-1.26.7-1.26,2.19v1.41H383.1v-1.68c0-2.9.75-4.07,3.67-4.08s3.85,1.24,3.86,4.81a12.29,12.29,0,0,1-1.19,6l-3.95,8.45,5.37,0v2.51l-8,0Z"/>
          <path class="cls-2" d="M392.68,251.12c0-3.89.78-5.33,3.91-5.34s3.93,1.42,3.94,5.31l0,11.31c0,3.89-.77,5.33-3.9,5.34s-3.93-1.42-3.95-5.31Zm2.52,11.78c0,1.35,0,2.69,1.46,2.69s1.44-1.35,1.44-2.7l-.05-12.27c0-1.35,0-2.69-1.45-2.69s-1.45,1.35-1.44,2.7Z"/>
        </g>
        <path class="cls-3" d="M142.05,144.87l11.9,0c11.21,0,12.37,3.36,12.42,17.15,0,8.47-1,12.14-7.24,14.34v.18c5.22.59,7,3.64,7,9.57l0,13.71a49.11,49.11,0,0,0,.49,8l-7.22,0c-.78-1.57-.93-3.14-.94-5.67l-.05-14.23c0-5.93-.95-7.5-6-7.48h-2.61l.09,27.4-7.67,0Zm7.77,28.25h2c6.07,0,6.91-1.34,6.88-10.76s-.5-10.21-5.26-10.2l-3.69,0Z"/>
        <path class="cls-3" d="M187.27,144.71l20.89-.07,0,7.33L195,152l.07,19.73,12.44-.05,0,7.33-12.44.05.08,21.29,13.2,0,0,7.33-20.89.07Z"/>
        <path class="cls-3" d="M226.13,189.35l7.68,0,0,5.15c0,4.19,1.4,6.8,4.48,6.79,4.06,0,5.05-3.16,5-7.26,0-5.33-.26-7.07-8.28-16-4.93-5.57-9-10.62-9-19.17,0-10.3,4.18-14.77,12.55-14.8a12.18,12.18,0,0,1,9,3.46c1.31,1.39,2.24,3.57,2.26,8l0,5.94-7.22,0,0-5c0-3.58-1.32-5.67-4.32-5.66-3.15,0-4.6,2-4.58,6.91,0,4.28.79,6.89,7.89,15.25,7.55,8.88,8.95,11.93,9,19.52,0,9.86-3.32,15.55-12.46,15.58-7.07,0-11.92-3.36-11.94-11.22Z"/>
        <path class="cls-3" d="M270.59,144.42l20.88-.07,0,7.33-13.21,0,.07,19.72,12.44,0,0,7.33-12.45,0,.08,21.29,13.21,0,0,7.33-20.88.07Z"/>
        <path class="cls-3" d="M320.35,144.25l8.9,0,11.51,63-7.68,0-2.59-16.05-12,0L316,207.28l-7.68,0Zm-.71,39.63,9.75,0-4.87-30.35h-.15Z"/>
        <path class="cls-3" d="M359.58,144.11l11.9,0c11.22,0,12.38,3.36,12.43,17.15,0,8.47-1,12.14-7.25,14.34v.18c5.23.59,7,3.64,7,9.57l0,13.71a49.11,49.11,0,0,0,.49,8l-7.22,0c-.77-1.57-.93-3.14-.94-5.67L376,187.17c0-5.93-.95-7.5-6-7.48h-2.62l.1,27.4-7.68,0Zm7.78,28.25h2c6.07,0,6.91-1.34,6.88-10.76s-.5-10.21-5.26-10.2l-3.68,0Z"/>
        <path class="cls-3" d="M404,160c0-8.82,2.47-16.6,12.92-16.63,7.6,0,11.15,4.32,11.17,11.39l0,6.29-7.22,0,0-4.36c0-4-1.25-6.54-4.48-6.53-4,0-4.74,3.24-4.72,10.84l.11,30.9c0,7.41,2.1,8.72,4.56,8.71,2.84,0,4.68-2.29,4.66-7.53l0-4.36,7.22,0,0,7c0,6.63-2.34,11.7-11.25,11.73-9.68,0-12.85-5.8-12.88-15.57Z"/>
        <path class="cls-3" d="M251.08,224.49l12.36,0c12.44,0,13.46,4.67,13.52,23l.07,18.76c.05,16.15-2.46,21.22-14.6,21.26l-11.13,0ZM259,280.15h3.69c5.68,0,6.74-3.43,6.71-14.25l-.08-21.64c0-9.34-.89-12.48-7.41-12.46h-3.08Z"/>
        <path class="cls-3" d="M306.53,224.3l8.91,0,11.51,63-7.68,0-2.59-16.06-12,0-2.48,16.07-7.68,0Zm-.7,39.63,9.75,0-4.87-30.36h-.15Z"/>
        <path class="cls-3" d="M337,224.19l7.68,0,6.77,26.51h.16l7.58-26.56,6.76,0-10.54,37.22.09,25.84-7.68,0-.09-25.84Z"/>
        <g>
          <path class="cls-3" d="M216.29,264.07l3.84-8.16a12.63,12.63,0,0,0,1.45-6c0-2-.48-2.57-1.33-2.56-1,0-1.26.69-1.25,2.18v1.41h-2.47v-1.68c0-2.9.75-4.07,3.67-4.08s3.85,1.24,3.87,4.81a12.46,12.46,0,0,1-1.19,6l-4,8.46,5.37,0v2.51l-8,0Z"/>
          <path class="cls-3" d="M226.11,250.45c0-3.89.77-5.33,3.9-5.34s3.93,1.42,3.94,5.31l0,11.31c0,3.89-.77,5.33-3.9,5.34s-3.93-1.42-3.94-5.31Zm2.52,11.78c0,1.34,0,2.69,1.45,2.69s1.45-1.36,1.44-2.7l0-12.27c0-1.35,0-2.69-1.46-2.69s-1.44,1.35-1.44,2.7Z"/>
        </g>
        <g>
          <path class="cls-3" d="M381.65,263.49l3.84-8.15a12.68,12.68,0,0,0,1.45-6.05c0-2-.48-2.58-1.32-2.57-1,0-1.27.69-1.26,2.19v1.4h-2.47v-1.67c0-2.91.75-4.08,3.68-4.09s3.84,1.25,3.86,4.81a12.52,12.52,0,0,1-1.19,6l-4,8.45,5.37,0v2.51l-8,0Z"/>
          <path class="cls-3" d="M391.47,249.87c0-3.89.77-5.33,3.9-5.34s3.93,1.42,3.95,5.31l0,11.31c0,3.89-.77,5.33-3.9,5.34s-3.93-1.42-3.94-5.31ZM394,261.65c0,1.35,0,2.69,1.45,2.69s1.45-1.35,1.44-2.7l0-12.27c0-1.35,0-2.69-1.46-2.69s-1.44,1.36-1.44,2.7Z"/>
        </g>
      </g>
      <g class="cls-1">
        <path class="cls-2" d="M136.57,482.21l11.91,0c11.21,0,12.38,3.36,12.42,17.15,0,8.47-1,12.14-7.24,14.34v.18c5.22.59,7,3.64,7,9.58l0,13.7a49.3,49.3,0,0,0,.49,8l-7.22,0c-.78-1.57-.93-3.14-.94-5.67L153,525.28c0-5.94-.95-7.51-6-7.49h-2.61l.09,27.41-7.68,0Zm7.78,28.26h2c6.07,0,6.91-1.34,6.88-10.76s-.5-10.22-5.26-10.2h-3.69Z"/>
        <path class="cls-2" d="M181.81,482.05,202.7,482l0,7.33-13.21.05.07,19.73L202,509l0,7.34-12.44,0,.07,21.3,13.21-.05,0,7.34-20.89.07Z"/>
        <path class="cls-2" d="M220.67,526.7l7.68,0,0,5.15c0,4.19,1.41,6.81,4.48,6.8,4.07,0,5.06-3.16,5-7.27,0-5.32-.25-7.07-8.27-16-4.94-5.57-9-10.62-9.06-19.17,0-10.31,4.18-14.77,12.55-14.8a12.11,12.11,0,0,1,9,3.46c1.31,1.39,2.24,3.57,2.25,8l0,5.94-7.22,0v-5c0-3.58-1.33-5.67-4.33-5.66s-4.6,2-4.58,6.91c0,4.28.79,6.89,7.89,15.25,7.56,8.88,9,11.93,9,19.52,0,9.87-3.33,15.55-12.47,15.59-7.07,0-11.92-3.37-11.94-11.22Z"/>
        <path class="cls-2" d="M265.13,481.76l20.89-.07,0,7.33-13.21.05.07,19.73,12.44-.05,0,7.33-12.45,0,.08,21.3,13.21,0,0,7.34-20.89.07Z"/>
        <path class="cls-2" d="M314.9,481.59l8.91,0,11.51,63-7.68,0-2.59-16.05-12,0-2.48,16.07-7.68,0Zm-.71,39.63,9.76,0-4.87-30.36h-.15Z"/>
        <path class="cls-2" d="M354.14,481.45l11.91,0c11.21,0,12.37,3.36,12.42,17.15,0,8.47-1,12.14-7.24,14.34v.18c5.22.59,7,3.64,7,9.58l.05,13.7a49.3,49.3,0,0,0,.49,8l-7.22,0c-.78-1.57-.94-3.14-.94-5.67l-.05-14.23c0-5.94-.95-7.51-6-7.49H362l.09,27.41-7.68,0Zm7.78,28.26h2c6.07,0,6.91-1.34,6.87-10.76s-.49-10.22-5.25-10.2h-3.69Z"/>
        <path class="cls-2" d="M398.59,497.36c0-8.82,2.47-16.6,12.92-16.64,7.6,0,11.15,4.33,11.18,11.4l0,6.29-7.22,0,0-4.36c0-4-1.25-6.55-4.47-6.54-4,0-4.75,3.25-4.73,10.85l.11,30.9c0,7.42,2.1,8.72,4.56,8.71,2.84,0,4.68-2.28,4.66-7.52V526.1l7.22,0,0,7c0,6.64-2.34,11.71-11.25,11.74-9.68,0-12.85-5.8-12.88-15.58Z"/>
        <path class="cls-2" d="M245.62,561.84l12.37,0c12.44,0,13.46,4.67,13.52,23l.07,18.77c.05,16.15-2.47,21.22-14.6,21.26l-11.14,0Zm7.88,55.67h3.68c5.69,0,6.75-3.43,6.71-14.25l-.07-21.65c0-9.34-.89-12.48-7.42-12.46h-3.07Z"/>
        <path class="cls-2" d="M301.09,561.65l8.91,0,11.51,63-7.68,0-2.59-16.06-12,0-2.48,16.08-7.68,0Zm-.71,39.64,9.75,0-4.86-30.36h-.16Z"/>
        <path class="cls-2" d="M331.59,561.54l7.68,0L346,588h.16l7.58-26.56,6.76,0L350,598.67l.09,25.84-7.68,0-.09-25.84Z"/>
        <g>
          <path class="cls-2" d="M210.82,601.42l3.85-8.15a12.68,12.68,0,0,0,1.45-6c0-2-.48-2.57-1.33-2.57-1,0-1.26.69-1.25,2.19v1.4h-2.47v-1.67c0-2.91.75-4.08,3.67-4.09s3.85,1.25,3.87,4.81a12.52,12.52,0,0,1-1.19,6l-3.95,8.45,5.37,0v2.52l-8,0Z"/>
          <path class="cls-2" d="M220.65,587.8c0-3.89.77-5.33,3.9-5.34s3.93,1.42,3.95,5.31l0,11.32c0,3.89-.78,5.33-3.91,5.34s-3.93-1.43-3.94-5.32Zm2.52,11.78c0,1.35,0,2.7,1.45,2.69s1.45-1.35,1.44-2.7l0-12.27c0-1.34,0-2.69-1.46-2.69s-1.44,1.36-1.44,2.7Z"/>
        </g>
        <g>
          <path class="cls-2" d="M376.21,600.84l3.84-8.15a12.69,12.69,0,0,0,1.46-6.05c0-2-.49-2.57-1.33-2.57-1,0-1.26.69-1.26,2.19v1.41h-2.48V586c0-2.9.75-4.07,3.67-4.08s3.85,1.24,3.86,4.8a12.27,12.27,0,0,1-1.19,6l-3.94,8.45h5.37v2.51l-8,0Z"/>
          <path class="cls-2" d="M386,587.22c0-3.89.77-5.33,3.9-5.34s3.93,1.43,3.94,5.32l0,11.31c0,3.89-.77,5.33-3.9,5.34s-3.93-1.42-3.94-5.31ZM388.55,599c0,1.34,0,2.69,1.46,2.68s1.44-1.35,1.44-2.69l0-12.27c0-1.35,0-2.7-1.46-2.69s-1.44,1.35-1.44,2.7Z"/>
        </g>
        <path class="cls-3" d="M135.4,481l11.9,0c11.21,0,12.38,3.36,12.43,17.15,0,8.46-1,12.13-7.25,14.34v.17c5.23.59,7,3.64,7,9.58l.05,13.7a49.3,49.3,0,0,0,.49,8l-7.22,0c-.77-1.57-.93-3.14-.94-5.67l0-14.23c0-5.94-1-7.5-6-7.49H143.2l.1,27.41-7.68,0Zm7.78,28.25h2c6.07,0,6.91-1.33,6.88-10.76s-.5-10.21-5.26-10.19H143.1Z"/>
        <path class="cls-3" d="M180.63,480.82l20.88-.07,0,7.33-13.21,0,.07,19.73,12.44,0,0,7.33-12.45,0,.08,21.3,13.21-.05,0,7.34-20.88.07Z"/>
        <path class="cls-3" d="M219.48,525.46l7.68,0,0,5.15c0,4.19,1.41,6.81,4.48,6.8,4.07,0,5.06-3.16,5-7.27,0-5.32-.25-7.07-8.27-16-4.94-5.57-9-10.61-9.05-19.17,0-10.3,4.17-14.76,12.54-14.79a12.11,12.11,0,0,1,9,3.46c1.31,1.39,2.24,3.57,2.25,8l0,5.93-7.22,0v-5c0-3.57-1.33-5.67-4.32-5.65-3.15,0-4.6,2-4.59,6.91,0,4.27.79,6.89,7.89,15.24,7.56,8.88,8.95,11.93,9,19.52,0,9.87-3.32,15.55-12.46,15.59-7.06,0-11.91-3.37-11.94-11.22Z"/>
        <path class="cls-3" d="M263.94,480.53l20.89-.07,0,7.33-13.21,0,.07,19.73,12.44,0,0,7.33-12.44,0,.07,21.3,13.21-.05,0,7.33-20.89.08Z"/>
        <path class="cls-3" d="M313.7,480.35l8.91,0,11.51,63-7.68,0-2.6-16.05-12,0-2.47,16.07-7.68,0ZM313,520l9.75,0-4.86-30.36h-.16Z"/>
        <path class="cls-3" d="M352.93,480.22l11.91,0c11.21,0,12.37,3.36,12.42,17.15,0,8.46-1,12.13-7.25,14.34v.17c5.22.59,7,3.64,7,9.58l0,13.7a49.24,49.24,0,0,0,.48,8l-7.21,0c-.78-1.57-.94-3.14-.95-5.67l-.05-14.23c0-5.94-.94-7.5-6-7.49h-2.61l.09,27.41-7.68,0Zm7.78,28.25h2c6.07,0,6.91-1.33,6.87-10.76s-.49-10.21-5.26-10.19h-3.68Z"/>
        <path class="cls-3" d="M397.37,496.12c0-8.81,2.48-16.59,12.92-16.63,7.6,0,11.15,4.33,11.18,11.4l0,6.28-7.22,0,0-4.37c0-4-1.25-6.54-4.47-6.53-4,0-4.75,3.25-4.72,10.84l.1,30.9c0,7.42,2.11,8.72,4.56,8.71,2.85,0,4.68-2.28,4.66-7.52v-4.36l7.22,0,0,7c0,6.64-2.34,11.71-11.25,11.74-9.67,0-12.84-5.8-12.88-15.58Z"/>
        <path class="cls-3" d="M244.43,560.6l12.36,0c12.44,0,13.46,4.66,13.52,23l.07,18.77c.06,16.15-2.46,21.22-14.59,21.26l-11.14,0Zm7.87,55.66H256c5.68,0,6.75-3.43,6.71-14.25l-.08-21.65c0-9.34-.88-12.48-7.41-12.46h-3.07Z"/>
        <path class="cls-3" d="M299.89,560.41l8.9,0,11.51,63-7.68,0-2.59-16-12,0-2.48,16.07-7.67,0ZM299.18,600l9.75,0-4.87-30.36h-.15Z"/>
        <path class="cls-3" d="M330.38,560.3l7.68,0,6.78,26.51H345l7.59-26.56,6.75,0-10.54,37.22.09,25.84-7.68,0-.09-25.83Z"/>
        <g>
          <path class="cls-3" d="M209.64,600.17l3.84-8.15a12.68,12.68,0,0,0,1.45-6c0-2-.48-2.57-1.32-2.57-1,0-1.26.69-1.26,2.19V587h-2.48v-1.68c0-2.9.75-4.07,3.67-4.08s3.85,1.24,3.86,4.8a12.27,12.27,0,0,1-1.19,6l-3.95,8.45,5.37,0V603l-8,0Z"/>
          <path class="cls-3" d="M219.46,586.55c0-3.89.77-5.33,3.91-5.34s3.92,1.43,3.94,5.32l0,11.31c0,3.89-.77,5.33-3.91,5.34s-3.92-1.43-3.94-5.32ZM222,598.33c0,1.35,0,2.7,1.46,2.69s1.44-1.35,1.43-2.7l0-12.26c0-1.35,0-2.7-1.46-2.69s-1.44,1.35-1.43,2.7Z"/>
        </g>
        <g>
          <path class="cls-3" d="M375,599.59l3.84-8.15a12.54,12.54,0,0,0,1.45-6.05c0-2-.48-2.57-1.32-2.57-1,0-1.26.7-1.26,2.19v1.41h-2.48v-1.68c0-2.9.75-4.07,3.67-4.08s3.85,1.24,3.86,4.8a12.27,12.27,0,0,1-1.19,6l-3.95,8.45H383v2.51l-8,0Z"/>
          <path class="cls-3" d="M384.82,586c0-3.89.77-5.33,3.91-5.35s3.92,1.43,3.94,5.32l0,11.31c0,3.89-.77,5.33-3.91,5.34s-3.92-1.42-3.94-5.31Zm2.52,11.78c0,1.34,0,2.69,1.46,2.68s1.44-1.35,1.44-2.69l-.05-12.27c0-1.35,0-2.7-1.46-2.69s-1.44,1.35-1.43,2.7Z"/>
        </g>
      </g>
      <g class="cls-1">
        <path class="cls-2" d="M15.78,346.43l7.69,0v5.16c0,4.19,1.41,6.8,4.48,6.79,4.07,0,5.06-3.16,5-7.26,0-5.33-.26-7.07-8.28-16-4.93-5.57-9-10.62-9-19.17,0-10.3,4.17-14.77,12.54-14.8a12.19,12.19,0,0,1,9,3.46c1.31,1.39,2.24,3.57,2.26,8l0,5.94-7.22,0,0-5c0-3.58-1.33-5.67-4.32-5.66-3.15,0-4.6,2-4.58,6.91,0,4.28.79,6.9,7.88,15.25,7.56,8.88,9,11.93,9,19.53,0,9.86-3.32,15.55-12.47,15.58-7.06,0-11.91-3.36-11.94-11.22Z"/>
        <path class="cls-2" d="M60.25,301.49l20.89-.07,0,7.33L68,308.8,68,328.53l12.45,0,0,7.34-12.44,0,.07,21.3,13.21,0,0,7.33-20.89.07Z"/>
        <path class="cls-2" d="M110,301.32l8.9,0,11.52,63-7.69,0-2.59-16.05-12,0-2.48,16.07-7.68,0ZM109.31,341l9.75,0-4.87-30.36H114Z"/>
        <path class="cls-2" d="M149.26,301.18l11.9,0c11.22,0,12.38,3.36,12.43,17.15,0,8.47-1,12.14-7.25,14.35v.17c5.23.59,7,3.64,7,9.58l0,13.71a49.11,49.11,0,0,0,.49,8l-7.22,0c-.77-1.57-.93-3.14-.94-5.67l-.05-14.23c0-5.94-.95-7.51-6-7.49h-2.61l.1,27.41-7.68,0ZM157,329.44h2c6.07,0,6.91-1.33,6.88-10.76s-.5-10.21-5.26-10.2l-3.69,0Z"/>
        <path class="cls-2" d="M193.7,317.09c0-8.82,2.48-16.6,12.92-16.63,7.61,0,11.16,4.32,11.18,11.39l0,6.29-7.22,0V313.8c0-4-1.25-6.54-4.48-6.53-4,0-4.75,3.24-4.72,10.84l.11,30.9c0,7.42,2.1,8.73,4.56,8.72,2.84,0,4.67-2.29,4.65-7.53v-4.36l7.22,0,0,7c0,6.63-2.34,11.7-11.25,11.73-9.67,0-12.84-5.8-12.88-15.58Z"/>
        <path class="cls-2" d="M236.88,300.87l7.68,0,.1,27.06,10.21,0-.09-27.07,7.68,0,.22,63-7.68,0-.1-28.63-10.22,0,.1,28.64-7.67,0Z"/>
        <path class="cls-2" d="M40.74,381.58l12.36-.05c12.44,0,13.46,4.67,13.52,23l.07,18.77c.06,16.15-2.46,21.22-14.6,21.27l-11.13,0Zm7.87,55.67,3.69,0c5.68,0,6.75-3.42,6.71-14.25l-.08-21.65c0-9.34-.89-12.48-7.41-12.46H48.44Z"/>
        <path class="cls-2" d="M96.2,381.38l8.91,0,11.51,63-7.68,0-2.59-16.06-12,.05-2.48,16.07-7.68,0ZM95.49,421l9.76,0-4.87-30.36h-.15Z"/>
        <path class="cls-2" d="M126.7,381.28l7.68,0,6.78,26.52h.15l7.59-26.56,6.76,0L145.11,418.4l.09,25.84-7.68,0-.09-25.84Z"/>
        <g>
          <path class="cls-2" d="M5.94,421.16,9.78,413A12.54,12.54,0,0,0,11.23,407c0-2-.48-2.57-1.32-2.57-1,0-1.26.69-1.26,2.19V408H6.18v-1.68c0-2.9.75-4.07,3.67-4.08s3.85,1.24,3.86,4.8a12.27,12.27,0,0,1-1.19,6l-3.95,8.46,5.37,0V424l-8,0Z"/>
          <path class="cls-2" d="M15.76,407.53c0-3.89.78-5.33,3.91-5.34s3.93,1.43,3.94,5.32l0,11.31c0,3.89-.77,5.33-3.9,5.34s-3.93-1.42-3.95-5.31Zm2.52,11.79c0,1.34,0,2.69,1.46,2.69s1.44-1.36,1.44-2.7L21.13,407c0-1.35,0-2.7-1.45-2.69s-1.45,1.35-1.44,2.7Z"/>
        </g>
        <g>
          <path class="cls-2" d="M171.33,420.58l3.84-8.16a12.63,12.63,0,0,0,1.45-6.05c0-2-.48-2.57-1.32-2.57-1,0-1.27.7-1.26,2.19v1.41h-2.47v-1.68c0-2.9.75-4.07,3.68-4.08s3.84,1.24,3.86,4.8a12.25,12.25,0,0,1-1.19,6L174,420.93l5.37,0v2.51l-8,0Z"/>
          <path class="cls-2" d="M181.15,407c0-3.89.77-5.33,3.91-5.35S189,403,189,406.93l0,11.31c0,3.89-.77,5.33-3.91,5.34s-3.93-1.42-3.94-5.31Zm2.52,11.78c0,1.35,0,2.69,1.46,2.69s1.44-1.35,1.43-2.7l0-12.27c0-1.35,0-2.7-1.46-2.69s-1.44,1.35-1.44,2.7Z"/>
        </g>
        <path class="cls-3" d="M14.6,345.19l7.68,0v5.15c0,4.19,1.41,6.8,4.48,6.79,4.07,0,5.06-3.16,5.05-7.26,0-5.33-.26-7.07-8.28-16-4.93-5.57-9-10.62-9-19.18,0-10.3,4.17-14.76,12.54-14.79a12.15,12.15,0,0,1,9,3.46c1.31,1.39,2.24,3.57,2.26,8l0,5.94-7.22,0,0-5c0-3.58-1.33-5.67-4.32-5.66-3.15,0-4.6,2-4.58,6.91,0,4.28.79,6.89,7.88,15.25,7.56,8.87,9,11.92,9,19.52,0,9.86-3.33,15.55-12.46,15.58-7.07,0-11.92-3.36-12-11.22Z"/>
        <path class="cls-3" d="M59.05,300.26l20.89-.07,0,7.33-13.21.05.07,19.72,12.44,0,0,7.33-12.44,0,.08,21.3,13.21,0,0,7.33-20.89.07Z"/>
        <path class="cls-3" d="M108.81,300.09l8.91,0,11.51,63-7.68,0L119,347l-12,0-2.48,16.07-7.68,0Zm-.7,39.63,9.75,0L113,309.33h-.15Z"/>
        <path class="cls-3" d="M148.05,300l11.9,0c11.21,0,12.38,3.36,12.42,17.15,0,8.47-1,12.14-7.24,14.34v.18c5.22.59,7,3.64,7,9.57l0,13.71a49.11,49.11,0,0,0,.49,8l-7.22,0c-.77-1.57-.93-3.14-.94-5.67L164.48,343c0-5.93-.95-7.5-6-7.48h-2.61l.1,27.4-7.68,0Zm7.78,28.25h2c6.07,0,6.91-1.34,6.88-10.76s-.5-10.21-5.26-10.2h-3.69Z"/>
        <path class="cls-3" d="M192.49,315.86c0-8.82,2.47-16.6,12.92-16.63,7.6,0,11.15,4.32,11.17,11.39l0,6.29-7.22,0v-4.36c0-4-1.25-6.55-4.48-6.53-4,0-4.75,3.24-4.72,10.84l.11,30.89c0,7.42,2.1,8.73,4.56,8.72,2.84,0,4.67-2.29,4.66-7.53l0-4.36,7.22,0,0,7c0,6.63-2.34,11.7-11.24,11.73-9.68,0-12.85-5.8-12.88-15.58Z"/>
        <path class="cls-3" d="M235.66,299.64l7.68,0,.1,27.06,10.21,0-.1-27.06,7.68,0,.22,63-7.68,0-.1-28.63-10.21,0,.1,28.63-7.68,0Z"/>
        <path class="cls-3" d="M39.55,380.33l12.36,0c12.44,0,13.45,4.67,13.52,23l.06,18.76c.06,16.15-2.46,21.22-14.59,21.26l-11.13,0ZM47.42,436h3.69c5.68,0,6.74-3.43,6.7-14.25l-.07-21.65c0-9.34-.89-12.48-7.42-12.45H47.25Z"/>
        <path class="cls-3" d="M95,380.14l8.91,0,11.51,63-7.68,0-2.59-16.05-12,0-2.48,16.07-7.68,0Zm-.71,39.63,9.76,0-4.87-30.35H99Z"/>
        <path class="cls-3" d="M125.5,380l7.68,0L140,406.52h.15L147.69,380l6.76,0-10.54,37.22L144,443l-7.68,0-.09-25.83Z"/>
        <path class="cls-3" d="M4.75,419.91l3.84-8.16a12.55,12.55,0,0,0,1.46-6.05c0-2-.48-2.57-1.33-2.57-1,0-1.26.7-1.25,2.19v1.41H5v-1.68c0-2.9.75-4.07,3.67-4.08s3.85,1.24,3.86,4.8a12.27,12.27,0,0,1-1.19,6l-3.94,8.46,5.37,0v2.51l-8,0Z"/>
        <path class="cls-3" d="M14.58,406.29c0-3.89.77-5.33,3.9-5.34s3.93,1.42,3.94,5.31l0,11.31c0,3.89-.77,5.33-3.9,5.34s-3.93-1.42-3.94-5.31Zm2.51,11.78c0,1.34,0,2.69,1.46,2.69S20,419.4,20,418.06l0-12.27c0-1.35,0-2.7-1.46-2.69s-1.44,1.35-1.44,2.7Z"/>
        <path class="cls-3" d="M170.11,419.33l3.85-8.15a12.68,12.68,0,0,0,1.45-6.05c0-2-.48-2.58-1.33-2.57-1,0-1.26.69-1.25,2.19v1.4h-2.47v-1.68c0-2.9.75-4.07,3.67-4.08s3.85,1.25,3.86,4.81a12.29,12.29,0,0,1-1.19,6l-3.94,8.45,5.37,0v2.51l-8,0Z"/>
        <path class="cls-3" d="M179.94,405.71c0-3.89.77-5.33,3.9-5.34s3.93,1.42,3.94,5.31l0,11.31c0,3.89-.77,5.33-3.9,5.34S180,420.91,180,417Zm2.51,11.78c0,1.35,0,2.69,1.46,2.69s1.44-1.35,1.44-2.7l0-12.27c0-1.35,0-2.69-1.46-2.69s-1.44,1.35-1.44,2.7Z"/>
      </g>
      <g class="cls-1">
        <path class="cls-2" d="M100.31,65.15l12.36-.05c12.45,0,13.46,4.67,13.53,23l.06,18.77c.06,16.15-2.46,21.23-14.59,21.27l-11.14,0Zm7.87,55.67,3.69,0c5.68,0,6.75-3.42,6.71-14.25L118.5,84.9c0-9.34-.88-12.48-7.41-12.46H108Z"/>
        <path class="cls-2" d="M155.77,65l8.91,0,11.51,63-7.68,0-2.59-16-12,0L151.46,128l-7.68,0Zm-.7,39.64,9.75,0L160,74.19h-.15Z"/>
        <path class="cls-2" d="M186.27,64.85l7.69,0,6.77,26.52h.15l7.59-26.57,6.76,0L204.69,102l.09,25.84-7.69,0L197,102Z"/>
        <g>
          <path class="cls-2" d="M65.51,104.73l3.84-8.16a12.67,12.67,0,0,0,1.46-6c0-2-.49-2.57-1.33-2.57-1,0-1.26.7-1.26,2.19v1.41H65.75V89.88c0-2.9.75-4.07,3.67-4.08s3.85,1.24,3.86,4.8a12.27,12.27,0,0,1-1.19,6l-3.94,8.46,5.37,0v2.51l-8,0Z"/>
          <path class="cls-2" d="M75.34,91.1c0-3.89.77-5.33,3.9-5.34s3.93,1.43,3.94,5.32l0,11.31c0,3.89-.77,5.33-3.9,5.34s-3.93-1.42-3.94-5.31Zm2.51,11.79c0,1.34,0,2.69,1.46,2.69s1.44-1.36,1.44-2.7l0-12.27c0-1.35,0-2.7-1.46-2.69s-1.45,1.35-1.44,2.7Z"/>
        </g>
        <g>
          <path class="cls-2" d="M230.9,104.15,234.74,96a12.63,12.63,0,0,0,1.45-6c0-2-.48-2.57-1.32-2.57-1,0-1.26.7-1.26,2.19V91h-2.48V89.3c0-2.9.74-4.07,3.67-4.08s3.85,1.24,3.86,4.81a12.29,12.29,0,0,1-1.19,6l-3.95,8.45,5.37,0V107l-8,0Z"/>
          <path class="cls-2" d="M240.72,90.53c0-3.89.77-5.33,3.91-5.34s3.93,1.42,3.94,5.31l0,11.31c0,3.89-.77,5.33-3.91,5.34s-3.92-1.42-3.94-5.31Zm2.52,11.78c0,1.35,0,2.69,1.46,2.69s1.44-1.35,1.44-2.7l0-12.27c0-1.35,0-2.69-1.45-2.69s-1.45,1.35-1.44,2.7Z"/>
        </g>
        <path class="cls-3" d="M99.12,63.9l12.36,0c12.44,0,13.46,4.67,13.52,23l.07,18.76c.05,16.15-2.46,21.22-14.6,21.26l-11.13,0ZM107,119.56h3.69c5.68,0,6.74-3.43,6.71-14.25l-.08-21.64c0-9.34-.89-12.48-7.42-12.46h-3.07Z"/>
        <path class="cls-3" d="M154.57,63.71l8.91,0,11.51,63-7.68,0-2.59-16.06-12,.05-2.48,16.07-7.68,0Zm-.7,39.63,9.75,0L158.75,73h-.15Z"/>
        <path class="cls-3" d="M185.07,63.6l7.68,0,6.77,26.51h.16l7.58-26.56,6.76,0-10.54,37.22.09,25.84-7.68,0-.09-25.84Z"/>
        <g>
          <path class="cls-3" d="M64.32,103.48l3.85-8.16a12.63,12.63,0,0,0,1.45-6c0-2-.48-2.57-1.33-2.56-1,0-1.26.69-1.25,2.18V90.3H64.57V88.63c0-2.9.75-4.07,3.67-4.08s3.85,1.24,3.86,4.81a12.23,12.23,0,0,1-1.19,6L67,103.83l5.37,0v2.51l-8,0Z"/>
          <path class="cls-3" d="M74.15,89.86c0-3.89.77-5.33,3.9-5.34S82,85.94,82,89.83l0,11.31c0,3.89-.77,5.33-3.9,5.34s-3.93-1.42-3.94-5.31Zm2.51,11.78c0,1.34,0,2.69,1.46,2.69s1.45-1.36,1.44-2.7l0-12.27c0-1.35,0-2.69-1.46-2.69s-1.44,1.35-1.44,2.7Z"/>
        </g>
        <g>
          <path class="cls-3" d="M229.68,102.9l3.85-8.15a12.68,12.68,0,0,0,1.45-6c0-2-.48-2.58-1.33-2.57-1,0-1.26.69-1.25,2.19v1.4h-2.47V88.06c0-2.91.75-4.08,3.67-4.09s3.85,1.25,3.87,4.81a12.52,12.52,0,0,1-1.19,6l-4,8.45,5.37,0v2.51l-8,0Z"/>
          <path class="cls-3" d="M239.51,89.28c0-3.89.77-5.33,3.9-5.34s3.93,1.42,3.94,5.31l0,11.31c0,3.89-.77,5.33-3.9,5.34s-3.93-1.42-3.94-5.31ZM242,101.06c0,1.35,0,2.69,1.46,2.69s1.45-1.35,1.44-2.7l0-12.27c0-1.35,0-2.69-1.46-2.69S242,87.45,242,88.79Z"/>
        </g>
        <polygon class="cls-4" points="313.22 10.21 313.19 0.9 304.19 0.89 304.23 10.24 313.22 10.21"/>
        <path class="cls-4" d="M224.27,1V.78h-7.71l0,11h.79C223.46,11.75,224.3,10.43,224.27,1Z"/>
        <polygon class="cls-4" points="173.82 0.71 172.59 0.71 169.07 23.28 177.43 23.25 173.82 0.71"/>
        <polygon class="cls-2" points="36.71 47.14 36.71 48.38 57.6 48.31 57.58 40.98 56.4 40.98 56.42 47.07 36.71 47.14"/>
        <polygon class="cls-2" points="43.11 18.49 43.19 39.78 44.36 39.78 44.29 19.72 56.74 19.68 56.71 12.35 55.53 12.35 55.55 18.44 43.11 18.49"/>
        <rect class="cls-2" x="43.07" y="0.54" width="1.18" height="10.62" transform="translate(-0.02 0.15) rotate(-0.2)"/>
        <polygon class="cls-2" points="97.88 0.84 91.84 0.86 91.85 2.1 99.07 2.07 99.06 0.61 97.88 0.61 97.88 0.84"/>
        <path class="cls-2" d="M89.62,12.39c7.56,8.88,8.95,11.93,9,19.52,0,9.86-3.32,15.55-12.46,15.58-3.49,0-6.43-.81-8.52-2.58,2.09,2.63,5.5,3.83,9.71,3.82,9.14,0,12.5-5.72,12.46-15.58,0-7.6-1.42-10.65-9-19.53C85,6.79,83.44,3.79,83.05.59h-1C82.73,3.39,84.57,6.43,89.62,12.39Z"/>
        <path class="cls-2" d="M84.13,40.07a9.56,9.56,0,0,1-1.07-4.94L83,30H81.85l0,3.91C81.88,36.89,82.6,39.08,84.13,40.07Z"/>
        <polygon class="cls-2" points="120.04 46.85 120.04 48.09 140.93 48.02 140.91 40.69 139.71 40.69 139.73 46.78 120.04 46.85"/>
        <polygon class="cls-2" points="126.42 18.2 126.5 39.49 127.69 39.49 127.62 19.43 140.06 19.39 140.04 12.06 138.84 12.06 138.87 18.15 126.42 18.2"/>
        <rect class="cls-2" x="126.38" y="0.65" width="1.19" height="10.21" transform="matrix(1, 0, 0, 1, -0.02, 0.44)"/>
        <polygon class="cls-2" points="188.8 46.61 182.13 46.63 182.33 47.87 190.01 47.85 181.4 0.72 180.42 0.72 188.8 46.61"/>
        <polygon class="cls-2" points="166.55 30.62 164.07 46.69 157.83 46.72 157.59 47.96 165.27 47.93 167.75 31.86 178.73 31.82 178.53 30.58 166.55 30.62"/>
        <polygon class="cls-2" points="171.19 0.71 167.68 23.29 169.07 23.28 172.59 0.71 171.19 0.71"/>
        <rect class="cls-2" x="215.38" y="0.77" width="1.21" height="11" transform="translate(-0.02 0.75) rotate(-0.2)"/>
        <path class="cls-2" d="M224.7,15v.18a10.07,10.07,0,0,1,2.48.56c5.15-2.26,6-6,6-13.84,0-.37,0-.73,0-1.08H232C232,9.14,231,12.78,224.7,15Z"/>
        <path class="cls-2" d="M218,19.1h-2.61l.1,27.4-6.48,0v1.24l7.68,0-.1-27.41h2.62a8,8,0,0,1,4,.72C222.41,19.58,220.87,19.09,218,19.1Z"/>
        <path class="cls-2" d="M231.77,38.43a49.11,49.11,0,0,0,.49,8l-6.49,0a7.55,7.55,0,0,0,.48,1.24l7.22,0a48.14,48.14,0,0,1-.48-8L232.94,26c0-3.91-.8-6.56-2.82-8.09,1.13,1.58,1.59,3.85,1.6,6.85Z"/>
        <polygon class="cls-2" points="270.18 1.74 277.39 1.71 277.39 0.85 270.17 0.84 270.18 1.74"/>
        <path class="cls-2" d="M259.85,31.35c0,5.19,1,7.38,2.5,8.23-.78-1.27-1.27-3.42-1.28-7L261,1.68V.83h-1.22Z"/>
        <path class="cls-2" d="M265.05,46.86c-3.81,0-6.59-.89-8.59-2.57,2,2.48,5.15,3.83,9.81,3.82,8.91,0,11.27-5.11,11.25-11.74l0-7h-1.21l0,5.74C276.32,41.76,274,46.83,265.05,46.86Z"/>
        <polygon class="cls-2" points="303.03 17.58 303.13 46.21 296.67 46.23 296.68 47.48 304.36 47.45 304.26 18.82 313.25 18.78 313.25 17.54 303.03 17.58"/>
        <rect class="cls-2" x="302.99" y="0.89" width="1.22" height="9.36" transform="translate(-0.02 1.06) rotate(-0.2)"/>
        <polygon class="cls-2" points="320.87 0.91 321.03 46.15 314.57 46.17 314.57 47.41 322.25 47.39 322.09 0.91 320.87 0.91"/>
        <rect class="cls-3" x="44.27" y="11.13" width="11.26" height="1.24" transform="translate(-0.04 0.18) rotate(-0.2)"/>
        <rect class="cls-3" x="35.45" y="0.53" width="1.18" height="46.61" transform="translate(-0.08 0.13) rotate(-0.2)"/>
        <rect class="cls-3" x="44.37" y="39.76" width="12.03" height="1.24" transform="translate(-0.14 0.18) rotate(-0.2)"/>
        <polygon class="cls-3" points="43.05 0.54 36.55 0.53 36.71 47.14 56.42 47.07 56.4 40.98 44.37 41.02 44.36 39.78 43.19 39.78 43.11 18.49 55.55 18.44 55.53 12.35 44.27 12.39 44.26 11.15 43.09 11.15 43.05 0.54"/>
        <rect class="cls-3" x="90.66" y="0.6" width="1.19" height="0.26" transform="matrix(1, 0, 0, 1, 0, 0.3)"/>
        <path class="cls-3" d="M75.36,30l6.49,0V28.74l-7.68,0,0,7.51c0,4,1.28,6.81,3.43,8.64a11.61,11.61,0,0,1-2.24-7.4Z"/>
        <path class="cls-3" d="M87.53,41.92c4.07,0,5.06-3.16,5-7.26,0-5.33-.26-7.07-8.28-16-4.71-5.32-8.64-10.17-9-18h-1.1c.71,7.16,4.46,11.77,8.92,16.81,8,9,8.26,10.7,8.28,16,0,4.1-1,7.25-5,7.26a3.93,3.93,0,0,1-2.21-.61A3.74,3.74,0,0,0,87.53,41.92Z"/>
        <path class="cls-3" d="M98.6,31.91c0-7.59-1.42-10.64-9-19.52-5.05-6-6.89-9-7.54-11.8H75.29c.37,7.87,4.3,12.72,9,18,8,9,8.26,10.71,8.28,16,0,4.1-1,7.25-5,7.26a3.74,3.74,0,0,1-3.4-1.85c-1.53-1-2.25-3.18-2.26-6.18l0-3.91-6.49,0,0,7.51a11.61,11.61,0,0,0,2.24,7.4c2.09,1.77,5,2.59,8.52,2.58C95.28,47.46,98.64,41.77,98.6,31.91Z"/>
        <polygon class="cls-3" points="97.88 0.61 91.84 0.6 91.84 0.86 97.88 0.84 97.88 0.61"/>
        <rect class="cls-3" x="127.59" y="10.84" width="11.25" height="1.24" transform="translate(-0.04 0.47) rotate(-0.2)"/>
        <rect class="cls-3" x="127.69" y="39.47" width="12.02" height="1.24" transform="translate(-0.14 0.46) rotate(-0.2)"/>
        <rect class="cls-3" x="118.76" y="0.64" width="1.19" height="46.21" transform="translate(-0.08 0.42) rotate(-0.2)"/>
        <polygon class="cls-3" points="126.36 0.65 119.87 0.64 120.04 46.85 139.73 46.78 139.71 40.69 127.69 40.73 127.69 39.49 126.5 39.49 126.42 18.2 138.87 18.15 138.84 12.06 127.59 12.1 127.59 10.86 126.4 10.86 126.36 0.65"/>
        <polygon class="cls-3" points="165.14 0.7 156.39 46.72 157.83 46.72 166.58 0.7 165.14 0.7"/>
        <polygon class="cls-3" points="178.73 31.82 181.12 46.63 182.13 46.63 179.74 31.82 178.73 31.82"/>
        <polygon class="cls-3" points="177.43 23.25 169.07 23.28 168.88 24.52 178.63 24.49 174.82 0.71 173.82 0.71 177.43 23.25"/>
        <polygon class="cls-3" points="180.42 0.72 174.82 0.71 178.63 24.49 168.88 24.52 169.07 23.28 167.68 23.29 171.19 0.71 166.58 0.7 157.83 46.72 164.07 46.69 166.55 30.62 178.53 30.58 178.73 31.82 179.74 31.82 182.13 46.63 188.8 46.61 180.42 0.72"/>
        <rect class="cls-3" x="207.76" y="0.76" width="1.2" height="45.78" transform="translate(-0.08 0.73) rotate(-0.2)"/>
        <path class="cls-3" d="M225.26,27.82c0-3.82-.41-5.83-2-6.77.64,1.16.82,2.92.83,5.53l0,14.23c0,2.53.17,4.1.94,5.67h.73a15.79,15.79,0,0,1-.46-4.43Z"/>
        <path class="cls-3" d="M224.27,1c0,9.42-.81,10.74-6.88,10.76h-.79V13h2c6.07,0,6.91-1.33,6.88-10.76,0-.51,0-1,0-1.46h-1.2Z"/>
        <path class="cls-3" d="M225.91,16.38a8.37,8.37,0,0,1,4.21,1.49,6,6,0,0,0-2.94-2.16c-.4.17-.82.34-1.27.5Z"/>
        <path class="cls-3" d="M224.7,15C231,12.78,232,9.14,232,.79h-6.48c0,.47,0,1,0,1.46,0,9.43-.81,10.74-6.88,10.76h-2V11.77h-1.2l0-11h-6.48L209,46.54l6.48,0-.1-27.4H218c2.84,0,4.38.48,5.19,1.95,1.63.94,2,2.95,2,6.77l.05,14.23a15.79,15.79,0,0,0,.46,4.43l6.49,0a49.11,49.11,0,0,1-.49-8l-.05-13.71c0-3-.47-5.27-1.6-6.85a8.37,8.37,0,0,0-4.21-1.49v-.17c.45-.16.87-.33,1.27-.5a10.07,10.07,0,0,0-2.48-.56Z"/>
        <path class="cls-3" d="M265.63,41.3c2.84,0,4.68-2.29,4.66-7.53l0-4.36,6,0V28.15l-7.22,0,0,4.36c0,5.24-1.82,7.52-4.66,7.53a4,4,0,0,1-2.06-.48A3.49,3.49,0,0,0,265.63,41.3Z"/>
        <path class="cls-3" d="M253.27.82h-1.21l.11,30.47c0,5.93,1.21,10.4,4.29,13-2.18-2.69-3.06-6.69-3.07-11.77Z"/>
        <path class="cls-3" d="M259.85,31.35,259.74.83h-6.47l.12,31.7c0,5.08.89,9.08,3.07,11.77,2,1.68,4.78,2.59,8.59,2.57,8.91,0,11.27-5.1,11.25-11.73l0-5.74-6,0,0,4.36c0,5.24-1.82,7.52-4.66,7.53a3.49,3.49,0,0,1-3.28-1.72C260.89,38.73,259.87,36.54,259.85,31.35Z"/>
        <rect class="cls-3" x="295.37" y="0.87" width="1.22" height="45.36" transform="translate(-0.08 1.03) rotate(-0.2)"/>
        <rect class="cls-3" x="313.3" y="18.78" width="1.22" height="27.39" transform="translate(-0.11 1.1) rotate(-0.2)"/>
        <polygon class="cls-3" points="304.23 10.24 304.23 11.48 314.45 11.45 314.41 0.9 313.19 0.9 313.22 10.21 304.23 10.24"/>
        <polygon class="cls-3" points="320.87 0.91 314.41 0.9 314.45 11.45 304.23 11.48 304.23 10.24 303.01 10.25 302.97 0.88 296.51 0.88 296.67 46.23 303.13 46.21 303.03 17.58 313.25 17.54 313.25 18.78 314.47 18.78 314.57 46.17 321.03 46.15 320.87 0.91"/>
        <path class="cls-4" d="M6.73,1.77V.49H.49v12C6,12.4,6.77,10.85,6.73,1.77Z"/>
        <path class="cls-2" d="M.5,19.86h0V21.1H1.68a7.8,7.8,0,0,1,4,.75C4.9,20.34,3.36,19.85.5,19.86Z"/>
        <path class="cls-2" d="M7.17,15.73v.18a10.62,10.62,0,0,1,2.46.55c5.13-2.26,6-6,6-13.83,0-.74,0-1.45,0-2.13H14.41v.89C14.44,9.86,13.46,13.53,7.17,15.73Z"/>
        <path class="cls-2" d="M15.42,40.43l-.05-13.71c0-3.85-.78-6.48-2.74-8,1.1,1.58,1.55,3.82,1.56,6.78l.05,13.71a50.19,50.19,0,0,0,.48,8l-6.52,0a7.55,7.55,0,0,0,.48,1.24l7.22,0A48.14,48.14,0,0,1,15.42,40.43Z"/>
        <path class="cls-3" d="M8.34,17.14a8.25,8.25,0,0,1,4.29,1.56,6,6,0,0,0-3-2.24c-.41.18-.83.35-1.29.51Z"/>
        <path class="cls-3" d="M.49,12.52v1.25H1C7.1,13.74,7.94,12.43,7.91,3c0-.92,0-1.74,0-2.51H6.73V1.77C6.77,10.85,6,12.4.49,12.52Z"/>
        <path class="cls-3" d="M7.69,28.58c0-3.79-.4-5.79-2-6.74.62,1.15.81,2.91.82,5.5l.05,14.23c0,2.53.16,4.1.94,5.67H8.2a15.79,15.79,0,0,1-.46-4.43Z"/>
        <path class="cls-3" d="M14.24,39.19l-.05-13.71c0-3-.46-5.2-1.56-6.78a8.25,8.25,0,0,0-4.29-1.56V17c.46-.16.88-.33,1.29-.51a10.62,10.62,0,0,0-2.46-.55v-.18c6.29-2.2,7.27-5.87,7.24-14.34V.5H7.88c0,.77,0,1.59,0,2.51,0,9.43-.81,10.74-6.88,10.76H.49v6.09h0c2.86,0,4.4.48,5.2,2,1.59.95,2,2.95,2,6.74l0,14.23a15.79,15.79,0,0,0,.46,4.43l6.52,0A50.19,50.19,0,0,1,14.24,39.19Z"/>
      </g>
      <g class="cls-1">
        <polygon class="cls-4" points="92.66 659.7 92.18 656.69 91.71 659.7 92.66 659.7"/>
        <path class="cls-4" d="M9.34,659.26l0-5.46a6.67,6.67,0,0,0-1-3.89c0-.06-.1-.1-.15-.16a4.48,4.48,0,0,0-1.52-.26h0a3.77,3.77,0,0,0-3.38,1.58c-.74,1.09-1.09,2.8-1.08,5.22a15.45,15.45,0,0,0,.24,3l8.43,0v-.07Z"/>
        <path class="cls-4" d="M139.39,650.08h-3.57l0,9.81,7.09,0v-1c0-4.56-.15-7.11-.8-8.38a2.3,2.3,0,0,0-.15-.23,9.56,9.56,0,0,0-2.49-.23Z"/>
        <path class="cls-5" d="M17.54,659.23l-6.4,0v.07l7,0,0-5.31a13.64,13.64,0,0,0-1.3-6.67,17.54,17.54,0,0,1,.72,5.43Z"/>
        <polygon class="cls-5" points="11.14 659.88 18.11 659.86 18.11 659.36 11.14 659.33 11.14 659.88"/>
        <polygon class="cls-6" points="18.24 659.98 11.02 660.01 11.01 659.33 10.89 659.33 10.89 660.01 10.89 660.13 18.24 660.1 18.36 660.1 18.36 659.36 18.23 659.36 18.24 659.98"/>
        <path class="cls-6" d="M16.38,646.34c.08.17.17.34.24.53.95,1.41,1.58,3.52,1.6,7.18v5.31h.13l0-5.31C18.33,650.4,17.71,648,16.38,646.34Z"/>
        <path class="cls-6" d="M3.3,651.07a3.77,3.77,0,0,1,3.38-1.58h0a4.48,4.48,0,0,1,1.52.26l-.17-.18a4.81,4.81,0,0,0-1.37-.2c-3.15,0-4.6,2-4.59,6.92a17.2,17.2,0,0,0,.24,3h.13a15.45,15.45,0,0,1-.24-3C2.21,653.87,2.56,652.16,3.3,651.07Z"/>
        <rect class="cls-6" x="10.89" y="659.26" width="0.12" height="0.07" transform="translate(-1.98 0.04) rotate(-0.17)"/>
        <path class="cls-6" d="M18.09,654.05l0,5.31h.12v-5.31c0-3.66-.65-5.77-1.6-7.18.06.16.12.33.17.51A13.64,13.64,0,0,1,18.09,654.05Z"/>
        <rect class="cls-6" x="11.01" y="659.26" width="0.12" height="0.07" transform="translate(-2.62 0.05) rotate(-0.23)"/>
        <polygon class="cls-6" points="18.11 659.86 11.14 659.88 11.14 659.33 11.01 659.33 11.02 660.01 18.24 659.98 18.23 659.36 18.11 659.36 18.11 659.86"/>
        <path class="cls-6" d="M6.7,649.25h0a4,4,0,0,0-3.58,1.68C2.33,652.06,2,653.82,2,656.29a17.14,17.14,0,0,0,.23,3h.13a17.2,17.2,0,0,1-.24-3c0-4.89,1.44-6.91,4.59-6.92a4.81,4.81,0,0,1,1.37.2c-.06-.06-.11-.13-.17-.18A4.83,4.83,0,0,0,6.7,649.25Z"/>
        <polygon class="cls-5" points="45.99 649.53 46.02 659.49 46.6 659.49 46.57 650.16 46.69 650.16 59.78 650.11 59.76 643.02 59.17 643.02 59.2 649.49 45.99 649.53"/>
        <polygon class="cls-6" points="59.9 650.36 60.02 650.36 60 642.9 60 642.78 59.17 642.78 59.17 642.9 59.88 642.9 59.9 650.23 46.69 650.28 46.72 659.49 46.85 659.49 46.81 650.4 59.9 650.36"/>
        <polygon class="cls-6" points="59.76 643.02 59.78 650.11 46.69 650.16 46.57 650.16 46.6 659.49 46.72 659.49 46.69 650.28 59.9 650.23 59.88 642.9 59.17 642.9 59.17 643.02 59.76 643.02"/>
        <polygon class="cls-5" points="92.05 655.91 91.66 653.45 90.69 659.69 91.46 659.7 92.05 655.91"/>
        <polygon class="cls-5" points="100.64 659.74 97.56 642.89 97.2 642.89 100.28 659.74 100.64 659.74"/>
        <polygon class="cls-6" points="91.71 659.7 92.18 656.69 92.12 656.3 91.59 659.7 91.71 659.7"/>
        <polygon class="cls-6" points="97.77 642.65 97.16 642.65 97.18 642.77 97.66 642.77 100.77 659.74 100.89 659.74 97.78 642.75 97.77 642.65"/>
        <polygon class="cls-6" points="97.56 642.89 100.64 659.74 100.77 659.74 97.66 642.77 97.18 642.77 97.2 642.89 97.56 642.89"/>
        <polygon class="cls-6" points="91.59 659.7 92.12 656.3 92.05 655.91 91.46 659.7 91.59 659.7"/>
        <path class="cls-5" d="M135.58,649.85l3.81,0h.12a12,12,0,0,1,2.24.16c-.58-.58-1.52-.78-3.46-.78H135l0,10.68h.59Z"/>
        <path class="cls-5" d="M151.6,660h.6v-.2c0-6.59-.29-10.77-1.77-13.34.94,2.64,1.15,6.42,1.17,12.1Z"/>
        <path class="cls-6" d="M150,645.47c.06.15.13.29.19.44,1.76,2.56,2.07,6.88,2.1,13.87v.2h.12v-.2C152.42,652.43,152.06,648,150,645.47Z"/>
        <path class="cls-6" d="M135.7,650l0,9.93h.12l0-9.81h3.69a9.56,9.56,0,0,1,2.49.23.86.86,0,0,0-.1-.16,11.23,11.23,0,0,0-2.51-.19Z"/>
        <path class="cls-6" d="M152.2,659.78v.2h.13v-.2c0-7-.34-11.31-2.1-13.87.07.17.14.35.2.53C151.91,649,152.18,653.19,152.2,659.78Z"/>
        <path class="cls-6" d="M139.39,649.83l-3.81,0,0,10h.13l0-9.93h3.69a11.23,11.23,0,0,1,2.51.19l-.15-.16a12,12,0,0,0-2.24-.16Z"/>
        <path class="cls-5" d="M195.83,658.87l-6.37,0v.62l7,0,0-6.16a13.44,13.44,0,0,0-1.49-6.59,15.53,15.53,0,0,1,.88,5.35Z"/>
        <path class="cls-5" d="M183.63,648c-3.31,0-4.26,2.34-4.23,10.36v1.74h.6v-.51c0-4.29.24-6.7.87-8.31a3.79,3.79,0,0,1,4-2.65h0a5.09,5.09,0,0,1,1.13.12,3.48,3.48,0,0,0-2.34-.75Z"/>
        <path class="cls-6" d="M196.54,653.34l0,6.28-7.22,0v-.75h-.12v.87l7.34,0h.12l0-6.4a12.52,12.52,0,0,0-2.32-7.9c.12.22.23.44.34.68A13.07,13.07,0,0,1,196.54,653.34Z"/>
        <path class="cls-6" d="M181.09,651.37a3.6,3.6,0,0,1,3.76-2.5h0a4.68,4.68,0,0,1,1.51.26l-.19-.2a4.67,4.67,0,0,0-1.34-.18c-4,0-4.75,3.25-4.72,10.84v.51h.12v-.51C180.23,655.33,180.48,653,181.09,651.37Z"/>
        <path class="cls-6" d="M184.87,648.63h0a3.79,3.79,0,0,0-4,2.65c-.63,1.61-.88,4-.87,8.31v.51h.13v-.51c0-7.59.73-10.83,4.72-10.84a4.67,4.67,0,0,1,1.34.18,1.57,1.57,0,0,0-.19-.18A5.09,5.09,0,0,0,184.87,648.63Z"/>
        <path class="cls-6" d="M196.42,653.34l0,6.16-7,0v-.62h-.12v.75l7.22,0,0-6.28a13.07,13.07,0,0,0-1.86-7.22c.09.2.17.41.25.63A13.44,13.44,0,0,1,196.42,653.34Z"/>
        <rect class="cls-5" x="240.5" y="642.39" width="0.61" height="17.99" transform="translate(-2.28 0.85) rotate(-0.2)"/>
        <rect class="cls-5" x="222.6" y="642.45" width="0.61" height="17.85" transform="translate(-2.29 0.79) rotate(-0.2)"/>
        <polygon class="cls-6" points="223.3 642.33 223.37 660.3 223.49 660.3 223.43 642.33 223.43 642.21 222.57 642.21 222.57 642.33 223.3 642.33"/>
        <polygon class="cls-6" points="241.2 642.27 241.26 660.38 241.39 660.38 241.32 642.27 241.32 642.14 240.47 642.15 240.47 642.27 241.2 642.27"/>
        <polygon class="cls-6" points="240.47 642.27 240.47 642.39 241.08 642.39 241.14 660.38 241.26 660.38 241.2 642.27 240.47 642.27"/>
        <polygon class="cls-6" points="223.18 642.45 223.24 660.3 223.37 660.3 223.3 642.33 222.57 642.33 222.57 642.45 223.18 642.45"/>
        <path class="cls-7" d="M10,651.13a10.53,10.53,0,0,1,.33,2.67v4.48h.58V655A7.3,7.3,0,0,0,10,651.13Z"/>
        <path class="cls-7" d="M9.83,650.72c.05.14.1.26.14.41a7.3,7.3,0,0,1,.91,3.9v3.25H11V655A6.81,6.81,0,0,0,9.83,650.72Z"/>
        <path class="cls-7" d="M10.06,650.78c-.1-.13-.22-.22-.32-.33,0,.08.06.18.09.27A6.81,6.81,0,0,1,11,655v3.25h.12V655A7.32,7.32,0,0,0,10.06,650.78Z"/>
        <path class="cls-8" d="M9.83,658.77l0-5a8.09,8.09,0,0,0-.72-3.61,3.24,3.24,0,0,0-.87-.44c0,.06.11.1.15.16a6.67,6.67,0,0,1,1,3.89l0,5.46h1.55v-.49Z"/>
        <path class="cls-8" d="M17.05,658.75l-5.92,0v.49l6.4,0,0-6.42a17.54,17.54,0,0,0-.72-5.43,6.26,6.26,0,0,0-.92-1.27c-.1-.11-.23-.23-.36-.35.91,1.42,1.5,3.51,1.51,7Z"/>
        <path class="cls-8" d="M9,650a3.57,3.57,0,0,0-.91-.39l.17.18a3.24,3.24,0,0,1,.87.44Z"/>
        <path class="cls-8" d="M14.84,644.88a4.42,4.42,0,0,1,.39.47A7.84,7.84,0,0,1,16,646a7.35,7.35,0,0,1,.66.85c-.07-.19-.16-.36-.24-.53a4.39,4.39,0,0,0-.33-.4A9.8,9.8,0,0,0,14.84,644.88Z"/>
        <rect class="cls-8" x="10.89" y="658.77" width="0.12" height="0.49" transform="translate(-2.31 0.04) rotate(-0.2)"/>
        <path class="cls-8" d="M15.23,645.35a4.21,4.21,0,0,1,.28.41c.13.12.26.24.36.35a6.26,6.26,0,0,1,.92,1.27c-.05-.18-.11-.35-.17-.51A7.35,7.35,0,0,0,16,646,7.84,7.84,0,0,0,15.23,645.35Z"/>
        <path class="cls-8" d="M8.84,649.75a3.81,3.81,0,0,0-1-.36c.06.05.11.12.17.18A3.57,3.57,0,0,1,9,650C8.92,649.89,8.88,649.81,8.84,649.75Z"/>
        <rect class="cls-8" x="11.01" y="658.77" width="0.12" height="0.49" transform="translate(-2.62 0.05) rotate(-0.23)"/>
        <path class="cls-8" d="M10.31,658.28V653.8a10.53,10.53,0,0,0-.33-2.67c0-.06-.07-.14-.11-.2a3.17,3.17,0,0,0-.77-.74,8.09,8.09,0,0,1,.72,3.61l0,5h1.06v-.49Z"/>
        <path class="cls-8" d="M14.41,645.13c1,1,2.11,2.85,2.13,7.69l0,5.44-5.43,0v.49l5.92,0,0-5.94c0-3.54-.6-5.63-1.51-7a11,11,0,0,0-2-1.48A8.49,8.49,0,0,1,14.41,645.13Z"/>
        <path class="cls-8" d="M9.86,650.93c0,.06.07.14.11.2,0-.15-.09-.27-.14-.41A3.53,3.53,0,0,0,9,650l.13.23A3.17,3.17,0,0,1,9.86,650.93Z"/>
        <rect class="cls-8" x="10.89" y="658.28" width="0.12" height="0.49" transform="translate(-2.3 0.04) rotate(-0.2)"/>
        <rect class="cls-8" x="11.01" y="658.28" width="0.12" height="0.49" transform="translate(-2.3 0.04) rotate(-0.2)"/>
        <path class="cls-8" d="M10.46,672.3c-.52-.64-1.07-1.3-1.67-2l-.3-.36c.44.53.9,1.09,1.4,1.67Z"/>
        <path class="cls-8" d="M9.83,650.72c0-.09-.06-.19-.09-.27a3.36,3.36,0,0,0-.9-.7c0,.06.08.14.12.21A3.53,3.53,0,0,1,9.83,650.72Z"/>
        <polygon class="cls-7" points="38.87 642.85 38.99 642.85 58.2 642.78 58.19 642.16 38.28 642.23 38.34 659.46 38.92 659.46 38.87 642.85"/>
        <polygon class="cls-7" points="39.17 659.46 45.04 659.49 45.01 648.56 58.22 648.51 58.2 643.03 39.11 643.1 39.17 659.46"/>
        <polygon class="cls-7" points="38.87 642.85 38.92 659.46 39.05 659.46 38.99 642.97 58.2 642.91 58.2 642.78 38.99 642.85 38.87 642.85"/>
        <polygon class="cls-7" points="39.05 659.46 39.17 659.46 39.11 643.1 58.2 643.03 58.2 642.91 38.99 642.97 39.05 659.46"/>
        <polygon class="cls-8" points="37.79 641.74 58.68 641.67 58.68 642.78 59.17 642.78 59.16 641.18 37.3 641.26 37.37 659.45 37.85 659.45 37.79 641.74"/>
        <polygon class="cls-8" points="45.5 649.05 45.53 659.49 46.02 659.49 45.99 649.53 59.2 649.49 59.17 643.02 58.68 643.03 58.7 649 45.5 649.05"/>
        <polygon class="cls-8" points="38.28 642.23 58.19 642.16 58.2 642.78 58.68 642.78 58.68 641.67 37.79 641.74 37.85 659.45 38.34 659.46 38.28 642.23"/>
        <polygon class="cls-8" points="58.22 648.51 45.01 648.56 45.04 659.49 45.53 659.49 45.5 649.05 58.7 649 58.68 643.03 58.2 643.03 58.22 648.51"/>
        <polygon class="cls-7" points="94.04 659.71 92.86 652.34 92.67 653.56 93.65 659.71 94.04 659.71"/>
        <polygon class="cls-7" points="88.65 642.68 88.75 642.68 96.17 642.65 96.05 642.03 87.95 642.05 84.61 659.67 85.42 659.67 88.65 642.68"/>
        <polygon class="cls-7" points="85.67 659.67 89.7 659.69 91.16 650.32 92.15 650.32 92.54 652.78 92.67 651.92 93.04 651.92 94.29 659.71 99.29 659.73 96.21 642.9 88.86 642.92 85.67 659.67"/>
        <polygon class="cls-7" points="88.65 642.68 85.42 659.67 85.55 659.67 88.75 642.8 96.19 642.77 96.17 642.65 88.75 642.68 88.65 642.68"/>
        <polygon class="cls-7" points="92.86 652.34 94.04 659.71 94.16 659.71 92.93 652.04 92.78 652.04 92.6 653.17 92.67 653.56 92.86 652.34"/>
        <polygon class="cls-7" points="92.67 651.92 92.54 652.78 92.6 653.17 92.78 652.04 92.93 652.04 94.16 659.71 94.29 659.71 93.04 651.92 92.67 651.92"/>
        <polygon class="cls-7" points="85.55 659.67 85.67 659.67 88.86 642.92 96.21 642.9 96.19 642.77 88.75 642.8 85.55 659.67"/>
        <polygon class="cls-8" points="87.55 641.57 96.46 641.54 96.66 642.65 97.16 642.65 96.87 641.05 87.15 641.08 83.61 659.66 84.11 659.66 87.55 641.57"/>
        <polygon class="cls-8" points="92.66 659.7 93.16 659.71 92.42 655.13 92.18 656.69 92.66 659.7"/>
        <polygon class="cls-8" points="100.28 659.74 97.2 642.89 96.71 642.89 99.78 659.74 100.28 659.74"/>
        <polygon class="cls-8" points="91.66 653.45 92.05 655.91 92.3 654.35 91.73 650.81 91.58 650.81 90.19 659.69 90.69 659.69 91.66 653.45"/>
        <polygon class="cls-8" points="92.18 656.69 92.42 655.13 92.36 654.74 92.12 656.3 92.18 656.69"/>
        <polygon class="cls-8" points="92.12 656.3 92.36 654.74 92.3 654.35 92.05 655.91 92.12 656.3"/>
        <polygon class="cls-8" points="93.65 659.71 92.67 653.56 92.42 655.13 93.16 659.71 93.65 659.71"/>
        <polygon class="cls-8" points="87.95 642.05 96.05 642.03 96.17 642.65 96.66 642.65 96.46 641.54 87.55 641.57 84.11 659.66 84.61 659.67 87.95 642.05"/>
        <polygon class="cls-8" points="99.29 659.73 99.78 659.74 96.71 642.89 96.21 642.9 99.29 659.73"/>
        <polygon class="cls-8" points="91.58 650.81 91.73 650.81 92.3 654.35 92.54 652.78 92.15 650.32 91.16 650.32 89.7 659.69 90.19 659.69 91.58 650.81"/>
        <polygon class="cls-8" points="92.42 655.13 92.67 653.56 92.6 653.17 92.36 654.74 92.42 655.13"/>
        <polygon class="cls-8" points="92.36 654.74 92.6 653.17 92.54 652.78 92.3 654.35 92.36 654.74"/>
        <path class="cls-7" d="M143.92,659.94h.6c0-4.58-.15-7-.84-8.34a3,3,0,0,0-.26-.42,35.45,35.45,0,0,1,.5,7.74C143.93,659.27,143.92,659.6,143.92,659.94Z"/>
        <path class="cls-7" d="M127.87,642.54H128l11.9,0h.19a21.13,21.13,0,0,1,6.84.85c-1.7-1.05-4.26-1.49-8.24-1.47l-11.41,0,.06,17.94h.59Z"/>
        <path class="cls-7" d="M139.9,642.74l-11.78,0,.06,17.09,5.86,0,0-11.64h4.18c2.21,0,3.94.12,4.83,1.85a5.87,5.87,0,0,1,.25.56,2.78,2.78,0,0,1,.64.84c.71,1.37.85,3.83.87,8.45l5.85,0c0-.46,0-.93,0-1.43,0-6.88-.35-11.07-1.95-13.49a5.62,5.62,0,0,0-1-1.16c-1.76-.83-4.2-1.15-7.57-1.15Z"/>
        <path class="cls-7" d="M143.68,651.6c.69,1.33.82,3.76.84,8.34h.13c0-5.34-.21-7.85-1.3-9l.07.25A3,3,0,0,1,143.68,651.6Z"/>
        <path class="cls-7" d="M139.9,642.5l-11.9,0h-.13l.06,17.32h.13L128,642.66l11.9,0a19.79,19.79,0,0,1,7.44,1c-.13-.1-.27-.19-.41-.28a21.13,21.13,0,0,0-6.84-.85Z"/>
        <path class="cls-7" d="M143.26,650.65l.09.28c1.09,1.16,1.27,3.67,1.3,9h.12c0-4.62-.16-7.08-.87-8.45A2.78,2.78,0,0,0,143.26,650.65Z"/>
        <path class="cls-7" d="M128,642.66l.06,17.21h.12l-.06-17.09,11.78,0h.2c3.37,0,5.81.32,7.57,1.15l-.33-.26a19.79,19.79,0,0,0-7.44-1Z"/>
        <path class="cls-8" d="M142.15,650.54c.65,1.27.78,3.82.8,8.38v1h.48c0-.34,0-.66,0-1,0-4.42-.14-6.93-.76-8.36a2.74,2.74,0,0,0-.68-.25A2.3,2.3,0,0,1,142.15,650.54Z"/>
        <path class="cls-8" d="M126.79,641.43l11.9,0c5.17,0,8.2.7,10,2.82a6.37,6.37,0,0,1,1.38,1.26,10.92,10.92,0,0,0-.54-1c-1.72-2.59-4.7-3.61-10.63-3.61h-.18L126.3,641l.06,18.91h.49Z"/>
        <path class="cls-8" d="M135,649.22h3.31c1.94,0,2.88.2,3.46.78a3.47,3.47,0,0,1,.77.23c-.73-1.29-2-1.5-4.34-1.5l-3.69,0,0,11.15H135Z"/>
        <path class="cls-8" d="M151.11,660h.49v-1.43c0-5.68-.23-9.46-1.17-12.1a6,6,0,0,0-1.32-1.62c1.68,2.57,2,6.86,2,13.72C151.12,659,151.11,659.51,151.11,660Z"/>
        <path class="cls-8" d="M142,650.31a2.74,2.74,0,0,1,.68.25.87.87,0,0,0-.07-.17,3.48,3.48,0,0,0-.71-.24A.86.86,0,0,1,142,650.31Z"/>
        <path class="cls-8" d="M141.9,650.15a3.48,3.48,0,0,1,.71.24l-.09-.17a3.47,3.47,0,0,0-.77-.23Z"/>
        <path class="cls-8" d="M148.89,644.51c.07.1.15.2.22.31a6,6,0,0,1,1.32,1.62c-.06-.18-.13-.36-.2-.53A6.15,6.15,0,0,0,148.89,644.51Z"/>
        <path class="cls-8" d="M143.43,659.94h.49c0-.34,0-.67,0-1a35.45,35.45,0,0,0-.5-7.74,2.34,2.34,0,0,0-.74-.62c.62,1.43.74,3.94.76,8.36C143.44,659.28,143.43,659.6,143.43,659.94Z"/>
        <path class="cls-8" d="M127.28,641.92l11.41,0c4,0,6.54.42,8.24,1.47a8.21,8.21,0,0,1,1.73.86c-1.77-2.12-4.8-2.84-10-2.82l-11.9,0,.06,18.43h.49Z"/>
        <path class="cls-8" d="M134.49,648.74l3.69,0c2.32,0,3.61.21,4.34,1.5a2.71,2.71,0,0,1,.74.43,5.87,5.87,0,0,0-.25-.56c-.89-1.73-2.62-1.87-4.83-1.85H134l0,11.64h.49Z"/>
        <path class="cls-8" d="M148.68,645.05c1.6,2.42,1.92,6.61,1.95,13.49,0,.5,0,1,0,1.43h.49c0-.46,0-.93,0-1.43,0-6.86-.32-11.15-2-13.72a6.59,6.59,0,0,0-1.44-.93A5.62,5.62,0,0,1,148.68,645.05Z"/>
        <path class="cls-8" d="M142.61,650.39a.87.87,0,0,1,.07.17,2.34,2.34,0,0,1,.74.62l-.07-.25A2.21,2.21,0,0,0,142.61,650.39Z"/>
        <path class="cls-8" d="M142.52,650.22l.09.17a2.21,2.21,0,0,1,.74.54l-.09-.28A2.71,2.71,0,0,0,142.52,650.22Z"/>
        <path class="cls-7" d="M172.32,658.57c0-11.24,4.23-16.72,13-16.75h.07a14.4,14.4,0,0,1,4.8.74,12.16,12.16,0,0,0-6-1.36h-.06c-8.52,0-12.48,5.15-12.44,16.14v2.72h.6Z"/>
        <path class="cls-7" d="M188.19,650.57s-.06-.06-.08-.1a12.23,12.23,0,0,1,.49,3.58v3.87h.6v-2.64A8.94,8.94,0,0,0,188.19,650.57Z"/>
        <path class="cls-7" d="M185.36,642.06c-8.65,0-12.84,5.43-12.8,16.51v1.5l5.86,0v-1.74c0-7.66.75-11.32,5.21-11.33h0a4.23,4.23,0,0,1,4.24,2.78,3.51,3.51,0,0,1,.51.63,9.32,9.32,0,0,1,1,4.84v2.64l5.39,0,0-5.79c0-4-1.18-7-3.41-8.77a12.94,12.94,0,0,0-6-1.28Z"/>
        <path class="cls-7" d="M185.36,641.82c-8.81,0-13.08,5.51-13,16.75v1.5h.13v-1.5c0-8.82,2.48-16.6,12.92-16.63a13.56,13.56,0,0,1,5.51,1,6.82,6.82,0,0,0-.64-.39,14.4,14.4,0,0,0-4.8-.74Z"/>
        <path class="cls-7" d="M188,650.08c.05.13.09.26.13.39s.06.06.08.1a8.94,8.94,0,0,1,1,4.71v2.64h.13v-2.64C189.32,653,188.92,651.21,188,650.08Z"/>
        <path class="cls-7" d="M188.4,650.44a3.51,3.51,0,0,0-.51-.63,2.14,2.14,0,0,1,.09.27c.94,1.13,1.34,2.93,1.35,5.2v2.64h.12v-2.64A9.32,9.32,0,0,0,188.4,650.44Z"/>
        <path class="cls-7" d="M172.44,658.57v1.5h.12v-1.5c0-11.08,4.15-16.48,12.8-16.51h.07a12.94,12.94,0,0,1,6,1.28c-.18-.14-.36-.26-.55-.39a13.56,13.56,0,0,0-5.51-1C174.92,642,172.41,649.75,172.44,658.57Z"/>
        <path class="cls-8" d="M188.12,658.41v-4.36a9.78,9.78,0,0,0-.86-4.46,3.61,3.61,0,0,0-.87-.46c.72.86,1.23,2.35,1.24,4.92l0,4.85h1.58v-.49Z"/>
        <path class="cls-8" d="M171.22,657.34c0-8.82,2.48-16.6,12.92-16.63,3.84,0,6.65,1.09,8.49,3.1a8.58,8.58,0,0,1,1.25,1.08,6.09,6.09,0,0,1,.46.55c-1.81-3.4-5.25-5.22-10.13-5.22h-.07c-9.06,0-13.44,5.63-13.4,17.12v2.72h.48Z"/>
        <path class="cls-8" d="M195.34,658.39l-5.88,0v.49l6.37,0,0-6.77a15.53,15.53,0,0,0-.88-5.35,8.72,8.72,0,0,0-1.23-1.69c-.11-.12-.23-.22-.35-.34a12.88,12.88,0,0,1,2,7.38Z"/>
        <path class="cls-8" d="M183.63,647.52c-4,0-4.75,3.24-4.72,10.84v1.74h.49v-1.74c0-8,.92-10.34,4.23-10.36h0a3.48,3.48,0,0,1,2.34.75,3.74,3.74,0,0,1,.94.33A3.76,3.76,0,0,0,183.63,647.52Z"/>
        <path class="cls-8" d="M187.1,649.32a3.52,3.52,0,0,0-.91-.39l.19.2a3.61,3.61,0,0,1,.87.46C187.2,649.5,187.15,649.4,187.1,649.32Z"/>
        <rect class="cls-8" x="189.22" y="658.41" width="0.12" height="0.49" transform="translate(-1.32 0.38) rotate(-0.12)"/>
        <path class="cls-8" d="M186.94,649.08a3.74,3.74,0,0,0-.94-.33,1.57,1.57,0,0,1,.19.18,3.52,3.52,0,0,1,.91.39C187.05,649.23,187,649.16,186.94,649.08Z"/>
        <path class="cls-8" d="M193.7,645.06a8.72,8.72,0,0,1,1.23,1.69c-.08-.22-.16-.43-.25-.63A8.32,8.32,0,0,0,193,644.2a6.54,6.54,0,0,1,.4.52C193.47,644.84,193.59,644.94,193.7,645.06Z"/>
        <rect class="cls-8" x="189.34" y="658.41" width="0.12" height="0.49" transform="translate(-2.62 0.76) rotate(-0.23)"/>
        <path class="cls-8" d="M171.71,657.34c0-11,3.92-16.11,12.44-16.14h.06a12.16,12.16,0,0,1,6,1.36,9.27,9.27,0,0,1,2.4,1.25c-1.84-2-4.65-3.12-8.49-3.1-10.44,0-12.95,7.81-12.92,16.63v2.72h.49Z"/>
        <path class="cls-8" d="M188.61,657.92v-3.87a12.23,12.23,0,0,0-.49-3.58,3.6,3.6,0,0,0-.86-.88,9.78,9.78,0,0,1,.86,4.46v4.36h1.1v-.49Z"/>
        <path class="cls-8" d="M187.89,649.81a4.23,4.23,0,0,0-4.24-2.78h0c-4.46,0-5.24,3.67-5.21,11.33v1.74h.48v-1.74c0-7.6.73-10.83,4.72-10.84a3.76,3.76,0,0,1,3.31,1.56A3.35,3.35,0,0,1,187.89,649.81Z"/>
        <path class="cls-8" d="M194.83,652.11l0,5.79-5.39,0v.49l5.88,0,0-6.29a12.88,12.88,0,0,0-2-7.38,8.67,8.67,0,0,0-1.93-1.38C193.65,645.16,194.82,648.1,194.83,652.11Z"/>
        <rect class="cls-8" x="189.21" y="657.92" width="0.12" height="0.49" transform="translate(-2.3 0.67) rotate(-0.2)"/>
        <path class="cls-8" d="M188.11,650.47c0-.13-.08-.26-.13-.39a3.35,3.35,0,0,0-.88-.76c.05.08.1.18.15.27A3.6,3.6,0,0,1,188.11,650.47Z"/>
        <rect class="cls-8" x="189.34" y="657.92" width="0.12" height="0.49" transform="translate(-1.96 0.57) rotate(-0.17)"/>
        <path class="cls-8" d="M188,650.08a2.14,2.14,0,0,0-.09-.27,3.35,3.35,0,0,0-.95-.73c.05.08.11.15.16.24A3.35,3.35,0,0,1,188,650.08Z"/>
        <polygon class="cls-7" points="215.5 642.23 215.62 642.23 221.59 642.21 221.59 641.59 214.89 641.61 214.96 660.26 215.56 660.26 215.5 642.23"/>
        <polygon class="cls-7" points="233.4 642.17 233.52 642.17 239.49 642.15 239.49 641.53 232.78 641.55 232.85 660.34 233.46 660.35 233.4 642.17"/>
        <polygon class="cls-7" points="215.81 660.27 221.66 660.29 221.6 642.46 215.75 642.48 215.81 660.27"/>
        <polygon class="cls-7" points="233.7 660.35 239.55 660.38 239.49 642.39 233.64 642.42 233.7 660.35"/>
        <polygon class="cls-7" points="215.5 642.23 215.56 660.26 215.69 660.27 215.62 642.36 221.6 642.34 221.59 642.21 215.62 642.23 215.5 642.23"/>
        <polygon class="cls-7" points="233.4 642.17 233.46 660.35 233.58 660.35 233.52 642.29 239.49 642.27 239.49 642.15 233.52 642.17 233.4 642.17"/>
        <polygon class="cls-7" points="215.69 660.27 215.81 660.27 215.75 642.48 221.6 642.46 221.6 642.34 215.62 642.36 215.69 660.27"/>
        <polygon class="cls-7" points="233.58 660.35 233.7 660.35 233.64 642.42 239.49 642.39 239.49 642.27 233.52 642.29 233.58 660.35"/>
        <polygon class="cls-8" points="232.29 641.06 239.97 641.04 239.98 642.15 240.47 642.15 240.46 640.55 231.8 640.58 231.87 660.34 232.36 660.34 232.29 641.06"/>
        <polygon class="cls-8" points="214.4 641.13 222.08 641.1 222.08 642.21 222.57 642.21 222.57 640.61 213.91 640.64 213.98 660.26 214.47 660.26 214.4 641.13"/>
        <rect class="cls-8" x="222.12" y="642.45" width="0.49" height="17.84" transform="translate(-2.28 0.78) rotate(-0.2)"/>
        <rect class="cls-8" x="231.26" y="651.14" width="17.99" height="0.49" transform="translate(-412.27 888.54) rotate(-89.73)"/>
        <rect class="cls-8" x="231.93" y="676.69" width="0.49" height="0.12" transform="translate(-2.37 0.82) rotate(-0.2)"/>
        <rect class="cls-8" x="231.93" y="676.57" width="0.49" height="0.12" transform="translate(-2.71 0.94) rotate(-0.23)"/>
        <polygon class="cls-8" points="214.89 641.61 221.59 641.59 221.59 642.21 222.08 642.21 222.08 641.1 214.4 641.13 214.47 660.26 214.96 660.26 214.89 641.61"/>
        <polygon class="cls-8" points="232.78 641.55 239.49 641.53 239.49 642.15 239.98 642.15 239.97 641.04 232.29 641.06 232.36 660.34 232.85 660.34 232.78 641.55"/>
        <rect class="cls-8" x="221.63" y="642.46" width="0.49" height="17.84" transform="translate(-2.27 0.78) rotate(-0.2)"/>
        <rect class="cls-8" x="239.52" y="642.39" width="0.49" height="17.98" transform="translate(-2.28 0.84) rotate(-0.2)"/>
        <rect class="cls-8" x="232.42" y="676.69" width="0.49" height="0.12" transform="translate(-2.37 0.82) rotate(-0.2)"/>
        <rect class="cls-8" x="232.42" y="676.57" width="0.49" height="0.12" transform="translate(-2.37 0.82) rotate(-0.2)"/>
        <path class="cls-5" d="M5.49,648.63A3.38,3.38,0,0,0,2.41,650c-.69,1-1,2.67-1,5A13.21,13.21,0,0,0,2,659.29H2.2a17.14,17.14,0,0,1-.23-3c0-2.47.36-4.23,1.13-5.36a4,4,0,0,1,3.58-1.68h0a4.83,4.83,0,0,1,1.18.14,3.48,3.48,0,0,0-2.37-.76Z"/>
        <path class="cls-7" d="M16.54,652.82c0-4.84-1.15-6.65-2.13-7.69a8.49,8.49,0,0,0-.95-.85A12.85,12.85,0,0,0,7,642.68H7A14.47,14.47,0,0,0,.49,644v9.26a7.87,7.87,0,0,1,1.12-3.77,4.34,4.34,0,0,1,3.88-1.84,4.32,4.32,0,0,1,3.67,1.69,5.06,5.06,0,0,1,.58,1.11c.1.11.22.2.32.33A7.32,7.32,0,0,1,11.12,655v3.25l5.43,0Z"/>
        <path class="cls-7" d="M.49,659.28H.94a11.8,11.8,0,0,1-.45-2.53Z"/>
        <path class="cls-8" d="M5.49,648.14c-3.15,0-4.6,2-4.58,6.91a13.69,13.69,0,0,0,.55,4.24H2a13.21,13.21,0,0,1-.58-4.24c0-2.34.33-4,1-5a3.38,3.38,0,0,1,3.08-1.41h0a3.48,3.48,0,0,1,2.37.76,3.81,3.81,0,0,1,1,.36A3.73,3.73,0,0,0,5.49,648.14Z"/>
        <path class="cls-8" d="M.49,656.75v-3.49c0,.55-.07,1.15-.07,1.79S.44,656.2.49,656.75Z"/>
        <path class="cls-8" d="M5.49,647.65a4.34,4.34,0,0,0-3.88,1.84,7.87,7.87,0,0,0-1.12,3.77v3.49a11.8,11.8,0,0,0,.45,2.53h.52a13.69,13.69,0,0,1-.55-4.24c0-4.89,1.43-6.9,4.58-6.91a3.73,3.73,0,0,1,3.35,1.61,3.36,3.36,0,0,1,.9.7,5.06,5.06,0,0,0-.58-1.11A4.32,4.32,0,0,0,5.49,647.65Z"/>
      </g>
    </g>
  </g>
</svg>
