<?xml version="1.0" encoding="utf-8"?>
<!-- Generator: Adobe Illustrator 24.0.1, SVG Export Plug-In . SVG Version: 6.00 Build 0)  -->
<svg version="1.1" id="Layer_1" xmlns="http://www.w3.org/2000/svg" xmlns:xlink="http://www.w3.org/1999/xlink" x="0px" y="0px"
	 viewBox="0 0 216 72" style="enable-background:new 0 0 216 72;" xml:space="preserve">
<style type="text/css">
	.st0{fill:#007853;}
	.st1{fill:#231F20;}
	.st2{display:none;fill:#231F20;}
	.st3{display:none;}
	.st4{display:inline;fill:#D33222;}
</style>
<title>dc-logo-full-colour-2018</title>
<g>
	<g>
		<path class="st0" d="M0,34.8c0,0,0,2.4,0,3.5C0,55.5,12,69.9,27.9,72V34.8H0z M21.5,63.4l-0.5-0.2C10.6,58.1,6,46.7,6.4,41.6h15.1
			V63.4z"/>
		<path class="st0" d="M0,0v27.9h27.9V0H0z M21.5,21.5H6.4V6.4h15.1V21.5z"/>
		<path class="st0" d="M34.8,34.8V72c15.9-2.1,27.8-16.5,27.8-33.7c0-1.1,0-3.5,0-3.5H34.8z M41.2,41.6h15.1
			c0.4,5.1-4.2,16.5-14.7,21.6l-0.5,0.2V41.6z"/>
		<path class="st0" d="M34.8,0v27.9h27.9V0H34.8z M41.2,6.4h15.1v15.1H41.2V6.4z"/>
	</g>
	<g>
		<path class="st1" d="M90.6,2.9C88.2,0,84.6,0,81.8,0h-6.6v22.1h6.4c3.2,0,5.9,0,8.1-1.8c0.9-0.7,3.7-3.4,3.7-9
			C93.5,8.3,92.5,5.3,90.6,2.9z M89.4,11.4c0,3-0.9,5.1-2.6,6.4c-1.4,1-3.5,1.1-5.3,1.1H79V3.3h3.1c2.4,0,4,0.3,5.4,1.7
			C89.2,6.9,89.4,10.1,89.4,11.4L89.4,11.4z"/>
		<path class="st1" d="M112.2,0v13.5c0,1.5,0,5.6-5.3,5.6c-1.7,0.1-3.4-0.6-4.5-1.9c-0.7-1.1-1-2.3-0.9-3.6V0h-3.8v13.4
			c0,3.4,0.7,4.7,1.3,5.6c2.2,3.2,6.2,3.6,7.9,3.6c4.6,0.3,8.7-3.1,9-7.8c0-0.4,0-0.8,0-1.2V0H112.2z"/>
		<path class="st1" d="M138.6,21.5c-0.7-2.1-1.1-4.3-1.3-6.5v0c-0.2-2.2-0.9-3.4-2.4-4c0.6-0.3,1.1-0.6,1.6-1.1
			c1.1-1.1,1.6-2.5,1.6-4.1c0-1.9-0.9-3.7-2.5-4.7c-1.6-0.8-3.3-1.2-5.1-1.1h-8v22.1h3.7v-9.6h3.3c3.4,0,3.9,0.7,4.2,3.6l0.1,0.5
			c0.2,1.8,0.5,3.5,0.9,5.2l0.1,0.3h4L138.6,21.5z M126.1,3.3h4.2c1.9,0,3.8,0.4,3.8,3c0.1,1-0.4,1.9-1.2,2.4
			c-0.8,0.3-1.7,0.5-2.6,0.4h-4.2L126.1,3.3z"/>
		<path class="st1" d="M158.1,0v9.1h-9.3V0H145v22.1h3.8v-9.6h9.3v9.6h3.8V0H158.1z"/>
		<path class="st1" d="M179.2,0h-3.7l-9.3,22.1h3.9l2.3-5.5h9.3l2.3,5.5h4.1L179.2,0z M180.6,13.4h-6.8l3.5-8.9L180.6,13.4z"/>
		<path class="st1" d="M210.2,0l-5.9,16.7c-0.7-2-5.7-16.7-5.7-16.7h-5.9v22.1h3.7v-17l6,17h3.4c0,0,5-13.8,6.3-17.2v17.2h3.7V0
			H210.2z"/>
		<path class="st2" d="M78,71.9c-2.4,0-2.9-1.4-2.8-3.1h2c0,0.9,0,1.7,1.1,1.7c0.6,0,1-0.4,1-1c0,0,0,0,0-0.1c0-1.7-4-1.8-4-4.6
			c0-1.5,0.7-2.6,3.1-2.6c1.9,0,2.9,0.9,2.7,2.8h-1.9c0-0.7-0.1-1.4-0.9-1.4c-0.5,0-1,0.3-1,0.8c0,0.1,0,0.1,0,0.2
			c0,1.8,4,1.6,4,4.6C81.4,71.6,79.6,71.9,78,71.9z"/>
		<path class="st2" d="M91.7,62.3V69c0,1.4-0.8,2.9-3.2,2.9c-2.2,0-3.2-1.1-3.2-2.9v-6.7h2v6.6c0,1.2,0.5,1.6,1.2,1.6
			c0.9,0,1.3-0.6,1.3-1.6v-6.6L91.7,62.3z"/>
		<path class="st2" d="M95.8,67.1c0-2.5,0-4.9,3.2-4.9c2,0,2.8,1.1,2.8,3.1h-1.9c0-1.2-0.2-1.7-0.8-1.7c-1.1,0-1.2,1-1.2,3.5
			s0.1,3.5,1.2,3.5c0.9,0,0.9-1.2,0.9-1.9h2c0,2.5-1,3.3-2.9,3.3C95.8,71.9,95.8,69.5,95.8,67.1z"/>
		<path class="st2" d="M105.6,67.1c0-2.5,0-4.9,3.2-4.9c2,0,2.8,1.1,2.8,3.1h-1.9c0-1.2-0.2-1.7-0.8-1.7c-1.1,0-1.2,1-1.2,3.5
			s0.1,3.5,1.2,3.5c0.9,0,0.9-1.2,0.9-1.9h2c0,2.5-1,3.3-2.9,3.3C105.6,71.9,105.6,69.5,105.6,67.1z"/>
		<path class="st2" d="M115.5,71.8v-9.4h5.1v1.5h-3.2v2.3h2.9v1.5h-2.9v2.8h3.3v1.5L115.5,71.8z"/>
		<path class="st2" d="M127.1,71.9c-2.5,0-2.9-1.4-2.8-3.1h2c0,0.9,0,1.7,1.1,1.7c0.5,0,1-0.4,1-0.9c0-0.1,0-0.1,0-0.2
			c0-1.7-4-1.8-4-4.6c0-1.5,0.7-2.6,3.1-2.6c1.9,0,2.9,0.9,2.7,2.8h-1.9c0-0.7-0.1-1.4-0.9-1.4c-0.5-0.1-0.9,0.3-1,0.8
			c0,0.1,0,0.1,0,0.2c0,1.8,4,1.6,4,4.6C130.4,71.6,128.6,71.9,127.1,71.9z"/>
		<path class="st2" d="M136.9,71.9c-2.4,0-2.9-1.4-2.8-3.1h2c0,0.9,0,1.7,1.1,1.7c0.6,0,1-0.4,1-1c0,0,0,0,0-0.1c0-1.7-4-1.8-4-4.6
			c0-1.5,0.7-2.6,3.1-2.6c1.9,0,2.9,0.9,2.8,2.8h-1.9c0-0.7-0.1-1.4-0.9-1.4c-0.5,0-1,0.3-1,0.8c0,0.1,0,0.1,0,0.2
			c0,1.8,4,1.6,4,4.6C140.2,71.6,138.4,71.9,136.9,71.9z"/>
		<path class="st2" d="M149.6,71.8v-9.4h3.2l1.5,6.4l0,0l1.6-6.4h3.1v9.4H157v-7.3l0,0l-1.8,7.3h-1.9l-1.7-7.3l0,0v7.3H149.6z"/>
		<path class="st2" d="M162.3,71.8l2.6-9.4h2.6l2.6,9.4H168l-0.5-2.1h-2.7l-0.5,2.1H162.3z M166.1,64.2L166.1,64.2l-0.9,4.1h1.9
			L166.1,64.2z"/>
		<path class="st2" d="M178.4,62.3v1.6h-2.2v7.9h-2v-7.9H172v-1.6H178.4z"/>
		<path class="st2" d="M187.5,62.3v1.6h-2.2v7.9h-2v-7.9h-2.2v-1.6H187.5z"/>
		<path class="st2" d="M191,71.8v-9.4h5.1v1.5H193v2.3h2.9v1.5H193v2.8h3.3v1.5L191,71.8z"/>
		<path class="st2" d="M202,71.8h-2v-9.4h3.6c1.4,0,2.2,0.9,2.2,2.5c0.2,1.1-0.6,2.1-1.7,2.3c0,0-0.1,0-0.1,0l0,0
			c0.9,0,1.7,0.7,1.7,1.6c0,0.1,0,0.1,0,0.2c0,0.9,0,1.9,0.2,2.8h-1.9c-0.2-0.6-0.3-1.2-0.2-1.8c0-1.1,0.1-2.1-1.4-2.1H202V71.8z
			 M202,66.4h0.9c0.8,0,1-0.8,1-1.4c0-0.9-0.4-1.2-1-1.2H202V66.4z"/>
		<path class="st2" d="M212.4,71.9c-2.5,0-2.9-1.4-2.8-3.1h2c0,0.9,0,1.7,1.1,1.7c0.5,0,1-0.4,1-0.9c0-0.1,0-0.1,0-0.2
			c0-1.7-4-1.8-4-4.6c0-1.5,0.7-2.6,3.1-2.6c1.9,0,2.9,0.9,2.7,2.8h-1.9c0-0.7-0.1-1.4-0.9-1.4c-0.5-0.1-0.9,0.3-1,0.8
			c0,0.1,0,0.1,0,0.2c0,1.8,4,1.6,4,4.6C215.7,71.6,213.9,71.9,212.4,71.9z"/>
		<rect x="75.1" y="55.3" class="st1" width="140.6" height="1"/>
		<path class="st0" d="M88.8,42.5c-0.1,0.7-0.4,1.4-0.9,2c-0.8,0.8-2,1.2-3.1,1.1c-3.7,0-5.6-2.7-5.6-7.9c0-3.1,0.7-8.4,5.6-8.4
			c3.7,0,4,2.5,4.2,3.3L89,33h4v-0.4c-0.4-4.7-4.4-6.4-8-6.4c-7.2,0-9.7,6-9.7,11.6c0,2.6,0.7,11.1,9.3,11.1c3.5,0,7.9-1.6,8.4-6.3
			l0-0.5h-4.2L88.8,42.5z"/>
		<path class="st0" d="M106.2,25.9c-2.8-0.1-5.5,1-7.4,3c-1.9,2-2.9,5-2.9,8.8c0,7.4,3.6,11.4,10,11.4s10.3-4.3,10.3-11.8
			C116.2,30.1,112.6,25.9,106.2,25.9z M110.5,43.9c-1.1,1.2-2.7,1.9-4.4,1.8c-1.7,0.1-3.3-0.5-4.4-1.8c-1.2-1.5-1.8-3.6-1.8-6.5
			c0-5.5,2.1-8.3,6.4-8.3c4.1,0,6,2.6,6,8.1C112.3,39,112,42,110.5,43.9L110.5,43.9z"/>
		<path class="st0" d="M123.9,45.1V26.5h-3.7v22.1h13.6v-3.5H123.9z"/>
		<path class="st0" d="M142.1,45.1V26.5h-3.7v22.1H152v-3.5H142.1z"/>
		<path class="st0" d="M161,45.2v-6.2h9.9v-3.3H161v-5.8h10.4v-3.3h-14.2v22.1h14.4v-3.4H161z"/>
		<path class="st0" d="M186.3,36.5v3.3h4.9v5.6c-1.4,0.4-2.8,0.6-4.2,0.6c-2.4,0-4.2-0.7-5.3-2c-1.4-1.6-1.9-4.4-1.9-6.4
			c-0.1-2.4,0.7-4.7,2.2-6.6c1.2-1.2,2.8-1.8,4.5-1.7c2.5,0,4.1,1.1,4.4,3l0.1,0.4h4v-0.4c0-1.4-0.6-2.7-1.5-3.6
			c-1.8-1.7-4.1-2.5-6.6-2.4c-2.2-0.1-4.3,0.5-6.2,1.6c-4.4,3-4.8,8.5-4.8,10.2c-0.1,3.1,1,6.1,3.1,8.4c1.8,1.9,4.4,2.8,8,2.8
			c2.6,0,5.2-0.5,7.7-1.3l0.3-0.1V36.5L186.3,36.5z"/>
		<path class="st0" d="M205.4,45.2v-6.2h9.9v-3.3h-9.9v-5.8h10.4v-3.3h-14.2v22.1H216v-3.4H205.4z"/>
	</g>
</g>
<g id="orangeText" class="st3">
	<path class="st4" d="M81.9,72h-1.5c-0.3,0-0.5-0.1-0.6-0.4l-1.9-3.1c-0.1-0.1-0.1-0.2-0.2-0.2c-0.1,0-0.2-0.1-0.4-0.1h-0.7V72h-1.7
		v-9.5h2.8c0.6,0,1.1,0.1,1.6,0.2c0.4,0.1,0.8,0.3,1.1,0.6c0.3,0.2,0.5,0.5,0.6,0.9c0.1,0.3,0.2,0.7,0.2,1.1c0,0.3,0,0.6-0.1,0.9
		c-0.1,0.3-0.2,0.5-0.4,0.8c-0.2,0.2-0.4,0.4-0.6,0.6c-0.2,0.2-0.5,0.3-0.8,0.4c0.1,0.1,0.2,0.1,0.3,0.2c0.1,0.1,0.2,0.2,0.2,0.3
		L81.9,72z M77.6,67c0.3,0,0.6,0,0.8-0.1c0.2-0.1,0.4-0.2,0.6-0.3c0.2-0.1,0.3-0.3,0.3-0.5c0.1-0.2,0.1-0.4,0.1-0.7
		c0-0.5-0.2-0.9-0.5-1.1s-0.8-0.4-1.4-0.4h-1.1V67H77.6z"/>
	<path class="st4" d="M85.8,63.9v2.6H89v1.4h-3.2v2.7h4V72h-5.7v-9.5h5.7v1.4H85.8z"/>
	<path class="st4" d="M97.3,64.2c0,0.1-0.1,0.2-0.2,0.2c-0.1,0-0.1,0.1-0.2,0.1c-0.1,0-0.2,0-0.3-0.1c-0.1-0.1-0.2-0.1-0.4-0.2
		C96.1,64,96,64,95.8,63.9s-0.4-0.1-0.7-0.1c-0.2,0-0.4,0-0.6,0.1c-0.2,0.1-0.3,0.1-0.4,0.2c-0.1,0.1-0.2,0.2-0.3,0.4
		c-0.1,0.1-0.1,0.3-0.1,0.5c0,0.2,0.1,0.4,0.2,0.6c0.1,0.1,0.3,0.3,0.5,0.4s0.4,0.2,0.7,0.3c0.2,0.1,0.5,0.2,0.8,0.3
		s0.5,0.2,0.8,0.3c0.2,0.1,0.5,0.3,0.7,0.5c0.2,0.2,0.4,0.4,0.5,0.7c0.1,0.3,0.2,0.6,0.2,1c0,0.4-0.1,0.8-0.2,1.2
		c-0.1,0.4-0.3,0.7-0.6,1s-0.6,0.5-1,0.7c-0.4,0.2-0.8,0.2-1.3,0.2c-0.3,0-0.6,0-0.8-0.1c-0.3-0.1-0.5-0.1-0.8-0.3
		c-0.3-0.1-0.5-0.2-0.7-0.4c-0.2-0.2-0.4-0.3-0.6-0.5l0.5-0.9c0-0.1,0.1-0.1,0.2-0.2c0.1,0,0.1-0.1,0.2-0.1c0.1,0,0.2,0,0.3,0.1
		c0.1,0.1,0.3,0.2,0.4,0.3c0.2,0.1,0.4,0.2,0.6,0.3c0.2,0.1,0.5,0.1,0.8,0.1c0.5,0,0.8-0.1,1.1-0.4s0.4-0.6,0.4-1
		c0-0.3-0.1-0.5-0.2-0.6c-0.1-0.2-0.3-0.3-0.5-0.4C95.4,68.1,95.2,68,95,68c-0.2-0.1-0.5-0.2-0.8-0.2s-0.5-0.2-0.8-0.3
		c-0.2-0.1-0.5-0.3-0.7-0.5c-0.2-0.2-0.4-0.4-0.5-0.7s-0.2-0.7-0.2-1.1c0-0.3,0.1-0.7,0.2-1s0.3-0.6,0.6-0.9
		c0.2-0.3,0.6-0.5,0.9-0.6c0.4-0.2,0.8-0.2,1.3-0.2c0.5,0,1,0.1,1.5,0.3c0.4,0.2,0.8,0.4,1.1,0.7L97.3,64.2z"/>
	<path class="st4" d="M102.2,63.9v2.6h3.2v1.4h-3.2v2.7h4V72h-5.7v-9.5h5.7v1.4H102.2z"/>
	<path class="st4" d="M116.6,72h-1.3c-0.1,0-0.3,0-0.4-0.1c-0.1-0.1-0.2-0.2-0.2-0.3l-0.7-1.9h-3.7l-0.7,1.9c0,0.1-0.1,0.2-0.2,0.3
		c-0.1,0.1-0.2,0.1-0.4,0.1h-1.3l3.5-9.5h1.7L116.6,72z M113.7,68.4l-1.1-3.2c-0.1-0.1-0.1-0.3-0.2-0.5c-0.1-0.2-0.1-0.4-0.2-0.6
		c-0.1,0.2-0.1,0.4-0.2,0.6c-0.1,0.2-0.1,0.4-0.2,0.5l-1.1,3.2H113.7z"/>
	<path class="st4" d="M125.8,72h-1.5c-0.3,0-0.5-0.1-0.6-0.4l-1.9-3.1c-0.1-0.1-0.1-0.2-0.2-0.2c-0.1,0-0.2-0.1-0.4-0.1h-0.7V72
		h-1.7v-9.5h2.8c0.6,0,1.1,0.1,1.6,0.2c0.4,0.1,0.8,0.3,1.1,0.6c0.3,0.2,0.5,0.5,0.6,0.9c0.1,0.3,0.2,0.7,0.2,1.1
		c0,0.3,0,0.6-0.1,0.9c-0.1,0.3-0.2,0.5-0.4,0.8c-0.2,0.2-0.4,0.4-0.6,0.6c-0.2,0.2-0.5,0.3-0.8,0.4c0.1,0.1,0.2,0.1,0.3,0.2
		c0.1,0.1,0.2,0.2,0.2,0.3L125.8,72z M121.5,67c0.3,0,0.6,0,0.8-0.1c0.2-0.1,0.4-0.2,0.6-0.3c0.2-0.1,0.3-0.3,0.3-0.5
		c0.1-0.2,0.1-0.4,0.1-0.7c0-0.5-0.2-0.9-0.5-1.1s-0.8-0.4-1.4-0.4h-1.1V67H121.5z"/>
	<path class="st4" d="M134.1,69.7c0.1,0,0.2,0,0.2,0.1l0.7,0.8c-0.4,0.5-0.8,0.8-1.4,1.1c-0.5,0.3-1.2,0.4-1.9,0.4
		c-0.7,0-1.3-0.1-1.8-0.4c-0.5-0.2-1-0.6-1.4-1c-0.4-0.4-0.7-0.9-0.9-1.5c-0.2-0.6-0.3-1.3-0.3-2c0-0.7,0.1-1.4,0.3-2
		c0.2-0.6,0.5-1.1,0.9-1.5c0.4-0.4,0.9-0.8,1.4-1c0.5-0.2,1.1-0.4,1.8-0.4c0.7,0,1.2,0.1,1.8,0.3c0.5,0.2,0.9,0.5,1.3,0.9l-0.6,0.8
		c0,0.1-0.1,0.1-0.1,0.1c-0.1,0-0.1,0.1-0.2,0.1c-0.1,0-0.1,0-0.2-0.1s-0.1-0.1-0.2-0.1s-0.2-0.1-0.3-0.2c-0.1-0.1-0.2-0.1-0.4-0.2
		c-0.1-0.1-0.3-0.1-0.5-0.1c-0.2,0-0.4-0.1-0.6-0.1c-0.4,0-0.8,0.1-1.1,0.2c-0.3,0.2-0.6,0.4-0.9,0.7s-0.4,0.6-0.6,1.1
		c-0.1,0.4-0.2,0.9-0.2,1.4c0,0.5,0.1,1,0.2,1.4s0.3,0.8,0.6,1.1s0.5,0.5,0.9,0.7s0.7,0.2,1.1,0.2c0.2,0,0.4,0,0.6,0
		s0.4-0.1,0.5-0.1c0.2-0.1,0.3-0.1,0.4-0.2c0.1-0.1,0.3-0.2,0.4-0.3c0,0,0.1-0.1,0.1-0.1C134,69.8,134,69.7,134.1,69.7z"/>
	<path class="st4" d="M144.9,62.5V72h-1.7v-4.2H139V72h-1.7v-9.5h1.7v4.1h4.2v-4.1H144.9z"/>
	<path class="st4" d="M160.4,67.2c0,0.7-0.1,1.3-0.3,1.9c-0.2,0.6-0.5,1.1-0.9,1.5c-0.4,0.4-0.9,0.8-1.4,1c-0.6,0.2-1.2,0.3-1.9,0.3
		h-3.4v-9.5h3.4c0.7,0,1.3,0.1,1.9,0.4c0.6,0.2,1,0.6,1.4,1c0.4,0.4,0.7,0.9,0.9,1.5C160.3,65.9,160.4,66.5,160.4,67.2z M158.7,67.2
		c0-0.5-0.1-1-0.2-1.4c-0.1-0.4-0.3-0.8-0.6-1.1c-0.2-0.3-0.5-0.5-0.9-0.7c-0.4-0.2-0.7-0.2-1.2-0.2H154v6.7h1.8
		c0.4,0,0.8-0.1,1.2-0.2s0.7-0.4,0.9-0.7c0.2-0.3,0.4-0.6,0.6-1.1C158.6,68.2,158.7,67.8,158.7,67.2z"/>
	<path class="st4" d="M170.5,72h-1.3c-0.1,0-0.3,0-0.4-0.1c-0.1-0.1-0.2-0.2-0.2-0.3l-0.7-1.9h-3.7l-0.7,1.9c0,0.1-0.1,0.2-0.2,0.3
		c-0.1,0.1-0.2,0.1-0.4,0.1h-1.3l3.5-9.5h1.7L170.5,72z M167.5,68.4l-1.1-3.2c-0.1-0.1-0.1-0.3-0.2-0.5c-0.1-0.2-0.1-0.4-0.2-0.6
		c-0.1,0.2-0.1,0.4-0.2,0.6c-0.1,0.2-0.1,0.4-0.2,0.5l-1.1,3.2H167.5z"/>
	<path class="st4" d="M175.6,68.3V72h-1.7v-3.7l-3.3-5.8h1.5c0.1,0,0.3,0,0.3,0.1c0.1,0.1,0.2,0.2,0.2,0.3l1.6,3.2
		c0.1,0.2,0.2,0.4,0.3,0.5c0.1,0.2,0.1,0.3,0.2,0.5c0.1-0.2,0.1-0.3,0.2-0.5c0.1-0.2,0.2-0.3,0.2-0.5l1.6-3.2c0-0.1,0.1-0.2,0.2-0.3
		c0.1-0.1,0.2-0.1,0.3-0.1h1.5L175.6,68.3z"/>
	<path class="st4" d="M189.8,70.5c0.2,0,0.3,0,0.4,0.1c0.1,0.1,0.1,0.2,0.1,0.4v1h-6.2v-0.5c0-0.1,0-0.2,0.1-0.3
		c0-0.1,0.1-0.2,0.2-0.3l2.7-2.9c0.2-0.2,0.4-0.5,0.6-0.7c0.2-0.2,0.3-0.4,0.5-0.7c0.1-0.2,0.2-0.4,0.3-0.7s0.1-0.5,0.1-0.7
		c0-0.2,0-0.4-0.1-0.6s-0.2-0.3-0.3-0.4c-0.1-0.1-0.3-0.2-0.4-0.3s-0.3-0.1-0.5-0.1c-0.2,0-0.4,0-0.5,0.1c-0.2,0.1-0.3,0.1-0.4,0.2
		c-0.1,0.1-0.2,0.2-0.3,0.3s-0.1,0.3-0.2,0.4c-0.1,0.2-0.2,0.3-0.3,0.4c-0.1,0.1-0.3,0.1-0.5,0l-0.8-0.2c0.1-0.5,0.2-0.9,0.4-1.2
		c0.2-0.3,0.4-0.6,0.7-0.9c0.3-0.2,0.6-0.4,0.9-0.5c0.3-0.1,0.7-0.2,1.1-0.2c0.4,0,0.8,0.1,1.1,0.2c0.3,0.1,0.6,0.3,0.9,0.6
		s0.4,0.5,0.6,0.9c0.1,0.3,0.2,0.7,0.2,1.1c0,0.4,0,0.7-0.1,1s-0.2,0.6-0.4,0.9c-0.2,0.3-0.4,0.5-0.6,0.8c-0.2,0.3-0.5,0.5-0.7,0.8
		l-2,2.2c0.2-0.1,0.4-0.1,0.6-0.1s0.4,0,0.6,0H189.8z"/>
	<path class="st4" d="M199.1,67.2c0,0.8-0.1,1.6-0.3,2.2c-0.2,0.6-0.4,1.1-0.7,1.5c-0.3,0.4-0.6,0.7-1.1,0.9
		c-0.4,0.2-0.8,0.3-1.3,0.3c-0.5,0-0.9-0.1-1.3-0.3c-0.4-0.2-0.8-0.5-1-0.9c-0.3-0.4-0.5-0.9-0.7-1.5c-0.2-0.6-0.2-1.3-0.2-2.2
		c0-0.8,0.1-1.6,0.2-2.2s0.4-1.1,0.7-1.5c0.3-0.4,0.6-0.7,1-0.9c0.4-0.2,0.8-0.3,1.3-0.3c0.5,0,0.9,0.1,1.3,0.3
		c0.4,0.2,0.8,0.5,1.1,0.9c0.3,0.4,0.5,0.9,0.7,1.5C199,65.7,199.1,66.4,199.1,67.2z M197.5,67.2c0-0.7,0-1.3-0.1-1.7
		c-0.1-0.5-0.2-0.8-0.4-1.1s-0.3-0.5-0.6-0.6c-0.2-0.1-0.4-0.2-0.6-0.2c-0.2,0-0.4,0.1-0.6,0.2c-0.2,0.1-0.4,0.3-0.5,0.6
		s-0.3,0.6-0.4,1.1c-0.1,0.5-0.1,1-0.1,1.7c0,0.7,0,1.3,0.1,1.7c0.1,0.5,0.2,0.8,0.4,1.1s0.3,0.5,0.5,0.6c0.2,0.1,0.4,0.2,0.6,0.2
		c0.2,0,0.4-0.1,0.6-0.2c0.2-0.1,0.4-0.3,0.6-0.6s0.3-0.6,0.4-1.1S197.5,67.9,197.5,67.2z"/>
	<path class="st4" d="M206.7,70.5c0.2,0,0.3,0,0.4,0.1c0.1,0.1,0.1,0.2,0.1,0.4v1H201v-0.5c0-0.1,0-0.2,0.1-0.3
		c0-0.1,0.1-0.2,0.2-0.3l2.7-2.9c0.2-0.2,0.4-0.5,0.6-0.7c0.2-0.2,0.3-0.4,0.5-0.7c0.1-0.2,0.2-0.4,0.3-0.7s0.1-0.5,0.1-0.7
		c0-0.2,0-0.4-0.1-0.6s-0.2-0.3-0.3-0.4c-0.1-0.1-0.3-0.2-0.4-0.3s-0.3-0.1-0.5-0.1c-0.2,0-0.4,0-0.5,0.1c-0.2,0.1-0.3,0.1-0.4,0.2
		c-0.1,0.1-0.2,0.2-0.3,0.3s-0.1,0.3-0.2,0.4c-0.1,0.2-0.2,0.3-0.3,0.4c-0.1,0.1-0.3,0.1-0.5,0l-0.8-0.2c0.1-0.5,0.2-0.9,0.4-1.2
		c0.2-0.3,0.4-0.6,0.7-0.9c0.3-0.2,0.6-0.4,0.9-0.5c0.3-0.1,0.7-0.2,1.1-0.2c0.4,0,0.8,0.1,1.1,0.2c0.3,0.1,0.6,0.3,0.9,0.6
		s0.4,0.5,0.6,0.9c0.1,0.3,0.2,0.7,0.2,1.1c0,0.4,0,0.7-0.1,1s-0.2,0.6-0.4,0.9c-0.2,0.3-0.4,0.5-0.6,0.8c-0.2,0.3-0.5,0.5-0.7,0.8
		l-2,2.2c0.2-0.1,0.4-0.1,0.6-0.1s0.4,0,0.6,0H206.7z"/>
	<path class="st4" d="M215.9,67.2c0,0.8-0.1,1.6-0.3,2.2c-0.2,0.6-0.4,1.1-0.7,1.5c-0.3,0.4-0.6,0.7-1.1,0.9
		c-0.4,0.2-0.8,0.3-1.3,0.3c-0.5,0-0.9-0.1-1.3-0.3c-0.4-0.2-0.8-0.5-1-0.9c-0.3-0.4-0.5-0.9-0.7-1.5c-0.2-0.6-0.2-1.3-0.2-2.2
		c0-0.8,0.1-1.6,0.2-2.2s0.4-1.1,0.7-1.5c0.3-0.4,0.6-0.7,1-0.9c0.4-0.2,0.8-0.3,1.3-0.3c0.5,0,0.9,0.1,1.3,0.3
		c0.4,0.2,0.8,0.5,1.1,0.9c0.3,0.4,0.5,0.9,0.7,1.5C215.9,65.7,215.9,66.4,215.9,67.2z M214.3,67.2c0-0.7,0-1.3-0.1-1.7
		c-0.1-0.5-0.2-0.8-0.4-1.1s-0.3-0.5-0.6-0.6c-0.2-0.1-0.4-0.2-0.6-0.2c-0.2,0-0.4,0.1-0.6,0.2c-0.2,0.1-0.4,0.3-0.5,0.6
		s-0.3,0.6-0.4,1.1c-0.1,0.5-0.1,1-0.1,1.7c0,0.7,0,1.3,0.1,1.7c0.1,0.5,0.2,0.8,0.4,1.1s0.3,0.5,0.5,0.6c0.2,0.1,0.4,0.2,0.6,0.2
		c0.2,0,0.4-0.1,0.6-0.2c0.2-0.1,0.4-0.3,0.6-0.6s0.3-0.6,0.4-1.1S214.3,67.9,214.3,67.2z"/>
</g>
<g id="blackText">
	<path d="M81.9,72h-1.5c-0.3,0-0.5-0.1-0.6-0.4l-1.9-3.1c-0.1-0.1-0.1-0.2-0.2-0.2c-0.1,0-0.2-0.1-0.4-0.1h-0.7V72h-1.7v-9.5h2.8
		c0.6,0,1.1,0.1,1.6,0.2c0.4,0.1,0.8,0.3,1.1,0.6c0.3,0.2,0.5,0.5,0.6,0.9c0.1,0.3,0.2,0.7,0.2,1.1c0,0.3,0,0.6-0.1,0.9
		c-0.1,0.3-0.2,0.5-0.4,0.8c-0.2,0.2-0.4,0.4-0.6,0.6c-0.2,0.2-0.5,0.3-0.8,0.4c0.1,0.1,0.2,0.1,0.3,0.2c0.1,0.1,0.2,0.2,0.2,0.3
		L81.9,72z M77.6,67c0.3,0,0.6,0,0.8-0.1c0.2-0.1,0.4-0.2,0.6-0.3c0.2-0.1,0.3-0.3,0.3-0.5c0.1-0.2,0.1-0.4,0.1-0.7
		c0-0.5-0.2-0.9-0.5-1.1s-0.8-0.4-1.4-0.4h-1.1V67H77.6z"/>
	<path d="M85.8,63.9v2.6H89v1.4h-3.2v2.7h4V72h-5.7v-9.5h5.7v1.4H85.8z"/>
	<path d="M97.3,64.2c0,0.1-0.1,0.2-0.2,0.2c-0.1,0-0.1,0.1-0.2,0.1c-0.1,0-0.2,0-0.3-0.1c-0.1-0.1-0.2-0.1-0.4-0.2
		C96.1,64,96,64,95.8,63.9s-0.4-0.1-0.7-0.1c-0.2,0-0.4,0-0.6,0.1c-0.2,0.1-0.3,0.1-0.4,0.2c-0.1,0.1-0.2,0.2-0.3,0.4
		c-0.1,0.1-0.1,0.3-0.1,0.5c0,0.2,0.1,0.4,0.2,0.6c0.1,0.1,0.3,0.3,0.5,0.4s0.4,0.2,0.7,0.3c0.2,0.1,0.5,0.2,0.8,0.3
		s0.5,0.2,0.8,0.3c0.2,0.1,0.5,0.3,0.7,0.5c0.2,0.2,0.4,0.4,0.5,0.7c0.1,0.3,0.2,0.6,0.2,1c0,0.4-0.1,0.8-0.2,1.2
		c-0.1,0.4-0.3,0.7-0.6,1s-0.6,0.5-1,0.7c-0.4,0.2-0.8,0.2-1.3,0.2c-0.3,0-0.6,0-0.8-0.1c-0.3-0.1-0.5-0.1-0.8-0.3
		c-0.3-0.1-0.5-0.2-0.7-0.4c-0.2-0.2-0.4-0.3-0.6-0.5l0.5-0.9c0-0.1,0.1-0.1,0.2-0.2c0.1,0,0.1-0.1,0.2-0.1c0.1,0,0.2,0,0.3,0.1
		c0.1,0.1,0.3,0.2,0.4,0.3c0.2,0.1,0.4,0.2,0.6,0.3c0.2,0.1,0.5,0.1,0.8,0.1c0.5,0,0.8-0.1,1.1-0.4s0.4-0.6,0.4-1
		c0-0.3-0.1-0.5-0.2-0.6c-0.1-0.2-0.3-0.3-0.5-0.4C95.4,68.1,95.2,68,95,68c-0.2-0.1-0.5-0.2-0.8-0.2s-0.5-0.2-0.8-0.3
		c-0.2-0.1-0.5-0.3-0.7-0.5c-0.2-0.2-0.4-0.4-0.5-0.7s-0.2-0.7-0.2-1.1c0-0.3,0.1-0.7,0.2-1s0.3-0.6,0.6-0.9
		c0.2-0.3,0.6-0.5,0.9-0.6c0.4-0.2,0.8-0.2,1.3-0.2c0.5,0,1,0.1,1.5,0.3c0.4,0.2,0.8,0.4,1.1,0.7L97.3,64.2z"/>
	<path d="M102.2,63.9v2.6h3.2v1.4h-3.2v2.7h4V72h-5.7v-9.5h5.7v1.4H102.2z"/>
	<path d="M116.6,72h-1.3c-0.1,0-0.3,0-0.4-0.1c-0.1-0.1-0.2-0.2-0.2-0.3l-0.7-1.9h-3.7l-0.7,1.9c0,0.1-0.1,0.2-0.2,0.3
		c-0.1,0.1-0.2,0.1-0.4,0.1h-1.3l3.5-9.5h1.7L116.6,72z M113.7,68.4l-1.1-3.2c-0.1-0.1-0.1-0.3-0.2-0.5c-0.1-0.2-0.1-0.4-0.2-0.6
		c-0.1,0.2-0.1,0.4-0.2,0.6c-0.1,0.2-0.1,0.4-0.2,0.5l-1.1,3.2H113.7z"/>
	<path d="M125.8,72h-1.5c-0.3,0-0.5-0.1-0.6-0.4l-1.9-3.1c-0.1-0.1-0.1-0.2-0.2-0.2c-0.1,0-0.2-0.1-0.4-0.1h-0.7V72h-1.7v-9.5h2.8
		c0.6,0,1.1,0.1,1.6,0.2c0.4,0.1,0.8,0.3,1.1,0.6c0.3,0.2,0.5,0.5,0.6,0.9c0.1,0.3,0.2,0.7,0.2,1.1c0,0.3,0,0.6-0.1,0.9
		c-0.1,0.3-0.2,0.5-0.4,0.8c-0.2,0.2-0.4,0.4-0.6,0.6c-0.2,0.2-0.5,0.3-0.8,0.4c0.1,0.1,0.2,0.1,0.3,0.2c0.1,0.1,0.2,0.2,0.2,0.3
		L125.8,72z M121.5,67c0.3,0,0.6,0,0.8-0.1c0.2-0.1,0.4-0.2,0.6-0.3c0.2-0.1,0.3-0.3,0.3-0.5c0.1-0.2,0.1-0.4,0.1-0.7
		c0-0.5-0.2-0.9-0.5-1.1s-0.8-0.4-1.4-0.4h-1.1V67H121.5z"/>
	<path d="M134.1,69.7c0.1,0,0.2,0,0.2,0.1l0.7,0.8c-0.4,0.5-0.8,0.8-1.4,1.1c-0.5,0.3-1.2,0.4-1.9,0.4c-0.7,0-1.3-0.1-1.8-0.4
		c-0.5-0.2-1-0.6-1.4-1c-0.4-0.4-0.7-0.9-0.9-1.5c-0.2-0.6-0.3-1.3-0.3-2c0-0.7,0.1-1.4,0.3-2c0.2-0.6,0.5-1.1,0.9-1.5
		c0.4-0.4,0.9-0.8,1.4-1c0.5-0.2,1.1-0.4,1.8-0.4c0.7,0,1.2,0.1,1.8,0.3c0.5,0.2,0.9,0.5,1.3,0.9l-0.6,0.8c0,0.1-0.1,0.1-0.1,0.1
		c-0.1,0-0.1,0.1-0.2,0.1c-0.1,0-0.1,0-0.2-0.1s-0.1-0.1-0.2-0.1s-0.2-0.1-0.3-0.2c-0.1-0.1-0.2-0.1-0.4-0.2
		c-0.1-0.1-0.3-0.1-0.5-0.1c-0.2,0-0.4-0.1-0.6-0.1c-0.4,0-0.8,0.1-1.1,0.2c-0.3,0.2-0.6,0.4-0.9,0.7s-0.4,0.6-0.6,1.1
		c-0.1,0.4-0.2,0.9-0.2,1.4c0,0.5,0.1,1,0.2,1.4s0.3,0.8,0.6,1.1s0.5,0.5,0.9,0.7s0.7,0.2,1.1,0.2c0.2,0,0.4,0,0.6,0
		s0.4-0.1,0.5-0.1c0.2-0.1,0.3-0.1,0.4-0.2c0.1-0.1,0.3-0.2,0.4-0.3c0,0,0.1-0.1,0.1-0.1C134,69.8,134,69.7,134.1,69.7z"/>
	<path d="M144.9,62.5V72h-1.7v-4.2H139V72h-1.7v-9.5h1.7v4.1h4.2v-4.1H144.9z"/>
	<path d="M160.4,67.2c0,0.7-0.1,1.3-0.3,1.9c-0.2,0.6-0.5,1.1-0.9,1.5c-0.4,0.4-0.9,0.8-1.4,1c-0.6,0.2-1.2,0.3-1.9,0.3h-3.4v-9.5
		h3.4c0.7,0,1.3,0.1,1.9,0.4c0.6,0.2,1,0.6,1.4,1c0.4,0.4,0.7,0.9,0.9,1.5C160.3,65.9,160.4,66.5,160.4,67.2z M158.7,67.2
		c0-0.5-0.1-1-0.2-1.4c-0.1-0.4-0.3-0.8-0.6-1.1c-0.2-0.3-0.5-0.5-0.9-0.7c-0.4-0.2-0.7-0.2-1.2-0.2H154v6.7h1.8
		c0.4,0,0.8-0.1,1.2-0.2s0.7-0.4,0.9-0.7c0.2-0.3,0.4-0.6,0.6-1.1C158.6,68.2,158.7,67.8,158.7,67.2z"/>
	<path d="M170.5,72h-1.3c-0.1,0-0.3,0-0.4-0.1c-0.1-0.1-0.2-0.2-0.2-0.3l-0.7-1.9h-3.7l-0.7,1.9c0,0.1-0.1,0.2-0.2,0.3
		c-0.1,0.1-0.2,0.1-0.4,0.1h-1.3l3.5-9.5h1.7L170.5,72z M167.5,68.4l-1.1-3.2c-0.1-0.1-0.1-0.3-0.2-0.5c-0.1-0.2-0.1-0.4-0.2-0.6
		c-0.1,0.2-0.1,0.4-0.2,0.6c-0.1,0.2-0.1,0.4-0.2,0.5l-1.1,3.2H167.5z"/>
	<path d="M175.6,68.3V72h-1.7v-3.7l-3.3-5.8h1.5c0.1,0,0.3,0,0.3,0.1c0.1,0.1,0.2,0.2,0.2,0.3l1.6,3.2c0.1,0.2,0.2,0.4,0.3,0.5
		c0.1,0.2,0.1,0.3,0.2,0.5c0.1-0.2,0.1-0.3,0.2-0.5c0.1-0.2,0.2-0.3,0.2-0.5l1.6-3.2c0-0.1,0.1-0.2,0.2-0.3c0.1-0.1,0.2-0.1,0.3-0.1
		h1.5L175.6,68.3z"/>
	<path d="M189.8,70.5c0.2,0,0.3,0,0.4,0.1c0.1,0.1,0.1,0.2,0.1,0.4v1h-6.2v-0.5c0-0.1,0-0.2,0.1-0.3c0-0.1,0.1-0.2,0.2-0.3l2.7-2.9
		c0.2-0.2,0.4-0.5,0.6-0.7c0.2-0.2,0.3-0.4,0.5-0.7c0.1-0.2,0.2-0.4,0.3-0.7s0.1-0.5,0.1-0.7c0-0.2,0-0.4-0.1-0.6s-0.2-0.3-0.3-0.4
		c-0.1-0.1-0.3-0.2-0.4-0.3s-0.3-0.1-0.5-0.1c-0.2,0-0.4,0-0.5,0.1c-0.2,0.1-0.3,0.1-0.4,0.2c-0.1,0.1-0.2,0.2-0.3,0.3
		s-0.1,0.3-0.2,0.4c-0.1,0.2-0.2,0.3-0.3,0.4c-0.1,0.1-0.3,0.1-0.5,0l-0.8-0.2c0.1-0.5,0.2-0.9,0.4-1.2c0.2-0.3,0.4-0.6,0.7-0.9
		c0.3-0.2,0.6-0.4,0.9-0.5c0.3-0.1,0.7-0.2,1.1-0.2c0.4,0,0.8,0.1,1.1,0.2c0.3,0.1,0.6,0.3,0.9,0.6s0.4,0.5,0.6,0.9
		c0.1,0.3,0.2,0.7,0.2,1.1c0,0.4,0,0.7-0.1,1s-0.2,0.6-0.4,0.9c-0.2,0.3-0.4,0.5-0.6,0.8c-0.2,0.3-0.5,0.5-0.7,0.8l-2,2.2
		c0.2-0.1,0.4-0.1,0.6-0.1s0.4,0,0.6,0H189.8z"/>
	<path d="M199.1,67.2c0,0.8-0.1,1.6-0.3,2.2c-0.2,0.6-0.4,1.1-0.7,1.5c-0.3,0.4-0.6,0.7-1.1,0.9c-0.4,0.2-0.8,0.3-1.3,0.3
		c-0.5,0-0.9-0.1-1.3-0.3c-0.4-0.2-0.8-0.5-1-0.9c-0.3-0.4-0.5-0.9-0.7-1.5c-0.2-0.6-0.2-1.3-0.2-2.2c0-0.8,0.1-1.6,0.2-2.2
		s0.4-1.1,0.7-1.5c0.3-0.4,0.6-0.7,1-0.9c0.4-0.2,0.8-0.3,1.3-0.3c0.5,0,0.9,0.1,1.3,0.3c0.4,0.2,0.8,0.5,1.1,0.9
		c0.3,0.4,0.5,0.9,0.7,1.5C199,65.7,199.1,66.4,199.1,67.2z M197.5,67.2c0-0.7,0-1.3-0.1-1.7c-0.1-0.5-0.2-0.8-0.4-1.1
		s-0.3-0.5-0.6-0.6c-0.2-0.1-0.4-0.2-0.6-0.2c-0.2,0-0.4,0.1-0.6,0.2c-0.2,0.1-0.4,0.3-0.5,0.6s-0.3,0.6-0.4,1.1
		c-0.1,0.5-0.1,1-0.1,1.7c0,0.7,0,1.3,0.1,1.7c0.1,0.5,0.2,0.8,0.4,1.1s0.3,0.5,0.5,0.6c0.2,0.1,0.4,0.2,0.6,0.2
		c0.2,0,0.4-0.1,0.6-0.2c0.2-0.1,0.4-0.3,0.6-0.6s0.3-0.6,0.4-1.1S197.5,67.9,197.5,67.2z"/>
	<path d="M206.7,70.5c0.2,0,0.3,0,0.4,0.1c0.1,0.1,0.1,0.2,0.1,0.4v1H201v-0.5c0-0.1,0-0.2,0.1-0.3c0-0.1,0.1-0.2,0.2-0.3l2.7-2.9
		c0.2-0.2,0.4-0.5,0.6-0.7c0.2-0.2,0.3-0.4,0.5-0.7c0.1-0.2,0.2-0.4,0.3-0.7s0.1-0.5,0.1-0.7c0-0.2,0-0.4-0.1-0.6s-0.2-0.3-0.3-0.4
		c-0.1-0.1-0.3-0.2-0.4-0.3s-0.3-0.1-0.5-0.1c-0.2,0-0.4,0-0.5,0.1c-0.2,0.1-0.3,0.1-0.4,0.2c-0.1,0.1-0.2,0.2-0.3,0.3
		s-0.1,0.3-0.2,0.4c-0.1,0.2-0.2,0.3-0.3,0.4c-0.1,0.1-0.3,0.1-0.5,0l-0.8-0.2c0.1-0.5,0.2-0.9,0.4-1.2c0.2-0.3,0.4-0.6,0.7-0.9
		c0.3-0.2,0.6-0.4,0.9-0.5c0.3-0.1,0.7-0.2,1.1-0.2c0.4,0,0.8,0.1,1.1,0.2c0.3,0.1,0.6,0.3,0.9,0.6s0.4,0.5,0.6,0.9
		c0.1,0.3,0.2,0.7,0.2,1.1c0,0.4,0,0.7-0.1,1s-0.2,0.6-0.4,0.9c-0.2,0.3-0.4,0.5-0.6,0.8c-0.2,0.3-0.5,0.5-0.7,0.8l-2,2.2
		c0.2-0.1,0.4-0.1,0.6-0.1s0.4,0,0.6,0H206.7z"/>
	<path d="M215.9,67.2c0,0.8-0.1,1.6-0.3,2.2c-0.2,0.6-0.4,1.1-0.7,1.5c-0.3,0.4-0.6,0.7-1.1,0.9c-0.4,0.2-0.8,0.3-1.3,0.3
		c-0.5,0-0.9-0.1-1.3-0.3c-0.4-0.2-0.8-0.5-1-0.9c-0.3-0.4-0.5-0.9-0.7-1.5c-0.2-0.6-0.2-1.3-0.2-2.2c0-0.8,0.1-1.6,0.2-2.2
		s0.4-1.1,0.7-1.5c0.3-0.4,0.6-0.7,1-0.9c0.4-0.2,0.8-0.3,1.3-0.3c0.5,0,0.9,0.1,1.3,0.3c0.4,0.2,0.8,0.5,1.1,0.9
		c0.3,0.4,0.5,0.9,0.7,1.5C215.9,65.7,215.9,66.4,215.9,67.2z M214.3,67.2c0-0.7,0-1.3-0.1-1.7c-0.1-0.5-0.2-0.8-0.4-1.1
		s-0.3-0.5-0.6-0.6c-0.2-0.1-0.4-0.2-0.6-0.2c-0.2,0-0.4,0.1-0.6,0.2c-0.2,0.1-0.4,0.3-0.5,0.6s-0.3,0.6-0.4,1.1
		c-0.1,0.5-0.1,1-0.1,1.7c0,0.7,0,1.3,0.1,1.7c0.1,0.5,0.2,0.8,0.4,1.1s0.3,0.5,0.5,0.6c0.2,0.1,0.4,0.2,0.6,0.2
		c0.2,0,0.4-0.1,0.6-0.2c0.2-0.1,0.4-0.3,0.6-0.6s0.3-0.6,0.4-1.1S214.3,67.9,214.3,67.2z"/>
</g>
</svg>
