<svg id="Layer_1" data-name="Layer 1" xmlns="http://www.w3.org/2000/svg" viewBox="0 0 216 72">
  <defs>
    <style>
      .cls-1 {
        fill: #007853;
      }

      .cls-2 {
        fill: #231f20;
      }
    </style>
  </defs>
  <title>dc-logo-full-colour-2018</title>
  <g>
    <g>
      <path class="cls-1" d="M288,304.81s.05,2.37.05,3.51c0,17.13,11.95,31.55,27.85,33.68V304.81Zm21.51,28.56-.46-.22c-10.47-5.09-15.05-16.46-14.66-21.57h15.12Z" transform="translate(-288 -270)"/>
      <path class="cls-1" d="M288,270v27.89h27.89V270Zm21.51,21.48H294.39V276.41h15.12Z" transform="translate(-288 -270)"/>
      <path class="cls-1" d="M322.81,304.81V342c15.9-2.13,27.84-16.55,27.84-33.68,0-1.14.05-3.51.05-3.51Zm6.38,6.77h15.13c.39,5.11-4.19,16.48-14.67,21.57l-.46.22Z" transform="translate(-288 -270)"/>
      <path class="cls-1" d="M322.81,270v27.89h27.9V270Zm6.39,6.41h15.12v15.07H329.2Z" transform="translate(-288 -270)"/>
    </g>
    <g>
      <path class="cls-2" d="M378.65,272.92c-2.48-2.92-6-2.92-8.89-2.92h-6.58v22.1h6.4c3.17,0,5.9,0,8.1-1.83.86-.68,3.69-3.38,3.69-9A12.57,12.57,0,0,0,378.65,272.92Zm-1.26,8.43c0,2.95-.89,5.11-2.63,6.42-1.35,1-3.46,1.09-5.33,1.09H367V273.27h3.12c2.41,0,4.05.29,5.36,1.72C377.2,276.94,377.39,280.09,377.39,281.35Z" transform="translate(-288 -270)"/>
      <path class="cls-2" d="M400.22,270v13.47c0,1.54,0,5.63-5.33,5.63a5.31,5.31,0,0,1-4.53-1.93,5.58,5.58,0,0,1-.87-3.58V270h-3.77v13.38c0,3.4.68,4.67,1.31,5.6,2.25,3.22,6.24,3.57,7.86,3.57a8.4,8.4,0,0,0,9-9V270Z" transform="translate(-288 -270)"/>
      <path class="cls-2" d="M426.6,291.55a27,27,0,0,1-1.29-6.51V285c-.25-2.19-.93-3.36-2.44-4.05a5.11,5.11,0,0,0,1.58-1.09,5.7,5.7,0,0,0,1.62-4.06,5.42,5.42,0,0,0-2.55-4.69A9.85,9.85,0,0,0,418.4,270h-8v22.1h3.74v-9.6h3.3c3.39,0,3.92.73,4.25,3.61l.06.46a33.36,33.36,0,0,0,.93,5.25l.1.28h4ZM414.06,273.3h4.25c1.89,0,3.83.36,3.83,3a2.61,2.61,0,0,1-1.23,2.41,5.83,5.83,0,0,1-2.6.42h-4.25Z" transform="translate(-288 -270)"/>
      <path class="cls-2" d="M446.08,270v9.14h-9.27V270H433v22.1h3.78v-9.6h9.27v9.6h3.78V270Z" transform="translate(-288 -270)"/>
      <path class="cls-2" d="M467.24,270h-3.71l-9.31,22.1h3.93l2.31-5.54h9.31l2.31,5.54h4.1Zm1.33,13.35h-6.84l3.51-8.87Z" transform="translate(-288 -270)"/>
      <path class="cls-2" d="M498.22,270l-5.87,16.69c-.67-2-5.73-16.69-5.73-16.69H480.7v22.1h3.69v-17l6,17h3.39s5-13.77,6.27-17.22V292.1h3.72V270Z" transform="translate(-288 -270)"/>
      <path class="cls-2" d="M366.05,341.94c-2.44,0-2.9-1.44-2.79-3.08h2c0,.9,0,1.66,1.12,1.66a1,1,0,0,0,1-1.07c0-1.7-4-1.8-4-4.61,0-1.48.7-2.65,3.11-2.65,1.92,0,2.87.86,2.74,2.83h-1.92c0-.7-.12-1.42-.92-1.42a.92.92,0,0,0-1,1c0,1.8,4,1.64,4,4.6C369.35,341.64,367.56,341.94,366.05,341.94Z" transform="translate(-288 -270)"/>
      <path class="cls-2" d="M379.68,332.34V339c0,1.41-.8,2.9-3.2,2.9-2.17,0-3.21-1.13-3.21-2.9v-6.7h2v6.56c0,1.17.49,1.62,1.21,1.62.87,0,1.26-.57,1.26-1.62v-6.56Z" transform="translate(-288 -270)"/>
      <path class="cls-2" d="M383.75,337.06c0-2.5,0-4.87,3.25-4.87,2,0,2.82,1.1,2.75,3.13h-1.94c0-1.25-.22-1.72-.81-1.72-1.11,0-1.25,1-1.25,3.46s.14,3.46,1.25,3.46c.92,0,.88-1.17.9-1.92h2c0,2.52-1,3.34-2.85,3.34C383.75,341.94,383.75,339.53,383.75,337.06Z" transform="translate(-288 -270)"/>
      <path class="cls-2" d="M393.56,337.06c0-2.5,0-4.87,3.25-4.87,2,0,2.83,1.1,2.75,3.13h-1.94c0-1.25-.22-1.72-.81-1.72-1.11,0-1.25,1-1.25,3.46s.14,3.46,1.25,3.46c.91,0,.88-1.17.9-1.92h2c0,2.52-1,3.34-2.85,3.34C393.56,341.94,393.56,339.53,393.56,337.06Z" transform="translate(-288 -270)"/>
      <path class="cls-2" d="M403.46,341.78v-9.44h5.15v1.46h-3.18v2.32h2.93v1.45h-2.93v2.76h3.29v1.45Z" transform="translate(-288 -270)"/>
      <path class="cls-2" d="M415.11,341.94c-2.45,0-2.9-1.44-2.8-3.08h2c0,.9,0,1.66,1.12,1.66a.94.94,0,0,0,1-1.07c0-1.7-4-1.8-4-4.61,0-1.48.71-2.65,3.11-2.65,1.92,0,2.87.86,2.74,2.83h-1.92c0-.7-.12-1.42-.91-1.42a.91.91,0,0,0-1,1c0,1.8,4,1.64,4,4.6C418.4,341.64,416.61,341.94,415.11,341.94Z" transform="translate(-288 -270)"/>
      <path class="cls-2" d="M424.92,341.94c-2.44,0-2.9-1.44-2.8-3.08h2c0,.9,0,1.66,1.12,1.66a1,1,0,0,0,1-1.07c0-1.7-4-1.8-4-4.61,0-1.48.7-2.65,3.11-2.65,1.92,0,2.88.86,2.75,2.83h-1.93c0-.7-.12-1.42-.91-1.42a.92.92,0,0,0-1,1c0,1.8,4,1.64,4,4.6C428.21,341.64,426.43,341.94,424.92,341.94Z" transform="translate(-288 -270)"/>
      <path class="cls-2" d="M437.58,341.78v-9.44h3.17l1.49,6.42h0l1.56-6.42h3.08v9.44H445V334.5h0l-1.82,7.28h-1.88l-1.72-7.28h0v7.28Z" transform="translate(-288 -270)"/>
      <path class="cls-2" d="M450.34,341.78l2.6-9.44h2.61l2.56,9.44H456l-.52-2.1h-2.69l-.54,2.1Zm3.8-7.62h0l-.91,4.08h1.88Z" transform="translate(-288 -270)"/>
      <path class="cls-2" d="M466.42,332.34v1.57h-2.19v7.87h-2v-7.87h-2.19v-1.57Z" transform="translate(-288 -270)"/>
      <path class="cls-2" d="M475.5,332.34v1.57h-2.19v7.87h-2v-7.87h-2.19v-1.57Z" transform="translate(-288 -270)"/>
      <path class="cls-2" d="M479,341.78v-9.44h5.15v1.46h-3.17v2.32h2.93v1.45h-2.93v2.76h3.28v1.45Z" transform="translate(-288 -270)"/>
      <path class="cls-2" d="M490,341.78h-2v-9.44h3.64c1.35,0,2.21.86,2.21,2.47a2,2,0,0,1-1.75,2.31v0a1.68,1.68,0,0,1,1.71,1.86,13.18,13.18,0,0,0,.22,2.77h-1.93a4.37,4.37,0,0,1-.21-1.83c0-1.12.11-2.08-1.41-2.08H490Zm0-5.36h.88c.78,0,1-.78,1-1.38,0-.91-.38-1.24-1-1.24H490Z" transform="translate(-288 -270)"/>
      <path class="cls-2" d="M500.42,341.94c-2.45,0-2.9-1.44-2.79-3.08h2c0,.9,0,1.66,1.13,1.66a.94.94,0,0,0,1-1.07c0-1.7-4-1.8-4-4.61,0-1.48.71-2.65,3.11-2.65,1.92,0,2.88.86,2.74,2.83h-1.91c0-.7-.12-1.42-.93-1.42a.91.91,0,0,0-1,1c0,1.8,4,1.64,4,4.6C503.72,341.64,501.92,341.94,500.42,341.94Z" transform="translate(-288 -270)"/>
      <rect class="cls-2" x="75.1" y="55.34" width="140.64" height="0.98"/>
      <path class="cls-1" d="M376.84,312.51a3.83,3.83,0,0,1-.93,2,4.16,4.16,0,0,1-3.14,1.14c-3.72,0-5.6-2.67-5.6-7.93,0-3.12.73-8.37,5.63-8.37,3.66,0,4.05,2.47,4.18,3.29l.06.39h4l0-.44c-.37-4.74-4.4-6.43-8-6.43-7.17,0-9.72,6-9.72,11.59,0,2.61.67,11.14,9.34,11.14,3.55,0,7.88-1.65,8.37-6.29l.05-.46H376.9Z" transform="translate(-288 -270)"/>
      <path class="cls-1" d="M394.22,295.93a9.88,9.88,0,0,0-7.41,3c-1.89,2-2.85,5-2.85,8.77,0,7.35,3.56,11.4,10,11.4s10.26-4.28,10.26-11.75C404.24,300.09,400.59,295.93,394.22,295.93Zm4.24,18a5.44,5.44,0,0,1-4.39,1.79,5.3,5.3,0,0,1-4.39-1.79c-1.19-1.47-1.8-3.65-1.8-6.46,0-5.49,2.14-8.28,6.37-8.28,4.06,0,6,2.64,6,8.07C400.29,309,400.05,312,398.46,314Z" transform="translate(-288 -270)"/>
      <path class="cls-1" d="M411.85,315.15V296.49h-3.74V318.6h13.64v-3.45Z" transform="translate(-288 -270)"/>
      <path class="cls-1" d="M430.08,315.15V296.49h-3.74V318.6H440v-3.45Z" transform="translate(-288 -270)"/>
      <path class="cls-1" d="M449,315.17v-6.24h9.91v-3.31H449v-5.8h10.41v-3.33H445.25V318.6h14.41v-3.43Z" transform="translate(-288 -270)"/>
      <path class="cls-1" d="M474.29,306.45v3.27h4.86v5.59a14.62,14.62,0,0,1-4.22.57c-2.42,0-4.22-.66-5.34-1.95-1.36-1.61-1.85-4.37-1.85-6.42a9.81,9.81,0,0,1,2.17-6.56,5.7,5.7,0,0,1,4.49-1.66c2.52,0,4.08,1.06,4.4,3l.06.35h4l0-.44a5.3,5.3,0,0,0-1.53-3.65,8.79,8.79,0,0,0-6.57-2.4,11,11,0,0,0-6.16,1.58c-4.4,3-4.75,8.54-4.75,10.19a11.76,11.76,0,0,0,3.1,8.39c1.82,1.87,4.44,2.77,8,2.77a23.8,23.8,0,0,0,7.71-1.31l.28-.1v-11.2Z" transform="translate(-288 -270)"/>
      <path class="cls-1" d="M493.36,315.17v-6.24h9.9v-3.31h-9.9v-5.8h10.4v-3.33H489.58V318.6H504v-3.43Z" transform="translate(-288 -270)"/>
    </g>
  </g>
</svg>
